<svg width="592" height="695" viewBox="0 0 592 695" fill="none" xmlns="http://www.w3.org/2000/svg">
<rect width="592" height="695" rx="12" fill="#F5F8F5"/>
<path d="M119 300.824H473V516.989C473 535.221 458.22 550.001 439.988 550.001H152.012C133.78 550.001 119 535.221 119 516.989V300.824Z" fill="#1C1E22"/>
<path d="M473 300.824L119 300.824L119 178.012C119 159.78 133.78 145.001 152.012 145.001L439.988 145.001C458.22 145.001 473 159.78 473 178.012L473 300.824Z" fill="#3F30F1"/>
<path fill-rule="evenodd" clip-rule="evenodd" d="M290.4 350.235C290.93 349.235 291.982 348.554 293.194 348.554C294.406 348.554 295.458 349.235 295.989 350.235C297.071 349.903 298.297 350.164 299.154 351.021C300.011 351.877 300.273 353.102 299.94 354.184C300.941 354.714 301.623 355.765 301.623 356.977C301.623 358.188 300.941 359.239 299.94 359.769C300.273 360.851 300.011 362.076 299.154 362.932C298.297 363.789 297.071 364.05 295.989 363.718C295.458 364.718 294.406 365.399 293.194 365.399C291.982 365.399 290.93 364.718 290.4 363.718C289.317 364.05 288.091 363.789 287.234 362.932C286.377 362.076 286.116 360.851 286.448 359.769C285.448 359.239 284.766 358.188 284.766 356.977C284.766 355.765 285.448 354.714 286.448 354.184C286.116 353.102 286.377 351.877 287.234 351.021C288.091 350.164 289.317 349.903 290.4 350.235ZM297.208 354.863C297.27 354.925 297.27 355.025 297.208 355.086L292.217 360.074C292.155 360.136 292.055 360.136 291.993 360.074L289.237 357.32C289.175 357.258 289.175 357.158 289.237 357.096L290.131 356.203C290.193 356.141 290.293 356.141 290.354 356.203L291.993 357.841C292.055 357.903 292.155 357.903 292.217 357.841L296.091 353.97C296.153 353.908 296.253 353.908 296.314 353.97L297.208 354.863Z" fill="#0085FF"/>
<path d="M297.208 355.086C297.27 355.025 297.27 354.925 297.208 354.863L296.314 353.97C296.253 353.908 296.153 353.908 296.091 353.97L292.217 357.841C292.155 357.903 292.055 357.903 291.993 357.841L290.354 356.203C290.293 356.141 290.193 356.141 290.131 356.203L289.237 357.096C289.175 357.158 289.175 357.258 289.237 357.32L291.993 360.074C292.055 360.136 292.155 360.136 292.217 360.074L297.208 355.086Z" fill="white"/>
<path d="M165.844 363.149L165.165 361.16H161.337L160.658 363.149H158.594L162.291 353.176H164.204L167.915 363.149H165.844ZM161.907 359.472H164.589L163.251 355.556H163.237L161.907 359.472ZM177.422 356.173H177.429C178.917 356.173 179.843 357.072 179.843 359.164V363.156H178.005V359.61C178.005 358.512 177.676 357.826 176.805 357.826C176.037 357.826 175.406 358.492 175.406 359.719V363.156H173.574V359.61C173.574 358.512 173.211 357.826 172.353 357.826C171.53 357.826 170.906 358.492 170.906 359.719V363.149H169.068V356.29H170.906V357.202H170.926C171.468 356.53 172.216 356.173 172.977 356.173C173.89 356.173 174.603 356.523 175.015 357.284H175.035C175.598 356.564 176.441 356.173 177.422 356.173ZM184.885 363.266C182.704 363.266 181.236 361.77 181.236 359.726C181.236 357.682 182.704 356.173 184.885 356.173C187.025 356.173 188.541 357.62 188.541 359.726C188.541 361.832 187.025 363.266 184.885 363.266ZM184.885 361.626V361.619C185.879 361.619 186.668 360.837 186.668 359.726C186.668 358.601 185.9 357.826 184.885 357.826C183.815 357.826 183.095 358.642 183.095 359.726C183.095 360.796 183.835 361.626 184.885 361.626ZM193.96 356.173C194.014 356.173 194.063 356.173 194.104 356.18V358.203C193.918 358.19 193.72 358.183 193.617 358.183C192.485 358.183 191.868 358.951 191.868 359.973V363.149H190.029V356.29H191.868V357.298H191.888C192.403 356.571 193.15 356.173 193.96 356.173ZM196.292 355.329C195.661 355.329 195.153 354.829 195.153 354.205C195.153 353.594 195.661 353.086 196.292 353.086C196.916 353.086 197.437 353.594 197.437 354.205C197.437 354.829 196.916 355.329 196.292 355.329ZM195.373 363.149V356.29H197.211V363.149H195.373ZM207.507 356.173H207.513C209.002 356.173 209.928 357.072 209.928 359.164V363.156H208.09V359.61C208.09 358.512 207.76 357.826 206.889 357.826C206.121 357.826 205.49 358.492 205.49 359.719V363.156H203.659V359.61C203.659 358.512 203.295 357.826 202.438 357.826C201.614 357.826 200.99 358.492 200.99 359.719V363.149H199.152V356.29H200.99V357.202H201.011C201.553 356.53 202.3 356.173 203.062 356.173C203.974 356.173 204.687 356.523 205.099 357.284H205.12C205.682 356.564 206.526 356.173 207.507 356.173ZM211.862 363.149V353.176H215.161C218.317 353.176 220.347 355.227 220.347 358.176C220.347 361.119 218.419 363.149 215.203 363.149H211.862ZM213.81 361.393H215.079C217.02 361.393 218.289 360.001 218.289 358.176C218.289 356.303 217 354.938 215.203 354.938H213.81V361.393ZM228.352 359.664V359.658C228.352 359.877 228.338 360.193 228.304 360.316H223.495C223.715 361.132 224.366 361.626 225.244 361.633C225.965 361.64 226.506 361.318 226.884 360.858L228.077 361.969C227.494 362.71 226.493 363.266 225.114 363.266C223.104 363.266 221.582 361.853 221.582 359.712C221.582 357.627 223.036 356.173 224.984 356.173C227 356.173 228.352 357.648 228.352 359.664ZM225.045 357.792C224.298 357.792 223.715 358.197 223.502 358.992H226.527C226.342 358.265 225.841 357.792 225.045 357.792ZM233.88 356.29H235.842L233.153 363.149H231.438L228.729 356.29H230.677L232.282 360.906H232.302L233.88 356.29ZM240.17 363.266V363.272C238.887 363.272 237.591 362.779 236.541 361.702L237.721 360.241C238.476 361.098 239.429 361.489 240.211 361.489C241.165 361.489 241.645 361.05 241.645 360.433C241.645 359.699 241.117 359.438 239.909 359.02C238.393 358.492 236.884 357.792 236.884 355.912C236.884 354.307 238.297 353.08 240.088 353.059C241.322 353.045 242.475 353.512 243.449 354.314L242.31 355.803C241.48 355.124 240.76 354.822 240.136 354.822C239.45 354.822 238.942 355.192 238.935 355.823C238.928 356.447 239.47 356.708 240.616 357.154C242.337 357.826 243.702 358.279 243.702 360.199C243.702 362.381 241.802 363.266 240.17 363.266ZM247.31 363.266H247.304C246.124 363.266 245.342 362.525 245.342 360.981V357.812H244.532V356.29H245.342V354.054L247.18 353.855V356.297H249.046V357.819H247.18V360.734C247.18 361.324 247.352 361.612 247.784 361.612C247.996 361.612 248.339 361.53 248.648 361.372L249.121 362.84C248.682 363.08 248.23 363.266 247.31 363.266ZM254.876 356.29H256.714V363.149H254.876V362.312H254.849C254.314 362.95 253.587 363.266 252.811 363.266C251.33 363.266 250.287 362.511 250.287 360.426V356.29H252.126V359.946C252.126 361.201 252.496 361.612 253.353 361.612C254.156 361.612 254.876 360.947 254.876 359.616V356.29ZM263.471 352.812H265.316V363.149H263.567V362.319H263.526C263.045 362.929 262.339 363.266 261.42 363.266C259.52 363.266 258.134 361.859 258.134 359.74C258.134 357.655 259.527 356.173 261.365 356.173C262.202 356.173 262.922 356.482 263.436 357.072H263.471V352.812ZM261.763 361.626C262.771 361.626 263.574 360.879 263.574 359.754C263.574 358.656 262.819 357.833 261.77 357.833C260.782 357.833 260.007 358.581 260.007 359.754C260.007 360.865 260.734 361.626 261.763 361.626ZM268.176 355.329C267.545 355.329 267.037 354.829 267.037 354.205C267.037 353.594 267.545 353.086 268.176 353.086C268.8 353.086 269.322 353.594 269.322 354.205C269.322 354.829 268.8 355.329 268.176 355.329ZM267.257 363.149V356.29H269.095V363.149H267.257ZM274.315 363.266C272.134 363.266 270.666 361.77 270.666 359.726C270.666 357.682 272.134 356.173 274.315 356.173C276.455 356.173 277.971 357.62 277.971 359.726C277.971 361.832 276.455 363.266 274.315 363.266ZM274.315 361.626V361.619C275.31 361.619 276.098 360.837 276.098 359.726C276.098 358.601 275.33 357.826 274.315 357.826C273.245 357.826 272.525 358.642 272.525 359.726C272.525 360.796 273.266 361.626 274.315 361.626Z" fill="white"/>
<path opacity="0.5" d="M167.442 383.609V383.616C166.591 383.616 166.063 383.095 166.07 382.272H166.05C165.638 383.047 164.89 383.472 163.958 383.472C162.579 383.472 161.543 382.409 161.543 380.79C161.543 379.487 162.387 377.601 164.362 377.601C165.254 377.601 165.878 377.998 166.255 378.801H166.283L166.393 377.683H167.552L167.181 381.476C167.168 381.627 167.161 381.757 167.161 381.874C167.161 382.574 167.401 382.69 167.764 382.69C168.882 382.69 169.397 381.03 169.397 380.07C169.397 377.642 167.682 375.845 165.137 375.845C161.385 375.845 159.931 378.732 159.931 380.921C159.931 383.41 161.838 385.317 164.143 385.317C165.268 385.317 166.276 385.029 167.12 384.583L167.531 385.242C166.564 385.852 165.419 386.182 164.143 386.182C161.234 386.182 159.019 383.973 159.019 380.914C159.019 378.568 160.603 374.987 165.137 374.987C168.245 374.987 170.316 377.093 170.316 380.063C170.316 381.359 169.671 383.609 167.442 383.609ZM164.287 382.43C165.549 382.43 166.207 381.277 166.207 380.337C166.207 379.363 165.583 378.65 164.678 378.65C163.429 378.65 162.723 379.652 162.723 380.68C162.723 381.702 163.381 382.43 164.287 382.43ZM177.402 377.374L178.54 377.367V384.206H177.45V383.122H177.436C176.88 383.856 176.043 384.295 175.035 384.295C173.149 384.295 171.681 382.93 171.681 380.831C171.681 378.815 173.094 377.292 175.028 377.292C175.961 377.292 176.805 377.669 177.374 378.383H177.402V377.374ZM175.145 383.253C176.373 383.253 177.443 382.285 177.443 380.838C177.443 379.432 176.469 378.328 175.159 378.328C173.855 378.328 172.84 379.315 172.84 380.838C172.84 382.217 173.752 383.253 175.145 383.253ZM188.781 377.292C190.331 377.292 191.175 378.184 191.175 380.207V384.206H190.043V380.516C190.043 378.979 189.529 378.335 188.445 378.335C187.382 378.335 186.517 379.281 186.517 380.818V384.206H185.386V380.495C185.386 378.979 184.83 378.335 183.76 378.335C182.642 378.335 181.778 379.281 181.778 380.818V384.206H180.646V377.367H181.778V378.534H181.798C182.361 377.731 183.204 377.285 184.096 377.285C185.146 377.285 185.893 377.71 186.257 378.623H186.284C186.84 377.772 187.738 377.292 188.781 377.292ZM196.319 384.295C194.2 384.295 192.787 382.766 192.787 380.804C192.787 378.822 194.2 377.292 196.319 377.292C198.336 377.292 199.838 378.719 199.838 380.804C199.838 382.875 198.336 384.295 196.319 384.295ZM196.319 383.253C197.636 383.253 198.686 382.244 198.686 380.804C198.686 379.343 197.643 378.341 196.319 378.341C194.892 378.341 193.932 379.439 193.932 380.804C193.932 382.155 194.906 383.253 196.319 383.253ZM204.975 377.292C205.078 377.292 205.174 377.292 205.257 377.306V378.561C205.092 378.547 204.921 378.54 204.804 378.54C203.508 378.54 202.726 379.542 202.726 380.914V384.206H201.587V377.374H202.726V378.568H202.753C203.261 377.758 204.049 377.292 204.975 377.292ZM207.287 376.105C206.827 376.105 206.478 375.749 206.478 375.31C206.478 374.864 206.827 374.507 207.287 374.507C207.733 374.507 208.096 374.864 208.096 375.31C208.096 375.749 207.733 376.105 207.287 376.105ZM206.711 384.206V377.374H207.843V384.206H206.711ZM218.262 377.292C219.812 377.292 220.656 378.184 220.656 380.207V384.206H219.524V380.516C219.524 378.979 219.009 378.335 217.926 378.335C216.862 378.335 215.998 379.281 215.998 380.818V384.206H214.866V380.495C214.866 378.979 214.311 378.335 213.241 378.335C212.123 378.335 211.258 379.281 211.258 380.818V384.206H210.127V377.367H211.258V378.534H211.279C211.842 377.731 212.685 377.285 213.577 377.285C214.626 377.285 215.374 377.71 215.738 378.623H215.765C216.321 377.772 217.219 377.292 218.262 377.292ZM227.954 373.869H229.099V384.206H228.009V383.129H227.988C227.446 383.856 226.616 384.295 225.622 384.295C223.735 384.295 222.267 382.93 222.267 380.838C222.267 378.815 223.68 377.292 225.608 377.292C226.527 377.292 227.364 377.676 227.933 378.389H227.954V373.869ZM225.731 383.253C226.932 383.253 228.002 382.292 228.002 380.845C228.002 379.439 227.028 378.335 225.745 378.335C224.442 378.335 223.427 379.322 223.427 380.845C223.427 382.217 224.339 383.253 225.731 383.253ZM237.303 380.687C237.303 380.866 237.275 381.113 237.269 381.154H232.014C232.158 382.423 233.064 383.253 234.292 383.253C235.142 383.253 235.794 382.862 236.219 382.333L237.015 383.013C236.432 383.767 235.499 384.295 234.25 384.295C232.309 384.295 230.848 382.882 230.848 380.797C230.848 378.732 232.275 377.292 234.12 377.292C236.027 377.292 237.303 378.726 237.303 380.687ZM234.182 378.341C233.112 378.341 232.254 379.048 232.042 380.207H236.171C235.993 379.089 235.266 378.341 234.182 378.341ZM243.408 377.374H244.642L241.864 384.206H240.774L237.982 377.374H239.203L241.309 382.766H241.343L243.408 377.374ZM248.092 384.295V384.302C246.967 384.302 246.083 383.911 245.41 383.314L246.007 382.45C246.535 382.951 247.132 383.266 248.092 383.266C248.915 383.266 249.396 382.855 249.396 382.354C249.396 381.764 248.758 381.579 247.763 381.229C246.645 380.838 245.705 380.379 245.705 379.123C245.705 378.081 246.666 377.292 247.969 377.292C248.792 377.292 249.56 377.511 250.322 378.136L249.732 379.034C249.128 378.513 248.497 378.321 247.914 378.321C247.393 378.321 246.865 378.63 246.865 379.123C246.865 379.658 247.427 379.919 248.161 380.2C249.601 380.756 250.555 381.003 250.548 382.333C250.548 383.41 249.739 384.295 248.092 384.295ZM254.142 384.295V384.302C252.928 384.302 252.366 383.554 252.366 382.176V378.362H251.495V377.374H252.366V375.035L253.504 374.912V377.374H255.768V378.362H253.504V382.004C253.504 382.827 253.696 383.232 254.341 383.232C254.746 383.232 255.171 383.067 255.493 382.882L255.795 383.877C255.425 384.089 254.952 384.295 254.142 384.295ZM262.017 377.374H263.155V384.206H262.017V383.081H261.996C261.454 383.87 260.638 384.295 259.753 384.295C258.182 384.295 257.188 383.397 257.188 381.449V377.374H258.319V381.119C258.319 382.676 258.902 383.253 259.993 383.253C261.077 383.253 262.017 382.313 262.017 380.687V377.374ZM270.522 373.869H271.667V384.206H270.577V383.129H270.556C270.014 383.856 269.184 384.295 268.19 384.295C266.303 384.295 264.836 382.93 264.836 380.838C264.836 378.815 266.249 377.292 268.176 377.292C269.095 377.292 269.932 377.676 270.501 378.389H270.522V373.869ZM268.3 383.253C269.5 383.253 270.57 382.292 270.57 380.845C270.57 379.439 269.596 378.335 268.313 378.335C267.01 378.335 265.995 379.322 265.995 380.845C265.995 382.217 266.907 383.253 268.3 383.253ZM274.521 376.105C274.061 376.105 273.711 375.749 273.711 375.31C273.711 374.864 274.061 374.507 274.521 374.507C274.967 374.507 275.33 374.864 275.33 375.31C275.33 375.749 274.967 376.105 274.521 376.105ZM273.945 384.206V377.374H275.076V384.206H273.945ZM280.468 384.295C278.348 384.295 276.935 382.766 276.935 380.804C276.935 378.822 278.348 377.292 280.468 377.292C282.484 377.292 283.986 378.719 283.986 380.804C283.986 382.875 282.484 384.295 280.468 384.295ZM280.468 383.253C281.785 383.253 282.834 382.244 282.834 380.804C282.834 379.343 281.792 378.341 280.468 378.341C279.041 378.341 278.081 379.439 278.081 380.804C278.081 382.155 279.055 383.253 280.468 383.253Z" fill="white"/>
<path d="M162.324 420.69C160.496 420.69 159.24 419.483 159.24 417.376V412.641H160.217V417.305C160.217 418.781 161.034 419.763 162.324 419.763C163.569 419.763 164.447 418.852 164.447 417.305V412.641H165.424V417.376C165.424 419.428 164.217 420.69 162.324 420.69ZM170.105 415.088H170.11C171.29 415.088 172.075 415.812 172.075 417.382V420.625H171.164V417.634C171.164 416.35 170.626 415.922 169.825 415.922C168.793 415.922 168.107 416.663 168.107 417.892V420.619H167.196V415.154H168.107V416.092H168.124C168.579 415.445 169.298 415.088 170.105 415.088ZM173.792 420.619V412.35H174.698V420.619H173.792ZM179.011 420.69C177.315 420.69 176.185 419.467 176.185 417.897C176.185 416.312 177.315 415.088 179.011 415.088C180.624 415.088 181.826 416.229 181.826 417.897C181.826 419.555 180.624 420.69 179.011 420.69ZM179.011 419.856C180.064 419.856 180.904 419.05 180.904 417.897C180.904 416.729 180.07 415.927 179.011 415.927C177.869 415.927 177.101 416.805 177.101 417.897C177.101 418.978 177.88 419.856 179.011 419.856ZM185.596 420.69H185.601C184.026 420.69 182.896 419.555 182.896 417.897C182.896 416.24 184.026 415.082 185.634 415.082C186.452 415.082 187.302 415.417 187.84 416.054L187.209 416.602C186.869 416.196 186.331 415.916 185.678 415.916C184.569 415.916 183.818 416.729 183.818 417.886C183.818 419.055 184.58 419.851 185.678 419.851C186.32 419.851 186.891 419.577 187.225 419.198L187.856 419.763C187.395 420.29 186.578 420.69 185.596 420.69ZM191.171 418.117L191.16 418.111L190.013 419.384V420.619H189.107V412.35H190.013V418.133H190.024L192.724 415.154H193.821L191.78 417.42L193.832 420.619H192.8L191.171 418.117ZM201.871 415.154H202.831L199.736 422.842H198.771L199.747 420.411L197.437 415.154H198.408L200.186 419.313H200.214L201.871 415.154ZM206.173 420.69C204.477 420.69 203.347 419.467 203.347 417.897C203.347 416.312 204.477 415.088 206.173 415.088C207.786 415.088 208.988 416.229 208.988 417.897C208.988 419.555 207.786 420.69 206.173 420.69ZM206.173 419.856C207.227 419.856 208.066 419.05 208.066 417.897C208.066 416.729 207.232 415.927 206.173 415.927C205.032 415.927 204.263 416.805 204.263 417.897C204.263 418.978 205.043 419.856 206.173 419.856ZM214.141 415.154H215.052V420.619H214.141V419.719H214.124C213.691 420.35 213.038 420.69 212.33 420.69C211.073 420.69 210.278 419.972 210.278 418.413V415.154H211.183V418.15C211.183 419.395 211.649 419.856 212.522 419.856C213.389 419.856 214.141 419.105 214.141 417.804V415.154ZM219.442 415.088C219.524 415.088 219.601 415.088 219.666 415.099V416.103C219.535 416.092 219.398 416.087 219.304 416.087C218.267 416.087 217.642 416.888 217.642 417.985V420.619H216.731V415.154H217.642V416.109H217.664C218.07 415.461 218.701 415.088 219.442 415.088ZM161.66 433.69C160.661 433.69 159.629 433.306 158.834 432.456L159.454 431.704C160.035 432.417 160.891 432.763 161.671 432.763C162.647 432.763 163.306 432.308 163.306 431.545C163.306 430.645 162.582 430.404 161.517 430.003C160.337 429.564 159.136 429.054 159.136 427.676C159.136 426.48 160.206 425.569 161.572 425.564C162.455 425.558 163.339 425.893 164.096 426.497L163.509 427.254C162.872 426.733 162.17 426.475 161.566 426.475C160.826 426.475 160.156 426.886 160.151 427.632C160.145 428.401 160.859 428.67 161.857 429.054C163.196 429.575 164.327 429.948 164.327 431.441C164.327 432.911 163.037 433.69 161.66 433.69ZM170.022 428.154L170.933 428.148V433.619H170.061V432.752H170.05C169.605 433.339 168.936 433.69 168.129 433.69C166.62 433.69 165.446 432.598 165.446 430.919C165.446 429.306 166.576 428.088 168.124 428.088C168.87 428.088 169.545 428.39 170 428.96H170.022V428.154ZM168.217 432.856C169.199 432.856 170.055 432.083 170.055 430.925C170.055 429.8 169.276 428.916 168.228 428.916C167.185 428.916 166.373 429.707 166.373 430.925C166.373 432.028 167.103 432.856 168.217 432.856ZM176.86 428.154L177.771 428.148V433.619H176.898V432.752H176.887C176.443 433.339 175.773 433.69 174.967 433.69C173.457 433.69 172.283 432.598 172.283 430.919C172.283 429.306 173.414 428.088 174.961 428.088C175.707 428.088 176.382 428.39 176.838 428.96H176.86V428.154ZM175.054 432.856C176.037 432.856 176.893 432.083 176.893 430.925C176.893 429.8 176.113 428.916 175.065 428.916C174.023 428.916 173.211 429.707 173.211 430.925C173.211 432.028 173.94 432.856 175.054 432.856ZM181.908 433.69C180.909 433.69 179.878 433.306 179.082 432.456L179.702 431.704C180.284 432.417 181.14 432.763 181.919 432.763C182.896 432.763 183.554 432.308 183.554 431.545C183.554 430.645 182.83 430.404 181.765 430.003C180.586 429.564 179.384 429.054 179.384 427.676C179.384 426.48 180.454 425.569 181.82 425.564C182.704 425.558 183.587 425.893 184.344 426.497L183.757 427.254C183.121 426.733 182.418 426.475 181.815 426.475C181.074 426.475 180.404 426.886 180.399 427.632C180.394 428.401 181.107 428.67 182.106 429.054C183.444 429.575 184.575 429.948 184.575 431.441C184.575 432.911 183.285 433.69 181.908 433.69ZM191.922 428.088C193.47 428.088 194.6 429.306 194.6 430.925C194.6 432.598 193.426 433.696 191.917 433.696C191.143 433.696 190.496 433.367 190.057 432.812H190.035V435.842H189.129V428.154H190.04V428.96H190.062C190.518 428.39 191.182 428.088 191.922 428.088ZM191.829 432.862H191.824C192.938 432.862 193.667 432.033 193.667 430.93C193.667 429.712 192.855 428.922 191.818 428.922C190.787 428.922 190.007 429.805 190.007 430.93C190.007 432.088 190.863 432.862 191.829 432.862ZM198.48 433.69C196.784 433.69 195.654 432.467 195.654 430.897C195.654 429.312 196.784 428.088 198.48 428.088C200.093 428.088 201.295 429.229 201.295 430.897C201.295 432.555 200.093 433.69 198.48 433.69ZM198.48 432.856C199.533 432.856 200.373 432.05 200.373 430.897C200.373 429.729 199.539 428.927 198.48 428.927C197.338 428.927 196.57 429.805 196.57 430.897C196.57 431.978 197.349 432.856 198.48 432.856ZM204.187 433.69V433.696C203.215 433.696 202.765 433.098 202.765 431.995V428.944H202.069V428.154H202.765V426.283L203.676 426.184V428.154H205.487V428.944H203.676V431.858C203.676 432.516 203.83 432.84 204.346 432.84C204.67 432.84 205.01 432.708 205.268 432.56L205.509 433.356C205.213 433.526 204.834 433.69 204.187 433.69ZM211.304 430.804C211.304 430.947 211.282 431.144 211.276 431.177H207.073C207.188 432.192 207.913 432.856 208.895 432.856C209.575 432.856 210.097 432.544 210.437 432.121L211.073 432.664C210.607 433.268 209.861 433.69 208.862 433.69C207.309 433.69 206.14 432.56 206.14 430.892C206.14 429.24 207.282 428.088 208.758 428.088C210.283 428.088 211.304 429.235 211.304 430.804ZM208.807 428.927C207.951 428.927 207.265 429.493 207.095 430.42H210.398C210.256 429.526 209.674 428.927 208.807 428.927ZM215.595 428.088H215.6C216.78 428.088 217.565 428.812 217.565 430.382V433.625H216.654V430.634C216.654 429.35 216.116 428.922 215.315 428.922C214.283 428.922 213.597 429.663 213.597 430.892V433.619H212.687V428.154H213.597V429.092H213.614C214.069 428.445 214.788 428.088 215.595 428.088ZM220.747 433.69V433.696C219.776 433.696 219.326 433.098 219.326 431.995V428.944H218.629V428.154H219.326V426.283L220.237 426.184V428.154H222.048V428.944H220.237V431.858C220.237 432.516 220.391 432.84 220.907 432.84C221.23 432.84 221.571 432.708 221.829 432.56L222.07 433.356C221.774 433.526 221.395 433.69 220.747 433.69ZM223.771 427.139C223.403 427.139 223.124 426.853 223.124 426.502C223.124 426.145 223.403 425.86 223.771 425.86C224.128 425.86 224.419 426.145 224.419 426.502C224.419 426.853 224.128 427.139 223.771 427.139ZM223.31 433.619V428.154H224.216V433.619H223.31ZM230.285 428.154L231.195 428.148V433.619H230.323V432.752H230.312C229.867 433.339 229.198 433.69 228.391 433.69C226.882 433.69 225.708 432.598 225.708 430.919C225.708 429.306 226.838 428.088 228.386 428.088C229.132 428.088 229.807 428.39 230.263 428.96H230.285V428.154ZM228.479 432.856C229.461 432.856 230.317 432.083 230.317 430.925C230.317 429.8 229.538 428.916 228.49 428.916C227.448 428.916 226.635 429.707 226.635 430.925C226.635 432.028 227.365 432.856 228.479 432.856ZM232.957 433.619V425.35H233.862V433.619H232.957Z" fill="white"/>
<path opacity="0.5" d="M160.518 469.05V463.173L159.229 464.139L158.493 463.009L160.826 461.341H162.055V469.05H160.518ZM166.5 469.144C164.716 469.144 163.498 467.695 163.498 465.198C163.498 462.839 164.639 461.247 166.5 461.247C168.288 461.247 169.512 462.701 169.512 465.198C169.512 467.558 168.382 469.144 166.5 469.144ZM166.505 467.728C167.399 467.728 167.948 466.833 167.948 465.198C167.948 463.634 167.416 462.669 166.505 462.669C165.616 462.669 165.062 463.563 165.062 465.193C165.062 466.751 165.6 467.728 166.505 467.728ZM173.6 469.144C171.817 469.144 170.599 467.695 170.599 465.198C170.599 462.839 171.74 461.247 173.6 461.247C175.389 461.247 176.613 462.701 176.613 465.198C176.613 467.558 175.482 469.144 173.6 469.144ZM173.606 467.728C174.5 467.728 175.049 466.833 175.049 465.198C175.049 463.634 174.517 462.669 173.606 462.669C172.717 462.669 172.162 463.563 172.162 465.193C172.162 466.751 172.7 467.728 173.606 467.728Z" fill="white"/>
<path opacity="0.5" d="M250.902 467.667H253.722V469.056H248.68L248.663 468.052L251.067 465.516C251.687 464.858 252.098 464.326 252.098 463.706C252.098 463.107 251.67 462.658 251.072 462.658C250.523 462.658 250.068 462.921 249.728 463.492L248.63 462.707C249.08 461.889 249.898 461.247 251.187 461.247C252.477 461.247 253.64 462.103 253.64 463.541C253.64 464.413 253.355 465.099 252.362 466.137L250.902 467.64V467.667ZM257.657 469.05V467.794H254.392V466.822L257.931 461.341H259.155V466.488H260.198V467.794H259.155V469.05H257.657ZM256.049 466.565H257.767V463.788L256.049 466.565ZM261.975 469.144C261.465 469.144 261.059 468.748 261.059 468.255C261.059 467.761 261.465 467.355 261.975 467.355C262.469 467.355 262.886 467.761 262.886 468.255C262.886 468.748 262.469 469.144 261.975 469.144ZM266.459 461.247C268.072 461.247 269.252 462.493 269.252 464.342C269.252 466.888 267.556 468.88 265.131 469.33L264.681 468.101C266.08 467.711 267.046 467.058 267.496 465.939L267.485 465.933C267.062 466.169 266.557 466.296 266.047 466.296C264.763 466.296 263.688 465.396 263.688 463.815C263.688 462.295 264.9 461.247 266.459 461.247ZM265.186 463.843C265.186 464.523 265.663 465.012 266.442 465.012C266.974 465.012 267.479 464.704 267.792 464.315V464.221C267.792 463.256 267.227 462.625 266.481 462.625C265.696 462.625 265.186 463.179 265.186 463.843ZM272.775 466.872H272.758L271.984 467.744V469.05H270.514V460.781H271.984V465.774H272.006L273.965 463.563H275.688L273.751 465.752L275.721 469.05H274.081L272.775 466.872Z" fill="white"/>
<path opacity="0.5" d="M186.238 469.122C185.239 469.122 184.207 468.738 183.412 467.887L184.032 467.135C184.614 467.849 185.47 468.194 186.249 468.194C187.226 468.194 187.884 467.739 187.884 466.976C187.884 466.076 187.16 465.835 186.095 465.434C184.915 464.995 183.714 464.485 183.714 463.107C183.714 461.911 184.784 461 186.15 460.995C187.033 460.989 187.917 461.324 188.674 461.928L188.087 462.685C187.451 462.164 186.748 461.906 186.145 461.906C185.404 461.906 184.734 462.317 184.729 463.064C184.723 463.832 185.437 464.101 186.435 464.485C187.774 465.006 188.905 465.379 188.905 466.872C188.905 468.342 187.615 469.122 186.238 469.122ZM195.177 466.235C195.177 466.378 195.155 466.575 195.149 466.608H190.946C191.061 467.624 191.786 468.288 192.768 468.288C193.448 468.288 193.969 467.975 194.31 467.552L194.946 468.095C194.48 468.699 193.734 469.122 192.735 469.122C191.182 469.122 190.013 467.991 190.013 466.323C190.013 464.671 191.154 463.519 192.631 463.519C194.156 463.519 195.177 464.666 195.177 466.235ZM192.68 464.359C191.824 464.359 191.138 464.924 190.968 465.851H194.271C194.129 464.957 193.547 464.359 192.68 464.359ZM200.708 463.585L201.619 463.579V468.639C201.619 470.214 200.834 471.339 198.93 471.339C198.112 471.339 197.355 471.141 196.702 470.746L196.922 469.906C197.558 470.268 198.107 470.482 198.886 470.482C200.121 470.482 200.73 469.764 200.73 468.88V468.117H200.702C200.263 468.639 199.632 468.952 198.842 468.952C197.388 468.952 196.197 467.871 196.197 466.241C196.197 464.693 197.311 463.519 198.798 463.519C199.528 463.519 200.214 463.804 200.686 464.342H200.708V463.585ZM198.919 468.095C200.022 468.095 200.746 467.289 200.746 466.197C200.746 465.094 199.951 464.359 198.919 464.359C197.871 464.359 197.13 465.154 197.13 466.208C197.13 467.371 197.937 468.095 198.919 468.095ZM207.046 463.585H207.957V469.05H207.046V468.15H207.029C206.596 468.781 205.943 469.122 205.235 469.122C203.978 469.122 203.183 468.403 203.183 466.844V463.585H204.088V466.581C204.088 467.827 204.555 468.288 205.427 468.288C206.294 468.288 207.046 467.536 207.046 466.235V463.585ZM210.179 462.57C209.811 462.57 209.532 462.284 209.532 461.933C209.532 461.577 209.811 461.291 210.179 461.291C210.536 461.291 210.827 461.577 210.827 461.933C210.827 462.284 210.536 462.57 210.179 462.57ZM209.718 469.05V463.585H210.624V469.05H209.718ZM215.359 463.519H215.365C216.544 463.519 217.329 464.243 217.329 465.813V469.056H216.418V466.065C216.418 464.781 215.88 464.353 215.079 464.353C214.048 464.353 213.362 465.094 213.362 466.323V469.05H212.451V463.585H213.362V464.523H213.378C213.834 463.876 214.553 463.519 215.359 463.519ZM223.179 460.781H224.095V469.05H223.223V468.189H223.206C222.773 468.77 222.109 469.122 221.313 469.122C219.804 469.122 218.63 468.03 218.63 466.356C218.63 464.737 219.76 463.519 221.302 463.519C222.037 463.519 222.707 463.826 223.162 464.397H223.179V460.781ZM221.401 468.288C222.361 468.288 223.217 467.519 223.217 466.361C223.217 465.237 222.438 464.353 221.412 464.353C220.369 464.353 219.557 465.143 219.557 466.361C219.557 467.459 220.287 468.288 221.401 468.288ZM228.326 469.122C226.63 469.122 225.5 467.898 225.5 466.329C225.5 464.743 226.63 463.519 228.326 463.519C229.939 463.519 231.141 464.66 231.141 466.329C231.141 467.986 229.939 469.122 228.326 469.122ZM228.326 468.288C229.379 468.288 230.219 467.481 230.219 466.329C230.219 465.16 229.385 464.359 228.326 464.359C227.184 464.359 226.416 465.237 226.416 466.329C226.416 467.41 227.195 468.288 228.326 468.288Z" fill="white"/>
<path d="M187.577 495.149H189.047V500.636H187.643V499.972H187.615C187.237 500.461 186.682 500.73 185.98 500.73C184.454 500.73 183.346 499.605 183.346 497.909C183.346 496.241 184.46 495.056 185.931 495.056C186.578 495.056 187.143 495.303 187.549 495.774H187.577V495.149ZM186.249 499.413H186.243C187.006 499.413 187.637 498.814 187.637 497.915C187.637 497.037 187.05 496.378 186.254 496.378C185.464 496.378 184.844 496.976 184.844 497.915C184.844 498.803 185.426 499.413 186.249 499.413ZM197.163 495.056H197.169C198.359 495.056 199.1 495.774 199.1 497.448V500.642H197.63V497.805C197.63 496.927 197.366 496.378 196.669 496.378C196.055 496.378 195.55 496.91 195.55 497.893V500.642H194.085V497.805C194.085 496.927 193.794 496.378 193.108 496.378C192.449 496.378 191.95 496.91 191.95 497.893V500.636H190.48V495.149H191.95V495.879H191.967C192.4 495.341 192.998 495.056 193.607 495.056C194.337 495.056 194.908 495.335 195.237 495.945H195.254C195.703 495.368 196.378 495.056 197.163 495.056ZM203.133 500.73C201.388 500.73 200.214 499.533 200.214 497.898C200.214 496.263 201.388 495.056 203.133 495.056C204.845 495.056 206.058 496.213 206.058 497.898C206.058 499.583 204.845 500.73 203.133 500.73ZM203.133 499.418V499.413C203.929 499.413 204.56 498.787 204.56 497.898C204.56 496.998 203.945 496.378 203.133 496.378C202.277 496.378 201.701 497.031 201.701 497.898C201.701 498.754 202.294 499.418 203.133 499.418ZM210.393 495.056C210.437 495.056 210.475 495.056 210.508 495.061V496.68C210.36 496.669 210.201 496.663 210.119 496.663C209.213 496.663 208.719 497.278 208.719 498.096V500.636H207.249V495.149H208.719V495.956H208.736C209.148 495.374 209.746 495.056 210.393 495.056ZM212.259 494.381C211.754 494.381 211.348 493.98 211.348 493.481C211.348 492.992 211.754 492.586 212.259 492.586C212.758 492.586 213.175 492.992 213.175 493.481C213.175 493.98 212.758 494.381 212.259 494.381ZM211.524 500.636V495.149H212.994V500.636H211.524ZM221.231 495.056H221.236C222.427 495.056 223.168 495.774 223.168 497.448V500.642H221.697V497.805C221.697 496.927 221.434 496.378 220.737 496.378C220.122 496.378 219.617 496.91 219.617 497.893V500.642H218.152V497.805C218.152 496.927 217.861 496.378 217.176 496.378C216.517 496.378 216.018 496.91 216.018 497.893V500.636H214.547V495.149H216.018V495.879H216.034C216.468 495.341 217.066 495.056 217.675 495.056C218.405 495.056 218.975 495.335 219.305 495.945H219.321C219.771 495.368 220.446 495.056 221.231 495.056ZM228.545 492.367H230.021V500.636H228.622V499.972H228.589C228.205 500.461 227.64 500.73 226.905 500.73C225.385 500.73 224.276 499.605 224.276 497.909C224.276 496.241 225.39 495.056 226.861 495.056C227.53 495.056 228.106 495.303 228.518 495.774H228.545V492.367ZM227.179 499.418C227.986 499.418 228.628 498.82 228.628 497.92C228.628 497.042 228.024 496.384 227.184 496.384C226.394 496.384 225.774 496.982 225.774 497.92C225.774 498.809 226.356 499.418 227.179 499.418ZM236.623 497.849V497.843C236.623 498.019 236.612 498.271 236.584 498.37H232.738C232.913 499.023 233.435 499.418 234.137 499.424C234.713 499.429 235.147 499.171 235.448 498.803L236.403 499.692C235.937 500.285 235.136 500.73 234.033 500.73C232.425 500.73 231.207 499.599 231.207 497.887C231.207 496.219 232.37 495.056 233.928 495.056C235.542 495.056 236.623 496.235 236.623 497.849ZM233.978 496.351C233.38 496.351 232.913 496.674 232.743 497.311H235.163C235.015 496.729 234.614 496.351 233.978 496.351ZM241.045 495.149H242.615L240.464 500.636H239.092L236.924 495.149H238.483L239.767 498.842H239.783L241.045 495.149ZM245.26 500.73H245.254C244.376 500.73 243.63 500.45 243.032 499.928L243.745 498.913C244.195 499.33 244.667 499.555 245.265 499.555C245.693 499.555 245.94 499.363 245.94 499.1C245.94 498.847 245.655 498.721 244.942 498.491C244.036 498.194 243.251 497.766 243.251 496.707C243.251 495.714 244.107 495.061 245.227 495.061C245.99 495.061 246.61 495.27 247.235 495.752L246.522 496.828C246.099 496.427 245.616 496.246 245.216 496.246C244.974 496.246 244.678 496.373 244.678 496.658C244.678 496.888 244.963 497.048 245.501 497.251C246.692 497.69 247.389 497.947 247.389 499.028C247.389 500 246.697 500.73 245.26 500.73ZM250.231 500.73H250.226C249.282 500.73 248.656 500.137 248.656 498.902V496.367H248.009V495.149H248.656V493.36L250.127 493.201V495.154H251.62V496.373H250.127V498.705C250.127 499.177 250.264 499.407 250.61 499.407C250.78 499.407 251.054 499.341 251.301 499.215L251.68 500.389C251.329 500.581 250.967 500.73 250.231 500.73ZM256.284 495.149H257.754V500.636H256.284V499.967H256.262C255.834 500.477 255.252 500.73 254.632 500.73C253.447 500.73 252.613 500.126 252.613 498.458V495.149H254.083V498.074C254.083 499.078 254.38 499.407 255.066 499.407C255.708 499.407 256.284 498.875 256.284 497.81V495.149ZM263.16 492.367H264.636V500.636H263.236V499.972H263.203C262.819 500.461 262.254 500.73 261.519 500.73C259.999 500.73 258.89 499.605 258.89 497.909C258.89 496.241 260.004 495.056 261.475 495.056C262.144 495.056 262.721 495.303 263.132 495.774H263.16V492.367ZM261.793 499.418C262.6 499.418 263.242 498.82 263.242 497.92C263.242 497.042 262.638 496.384 261.799 496.384C261.008 496.384 260.388 496.982 260.388 497.92C260.388 498.809 260.97 499.418 261.793 499.418ZM266.924 494.381C266.419 494.381 266.013 493.98 266.013 493.481C266.013 492.992 266.419 492.586 266.924 492.586C267.423 492.586 267.84 492.992 267.84 493.481C267.84 493.98 267.423 494.381 266.924 494.381ZM266.189 500.636V495.149H267.659V500.636H266.189ZM271.835 500.73C270.09 500.73 268.916 499.533 268.916 497.898C268.916 496.263 270.09 495.056 271.835 495.056C273.547 495.056 274.76 496.213 274.76 497.898C274.76 499.583 273.547 500.73 271.835 500.73ZM271.835 499.418V499.413C272.631 499.413 273.262 498.787 273.262 497.898C273.262 496.998 272.647 496.378 271.835 496.378C270.979 496.378 270.403 497.031 270.403 497.898C270.403 498.754 270.995 499.418 271.835 499.418ZM276.532 500.73C276.022 500.73 275.616 500.334 275.616 499.841C275.616 499.347 276.022 498.941 276.532 498.941C277.026 498.941 277.443 499.347 277.443 499.841C277.443 500.334 277.026 500.73 276.532 500.73ZM282.716 495.149H284.187V500.636H282.782V499.972H282.755C282.376 500.461 281.822 500.73 281.12 500.73C279.594 500.73 278.486 499.605 278.486 497.909C278.486 496.241 279.6 495.056 281.07 495.056C281.718 495.056 282.283 495.303 282.689 495.774H282.716V495.149ZM281.388 499.413H281.383C282.146 499.413 282.777 498.814 282.777 497.915C282.777 497.037 282.19 496.378 281.394 496.378C280.604 496.378 279.984 496.976 279.984 497.915C279.984 498.803 280.565 499.413 281.388 499.413ZM286.426 494.381C285.921 494.381 285.515 493.98 285.515 493.481C285.515 492.992 285.921 492.586 286.426 492.586C286.925 492.586 287.342 492.992 287.342 493.481C287.342 493.98 286.925 494.381 286.426 494.381ZM285.691 500.636V495.149H287.161V500.636H285.691Z" fill="white"/>
<path opacity="0.5" d="M285.273 469.122C284.274 469.122 283.243 468.738 282.447 467.887L283.067 467.135C283.649 467.849 284.505 468.194 285.284 468.194C286.261 468.194 286.919 467.739 286.919 466.976C286.919 466.076 286.195 465.835 285.13 465.434C283.951 464.995 282.749 464.485 282.749 463.107C282.749 461.911 283.819 461 285.185 460.995C286.069 460.989 286.952 461.324 287.709 461.928L287.122 462.685C286.486 462.164 285.783 461.906 285.18 461.906C284.439 461.906 283.769 462.317 283.764 463.064C283.758 463.832 284.472 464.101 285.471 464.485C286.809 465.006 287.94 465.379 287.94 466.872C287.94 468.342 286.65 469.122 285.273 469.122ZM294.212 466.235C294.212 466.378 294.19 466.575 294.184 466.608H289.981C290.096 467.624 290.821 468.288 291.803 468.288C292.483 468.288 293.005 467.975 293.345 467.552L293.981 468.095C293.515 468.699 292.769 469.122 291.77 469.122C290.217 469.122 289.048 467.991 289.048 466.323C289.048 464.671 290.19 463.519 291.666 463.519C293.191 463.519 294.212 464.666 294.212 466.235ZM291.715 464.359C290.859 464.359 290.173 464.924 290.003 465.851H293.306C293.164 464.957 292.582 464.359 291.715 464.359ZM299.743 463.585L300.654 463.579V468.639C300.654 470.214 299.869 471.339 297.965 471.339C297.148 471.339 296.39 471.141 295.737 470.746L295.957 469.906C296.593 470.268 297.142 470.482 297.921 470.482C299.156 470.482 299.765 469.764 299.765 468.88V468.117H299.738C299.299 468.639 298.668 468.952 297.877 468.952C296.423 468.952 295.233 467.871 295.233 466.241C295.233 464.693 296.346 463.519 297.834 463.519C298.563 463.519 299.249 463.804 299.721 464.342H299.743V463.585ZM297.954 468.095C299.057 468.095 299.782 467.289 299.782 466.197C299.782 465.094 298.986 464.359 297.954 464.359C296.906 464.359 296.165 465.154 296.165 466.208C296.165 467.371 296.972 468.095 297.954 468.095ZM306.081 463.585H306.992V469.05H306.081V468.15H306.065C305.631 468.781 304.978 469.122 304.27 469.122C303.014 469.122 302.218 468.403 302.218 466.844V463.585H303.123V466.581C303.123 467.827 303.59 468.288 304.462 468.288C305.329 468.288 306.081 467.536 306.081 466.235V463.585ZM309.214 462.57C308.847 462.57 308.567 462.284 308.567 461.933C308.567 461.577 308.847 461.291 309.214 461.291C309.571 461.291 309.862 461.577 309.862 461.933C309.862 462.284 309.571 462.57 309.214 462.57ZM308.753 469.05V463.585H309.659V469.05H308.753ZM314.394 463.519H314.4C315.58 463.519 316.364 464.243 316.364 465.813V469.056H315.453V466.065C315.453 464.781 314.916 464.353 314.114 464.353C313.083 464.353 312.397 465.094 312.397 466.323V469.05H311.486V463.585H312.397V464.523H312.413C312.869 463.876 313.588 463.519 314.394 463.519ZM322.214 460.781H323.13V469.05H322.258V468.189H322.241C321.808 468.77 321.144 469.122 320.348 469.122C318.839 469.122 317.665 468.03 317.665 466.356C317.665 464.737 318.795 463.519 320.337 463.519C321.072 463.519 321.742 463.826 322.197 464.397H322.214V460.781ZM320.436 468.288C321.396 468.288 322.252 467.519 322.252 466.361C322.252 465.237 321.473 464.353 320.447 464.353C319.404 464.353 318.592 465.143 318.592 466.361C318.592 467.459 319.322 468.288 320.436 468.288ZM327.361 469.122C325.665 469.122 324.535 467.898 324.535 466.329C324.535 464.743 325.665 463.519 327.361 463.519C328.974 463.519 330.176 464.66 330.176 466.329C330.176 467.986 328.974 469.122 327.361 469.122ZM327.361 468.288C328.415 468.288 329.254 467.481 329.254 466.329C329.254 465.16 328.42 464.359 327.361 464.359C326.22 464.359 325.451 465.237 325.451 466.329C325.451 467.41 326.231 468.288 327.361 468.288ZM334.286 463.519C334.368 463.519 334.445 463.519 334.511 463.53V464.534C334.379 464.523 334.242 464.518 334.149 464.518C333.112 464.518 332.486 465.319 332.486 466.416V469.05H331.575V463.585H332.486V464.54H332.508C332.914 463.892 333.545 463.519 334.286 463.519ZM340.229 466.235C340.229 466.378 340.207 466.575 340.201 466.608H335.998C336.113 467.624 336.838 468.288 337.82 468.288C338.5 468.288 339.022 467.975 339.362 467.552L339.998 468.095C339.532 468.699 338.786 469.122 337.787 469.122C336.234 469.122 335.065 467.991 335.065 466.323C335.065 464.671 336.207 463.519 337.683 463.519C339.208 463.519 340.229 464.666 340.229 466.235ZM337.732 464.359C336.876 464.359 336.19 464.924 336.02 465.851H339.323C339.181 464.957 338.599 464.359 337.732 464.359ZM343.274 469.122V469.127C342.374 469.127 341.666 468.814 341.129 468.337L341.606 467.646C342.029 468.046 342.506 468.299 343.274 468.299C343.933 468.299 344.317 467.969 344.317 467.569C344.317 467.097 343.807 466.949 343.011 466.669C342.116 466.356 341.365 465.988 341.365 464.984C341.365 464.15 342.133 463.519 343.176 463.519C343.834 463.519 344.449 463.695 345.058 464.194L344.586 464.913C344.103 464.496 343.598 464.342 343.132 464.342C342.715 464.342 342.292 464.589 342.292 464.984C342.292 465.412 342.742 465.621 343.329 465.846C344.481 466.29 345.244 466.488 345.239 467.552C345.239 468.414 344.591 469.122 343.274 469.122Z" fill="white"/>
<mask id="mask0_711_14937" style="mask-type:alpha" maskUnits="userSpaceOnUse" x="149" y="480" width="34" height="33">
<rect width="22.9106" height="22.9113" transform="matrix(0.690721 -0.723122 0.723588 0.690232 149.91 496.655)" fill="#D9D9D9"/>
</mask>
<g mask="url(#mask0_711_14937)">
<path d="M168.904 500.264L166.267 503.025C165.355 503.98 164.241 504.473 162.924 504.503C161.608 504.534 160.472 504.093 159.516 503.182C158.561 502.27 158.068 501.157 158.037 499.841C158.006 498.526 158.447 497.391 159.359 496.436L161.997 493.675L163.378 494.992L160.741 497.754C160.191 498.329 159.926 499.01 159.944 499.797C159.962 500.584 160.259 501.252 160.835 501.801C161.411 502.35 162.092 502.616 162.88 502.597C163.667 502.579 164.336 502.282 164.885 501.707L167.523 498.946L168.904 500.264ZM164.163 499.699L162.782 498.381L168.057 492.859L169.438 494.177L164.163 499.699ZM170.223 498.883L168.842 497.565L171.479 494.804C172.029 494.229 172.294 493.548 172.276 492.761C172.258 491.974 171.961 491.306 171.385 490.756C170.809 490.207 170.128 489.942 169.34 489.96C168.553 489.979 167.884 490.275 167.335 490.851L164.697 493.612L163.316 492.294L165.953 489.533C166.865 488.578 167.979 488.085 169.296 488.054C170.612 488.024 171.748 488.464 172.704 489.376C173.659 490.287 174.152 491.401 174.183 492.716C174.214 494.032 173.773 495.167 172.861 496.122L170.223 498.883Z" fill="#3F30F1"/>
</g>
<path d="M240.509 283.275C240.509 307.306 221.015 326.791 196.962 326.791C172.909 326.791 153.414 307.306 153.414 283.275C153.414 259.244 172.909 239.759 196.962 239.759C221.015 239.759 240.509 259.244 240.509 283.275Z" fill="white" stroke="white" stroke-width="7.02381"/>
<rect x="322.688" y="323.284" width="122.917" height="37.9029" rx="18.9515" fill="white"/>
<path d="M367.233 347.852V347.859C365.95 347.859 364.654 347.365 363.604 346.289L364.784 344.828C365.538 345.685 366.492 346.076 367.274 346.076C368.227 346.076 368.707 345.637 368.707 345.02C368.707 344.286 368.179 344.025 366.972 343.607C365.456 343.078 363.947 342.379 363.947 340.499C363.947 338.894 365.36 337.667 367.15 337.646C368.385 337.632 369.537 338.099 370.511 338.901L369.373 340.39C368.543 339.711 367.822 339.409 367.198 339.409C366.512 339.409 366.005 339.779 365.998 340.41C365.991 341.034 366.533 341.295 367.678 341.741C369.4 342.413 370.765 342.866 370.765 344.786C370.765 346.968 368.865 347.852 367.233 347.852ZM378.667 344.251V344.245C378.667 344.464 378.653 344.78 378.619 344.903H373.811C374.03 345.719 374.682 346.213 375.56 346.22C376.28 346.227 376.822 345.904 377.199 345.445L378.393 346.556C377.809 347.297 376.808 347.852 375.429 347.852C373.42 347.852 371.897 346.439 371.897 344.299C371.897 342.214 373.351 340.76 375.299 340.76C377.316 340.76 378.667 342.235 378.667 344.251ZM375.361 342.379C374.613 342.379 374.03 342.784 373.817 343.579H376.842C376.657 342.852 376.156 342.379 375.361 342.379ZM384.998 340.877H386.836V346.947C386.836 349.087 385.89 350.63 383.256 350.63C382.186 350.63 381.246 350.397 380.443 349.938L380.869 348.387C381.541 348.758 382.22 349.025 383.098 349.025C384.381 349.025 385.039 348.339 385.039 347.503V346.817H385.005C384.518 347.331 383.846 347.619 383.009 347.619C381.116 347.619 379.737 346.241 379.737 344.245C379.737 342.228 381.074 340.76 382.913 340.76C383.681 340.76 384.422 341.034 384.964 341.59H384.998V340.877ZM383.345 345.946C384.36 345.946 385.08 345.205 385.08 344.169C385.08 343.12 384.319 342.434 383.345 342.434C382.323 342.434 381.603 343.147 381.603 344.183C381.603 345.267 382.364 345.946 383.345 345.946ZM393.105 340.877H394.944V347.736H393.105V346.899H393.078C392.543 347.537 391.816 347.852 391.041 347.852C389.559 347.852 388.517 347.098 388.517 345.013V340.877H390.355V344.533C390.355 345.788 390.725 346.199 391.583 346.199C392.385 346.199 393.105 345.534 393.105 344.203V340.877ZM397.749 339.916C397.118 339.916 396.611 339.416 396.611 338.791C396.611 338.181 397.118 337.673 397.749 337.673C398.373 337.673 398.895 338.181 398.895 338.791C398.895 339.416 398.373 339.916 397.749 339.916ZM396.83 347.736V340.877H398.668V347.736H396.83ZM404.553 340.76C404.608 340.76 404.656 340.76 404.698 340.767V342.79C404.512 342.777 404.313 342.77 404.21 342.77C403.079 342.77 402.461 343.538 402.461 344.56V347.736H400.623V340.877H402.461V341.885H402.482C402.996 341.158 403.744 340.76 404.553 340.76Z" fill="#162428"/>
<path d="M185.14 271.439L172.402 271.439L172.402 307.858L208.797 307.858L208.797 295.111L185.14 295.111L185.14 271.439Z" fill="#3F30F1"/>
<path d="M208.797 295.111L221.535 295.112L221.535 258.692L185.14 258.692L185.14 271.439L208.797 271.439L208.797 295.111Z" fill="#3F30F1"/>
</svg>
