<svg width="592" height="695" viewBox="0 0 592 695" fill="none" xmlns="http://www.w3.org/2000/svg">
<rect width="592" height="695" rx="12" fill="#F5F8F5"/>
<line x1="412.469" y1="236.641" x2="466.107" y2="236.641" stroke="#808197" stroke-width="0.558733" stroke-dasharray="3.91 3.91"/>
<line x1="179.477" y1="468.516" x2="125.838" y2="468.516" stroke="#808197" stroke-width="0.558733" stroke-dasharray="3.91 3.91"/>
<line x1="411.631" y1="407.894" x2="411.631" y2="502.319" stroke="#808197" stroke-width="0.558733" stroke-dasharray="6.15 6.15"/>
<line x1="179.756" y1="288.884" x2="179.756" y2="194.458" stroke="#808197" stroke-width="0.558733" stroke-dasharray="6.15 6.15"/>
<line x1="351.846" y1="407.894" x2="351.846" y2="502.319" stroke="#808197" stroke-width="0.558733" stroke-dasharray="6.15 6.15"/>
<line x1="239.541" y1="287.765" x2="239.541" y2="193.339" stroke="#808197" stroke-width="0.558733" stroke-dasharray="6.15 6.15"/>
<line x1="412.469" y1="408.174" x2="466.107" y2="408.174" stroke="#808197" stroke-width="0.558733" stroke-dasharray="3.91 3.91"/>
<line x1="179.477" y1="296.985" x2="125.838" y2="296.985" stroke="#808197" stroke-width="0.558733" stroke-dasharray="3.91 3.91"/>
<path d="M351.291 408.522L351.291 468.582L179.689 468.582L179.689 296.98L239.75 296.98M351.291 408.522L239.75 408.521L239.75 296.98M351.291 408.522L351.291 296.981L239.75 296.98M351.291 408.522L411.352 408.522L411.352 236.92L239.75 236.92L239.75 296.98" stroke="#3F30F1" stroke-width="1.6762"/>
<mask id="mask0_711_14888" style="mask-type:alpha" maskUnits="userSpaceOnUse" x="179" y="236" width="233" height="233">
<path d="M351.291 408.52L351.291 468.58L179.689 468.58L179.689 296.978L239.75 296.978L239.75 408.52L351.291 408.52Z" fill="#D9D9D9"/>
<path d="M239.75 296.978L239.75 236.918L411.352 236.918L411.352 408.52L351.291 408.52L351.291 296.979L239.75 296.978Z" fill="#D9D9D9"/>
</mask>
<g mask="url(#mask0_711_14888)">
<line x1="459.205" y1="260.579" x2="131.788" y2="-66.8384" stroke="#3F30F1" stroke-width="0.558733"/>
<line x1="459.205" y1="269.52" x2="131.788" y2="-57.897" stroke="#3F30F1" stroke-width="0.558733"/>
<line x1="459.205" y1="278.459" x2="131.788" y2="-48.9585" stroke="#3F30F1" stroke-width="0.558733"/>
<line x1="459.205" y1="287.4" x2="131.788" y2="-40.0171" stroke="#3F30F1" stroke-width="0.558733"/>
<line x1="459.205" y1="296.339" x2="131.788" y2="-31.0787" stroke="#3F30F1" stroke-width="0.558733"/>
<line x1="459.205" y1="305.28" x2="131.788" y2="-22.1372" stroke="#3F30F1" stroke-width="0.558733"/>
<line x1="459.205" y1="314.219" x2="131.788" y2="-13.1988" stroke="#3F30F1" stroke-width="0.558733"/>
<line x1="459.205" y1="323.157" x2="131.788" y2="-4.26029" stroke="#3F30F1" stroke-width="0.558733"/>
<line x1="459.205" y1="332.098" x2="131.788" y2="4.68111" stroke="#3F30F1" stroke-width="0.558733"/>
<line x1="459.205" y1="341.037" x2="131.788" y2="13.6196" stroke="#3F30F1" stroke-width="0.558733"/>
<line x1="459.205" y1="349.978" x2="131.788" y2="22.561" stroke="#3F30F1" stroke-width="0.558733"/>
<line x1="459.205" y1="358.917" x2="131.788" y2="31.4995" stroke="#3F30F1" stroke-width="0.558733"/>
<line x1="459.205" y1="367.858" x2="131.788" y2="40.4409" stroke="#3F30F1" stroke-width="0.558733"/>
<line x1="459.205" y1="376.797" x2="131.788" y2="49.3794" stroke="#3F30F1" stroke-width="0.558733"/>
<line x1="459.205" y1="385.735" x2="131.788" y2="58.3178" stroke="#3F30F1" stroke-width="0.558733"/>
<line x1="459.205" y1="394.677" x2="131.788" y2="67.2592" stroke="#3F30F1" stroke-width="0.558733"/>
<line x1="459.205" y1="403.615" x2="131.788" y2="76.1977" stroke="#3F30F1" stroke-width="0.558733"/>
<line x1="459.205" y1="412.556" x2="131.788" y2="85.1391" stroke="#3F30F1" stroke-width="0.558733"/>
<line x1="459.205" y1="421.495" x2="131.788" y2="94.0776" stroke="#3F30F1" stroke-width="0.558733"/>
<line x1="459.205" y1="430.436" x2="131.788" y2="103.019" stroke="#3F30F1" stroke-width="0.558733"/>
<line x1="459.205" y1="439.375" x2="131.788" y2="111.957" stroke="#3F30F1" stroke-width="0.558733"/>
<line x1="459.205" y1="448.313" x2="131.788" y2="120.896" stroke="#3F30F1" stroke-width="0.558733"/>
<line x1="459.205" y1="457.255" x2="131.788" y2="129.837" stroke="#3F30F1" stroke-width="0.558733"/>
<line x1="459.205" y1="466.193" x2="131.788" y2="138.776" stroke="#3F30F1" stroke-width="0.558733"/>
<line x1="459.205" y1="475.135" x2="131.788" y2="147.717" stroke="#3F30F1" stroke-width="0.558733"/>
<line x1="459.205" y1="484.073" x2="131.788" y2="156.656" stroke="#3F30F1" stroke-width="0.558733"/>
<line x1="459.205" y1="493.012" x2="131.788" y2="165.594" stroke="#3F30F1" stroke-width="0.558733"/>
<line x1="459.205" y1="501.953" x2="131.788" y2="174.536" stroke="#3F30F1" stroke-width="0.558733"/>
<line x1="459.205" y1="510.891" x2="131.788" y2="183.474" stroke="#3F30F1" stroke-width="0.558733"/>
<line x1="459.205" y1="519.833" x2="131.788" y2="192.415" stroke="#3F30F1" stroke-width="0.558733"/>
<line x1="459.205" y1="528.771" x2="131.788" y2="201.354" stroke="#3F30F1" stroke-width="0.558733"/>
<line x1="459.205" y1="537.713" x2="131.788" y2="210.295" stroke="#3F30F1" stroke-width="0.558733"/>
<line x1="459.205" y1="546.651" x2="131.788" y2="219.234" stroke="#3F30F1" stroke-width="0.558733"/>
<line x1="459.205" y1="555.59" x2="131.788" y2="228.172" stroke="#3F30F1" stroke-width="0.558733"/>
<line x1="459.205" y1="564.531" x2="131.788" y2="237.114" stroke="#3F30F1" stroke-width="0.558733"/>
<line x1="459.205" y1="573.47" x2="131.788" y2="246.052" stroke="#3F30F1" stroke-width="0.558733"/>
<line x1="459.205" y1="582.411" x2="131.788" y2="254.994" stroke="#3F30F1" stroke-width="0.558733"/>
<line x1="459.205" y1="591.349" x2="131.788" y2="263.932" stroke="#3F30F1" stroke-width="0.558733"/>
<line x1="459.205" y1="600.291" x2="131.788" y2="272.874" stroke="#3F30F1" stroke-width="0.558733"/>
<line x1="459.205" y1="609.229" x2="131.788" y2="281.812" stroke="#3F30F1" stroke-width="0.558733"/>
<line x1="459.205" y1="618.168" x2="131.788" y2="290.75" stroke="#3F30F1" stroke-width="0.558733"/>
<line x1="459.205" y1="627.109" x2="131.788" y2="299.692" stroke="#3F30F1" stroke-width="0.558733"/>
<line x1="459.205" y1="636.048" x2="131.788" y2="308.63" stroke="#3F30F1" stroke-width="0.558733"/>
<line x1="459.205" y1="644.989" x2="131.788" y2="317.572" stroke="#3F30F1" stroke-width="0.558733"/>
<line x1="459.205" y1="653.928" x2="131.788" y2="326.51" stroke="#3F30F1" stroke-width="0.558733"/>
<line x1="459.205" y1="662.869" x2="131.788" y2="335.452" stroke="#3F30F1" stroke-width="0.558733"/>
<line x1="459.205" y1="671.807" x2="131.788" y2="344.39" stroke="#3F30F1" stroke-width="0.558733"/>
<line x1="459.205" y1="680.746" x2="131.788" y2="353.329" stroke="#3F30F1" stroke-width="0.558733"/>
<line x1="459.205" y1="689.687" x2="131.788" y2="362.27" stroke="#3F30F1" stroke-width="0.558733"/>
<line x1="459.205" y1="698.626" x2="131.788" y2="371.208" stroke="#3F30F1" stroke-width="0.558733"/>
<line x1="459.205" y1="707.567" x2="131.788" y2="380.15" stroke="#3F30F1" stroke-width="0.558733"/>
<line x1="459.205" y1="716.506" x2="131.788" y2="389.088" stroke="#3F30F1" stroke-width="0.558733"/>
<line x1="459.205" y1="725.447" x2="131.788" y2="398.03" stroke="#3F30F1" stroke-width="0.558733"/>
<line x1="459.205" y1="734.386" x2="131.788" y2="406.968" stroke="#3F30F1" stroke-width="0.558733"/>
<line x1="459.205" y1="743.324" x2="131.788" y2="415.907" stroke="#3F30F1" stroke-width="0.558733"/>
<line x1="459.205" y1="752.265" x2="131.788" y2="424.848" stroke="#3F30F1" stroke-width="0.558733"/>
<line x1="459.205" y1="761.204" x2="131.788" y2="433.787" stroke="#3F30F1" stroke-width="0.558733"/>
<line x1="459.205" y1="770.145" x2="131.788" y2="442.728" stroke="#3F30F1" stroke-width="0.558733"/>
<line x1="459.205" y1="779.084" x2="131.788" y2="451.666" stroke="#3F30F1" stroke-width="0.558733"/>
<line x1="459.205" y1="788.022" x2="131.788" y2="460.605" stroke="#3F30F1" stroke-width="0.558733"/>
</g>
<rect x="354.359" y="292.792" width="8.38099" height="8.38099" transform="rotate(90 354.359 292.792)" fill="#F2F7FF" stroke="#3F30F1" stroke-width="1.6762"/>
<rect x="244.289" y="292.792" width="8.38099" height="8.38099" transform="rotate(90 244.289 292.792)" fill="#F2F7FF" stroke="#3F30F1" stroke-width="1.6762"/>
<rect x="183.945" y="292.792" width="8.38099" height="8.38099" transform="rotate(90 183.945 292.792)" fill="#F2F7FF" stroke="#3F30F1" stroke-width="1.6762"/>
<rect x="183.945" y="464.322" width="8.38099" height="8.38099" transform="rotate(90 183.945 464.322)" fill="#F2F7FF" stroke="#3F30F1" stroke-width="1.6762"/>
<rect x="244.289" y="232.449" width="8.38099" height="8.38099" transform="rotate(90 244.289 232.449)" fill="#F2F7FF" stroke="#3F30F1" stroke-width="1.6762"/>
<rect x="415.82" y="232.449" width="8.38099" height="8.38099" transform="rotate(90 415.82 232.449)" fill="#F2F7FF" stroke="#3F30F1" stroke-width="1.6762"/>
<rect x="415.82" y="403.979" width="8.38099" height="8.38099" transform="rotate(90 415.82 403.979)" fill="#F2F7FF" stroke="#3F30F1" stroke-width="1.6762"/>
<rect x="354.359" y="403.979" width="8.38099" height="8.38099" transform="rotate(90 354.359 403.979)" fill="#F2F7FF" stroke="#3F30F1" stroke-width="1.6762"/>
<rect x="244.289" y="403.979" width="8.38099" height="8.38099" transform="rotate(90 244.289 403.979)" fill="#F2F7FF" stroke="#3F30F1" stroke-width="1.6762"/>
<rect x="354.359" y="464.322" width="8.38099" height="8.38099" transform="rotate(90 354.359 464.322)" fill="#F2F7FF" stroke="#3F30F1" stroke-width="1.6762"/>
<rect x="465.826" y="236.643" width="171.531" height="12.8509" transform="rotate(90 465.826 236.643)" fill="#808197" stroke="#808197" stroke-width="0.558733"/>
<rect x="411.631" y="502.041" width="59.7844" height="12.8508" transform="rotate(-180 411.631 502.041)" fill="#808197" stroke="#808197" stroke-width="0.558733"/>
<rect x="179.756" y="193.62" width="59.7844" height="12.8508" fill="#808197" stroke="#808197" stroke-width="0.558733"/>
<rect x="126.119" y="468.517" width="171.531" height="12.8509" transform="rotate(-90 126.119 468.517)" fill="#808197" stroke="#808197" stroke-width="0.558733"/>
<path d="M474.316 238.865C474.169 239.553 473.683 239.946 473.013 239.946C472.147 239.946 471.649 239.166 471.649 238.305C471.649 237.697 471.901 237.039 472.454 236.597L472.921 237.089C472.534 237.384 472.35 237.875 472.35 238.312C472.35 238.773 472.565 239.172 472.964 239.172C473.517 239.172 473.739 238.834 473.739 238.158L473.739 237.949L474.273 237.949L474.273 237.955L474.279 237.949L475.318 238.754L475.318 236.996L476.025 236.996L476.025 239.762L475.466 239.762L475.459 239.774L474.316 238.865ZM476.074 242.272C476.074 243.415 475.085 244.115 473.874 244.115C472.663 244.115 471.673 243.415 471.673 242.272C471.673 241.135 472.663 240.434 473.874 240.434C475.085 240.434 476.074 241.135 476.074 242.272ZM472.423 242.272C472.423 242.935 473.081 243.341 473.892 243.341C474.703 243.341 475.361 242.935 475.361 242.272C475.361 241.614 474.703 241.208 473.892 241.208C473.081 241.208 472.423 241.614 472.423 242.272ZM476.074 246.581C476.074 247.724 475.085 248.425 473.874 248.425C472.663 248.425 471.673 247.724 471.673 246.581C471.673 245.444 472.663 244.743 473.874 244.743C475.085 244.743 476.074 245.444 476.074 246.581ZM472.423 246.581C472.423 247.245 473.081 247.651 473.892 247.651C474.703 247.651 475.361 247.245 475.361 246.581C475.361 245.923 474.703 245.518 473.892 245.518C473.081 245.518 472.423 245.923 472.423 246.581ZM476.025 250.585L476.025 252.687C476.025 254.481 473.505 254.487 473.505 252.687L473.505 251.359L471.723 251.359L471.723 250.585L476.025 250.585ZM474.181 252.687C474.181 253.547 475.318 253.547 475.318 252.687L475.318 251.359L474.181 251.359L474.181 252.687ZM475.306 254.878C475.306 254.645 475.496 254.454 475.73 254.454C475.963 254.454 476.154 254.645 476.154 254.878C476.154 255.112 475.963 255.296 475.73 255.296C475.496 255.296 475.306 255.112 475.306 254.878ZM471.729 255.253L471.729 254.497L475.042 254.497L475.042 255.253L471.729 255.253ZM473.407 257.929L471.723 259.244L471.723 258.298L472.798 257.456L471.723 256.614L471.723 255.661L473.407 256.976L475.048 255.692L475.048 256.644L474.015 257.456L475.048 258.261L475.048 259.213L473.407 257.929ZM473.382 262.677L473.106 262.677L473.106 259.961C472.675 260.084 472.362 260.483 472.362 260.956C472.362 261.208 472.423 261.473 472.571 261.651L472.171 262.204C471.87 261.909 471.686 261.485 471.686 260.956C471.686 259.887 472.448 259.235 473.382 259.235C474.322 259.235 475.085 259.887 475.085 260.956C475.085 262.02 474.322 262.677 473.382 262.677ZM473.659 259.961L473.659 261.952C474.089 261.829 474.408 261.43 474.408 260.956C474.408 260.483 474.089 260.084 473.659 259.961ZM471.723 263.932L471.723 263.176L476.467 263.176L476.467 263.932L471.723 263.932ZM474.206 265.323C473.573 265.323 473.831 267.333 472.638 267.333C472.018 267.333 471.661 266.682 471.661 265.956C471.661 265.403 471.87 264.801 472.331 264.414L472.761 264.881C472.442 265.157 472.288 265.637 472.288 266.024C472.288 266.368 472.411 266.645 472.638 266.645C473.358 266.645 472.89 264.635 474.212 264.635C474.851 264.635 475.164 265.256 475.164 265.901C475.164 266.35 475.017 266.805 474.722 267.075L474.322 266.675C474.519 266.442 474.617 266.135 474.617 265.87C474.617 265.563 474.488 265.323 474.206 265.323Z" fill="#808197"/>
<path d="M118.961 299.767C118.813 300.455 118.328 300.849 117.658 300.849C116.791 300.849 116.293 300.068 116.293 299.208C116.293 298.599 116.545 297.942 117.099 297.499L117.566 297.991C117.178 298.286 116.994 298.778 116.994 299.214C116.994 299.675 117.209 300.074 117.609 300.074C118.162 300.074 118.383 299.736 118.383 299.06L118.383 298.851L118.918 298.851L118.918 298.857L118.924 298.851L119.963 299.656L119.963 297.899L120.669 297.899L120.669 300.664L120.11 300.664L120.104 300.677L118.961 299.767ZM120.719 303.174C120.719 304.317 119.729 305.018 118.518 305.018C117.308 305.018 116.318 304.317 116.318 303.174C116.318 302.037 117.308 301.336 118.518 301.336C119.729 301.336 120.719 302.037 120.719 303.174ZM117.068 303.174C117.068 303.838 117.725 304.243 118.537 304.243C119.348 304.243 120.006 303.838 120.006 303.174C120.006 302.516 119.348 302.111 118.537 302.111C117.725 302.111 117.068 302.516 117.068 303.174ZM120.719 307.483C120.719 308.627 119.729 309.327 118.518 309.327C117.308 309.327 116.318 308.627 116.318 307.483C116.318 306.346 117.308 305.646 118.518 305.646C119.729 305.646 120.719 306.346 120.719 307.483ZM117.068 307.483C117.068 308.147 117.725 308.553 118.537 308.553C119.348 308.553 120.006 308.147 120.006 307.483C120.006 306.826 119.348 306.42 118.537 306.42C117.725 306.42 117.068 306.826 117.068 307.483ZM120.669 311.487L120.669 313.589C120.669 315.384 118.15 315.39 118.15 313.589L118.15 312.261L116.367 312.261L116.367 311.487L120.669 311.487ZM118.826 313.589C118.826 314.449 119.963 314.449 119.963 313.589L119.963 312.261L118.826 312.261L118.826 313.589ZM119.95 315.781C119.95 315.547 120.141 315.357 120.374 315.357C120.608 315.357 120.798 315.547 120.798 315.781C120.798 316.014 120.608 316.199 120.374 316.199C120.141 316.199 119.95 316.014 119.95 315.781ZM116.373 316.156L116.373 315.4L119.686 315.4L119.686 316.156L116.373 316.156ZM118.051 318.831L116.367 320.147L116.367 319.2L117.443 318.358L116.367 317.516L116.367 316.563L118.051 317.879L119.692 316.594L119.692 317.547L118.66 318.358L119.692 319.163L119.692 320.116L118.051 318.831ZM118.027 323.58L117.75 323.58L117.75 320.863C117.32 320.986 117.006 321.385 117.006 321.859C117.006 322.111 117.068 322.375 117.215 322.553L116.816 323.106C116.515 322.811 116.33 322.387 116.33 321.859C116.33 320.789 117.092 320.138 118.027 320.138C118.967 320.138 119.729 320.789 119.729 321.859C119.729 322.922 118.967 323.58 118.027 323.58ZM118.303 320.863L118.303 322.854C118.733 322.731 119.053 322.332 119.053 321.859C119.053 321.385 118.733 320.986 118.303 320.863ZM116.367 324.835L116.367 324.079L121.112 324.079L121.112 324.835L116.367 324.835ZM118.85 326.226C118.217 326.226 118.475 328.235 117.283 328.235C116.662 328.235 116.306 327.584 116.306 326.859C116.306 326.306 116.515 325.703 116.976 325.316L117.406 325.783C117.086 326.06 116.933 326.539 116.933 326.926C116.933 327.27 117.056 327.547 117.283 327.547C118.002 327.547 117.535 325.537 118.856 325.537C119.496 325.537 119.809 326.158 119.809 326.803C119.809 327.252 119.661 327.707 119.366 327.977L118.967 327.578C119.164 327.344 119.262 327.037 119.262 326.773C119.262 326.465 119.133 326.226 118.85 326.226Z" fill="#808197"/>
<path d="M381.604 508.339L381.604 507.632L383.011 507.632L383.011 511.935L382.237 511.935L382.237 508.339L381.604 508.339ZM385.537 507.583C386.681 507.583 387.381 508.573 387.381 509.783C387.381 510.994 386.681 511.984 385.537 511.984C384.4 511.984 383.7 510.994 383.7 509.783C383.7 508.573 384.4 507.583 385.537 507.583ZM385.537 511.234C386.201 511.234 386.607 510.576 386.607 509.765C386.607 508.954 386.201 508.296 385.537 508.296C384.88 508.296 384.474 508.954 384.474 509.765C384.474 510.576 384.88 511.234 385.537 511.234ZM389.847 507.583C390.99 507.583 391.691 508.573 391.691 509.783C391.691 510.994 390.99 511.984 389.847 511.984C388.71 511.984 388.009 510.994 388.009 509.783C388.009 508.573 388.71 507.583 389.847 507.583ZM389.847 511.234C390.511 511.234 390.916 510.576 390.916 509.765C390.916 508.954 390.511 508.296 389.847 508.296C389.189 508.296 388.784 508.954 388.784 509.765C388.784 510.576 389.189 511.234 389.847 511.234ZM393.85 507.632L395.952 507.632C397.747 507.632 397.753 510.152 395.952 510.152L394.625 510.152L394.625 511.935L393.85 511.935L393.85 507.632ZM395.952 509.476C396.813 509.476 396.813 508.339 395.952 508.339L394.625 508.339L394.625 509.476L395.952 509.476ZM398.144 508.351C397.911 508.351 397.72 508.161 397.72 507.927C397.72 507.694 397.911 507.503 398.144 507.503C398.378 507.503 398.562 507.694 398.562 507.927C398.562 508.161 398.378 508.351 398.144 508.351ZM398.519 511.928L397.763 511.928L397.763 508.616L398.519 508.616L398.519 511.928ZM401.195 510.251L402.51 511.935L401.563 511.935L400.721 510.859L399.879 511.935L398.927 511.935L400.242 510.251L398.957 508.61L399.91 508.61L400.721 509.642L401.527 508.61L402.479 508.61L401.195 510.251ZM405.943 510.275L405.943 510.552L403.226 510.552C403.349 510.982 403.749 511.295 404.222 511.295C404.474 511.295 404.738 511.234 404.917 511.086L405.47 511.486C405.175 511.787 404.751 511.971 404.222 511.971C403.153 511.971 402.501 511.209 402.501 510.275C402.501 509.335 403.153 508.573 404.222 508.573C405.285 508.573 405.943 509.335 405.943 510.275ZM403.226 509.999L405.218 509.999C405.095 509.568 404.695 509.249 404.222 509.249C403.749 509.249 403.349 509.568 403.226 509.999ZM407.198 511.935L406.442 511.935L406.442 507.19L407.198 507.19L407.198 511.935ZM408.589 509.452C408.589 510.085 410.599 509.826 410.599 511.019C410.599 511.64 409.947 511.996 409.222 511.996C408.669 511.996 408.067 511.787 407.679 511.326L408.147 510.896C408.423 511.215 408.902 511.369 409.29 511.369C409.634 511.369 409.91 511.246 409.91 511.019C409.91 510.3 407.901 510.767 407.901 509.445C407.901 508.806 408.521 508.493 409.167 508.493C409.615 508.493 410.07 508.64 410.341 508.935L409.941 509.335C409.708 509.138 409.4 509.04 409.136 509.04C408.829 509.04 408.589 509.169 408.589 509.452Z" fill="#808197"/>
<path d="M210.072 184.275L210.072 183.568L211.48 183.568L211.48 187.87L210.705 187.87L210.705 184.275L210.072 184.275ZM214.006 183.519C215.149 183.519 215.85 184.508 215.85 185.719C215.85 186.93 215.149 187.919 214.006 187.919C212.869 187.919 212.168 186.93 212.168 185.719C212.168 184.508 212.869 183.519 214.006 183.519ZM214.006 187.169C214.67 187.169 215.076 186.512 215.076 185.701C215.076 184.889 214.67 184.232 214.006 184.232C213.348 184.232 212.943 184.889 212.943 185.701C212.943 186.512 213.348 187.169 214.006 187.169ZM218.316 183.519C219.459 183.519 220.159 184.508 220.159 185.719C220.159 186.93 219.459 187.919 218.316 187.919C217.179 187.919 216.478 186.93 216.478 185.719C216.478 184.508 217.179 183.519 218.316 183.519ZM218.316 187.169C218.979 187.169 219.385 186.512 219.385 185.701C219.385 184.889 218.979 184.232 218.316 184.232C217.658 184.232 217.252 184.889 217.252 185.701C217.252 186.512 217.658 187.169 218.316 187.169ZM222.319 183.568L224.421 183.568C226.216 183.568 226.222 186.088 224.421 186.088L223.094 186.088L223.094 187.87L222.319 187.87L222.319 183.568ZM224.421 185.412C225.282 185.412 225.282 184.275 224.421 184.275L223.094 184.275L223.094 185.412L224.421 185.412ZM226.613 184.287C226.379 184.287 226.189 184.096 226.189 183.863C226.189 183.629 226.379 183.439 226.613 183.439C226.846 183.439 227.031 183.629 227.031 183.863C227.031 184.096 226.846 184.287 226.613 184.287ZM226.988 187.864L226.232 187.864L226.232 184.551L226.988 184.551L226.988 187.864ZM229.663 186.186L230.979 187.87L230.032 187.87L229.19 186.795L228.348 187.87L227.395 187.87L228.711 186.186L227.426 184.545L228.379 184.545L229.19 185.578L229.995 184.545L230.948 184.545L229.663 186.186ZM234.412 186.211L234.412 186.487L231.695 186.487C231.818 186.917 232.218 187.231 232.691 187.231C232.943 187.231 233.207 187.169 233.385 187.022L233.938 187.421C233.643 187.723 233.219 187.907 232.691 187.907C231.621 187.907 230.97 187.145 230.97 186.211C230.97 185.27 231.621 184.508 232.691 184.508C233.754 184.508 234.412 185.27 234.412 186.211ZM231.695 185.934L233.686 185.934C233.564 185.504 233.164 185.184 232.691 185.184C232.218 185.184 231.818 185.504 231.695 185.934ZM235.667 187.87L234.911 187.87L234.911 183.125L235.667 183.125L235.667 187.87ZM237.058 185.387C237.058 186.02 239.068 185.762 239.068 186.954C239.068 187.575 238.416 187.932 237.691 187.932C237.138 187.932 236.535 187.723 236.148 187.262L236.615 186.831C236.892 187.151 237.371 187.305 237.758 187.305C238.103 187.305 238.379 187.182 238.379 186.954C238.379 186.235 236.369 186.702 236.369 185.381C236.369 184.742 236.99 184.428 237.636 184.428C238.084 184.428 238.539 184.576 238.809 184.871L238.41 185.27C238.176 185.074 237.869 184.975 237.605 184.975C237.297 184.975 237.058 185.104 237.058 185.387Z" fill="#808197"/>
</svg>
