<svg width="1216" height="695" viewBox="0 0 1216 695" fill="none" xmlns="http://www.w3.org/2000/svg">
<rect width="1216" height="695" rx="12" fill="#F5F8F5"/>
<path d="M448.699 326.945H458.206V369.528H448.699V364.333C445.453 367.875 441.202 370 436.642 370C424.662 370 415 360.24 415 348.276C415 336.233 424.662 326.709 436.642 326.709C441.202 326.709 445.53 328.834 448.699 332.376V326.945ZM436.642 361.342C443.83 361.342 449.627 355.517 449.627 348.354C449.627 341.192 443.83 335.367 436.642 335.367C429.454 335.367 424.507 341.034 424.507 348.276C424.507 355.517 429.454 361.342 436.642 361.342Z" fill="#101113"/>
<path d="M501.528 333.32C504.619 328.519 509.952 326.236 515.208 326.236C522.86 326.236 530.435 331.274 530.589 341.113V369.764H521.082V344.812C521.082 337.413 517.141 334.029 513.044 334.029C508.793 334.029 504.233 337.649 503.614 344.497V369.764H494.03V344.497C494.03 337.177 490.243 333.793 486.146 333.793C481.509 333.793 476.485 338.2 476.485 346.15V370H466.978V327.181H476.485V330.802C479.576 327.732 483.905 326.236 488.156 326.236C493.412 326.236 498.668 328.598 501.528 333.32Z" fill="#101113"/>
<path d="M596.197 327.023L596.193 334.62H596.968C599.364 328.323 601.055 326.946 606.542 326.946C609.634 326.946 611.188 326.946 614.286 326.946V335.131C611.735 335.131 611.269 335.131 609.105 335.131C599.413 335.131 596.275 337.019 596.275 344.798V369.528H586.69V327.023H596.197Z" fill="#101113"/>
<path d="M630.963 369.213H621.456V326.787H630.963V369.213Z" fill="#101113"/>
<path d="M674.272 333.084C677.364 328.283 682.697 326 687.953 326C695.605 326 703.179 331.038 703.334 340.877V369.528H693.827V344.576C693.827 337.177 689.885 333.793 685.788 333.793C681.537 333.793 676.977 337.413 676.359 344.261V369.528H666.774V344.261C666.774 336.941 662.987 333.556 658.891 333.556C654.253 333.556 649.229 337.964 649.229 345.914V369.764H639.722V326.945H649.229V330.565C652.321 327.496 656.649 326 660.9 326C666.156 326 671.412 328.361 674.272 333.084Z" fill="#101113"/>
<path d="M726.143 344V342.09H730.351C731.47 342.09 732.451 341.846 733.293 341.358C734.136 340.855 734.79 340.166 735.255 339.293C735.735 338.42 735.975 337.414 735.975 336.274C735.975 335.149 735.735 334.15 735.255 333.277C734.776 332.404 734.115 331.723 733.272 331.235C732.429 330.746 731.455 330.502 730.351 330.502H726.165V328.593H730.394C731.499 328.593 732.516 328.785 733.446 329.17C734.391 329.555 735.205 330.095 735.888 330.791C736.585 331.486 737.123 332.3 737.501 333.233C737.893 334.165 738.089 335.186 738.089 336.296C738.089 337.391 737.893 338.413 737.501 339.36C737.123 340.292 736.592 341.106 735.909 341.802C735.226 342.497 734.413 343.038 733.468 343.422C732.538 343.807 731.528 344 730.438 344H726.143ZM724.792 344V328.593H726.841V344H724.792Z" fill="#101113"/>
<path d="M740.928 344V328.593H742.978V344H740.928ZM742.324 344V342.09H751V344H742.324ZM742.324 337.029V335.208H750.28V337.029H742.324ZM742.324 330.502V328.593H750.891V330.502H742.324Z" fill="#101113"/>
<path d="M758.437 344L752.377 328.593H754.6L759.592 341.624H758.786L763.822 328.593H766.023L759.919 344H758.437Z" fill="#101113"/>
<path d="M730.272 366.573C729.08 366.573 728.063 366.351 727.22 365.907C726.377 365.463 725.629 364.819 724.975 363.976L726.37 362.555C726.849 363.236 727.402 363.754 728.027 364.109C728.652 364.449 729.422 364.619 730.337 364.619C731.238 364.619 731.958 364.42 732.495 364.02C733.048 363.62 733.324 363.073 733.324 362.377C733.324 361.8 733.193 361.334 732.931 360.979C732.67 360.623 732.314 360.335 731.863 360.113C731.427 359.876 730.948 359.669 730.425 359.491C729.901 359.299 729.378 359.099 728.855 358.892C728.332 358.67 727.852 358.403 727.416 358.093C726.98 357.767 726.624 357.345 726.348 356.827C726.086 356.309 725.956 355.658 725.956 354.874C725.956 354 726.159 353.26 726.566 352.654C726.988 352.032 727.554 351.558 728.266 351.233C728.993 350.892 729.807 350.722 730.708 350.722C731.696 350.722 732.583 350.922 733.367 351.322C734.152 351.706 734.792 352.217 735.286 352.853L733.891 354.274C733.44 353.741 732.953 353.342 732.43 353.075C731.921 352.809 731.333 352.676 730.664 352.676C729.851 352.676 729.204 352.861 728.724 353.231C728.245 353.586 728.005 354.089 728.005 354.74C728.005 355.258 728.136 355.68 728.397 356.006C728.673 356.317 729.029 356.583 729.465 356.805C729.901 357.027 730.381 357.234 730.904 357.427C731.442 357.604 731.972 357.804 732.495 358.026C733.019 358.248 733.498 358.529 733.934 358.87C734.37 359.21 734.719 359.654 734.981 360.202C735.257 360.734 735.395 361.408 735.395 362.222C735.395 363.583 734.93 364.649 734 365.419C733.084 366.188 731.842 366.573 730.272 366.573Z" fill="#101113"/>
<path d="M741.465 366.351V351.388H743.514V366.351H741.465ZM736.32 352.853V350.944H748.637V352.853H736.32Z" fill="#101113"/>
<path d="M756.534 366.573C755.415 366.573 754.412 366.321 753.525 365.818C752.653 365.3 751.963 364.597 751.454 363.709C750.946 362.806 750.691 361.785 750.691 360.646V350.944H752.741V360.601C752.741 361.415 752.908 362.118 753.242 362.71C753.576 363.302 754.027 363.761 754.594 364.087C755.175 364.412 755.822 364.575 756.534 364.575C757.275 364.575 757.922 364.412 758.474 364.087C759.041 363.761 759.484 363.302 759.804 362.71C760.138 362.118 760.305 361.423 760.305 360.623V350.944H762.376V360.668C762.376 361.807 762.122 362.821 761.613 363.709C761.104 364.597 760.414 365.3 759.542 365.818C758.67 366.321 757.667 366.573 756.534 366.573Z" fill="#101113"/>
<path d="M767.098 366.351V364.442H771.305C772.424 364.442 773.405 364.198 774.248 363.709C775.091 363.206 775.745 362.518 776.21 361.645C776.69 360.771 776.93 359.765 776.93 358.625C776.93 357.501 776.69 356.502 776.21 355.628C775.731 354.755 775.069 354.074 774.226 353.586C773.384 353.098 772.41 352.853 771.305 352.853H767.12V350.944H771.349C772.453 350.944 773.471 351.137 774.401 351.521C775.346 351.906 776.159 352.446 776.842 353.142C777.54 353.838 778.078 354.652 778.456 355.584C778.848 356.516 779.044 357.538 779.044 358.648C779.044 359.743 778.848 360.764 778.456 361.711C778.078 362.644 777.547 363.458 776.864 364.153C776.181 364.849 775.367 365.389 774.423 365.774C773.493 366.158 772.483 366.351 771.393 366.351H767.098ZM765.746 366.351V350.944H767.796V366.351H765.746Z" fill="#101113"/>
<path d="M781.883 366.351V350.944H783.932V366.351H781.883Z" fill="#101113"/>
<path d="M794.392 366.573C793.317 366.573 792.314 366.373 791.384 365.973C790.454 365.559 789.64 364.989 788.942 364.264C788.245 363.524 787.7 362.673 787.307 361.711C786.929 360.749 786.74 359.721 786.74 358.625C786.74 357.515 786.929 356.487 787.307 355.54C787.7 354.578 788.237 353.734 788.92 353.009C789.618 352.284 790.424 351.721 791.34 351.322C792.27 350.922 793.273 350.722 794.348 350.722C795.424 350.722 796.419 350.922 797.335 351.322C798.265 351.721 799.079 352.284 799.776 353.009C800.474 353.734 801.019 354.578 801.411 355.54C801.804 356.502 802 357.538 802 358.648C802 359.743 801.804 360.771 801.411 361.733C801.019 362.695 800.474 363.539 799.776 364.264C799.093 364.989 798.287 365.559 797.357 365.973C796.441 366.373 795.453 366.573 794.392 366.573ZM794.348 364.575C795.438 364.575 796.39 364.323 797.204 363.82C798.033 363.302 798.686 362.599 799.166 361.711C799.646 360.808 799.885 359.78 799.885 358.625C799.885 357.767 799.747 356.983 799.471 356.272C799.195 355.547 798.81 354.918 798.316 354.385C797.822 353.852 797.24 353.445 796.572 353.164C795.903 352.868 795.162 352.72 794.348 352.72C793.273 352.72 792.321 352.972 791.493 353.475C790.679 353.978 790.032 354.674 789.553 355.562C789.087 356.45 788.855 357.471 788.855 358.625C788.855 359.484 788.986 360.283 789.247 361.023C789.523 361.748 789.901 362.377 790.381 362.91C790.875 363.428 791.456 363.835 792.125 364.131C792.808 364.427 793.549 364.575 794.348 364.575Z" fill="#101113"/>
<path d="M548.012 337.23H536.984V369.316H568.492V358.086H548.012V337.23Z" fill="#3F30F1"/>
<path d="M568.492 358.086L579.519 358.086V326L548.012 326L548.012 337.23L568.492 337.23L568.492 358.086Z" fill="#3F30F1"/>
</svg>
