<svg width="592" height="695" viewBox="0 0 592 695" fill="none" xmlns="http://www.w3.org/2000/svg">
<rect width="592" height="695" rx="12" fill="#F5F8F5"/>
<path d="M50.02 64.22C48.9933 64.22 48.0333 64.0333 47.14 63.66C46.26 63.2867 45.4867 62.7733 44.82 62.12C44.1667 61.4533 43.6533 60.68 43.28 59.8C42.9067 58.9067 42.72 57.9533 42.72 56.94C42.72 55.9267 42.9 54.9867 43.26 54.12C43.6333 53.24 44.1467 52.4733 44.8 51.82C45.4667 51.1533 46.24 50.64 47.12 50.28C48 49.9067 48.9533 49.72 49.98 49.72C51.02 49.72 51.98 49.9067 52.86 50.28C53.74 50.64 54.5067 51.1533 55.16 51.82C55.8267 52.4733 56.3467 53.24 56.72 54.12C57.0933 55 57.28 55.9467 57.28 56.96C57.28 57.9733 57.0933 58.92 56.72 59.8C56.3467 60.68 55.8267 61.4533 55.16 62.12C54.5067 62.7733 53.74 63.2867 52.86 63.66C51.9933 64.0333 51.0467 64.22 50.02 64.22ZM49.98 61.68C50.8867 61.68 51.6733 61.48 52.34 61.08C53.0067 60.68 53.5267 60.1267 53.9 59.42C54.2867 58.7133 54.48 57.8867 54.48 56.94C54.48 56.2467 54.3733 55.6133 54.16 55.04C53.9467 54.4667 53.64 53.9733 53.24 53.56C52.84 53.1333 52.3667 52.8067 51.82 52.58C51.2733 52.3533 50.66 52.24 49.98 52.24C49.1 52.24 48.32 52.44 47.64 52.84C46.9733 53.2267 46.4467 53.7733 46.06 54.48C45.6867 55.1867 45.5 56.0067 45.5 56.94C45.5 57.6467 45.6067 58.2933 45.82 58.88C46.0467 59.4667 46.3533 59.9667 46.74 60.38C47.14 60.7933 47.6133 61.1133 48.16 61.34C48.72 61.5667 49.3267 61.68 49.98 61.68ZM60.4361 64V53.72C60.4361 52.9067 60.6028 52.1867 60.9361 51.56C61.2828 50.9333 61.7694 50.44 62.3961 50.08C63.0361 49.7067 63.7828 49.52 64.6361 49.52C65.4894 49.52 66.1894 49.7 66.7361 50.06C67.2961 50.42 67.7094 50.9 67.9761 51.5C68.2561 52.0867 68.3961 52.74 68.3961 53.46L66.4161 53.62C66.4161 53.06 66.2694 52.6267 65.9761 52.32C65.6961 52 65.2828 51.84 64.7361 51.84C64.1894 51.84 63.7694 51.9933 63.4761 52.3C63.1961 52.6067 63.0561 53.0267 63.0561 53.56V64H60.4361ZM58.1961 56.64V54.34H71.8961V56.64H58.1961ZM66.4161 64V53.3C66.4161 52.54 66.5828 51.86 66.9161 51.26C67.2494 50.66 67.7228 50.1867 68.3361 49.84C68.9494 49.4933 69.6694 49.32 70.4961 49.32C71.1228 49.32 71.6628 49.4267 72.1161 49.64C72.5694 49.8533 72.9761 50.1467 73.3361 50.52L71.6761 52.2C71.5294 52.0533 71.3694 51.94 71.1961 51.86C71.0228 51.78 70.8028 51.74 70.5361 51.74C70.0561 51.74 69.6828 51.8733 69.4161 52.14C69.1628 52.3933 69.0361 52.76 69.0361 53.24V64H66.4161ZM73.5116 64V54.34H76.1516V64H73.5116ZM74.8316 52.78C74.4049 52.78 74.0516 52.64 73.7716 52.36C73.4916 52.0667 73.3516 51.7067 73.3516 51.28C73.3516 50.8667 73.4916 50.5133 73.7716 50.22C74.0516 49.9267 74.4049 49.78 74.8316 49.78C75.2716 49.78 75.6249 49.9267 75.8916 50.22C76.1716 50.5133 76.3116 50.8667 76.3116 51.28C76.3116 51.7067 76.1716 52.0667 75.8916 52.36C75.6249 52.64 75.2716 52.78 74.8316 52.78ZM83.0325 64.2C82.0458 64.2 81.1592 63.98 80.3725 63.54C79.5858 63.1 78.9658 62.5 78.5125 61.74C78.0592 60.98 77.8325 60.1267 77.8325 59.18C77.8325 58.22 78.0592 57.36 78.5125 56.6C78.9658 55.84 79.5858 55.24 80.3725 54.8C81.1725 54.3467 82.0592 54.12 83.0325 54.12C83.7925 54.12 84.4925 54.26 85.1325 54.54C85.7725 54.82 86.3258 55.22 86.7925 55.74L85.1125 57.44C84.8592 57.16 84.5525 56.9467 84.1925 56.8C83.8458 56.6533 83.4592 56.58 83.0325 56.58C82.5525 56.58 82.1192 56.6933 81.7325 56.92C81.3592 57.1333 81.0592 57.4333 80.8325 57.82C80.6192 58.1933 80.5125 58.64 80.5125 59.16C80.5125 59.6667 80.6192 60.12 80.8325 60.52C81.0592 60.9067 81.3592 61.2133 81.7325 61.44C82.1192 61.6533 82.5525 61.76 83.0325 61.76C83.4725 61.76 83.8658 61.6867 84.2125 61.54C84.5725 61.38 84.8792 61.1533 85.1325 60.86L86.8325 62.56C86.3392 63.0933 85.7725 63.5 85.1325 63.78C84.4925 64.06 83.7925 64.2 83.0325 64.2ZM88.3163 64V54.34H90.9563V64H88.3163ZM89.6363 52.78C89.2096 52.78 88.8563 52.64 88.5763 52.36C88.2963 52.0667 88.1563 51.7067 88.1563 51.28C88.1563 50.8667 88.2963 50.5133 88.5763 50.22C88.8563 49.9267 89.2096 49.78 89.6363 49.78C90.0763 49.78 90.4296 49.9267 90.6963 50.22C90.9763 50.5133 91.1163 50.8667 91.1163 51.28C91.1163 51.7067 90.9763 52.0667 90.6963 52.36C90.4296 52.64 90.0763 52.78 89.6363 52.78ZM97.3172 64.2C96.4372 64.2 95.6439 63.98 94.9372 63.54C94.2305 63.1 93.6772 62.5 93.2772 61.74C92.8772 60.98 92.6772 60.1267 92.6772 59.18C92.6772 58.22 92.8772 57.36 93.2772 56.6C93.6772 55.84 94.2305 55.24 94.9372 54.8C95.6439 54.36 96.4372 54.14 97.3172 54.14C98.0105 54.14 98.6305 54.28 99.1772 54.56C99.7239 54.84 100.157 55.2333 100.477 55.74C100.811 56.2333 100.991 56.7933 101.017 57.42V60.9C100.991 61.54 100.811 62.1067 100.477 62.6C100.157 63.0933 99.7239 63.4867 99.1772 63.78C98.6305 64.06 98.0105 64.2 97.3172 64.2ZM97.7972 61.78C98.5305 61.78 99.1239 61.54 99.5772 61.06C100.031 60.5667 100.257 59.9333 100.257 59.16C100.257 58.6533 100.151 58.2067 99.9372 57.82C99.7372 57.42 99.4505 57.1133 99.0772 56.9C98.7172 56.6733 98.2905 56.56 97.7972 56.56C97.3172 56.56 96.8905 56.6733 96.5172 56.9C96.1572 57.1133 95.8705 57.42 95.6572 57.82C95.4572 58.2067 95.3572 58.6533 95.3572 59.16C95.3572 59.68 95.4572 60.14 95.6572 60.54C95.8705 60.9267 96.1572 61.2333 96.5172 61.46C96.8905 61.6733 97.3172 61.78 97.7972 61.78ZM100.117 64V61.4L100.537 59.04L100.117 56.72V54.34H102.717V64H100.117ZM105.035 64V49.54H107.655V64H105.035ZM119.243 64.2C118.549 64.2 117.923 64.0533 117.363 63.76C116.803 63.4667 116.356 63.0667 116.023 62.56C115.689 62.0533 115.509 61.4867 115.483 60.86V57.42C115.509 56.7933 115.689 56.2333 116.023 55.74C116.369 55.2333 116.823 54.84 117.383 54.56C117.943 54.28 118.563 54.14 119.243 54.14C120.136 54.14 120.936 54.36 121.643 54.8C122.349 55.24 122.903 55.84 123.303 56.6C123.716 57.36 123.923 58.22 123.923 59.18C123.923 60.1267 123.716 60.98 123.303 61.74C122.903 62.5 122.349 63.1 121.643 63.54C120.936 63.98 120.136 64.2 119.243 64.2ZM113.883 64V49.54H116.503V56.72L116.063 59.04L116.483 61.4V64H113.883ZM118.803 61.78C119.283 61.78 119.703 61.6733 120.063 61.46C120.436 61.2333 120.723 60.9267 120.923 60.54C121.136 60.14 121.243 59.68 121.243 59.16C121.243 58.6533 121.136 58.2067 120.923 57.82C120.723 57.42 120.436 57.1133 120.063 56.9C119.689 56.6733 119.263 56.56 118.783 56.56C118.303 56.56 117.876 56.6733 117.503 56.9C117.143 57.1133 116.856 57.42 116.643 57.82C116.443 58.2067 116.343 58.6533 116.343 59.16C116.343 59.68 116.443 60.14 116.643 60.54C116.856 60.9267 117.149 61.2333 117.523 61.46C117.896 61.6733 118.323 61.78 118.803 61.78ZM125.64 64V54.34H128.26V64H125.64ZM128.26 58.66L127.24 57.98C127.36 56.7933 127.707 55.86 128.28 55.18C128.854 54.4867 129.68 54.14 130.76 54.14C131.227 54.14 131.647 54.22 132.02 54.38C132.394 54.5267 132.734 54.7733 133.04 55.12L131.4 57C131.254 56.84 131.074 56.72 130.86 56.64C130.66 56.56 130.427 56.52 130.16 56.52C129.6 56.52 129.14 56.7 128.78 57.06C128.434 57.4067 128.26 57.94 128.26 58.66ZM137.727 64.2C136.847 64.2 136.054 63.98 135.347 63.54C134.641 63.1 134.087 62.5 133.687 61.74C133.287 60.98 133.087 60.1267 133.087 59.18C133.087 58.22 133.287 57.36 133.687 56.6C134.087 55.84 134.641 55.24 135.347 54.8C136.054 54.36 136.847 54.14 137.727 54.14C138.421 54.14 139.041 54.28 139.587 54.56C140.134 54.84 140.567 55.2333 140.887 55.74C141.221 56.2333 141.401 56.7933 141.427 57.42V60.9C141.401 61.54 141.221 62.1067 140.887 62.6C140.567 63.0933 140.134 63.4867 139.587 63.78C139.041 64.06 138.421 64.2 137.727 64.2ZM138.207 61.78C138.941 61.78 139.534 61.54 139.987 61.06C140.441 60.5667 140.667 59.9333 140.667 59.16C140.667 58.6533 140.561 58.2067 140.347 57.82C140.147 57.42 139.861 57.1133 139.487 56.9C139.127 56.6733 138.701 56.56 138.207 56.56C137.727 56.56 137.301 56.6733 136.927 56.9C136.567 57.1133 136.281 57.42 136.067 57.82C135.867 58.2067 135.767 58.6533 135.767 59.16C135.767 59.68 135.867 60.14 136.067 60.54C136.281 60.9267 136.567 61.2333 136.927 61.46C137.301 61.6733 137.727 61.78 138.207 61.78ZM140.527 64V61.4L140.947 59.04L140.527 56.72V54.34H143.127V64H140.527ZM151.945 64V58.46C151.945 57.8867 151.765 57.42 151.405 57.06C151.045 56.7 150.578 56.52 150.005 56.52C149.632 56.52 149.298 56.6 149.005 56.76C148.712 56.92 148.478 57.1467 148.305 57.44C148.145 57.7333 148.065 58.0733 148.065 58.46L147.045 57.94C147.045 57.18 147.205 56.52 147.525 55.96C147.858 55.3867 148.312 54.94 148.885 54.62C149.472 54.3 150.132 54.14 150.865 54.14C151.572 54.14 152.205 54.32 152.765 54.68C153.325 55.0267 153.765 55.4867 154.085 56.06C154.405 56.62 154.565 57.2267 154.565 57.88V64H151.945ZM145.445 64V54.34H148.065V64H145.445ZM160.756 64.2C159.862 64.2 159.062 63.98 158.356 63.54C157.649 63.1 157.089 62.5 156.676 61.74C156.276 60.98 156.076 60.1267 156.076 59.18C156.076 58.22 156.276 57.36 156.676 56.6C157.089 55.84 157.642 55.24 158.336 54.8C159.042 54.36 159.849 54.14 160.756 54.14C161.449 54.14 162.069 54.28 162.616 54.56C163.176 54.84 163.622 55.2333 163.956 55.74C164.302 56.2333 164.489 56.7933 164.516 57.42V60.86C164.489 61.4867 164.309 62.0533 163.976 62.56C163.642 63.0667 163.196 63.4667 162.636 63.76C162.076 64.0533 161.449 64.2 160.756 64.2ZM161.196 61.78C161.689 61.78 162.116 61.6733 162.476 61.46C162.849 61.2333 163.136 60.9267 163.336 60.54C163.549 60.14 163.656 59.68 163.656 59.16C163.656 58.6533 163.549 58.2067 163.336 57.82C163.136 57.42 162.849 57.1133 162.476 56.9C162.116 56.6733 161.696 56.56 161.216 56.56C160.722 56.56 160.289 56.6733 159.916 56.9C159.556 57.1267 159.269 57.4333 159.056 57.82C158.856 58.2067 158.756 58.6533 158.756 59.16C158.756 59.68 158.856 60.14 159.056 60.54C159.269 60.9267 159.562 61.2333 159.936 61.46C160.309 61.6733 160.729 61.78 161.196 61.78ZM166.116 64H163.516V61.4L163.936 59.04L163.496 56.72V49.54H166.116V64ZM173.76 64V50.32H176.38V64H173.76ZM171.5 56.64V54.34H178.64V56.64H171.5ZM183.153 64.08L179.113 54.34H181.953L184.633 61.78H183.673L186.453 54.34H189.313L185.013 64.08H183.153ZM180.473 68.04L183.413 61.82L185.013 64.08L183.253 68.04H180.473ZM195.766 64.2C195.073 64.2 194.446 64.06 193.886 63.78C193.326 63.4867 192.879 63.0933 192.546 62.6C192.213 62.1067 192.033 61.54 192.006 60.9V57.48C192.033 56.84 192.213 56.2733 192.546 55.78C192.893 55.2733 193.339 54.8733 193.886 54.58C194.446 54.2867 195.073 54.14 195.766 54.14C196.659 54.14 197.459 54.36 198.166 54.8C198.873 55.24 199.426 55.84 199.826 56.6C200.239 57.36 200.446 58.22 200.446 59.18C200.446 60.1267 200.239 60.98 199.826 61.74C199.426 62.5 198.873 63.1 198.166 63.54C197.459 63.98 196.659 64.2 195.766 64.2ZM190.406 68.04V54.34H193.026V56.88L192.586 59.22L193.006 61.56V68.04H190.406ZM195.306 61.78C195.786 61.78 196.213 61.6733 196.586 61.46C196.959 61.2333 197.246 60.9267 197.446 60.54C197.659 60.14 197.766 59.68 197.766 59.16C197.766 58.6533 197.659 58.2067 197.446 57.82C197.246 57.42 196.959 57.1133 196.586 56.9C196.213 56.6733 195.786 56.56 195.306 56.56C194.839 56.56 194.419 56.6733 194.046 56.9C193.673 57.1133 193.379 57.42 193.166 57.82C192.966 58.2067 192.866 58.6533 192.866 59.16C192.866 59.68 192.966 60.14 193.166 60.54C193.379 60.9267 193.666 61.2333 194.026 61.46C194.399 61.6733 194.826 61.78 195.306 61.78ZM206.704 64.2C205.731 64.2 204.851 63.98 204.064 63.54C203.291 63.0867 202.671 62.48 202.204 61.72C201.751 60.9467 201.524 60.0867 201.524 59.14C201.524 58.1933 201.751 57.3467 202.204 56.6C202.657 55.84 203.277 55.24 204.064 54.8C204.851 54.3467 205.724 54.12 206.684 54.12C207.671 54.12 208.551 54.3467 209.324 54.8C210.111 55.24 210.731 55.84 211.184 56.6C211.637 57.3467 211.864 58.1933 211.864 59.14C211.864 60.0867 211.637 60.9467 211.184 61.72C210.731 62.48 210.111 63.0867 209.324 63.54C208.551 63.98 207.677 64.2 206.704 64.2ZM206.684 61.76C207.177 61.76 207.611 61.6533 207.984 61.44C208.371 61.2133 208.664 60.9067 208.864 60.52C209.077 60.12 209.184 59.6667 209.184 59.16C209.184 58.6533 209.077 58.2067 208.864 57.82C208.651 57.4333 208.357 57.1333 207.984 56.92C207.611 56.6933 207.177 56.58 206.684 56.58C206.204 56.58 205.777 56.6933 205.404 56.92C205.031 57.1333 204.737 57.4333 204.524 57.82C204.311 58.2067 204.204 58.6533 204.204 59.16C204.204 59.6667 204.311 60.12 204.524 60.52C204.737 60.9067 205.031 61.2133 205.404 61.44C205.777 61.6533 206.204 61.76 206.684 61.76ZM217.591 68.28C216.564 68.28 215.657 68.0933 214.871 67.72C214.084 67.36 213.457 66.8467 212.991 66.18L214.651 64.52C215.024 64.96 215.437 65.2933 215.891 65.52C216.357 65.76 216.917 65.88 217.571 65.88C218.384 65.88 219.024 65.6733 219.491 65.26C219.971 64.8467 220.211 64.2733 220.211 63.54V61.12L220.651 59L220.231 56.88V54.34H222.831V63.5C222.831 64.46 222.604 65.2933 222.151 66C221.711 66.72 221.097 67.28 220.311 67.68C219.524 68.08 218.617 68.28 217.591 68.28ZM217.471 63.74C216.604 63.74 215.824 63.5333 215.131 63.12C214.437 62.6933 213.891 62.1133 213.491 61.38C213.104 60.6467 212.911 59.8267 212.911 58.92C212.911 58.0133 213.104 57.2 213.491 56.48C213.891 55.76 214.437 55.1933 215.131 54.78C215.824 54.3533 216.604 54.14 217.471 54.14C218.191 54.14 218.824 54.28 219.371 54.56C219.931 54.84 220.371 55.2267 220.691 55.72C221.011 56.2 221.184 56.7667 221.211 57.42V60.46C221.184 61.1 221.004 61.6733 220.671 62.18C220.351 62.6733 219.911 63.06 219.351 63.34C218.804 63.6067 218.177 63.74 217.471 63.74ZM217.991 61.36C218.471 61.36 218.884 61.26 219.231 61.06C219.591 60.8467 219.871 60.56 220.071 60.2C220.271 59.8267 220.371 59.4067 220.371 58.94C220.371 58.46 220.271 58.04 220.071 57.68C219.871 57.32 219.591 57.04 219.231 56.84C218.884 56.6267 218.471 56.52 217.991 56.52C217.511 56.52 217.091 56.6267 216.731 56.84C216.371 57.04 216.091 57.3267 215.891 57.7C215.691 58.06 215.591 58.4733 215.591 58.94C215.591 59.3933 215.691 59.8067 215.891 60.18C216.091 60.54 216.371 60.8267 216.731 61.04C217.091 61.2533 217.511 61.36 217.991 61.36ZM225.133 64V54.34H227.753V64H225.133ZM227.753 58.66L226.733 57.98C226.853 56.7933 227.199 55.86 227.773 55.18C228.346 54.4867 229.173 54.14 230.253 54.14C230.719 54.14 231.139 54.22 231.513 54.38C231.886 54.5267 232.226 54.7733 232.533 55.12L230.893 57C230.746 56.84 230.566 56.72 230.353 56.64C230.153 56.56 229.919 56.52 229.653 56.52C229.093 56.52 228.633 56.7 228.273 57.06C227.926 57.4067 227.753 57.94 227.753 58.66ZM237.22 64.2C236.34 64.2 235.546 63.98 234.84 63.54C234.133 63.1 233.58 62.5 233.18 61.74C232.78 60.98 232.58 60.1267 232.58 59.18C232.58 58.22 232.78 57.36 233.18 56.6C233.58 55.84 234.133 55.24 234.84 54.8C235.546 54.36 236.34 54.14 237.22 54.14C237.913 54.14 238.533 54.28 239.08 54.56C239.626 54.84 240.06 55.2333 240.38 55.74C240.713 56.2333 240.893 56.7933 240.92 57.42V60.9C240.893 61.54 240.713 62.1067 240.38 62.6C240.06 63.0933 239.626 63.4867 239.08 63.78C238.533 64.06 237.913 64.2 237.22 64.2ZM237.7 61.78C238.433 61.78 239.026 61.54 239.48 61.06C239.933 60.5667 240.16 59.9333 240.16 59.16C240.16 58.6533 240.053 58.2067 239.84 57.82C239.64 57.42 239.353 57.1133 238.98 56.9C238.62 56.6733 238.193 56.56 237.7 56.56C237.22 56.56 236.793 56.6733 236.42 56.9C236.06 57.1133 235.773 57.42 235.56 57.82C235.36 58.2067 235.26 58.6533 235.26 59.16C235.26 59.68 235.36 60.14 235.56 60.54C235.773 60.9267 236.06 61.2333 236.42 61.46C236.793 61.6733 237.22 61.78 237.7 61.78ZM240.02 64V61.4L240.44 59.04L240.02 56.72V54.34H242.62V64H240.02ZM250.297 64.2C249.604 64.2 248.977 64.06 248.417 63.78C247.857 63.4867 247.411 63.0933 247.077 62.6C246.744 62.1067 246.564 61.54 246.537 60.9V57.48C246.564 56.84 246.744 56.2733 247.077 55.78C247.424 55.2733 247.871 54.8733 248.417 54.58C248.977 54.2867 249.604 54.14 250.297 54.14C251.191 54.14 251.991 54.36 252.697 54.8C253.404 55.24 253.957 55.84 254.357 56.6C254.771 57.36 254.977 58.22 254.977 59.18C254.977 60.1267 254.771 60.98 254.357 61.74C253.957 62.5 253.404 63.1 252.697 63.54C251.991 63.98 251.191 64.2 250.297 64.2ZM244.937 68.04V54.34H247.557V56.88L247.117 59.22L247.537 61.56V68.04H244.937ZM249.837 61.78C250.317 61.78 250.744 61.6733 251.117 61.46C251.491 61.2333 251.777 60.9267 251.977 60.54C252.191 60.14 252.297 59.68 252.297 59.16C252.297 58.6533 252.191 58.2067 251.977 57.82C251.777 57.42 251.491 57.1133 251.117 56.9C250.744 56.6733 250.317 56.56 249.837 56.56C249.371 56.56 248.951 56.6733 248.577 56.9C248.204 57.1133 247.911 57.42 247.697 57.82C247.497 58.2067 247.397 58.6533 247.397 59.16C247.397 59.68 247.497 60.14 247.697 60.54C247.911 60.9267 248.197 61.2333 248.557 61.46C248.931 61.6733 249.357 61.78 249.837 61.78ZM263.195 64V58.46C263.195 57.8867 263.015 57.42 262.655 57.06C262.295 56.7 261.828 56.52 261.255 56.52C260.882 56.52 260.548 56.6 260.255 56.76C259.962 56.92 259.728 57.1467 259.555 57.44C259.395 57.7333 259.315 58.0733 259.315 58.46L258.295 57.94C258.295 57.18 258.455 56.52 258.775 55.96C259.095 55.3867 259.535 54.94 260.095 54.62C260.668 54.3 261.322 54.14 262.055 54.14C262.788 54.14 263.435 54.3 263.995 54.62C264.568 54.94 265.015 55.38 265.335 55.94C265.655 56.5 265.815 57.1467 265.815 57.88V64H263.195ZM256.695 64V49.54H259.315V64H256.695ZM270.966 64.08L266.926 54.34H269.766L272.446 61.78H271.486L274.266 54.34H277.126L272.826 64.08H270.966ZM268.286 68.04L271.226 61.82L272.826 64.08L271.066 68.04H268.286Z" fill="#4C554E"/>
<path d="M67.62 434L83.22 476H74.7L71.28 466.28H54.24L50.82 476H42.3L57.96 434H67.62ZM68.82 459.38L62.76 442.34L56.7 459.38H68.82ZM118.121 443.54V476H110.741V472.04C109.461 473.4 108.021 474.46 106.421 475.22C104.861 475.98 103.181 476.36 101.381 476.36C99.0613 476.36 96.8813 475.92 94.8413 475.04C92.8013 474.16 91.0213 472.98 89.5013 471.5C87.9813 469.98 86.7813 468.22 85.9013 466.22C85.0213 464.22 84.5813 462.08 84.5813 459.8C84.5813 457.52 85.0213 455.38 85.9013 453.38C86.7813 451.38 87.9813 449.64 89.5013 448.16C91.0213 446.68 92.8013 445.52 94.8413 444.68C96.8813 443.8 99.0613 443.36 101.381 443.36C103.181 443.36 104.881 443.74 106.481 444.5C108.081 445.26 109.501 446.32 110.741 447.68V443.54H118.121ZM101.381 469.76C102.781 469.76 104.081 469.5 105.281 468.98C106.521 468.46 107.601 467.76 108.521 466.88C109.441 465.96 110.161 464.9 110.681 463.7C111.201 462.5 111.461 461.22 111.461 459.86C111.461 458.5 111.201 457.22 110.681 456.02C110.161 454.82 109.441 453.78 108.521 452.9C107.601 451.98 106.521 451.26 105.281 450.74C104.081 450.22 102.781 449.96 101.381 449.96C99.9813 449.96 98.7013 450.22 97.5413 450.74C96.3813 451.22 95.3813 451.92 94.5413 452.84C93.7413 453.72 93.1013 454.76 92.6213 455.96C92.1813 457.12 91.9613 458.4 91.9613 459.8C91.9613 461.16 92.1813 462.46 92.6213 463.7C93.1013 464.9 93.7413 465.96 94.5413 466.88C95.3813 467.76 96.3813 468.46 97.5413 468.98C98.7013 469.5 99.9813 469.76 101.381 469.76Z" fill="#1F2226"/>
<path d="M52.248 517.2L58.488 534H55.08L53.712 530.112H46.896L45.528 534H42.12L48.384 517.2H52.248ZM52.728 527.352L50.304 520.536L47.88 527.352H52.728ZM71.6252 524.688C72.4572 524.944 73.1292 525.352 73.6412 525.912C74.1692 526.472 74.5372 527.104 74.7452 527.808C74.9532 528.496 75.0012 529.208 74.8892 529.944C74.7932 530.664 74.5292 531.328 74.0972 531.936C73.6812 532.544 73.1052 533.04 72.3692 533.424C71.6332 533.808 70.7372 534 69.6812 534H60.0572V517.2H68.2652C69.2092 517.2 70.0172 517.336 70.6892 517.608C71.3772 517.88 71.9372 518.232 72.3692 518.664C72.8172 519.096 73.1292 519.592 73.3052 520.152C73.4972 520.696 73.5612 521.248 73.4972 521.808C73.4332 522.352 73.2412 522.88 72.9212 523.392C72.6172 523.904 72.1852 524.336 71.6252 524.688ZM68.2652 523.776C68.8252 523.776 69.2892 523.68 69.6572 523.488C70.0412 523.296 70.3212 523.064 70.4972 522.792C70.6892 522.504 70.7852 522.2 70.7852 521.88C70.7852 521.544 70.6892 521.24 70.4972 520.968C70.3212 520.68 70.0412 520.44 69.6572 520.248C69.2892 520.056 68.8252 519.96 68.2652 519.96H63.0812V523.776H68.2652ZM69.6812 531.24C70.2412 531.24 70.7052 531.12 71.0732 530.88C71.4572 530.64 71.7372 530.344 71.9132 529.992C72.1052 529.64 72.2012 529.256 72.2012 528.84C72.2012 528.408 72.1052 528.016 71.9132 527.664C71.7372 527.312 71.4572 527.016 71.0732 526.776C70.7052 526.536 70.2412 526.416 69.6812 526.416H63.0812V531.24H69.6812ZM84.4894 519.984C83.6574 519.984 82.9294 520.136 82.3054 520.44C81.6814 520.728 81.1614 521.128 80.7454 521.64C80.3294 522.152 80.0174 522.752 79.8094 523.44C79.6014 524.128 79.4974 524.864 79.4974 525.648C79.4974 526.432 79.6014 527.168 79.8094 527.856C80.0174 528.544 80.3294 529.144 80.7454 529.656C81.1614 530.168 81.6814 530.576 82.3054 530.88C82.9294 531.168 83.6574 531.312 84.4894 531.312C85.2094 531.312 85.8734 531.216 86.4814 531.024C87.0894 530.832 87.6174 530.536 88.0654 530.136L90.0574 532.128C89.3534 532.784 88.5374 533.296 87.6094 533.664C86.6814 534.032 85.6414 534.216 84.4894 534.216C83.2254 534.216 82.0894 533.992 81.0814 533.544C80.0894 533.096 79.2414 532.488 78.5374 531.72C77.8334 530.936 77.2894 530.024 76.9054 528.984C76.5374 527.944 76.3534 526.832 76.3534 525.648C76.3534 524.464 76.5374 523.352 76.9054 522.312C77.2894 521.256 77.8334 520.344 78.5374 519.576C79.2414 518.792 80.0894 518.176 81.0814 517.728C82.0894 517.28 83.2254 517.056 84.4894 517.056C85.6414 517.056 86.6814 517.24 87.6094 517.608C88.5374 517.976 89.3534 518.496 90.0574 519.168L88.0654 521.136C87.6174 520.752 87.0894 520.464 86.4814 520.272C85.8734 520.08 85.2094 519.984 84.4894 519.984ZM98.0059 517.2C99.3659 517.2 100.558 517.44 101.582 517.92C102.606 518.4 103.462 519.04 104.15 519.84C104.838 520.624 105.358 521.52 105.71 522.528C106.062 523.52 106.238 524.544 106.238 525.6C106.238 526.656 106.07 527.688 105.734 528.696C105.398 529.688 104.886 530.584 104.198 531.384C103.526 532.168 102.67 532.8 101.63 533.28C100.59 533.76 99.3819 534 98.0059 534H91.8619V517.2H98.0059ZM98.0059 531.36C99.1259 531.36 100.062 531.08 100.814 530.52C101.582 529.96 102.158 529.256 102.542 528.408C102.942 527.56 103.15 526.648 103.166 525.672C103.198 524.68 103.022 523.76 102.638 522.912C102.27 522.064 101.702 521.36 100.934 520.8C100.166 520.24 99.1899 519.96 98.0059 519.96H94.8859V531.36H98.0059ZM111.433 531.24H121.177V534H108.409V517.2H120.889V519.96H111.433V523.896H119.857V526.536H111.433V531.24ZM135.865 517.2V519.96H126.409V525.096H134.473V527.856H126.409V534H123.385V517.2H135.865ZM153.022 524.328V527.568C152.894 528.592 152.614 529.52 152.182 530.352C151.75 531.168 151.19 531.864 150.502 532.44C149.814 533.016 148.998 533.456 148.054 533.76C147.126 534.064 146.094 534.216 144.958 534.216C143.694 534.216 142.558 533.992 141.55 533.544C140.558 533.096 139.71 532.488 139.006 531.72C138.302 530.936 137.758 530.024 137.374 528.984C137.006 527.944 136.822 526.832 136.822 525.648C136.822 524.464 137.006 523.352 137.374 522.312C137.758 521.256 138.302 520.344 139.006 519.576C139.71 518.792 140.558 518.176 141.55 517.728C142.558 517.28 143.694 517.056 144.958 517.056C146.11 517.056 147.15 517.24 148.078 517.608C149.006 517.976 149.822 518.496 150.526 519.168L148.534 521.136C148.086 520.752 147.558 520.464 146.95 520.272C146.342 520.08 145.678 519.984 144.958 519.984C144.126 519.984 143.398 520.136 142.774 520.44C142.15 520.728 141.63 521.128 141.214 521.64C140.798 522.152 140.486 522.752 140.278 523.44C140.07 524.128 139.966 524.864 139.966 525.648C139.966 526.432 140.07 527.168 140.278 527.856C140.486 528.544 140.798 529.144 141.214 529.656C141.63 530.168 142.15 530.576 142.774 530.88C143.398 531.168 144.126 531.312 144.958 531.312C147.822 531.312 149.502 530.064 149.998 527.568V526.968H145.27V524.328H153.022ZM166.953 517.2H169.977V534H166.953V526.416H158.097V534H155.073V517.2H158.097V523.656H166.953V517.2ZM172.862 534V517.2H175.886V534H172.862ZM183.16 517.2H192.52V527.424C192.52 528.56 192.304 529.552 191.872 530.4C191.456 531.248 190.896 531.96 190.192 532.536C189.488 533.096 188.688 533.52 187.792 533.808C186.912 534.08 186 534.216 185.056 534.216C184.128 534.216 183.216 534.08 182.32 533.808C181.424 533.52 180.624 533.096 179.92 532.536C179.232 531.96 178.672 531.248 178.24 530.4C177.824 529.552 177.616 528.56 177.616 527.424H180.64C180.64 528.096 180.768 528.68 181.024 529.176C181.28 529.672 181.608 530.088 182.008 530.424C182.424 530.744 182.896 530.992 183.424 531.168C183.968 531.328 184.512 531.408 185.056 531.408C185.616 531.408 186.16 531.328 186.688 531.168C187.216 530.992 187.688 530.736 188.104 530.4C188.52 530.064 188.856 529.648 189.112 529.152C189.368 528.656 189.496 528.08 189.496 527.424V519.96H183.16V517.2ZM198.175 531.24H207.151V534H195.151V517.2H198.175V531.24ZM223.745 517.2H226.721V534H223.745V522.624L219.569 528.888L217.721 528.864L215.897 528.888L211.697 522.624V534H208.745V517.2H211.697L217.721 526.128L223.745 517.2ZM241.556 517.2H244.508V534H241.556L232.556 522.744V534H229.604V517.2H232.556L241.556 529.2V517.2ZM254.833 517.056C256.097 517.056 257.225 517.28 258.217 517.728C259.225 518.176 260.081 518.792 260.785 519.576C261.489 520.344 262.025 521.256 262.393 522.312C262.777 523.352 262.969 524.464 262.969 525.648C262.969 526.832 262.777 527.944 262.393 528.984C262.025 530.024 261.489 530.936 260.785 531.72C260.081 532.488 259.225 533.096 258.217 533.544C257.225 533.992 256.097 534.216 254.833 534.216C253.569 534.216 252.433 533.992 251.425 533.544C250.433 533.096 249.585 532.488 248.881 531.72C248.177 530.936 247.633 530.024 247.249 528.984C246.881 527.944 246.697 526.832 246.697 525.648C246.697 524.464 246.881 523.352 247.249 522.312C247.633 521.256 248.177 520.344 248.881 519.576C249.585 518.792 250.433 518.176 251.425 517.728C252.433 517.28 253.569 517.056 254.833 517.056ZM254.833 531.312C255.665 531.312 256.409 531.168 257.065 530.88C257.737 530.576 258.305 530.168 258.769 529.656C259.233 529.144 259.585 528.544 259.825 527.856C260.081 527.168 260.209 526.432 260.209 525.648C260.209 524.864 260.081 524.128 259.825 523.44C259.585 522.752 259.233 522.152 258.769 521.64C258.305 521.128 257.737 520.728 257.065 520.44C256.409 520.136 255.665 519.984 254.833 519.984C254.001 519.984 253.249 520.136 252.577 520.44C251.921 520.728 251.361 521.128 250.897 521.64C250.433 522.152 250.073 522.752 249.817 523.44C249.577 524.128 249.457 524.864 249.457 525.648C249.457 526.432 249.577 527.168 249.817 527.856C250.073 528.544 250.433 529.144 250.897 529.656C251.361 530.168 251.921 530.576 252.577 530.88C253.249 531.168 254.001 531.312 254.833 531.312ZM51.648 546.2C52.816 546.2 53.784 546.448 54.552 546.944C55.336 547.424 55.92 548.032 56.304 548.768C56.704 549.488 56.904 550.272 56.904 551.12C56.904 551.968 56.712 552.76 56.328 553.496C55.944 554.216 55.36 554.824 54.576 555.32C53.792 555.8 52.816 556.04 51.648 556.04H46.464V563H43.44V546.2H51.648ZM51.648 553.4C52.208 553.4 52.672 553.296 53.04 553.088C53.424 552.864 53.704 552.584 53.88 552.248C54.072 551.912 54.168 551.56 54.168 551.192C54.168 550.808 54.072 550.448 53.88 550.112C53.704 549.776 53.424 549.504 53.04 549.296C52.672 549.072 52.208 548.96 51.648 548.96H46.464V553.4H51.648ZM74.391 554.528C74.391 555.984 74.119 557.312 73.575 558.512C73.031 559.712 72.255 560.704 71.247 561.488L74.031 565.616L70.335 565.64L68.439 562.856C67.735 563.032 67.007 563.12 66.255 563.12C64.991 563.12 63.855 562.896 62.847 562.448C61.855 562 61.007 561.392 60.303 560.624C59.599 559.84 59.055 558.928 58.671 557.888C58.303 556.832 58.119 555.712 58.119 554.528C58.119 553.344 58.303 552.232 58.671 551.192C59.055 550.152 59.599 549.24 60.303 548.456C61.007 547.672 61.855 547.056 62.847 546.608C63.855 546.16 64.991 545.936 66.255 545.936C67.519 545.936 68.647 546.16 69.639 546.608C70.647 547.056 71.503 547.672 72.207 548.456C72.911 549.24 73.447 550.152 73.815 551.192C74.199 552.232 74.391 553.344 74.391 554.528ZM60.879 554.528C60.879 555.312 60.999 556.048 61.239 556.736C61.495 557.424 61.855 558.024 62.319 558.536C62.783 559.048 63.343 559.456 63.999 559.76C64.671 560.048 65.423 560.192 66.255 560.192C67.087 560.192 67.831 560.048 68.487 559.76C69.159 559.456 69.727 559.048 70.191 558.536C70.655 558.024 71.007 557.424 71.247 556.736C71.503 556.048 71.631 555.312 71.631 554.528C71.631 553.744 71.503 553.008 71.247 552.32C71.007 551.632 70.655 551.032 70.191 550.52C69.727 550.008 69.159 549.608 68.487 549.32C67.831 549.016 67.087 548.864 66.255 548.864C65.423 548.864 64.671 549.016 63.999 549.32C63.343 549.608 62.783 550.008 62.319 550.52C61.855 551.032 61.495 551.632 61.239 552.32C60.999 553.008 60.879 553.744 60.879 554.528ZM84.8121 546.2C85.9001 546.2 86.8201 546.432 87.5721 546.896C88.3241 547.36 88.9081 547.944 89.3241 548.648C89.7401 549.352 89.9801 550.128 90.0441 550.976C90.1241 551.824 90.0281 552.64 89.7561 553.424C89.4841 554.192 89.0441 554.88 88.4361 555.488C87.8281 556.08 87.0521 556.472 86.1081 556.664L90.1641 563H86.5161L82.5321 556.808H79.6281V563H76.6041V546.2H84.8121ZM79.6281 554.168H84.8121C85.3721 554.168 85.8361 554.04 86.2041 553.784C86.5881 553.528 86.8681 553.208 87.0441 552.824C87.2361 552.44 87.3321 552.024 87.3321 551.576C87.3321 551.112 87.2361 550.688 87.0441 550.304C86.8681 549.92 86.5881 549.6 86.2041 549.344C85.8361 549.088 85.3721 548.96 84.8121 548.96H79.6281V554.168ZM95.3546 550.592C95.3546 551.104 95.5946 551.52 96.0746 551.84C96.5546 552.144 97.1546 552.424 97.8746 552.68C98.5946 552.92 99.3706 553.168 100.203 553.424C101.035 553.68 101.811 554.008 102.531 554.408C103.251 554.808 103.851 555.32 104.331 555.944C104.811 556.552 105.051 557.336 105.051 558.296C105.051 559.064 104.875 559.744 104.523 560.336C104.171 560.928 103.699 561.432 103.107 561.848C102.515 562.248 101.827 562.552 101.043 562.76C100.259 562.968 99.4426 563.072 98.5946 563.072C97.9386 563.072 97.2746 563.008 96.6026 562.88C95.9466 562.752 95.2986 562.56 94.6586 562.304C94.0346 562.032 93.4426 561.688 92.8826 561.272C92.3226 560.856 91.8106 560.368 91.3466 559.808L93.2666 558.008C93.5706 558.376 93.9306 558.696 94.3466 558.968C94.7626 559.24 95.2026 559.464 95.6666 559.64C96.1466 559.816 96.6346 559.952 97.1306 560.048C97.6266 560.128 98.1066 560.168 98.5706 560.168C99.0506 560.168 99.4986 560.128 99.9146 560.048C100.331 559.968 100.691 559.848 100.995 559.688C101.315 559.528 101.563 559.336 101.739 559.112C101.931 558.872 102.027 558.6 102.027 558.296C102.027 557.832 101.883 557.448 101.595 557.144C101.323 556.824 100.963 556.56 100.515 556.352C100.067 556.128 99.5546 555.936 98.9786 555.776C98.4026 555.6 97.8106 555.424 97.2026 555.248C96.5946 555.072 96.0026 554.872 95.4266 554.648C94.8506 554.408 94.3386 554.112 93.8906 553.76C93.4426 553.408 93.0746 552.976 92.7866 552.464C92.5146 551.936 92.3786 551.304 92.3786 550.568C92.3786 549.784 92.5466 549.104 92.8826 548.528C93.2186 547.936 93.6586 547.448 94.2026 547.064C94.7626 546.664 95.4026 546.368 96.1226 546.176C96.8426 545.984 97.5786 545.888 98.3306 545.888C99.3866 545.888 100.411 546.072 101.403 546.44C102.395 546.792 103.211 547.328 103.851 548.048L101.763 549.752C101.411 549.4 100.915 549.128 100.275 548.936C99.6506 548.728 99.0026 548.624 98.3306 548.624C97.9466 548.624 97.5706 548.664 97.2026 548.744C96.8506 548.808 96.5386 548.92 96.2666 549.08C95.9946 549.24 95.7706 549.448 95.5946 549.704C95.4346 549.944 95.3546 550.24 95.3546 550.592ZM120.657 546.2V548.96H114.705V563H111.681V548.96H105.753V546.2H120.657ZM133.853 546.2H136.877V556.424C136.877 557.56 136.661 558.552 136.229 559.4C135.813 560.248 135.253 560.96 134.549 561.536C133.845 562.096 133.045 562.52 132.149 562.808C131.269 563.08 130.357 563.216 129.413 563.216C128.485 563.216 127.573 563.08 126.677 562.808C125.781 562.52 124.981 562.096 124.277 561.536C123.589 560.96 123.029 560.248 122.597 559.4C122.181 558.552 121.973 557.56 121.973 556.424V546.2H124.997V556.424C124.997 557.096 125.125 557.68 125.381 558.176C125.637 558.672 125.965 559.088 126.365 559.424C126.781 559.744 127.253 559.992 127.781 560.168C128.325 560.328 128.869 560.408 129.413 560.408C129.973 560.408 130.517 560.328 131.045 560.168C131.573 559.992 132.045 559.736 132.461 559.4C132.877 559.064 133.213 558.648 133.469 558.152C133.725 557.656 133.853 557.08 133.853 556.424V546.2ZM151.102 546.2H154.51L148.27 563H144.406L138.166 546.248L141.55 546.2L146.326 559.664L151.102 546.2ZM165.522 554.576L171.81 563H168.066L163.626 557.096L159.21 563H155.418L161.73 554.576L155.49 546.248L159.258 546.2L163.626 552.056L168.018 546.2H171.762L165.522 554.576ZM188.153 546.2L181.601 555.968V563H178.625V555.776L172.193 546.2H175.769L180.185 552.632L184.601 546.2H188.153ZM207.886 546.2H211.15L208.342 563H204.046L199.87 550.832L195.718 563H191.422L188.614 546.2H191.878L193.894 559.304L198.262 546.2H201.502L205.87 559.304L207.886 546.2ZM212.408 546.2H227.168V548.624L216.536 560.36H227.168V563H212.264V560.504L222.944 548.96H212.408V546.2Z" fill="#1F2226"/>
<path d="M56.136 603.016V616H53.184V614.416C52.672 614.96 52.096 615.384 51.456 615.688C50.832 615.992 50.16 616.144 49.44 616.144C48.512 616.144 47.64 615.968 46.824 615.616C46.008 615.264 45.296 614.792 44.688 614.2C44.08 613.592 43.6 612.888 43.248 612.088C42.896 611.288 42.72 610.432 42.72 609.52C42.72 608.608 42.896 607.752 43.248 606.952C43.6 606.152 44.08 605.456 44.688 604.864C45.296 604.272 46.008 603.808 46.824 603.472C47.64 603.12 48.512 602.944 49.44 602.944C50.16 602.944 50.84 603.096 51.48 603.4C52.12 603.704 52.688 604.128 53.184 604.672V603.016H56.136ZM49.44 613.504C50 613.504 50.52 613.4 51 613.192C51.496 612.984 51.928 612.704 52.296 612.352C52.664 611.984 52.952 611.56 53.16 611.08C53.368 610.6 53.472 610.088 53.472 609.544C53.472 609 53.368 608.488 53.16 608.008C52.952 607.528 52.664 607.112 52.296 606.76C51.928 606.392 51.496 606.104 51 605.896C50.52 605.688 50 605.584 49.44 605.584C48.88 605.584 48.368 605.688 47.904 605.896C47.44 606.088 47.04 606.368 46.704 606.736C46.384 607.088 46.128 607.504 45.936 607.984C45.76 608.448 45.672 608.96 45.672 609.52C45.672 610.064 45.76 610.584 45.936 611.08C46.128 611.56 46.384 611.984 46.704 612.352C47.04 612.704 47.44 612.984 47.904 613.192C48.368 613.4 48.88 613.504 49.44 613.504ZM65.5796 602.944C66.5076 602.944 67.3716 603.12 68.1716 603.472C68.9876 603.808 69.6996 604.272 70.3076 604.864C70.9156 605.456 71.3956 606.152 71.7476 606.952C72.0996 607.752 72.2756 608.608 72.2756 609.52C72.2756 610.432 72.0996 611.288 71.7476 612.088C71.3956 612.888 70.9156 613.592 70.3076 614.2C69.6996 614.792 68.9876 615.264 68.1716 615.616C67.3716 615.968 66.5076 616.144 65.5796 616.144C64.8596 616.144 64.1796 615.992 63.5396 615.688C62.8996 615.384 62.3236 614.96 61.8116 614.416V616H58.8596V597.472H61.8116V604.672C62.3236 604.128 62.8996 603.704 63.5396 603.4C64.1796 603.096 64.8596 602.944 65.5796 602.944ZM65.5796 613.504C66.1396 613.504 66.6436 613.4 67.0916 613.192C67.5556 612.984 67.9476 612.704 68.2676 612.352C68.6036 611.984 68.8596 611.56 69.0356 611.08C69.2276 610.584 69.3236 610.064 69.3236 609.52C69.3236 608.96 69.2276 608.448 69.0356 607.984C68.8596 607.504 68.6036 607.088 68.2676 606.736C67.9476 606.368 67.5556 606.088 67.0916 605.896C66.6436 605.688 66.1396 605.584 65.5796 605.584C65.0196 605.584 64.4916 605.688 63.9956 605.896C63.5156 606.104 63.0916 606.392 62.7236 606.76C62.3556 607.112 62.0596 607.528 61.8356 608.008C61.6276 608.488 61.5236 609 61.5236 609.544C61.5236 610.088 61.6276 610.6 61.8356 611.08C62.0596 611.56 62.3556 611.984 62.7236 612.352C63.0916 612.704 63.5156 612.984 63.9956 613.192C64.4916 613.4 65.0196 613.504 65.5796 613.504ZM80.4953 613.504C80.9913 613.504 81.4793 613.44 81.9593 613.312C82.4393 613.184 82.8553 612.976 83.2073 612.688L85.3672 614.248C84.7913 614.84 84.0953 615.304 83.2793 615.64C82.4633 615.976 81.5353 616.144 80.4953 616.144C79.4553 616.144 78.5193 615.968 77.6873 615.616C76.8553 615.264 76.1513 614.792 75.5753 614.2C74.9993 613.592 74.5513 612.888 74.2313 612.088C73.9273 611.288 73.7753 610.432 73.7753 609.52C73.7753 608.608 73.9273 607.752 74.2313 606.952C74.5513 606.136 74.9993 605.432 75.5753 604.84C76.1513 604.232 76.8553 603.752 77.6873 603.4C78.5193 603.048 79.4553 602.872 80.4953 602.872C81.5353 602.872 82.4633 603.04 83.2793 603.376C84.0953 603.712 84.7913 604.184 85.3672 604.792L83.2073 606.352C82.8553 606.048 82.4393 605.832 81.9593 605.704C81.4793 605.576 80.9913 605.512 80.4953 605.512C79.9353 605.512 79.4073 605.616 78.9113 605.824C78.4313 606.032 78.0073 606.32 77.6393 606.688C77.2713 607.056 76.9833 607.48 76.7753 607.96C76.5673 608.44 76.4633 608.96 76.4633 609.52C76.4633 610.064 76.5673 610.584 76.7753 611.08C76.9833 611.56 77.2713 611.984 77.6393 612.352C78.0073 612.704 78.4313 612.984 78.9113 613.192C79.4073 613.4 79.9353 613.504 80.4953 613.504ZM99.4725 597.472V616H96.4965V614.416C95.9845 614.96 95.4085 615.384 94.7685 615.688C94.1445 615.992 93.4725 616.144 92.7525 616.144C91.8245 616.144 90.9525 615.968 90.1365 615.616C89.3205 615.264 88.6085 614.792 88.0005 614.2C87.3925 613.592 86.9125 612.888 86.5605 612.088C86.2085 611.288 86.0325 610.432 86.0325 609.52C86.0325 608.608 86.2085 607.752 86.5605 606.952C86.9125 606.152 87.3925 605.456 88.0005 604.864C88.6085 604.272 89.3205 603.808 90.1365 603.472C90.9525 603.12 91.8245 602.944 92.7525 602.944C93.4725 602.944 94.1525 603.096 94.7925 603.4C95.4325 603.704 96.0005 604.128 96.4965 604.672V597.472H99.4725ZM92.7525 613.504C93.3125 613.504 93.8325 613.4 94.3125 613.192C94.8085 612.984 95.2405 612.704 95.6085 612.352C95.9765 611.984 96.2645 611.56 96.4725 611.08C96.6805 610.6 96.7845 610.088 96.7845 609.544C96.7845 609 96.6805 608.488 96.4725 608.008C96.2645 607.528 95.9765 607.112 95.6085 606.76C95.2405 606.392 94.8085 606.104 94.3125 605.896C93.8325 605.688 93.3125 605.584 92.7525 605.584C92.1925 605.584 91.6805 605.688 91.2165 605.896C90.7525 606.088 90.3525 606.368 90.0165 606.736C89.6965 607.088 89.4405 607.504 89.2485 607.984C89.0725 608.448 88.9845 608.96 88.9845 609.52C88.9845 610.064 89.0725 610.584 89.2485 611.08C89.4405 611.56 89.6965 611.984 90.0165 612.352C90.3525 612.704 90.7525 612.984 91.2165 613.192C91.6805 613.4 92.1925 613.504 92.7525 613.504ZM115.012 610.6H104.404C104.644 611.448 105.116 612.144 105.82 612.688C106.54 613.232 107.364 613.504 108.292 613.504C108.788 613.504 109.276 613.44 109.756 613.312C110.236 613.184 110.652 612.976 111.004 612.688L113.164 614.248C112.588 614.84 111.892 615.304 111.076 615.64C110.26 615.976 109.332 616.144 108.292 616.144C107.252 616.144 106.316 615.968 105.484 615.616C104.652 615.264 103.948 614.792 103.372 614.2C102.796 613.592 102.348 612.888 102.028 612.088C101.724 611.288 101.572 610.432 101.572 609.52C101.572 608.608 101.724 607.752 102.028 606.952C102.348 606.136 102.796 605.432 103.372 604.84C103.948 604.232 104.652 603.752 105.484 603.4C106.316 603.048 107.252 602.872 108.292 602.872C109.332 602.872 110.268 603.048 111.1 603.4C111.932 603.752 112.636 604.232 113.212 604.84C113.788 605.432 114.228 606.136 114.532 606.952C114.852 607.752 115.012 608.608 115.012 609.52V610.6ZM112.18 608.44C112.068 608.024 111.884 607.64 111.628 607.288C111.388 606.92 111.092 606.608 110.74 606.352C110.404 606.08 110.028 605.872 109.612 605.728C109.196 605.584 108.756 605.512 108.292 605.512C107.828 605.512 107.388 605.584 106.972 605.728C106.556 605.872 106.172 606.08 105.82 606.352C105.484 606.608 105.196 606.92 104.956 607.288C104.716 607.64 104.532 608.024 104.404 608.44H112.18ZM124.716 599.32C124.508 599.288 124.316 599.264 124.14 599.248C123.964 599.216 123.788 599.2 123.612 599.2C122.972 599.2 122.46 599.32 122.076 599.56C121.708 599.784 121.42 600.08 121.212 600.448C121.004 600.816 120.868 601.232 120.804 601.696C120.74 602.144 120.708 602.592 120.708 603.04H124.26V605.68H120.708V616H117.732V605.68H116.004V603.04H117.732C117.732 601.968 117.884 601.032 118.188 600.232C118.492 599.416 118.9 598.744 119.412 598.216C119.924 597.672 120.516 597.272 121.188 597.016C121.86 596.744 122.572 596.608 123.324 596.608C123.564 596.608 123.804 596.624 124.044 596.656C124.284 596.688 124.524 596.728 124.764 596.776L124.716 599.32ZM138.402 603.04V616.12C138.402 617.256 138.21 618.216 137.826 619C137.458 619.8 136.962 620.456 136.338 620.968C135.714 621.48 134.994 621.848 134.178 622.072C133.362 622.312 132.522 622.432 131.658 622.432C130.522 622.432 129.402 622.256 128.298 621.904C127.21 621.552 126.258 621.048 125.442 620.392L126.786 618.472C127.41 618.904 128.09 619.224 128.826 619.432C129.578 619.656 130.314 619.768 131.034 619.768C131.626 619.768 132.186 619.696 132.714 619.552C133.242 619.408 133.706 619.184 134.106 618.88C134.506 618.576 134.826 618.192 135.066 617.728C135.306 617.28 135.426 616.744 135.426 616.12V614.344C134.93 614.888 134.362 615.32 133.722 615.64C133.082 615.944 132.402 616.096 131.682 616.096C130.754 616.096 129.882 615.928 129.066 615.592C128.25 615.24 127.538 614.768 126.93 614.176C126.322 613.584 125.842 612.888 125.49 612.088C125.138 611.288 124.962 610.432 124.962 609.52C124.962 608.608 125.138 607.752 125.49 606.952C125.842 606.136 126.322 605.432 126.93 604.84C127.538 604.232 128.25 603.752 129.066 603.4C129.882 603.048 130.754 602.872 131.682 602.872C132.402 602.872 133.074 603.024 133.698 603.328C134.338 603.632 134.914 604.056 135.426 604.6V603.04H138.402ZM131.682 613.456C132.242 613.456 132.762 613.352 133.242 613.144C133.738 612.936 134.17 612.656 134.538 612.304C134.906 611.936 135.194 611.512 135.402 611.032C135.61 610.552 135.714 610.04 135.714 609.496C135.714 608.936 135.61 608.416 135.402 607.936C135.194 607.456 134.906 607.04 134.538 606.688C134.17 606.32 133.738 606.032 133.242 605.824C132.762 605.616 132.242 605.512 131.682 605.512C131.122 605.512 130.61 605.616 130.146 605.824C129.682 606.032 129.282 606.32 128.946 606.688C128.626 607.056 128.37 607.48 128.178 607.96C128.002 608.44 127.914 608.96 127.914 609.52C127.914 610.064 128.002 610.576 128.178 611.056C128.37 611.536 128.626 611.96 128.946 612.328C129.282 612.68 129.682 612.96 130.146 613.168C130.61 613.36 131.122 613.456 131.682 613.456ZM144.054 604.36C144.614 603.816 145.27 603.416 146.022 603.16C146.79 602.888 147.582 602.752 148.398 602.752C149.086 602.752 149.75 602.848 150.39 603.04C151.046 603.232 151.622 603.52 152.118 603.904C152.63 604.288 153.046 604.768 153.366 605.344C153.686 605.904 153.854 606.56 153.87 607.312V616.024H150.918V608.368C150.918 607.808 150.83 607.328 150.654 606.928C150.478 606.512 150.246 606.168 149.958 605.896C149.67 605.624 149.342 605.424 148.974 605.296C148.606 605.168 148.222 605.104 147.822 605.104C147.374 605.104 146.918 605.184 146.454 605.344C146.006 605.504 145.606 605.744 145.254 606.064C144.902 606.384 144.614 606.776 144.39 607.24C144.166 607.704 144.054 608.24 144.054 608.848V616.12H141.102V597.52H144.054V604.36ZM157.895 602.008C157.431 602.008 157.039 601.848 156.719 601.528C156.399 601.208 156.239 600.816 156.239 600.352C156.239 599.888 156.399 599.496 156.719 599.176C157.039 598.856 157.431 598.696 157.895 598.696C158.359 598.696 158.743 598.856 159.047 599.176C159.367 599.496 159.527 599.888 159.527 600.352C159.527 600.816 159.367 601.208 159.047 601.528C158.743 601.848 158.359 602.008 157.895 602.008ZM156.407 615.976V603.04H159.359V615.976H156.407ZM163.59 602.008C163.126 602.008 162.734 601.848 162.414 601.528C162.094 601.208 161.934 600.816 161.934 600.352C161.934 599.888 162.094 599.496 162.414 599.176C162.734 598.856 163.126 598.696 163.59 598.696C164.054 598.696 164.438 598.856 164.742 599.176C165.062 599.496 165.222 599.888 165.222 600.352C165.222 600.816 165.062 601.208 164.742 601.528C164.438 601.848 164.054 602.008 163.59 602.008ZM162.102 603.04H165.078V614.416C165.078 615.424 164.942 616.28 164.67 616.984C164.398 617.688 164.03 618.256 163.566 618.688C163.102 619.12 162.558 619.432 161.934 619.624C161.326 619.832 160.678 619.936 159.99 619.936C159.334 619.936 158.686 619.864 158.046 619.72L158.07 617.176C158.63 617.288 159.142 617.344 159.606 617.344C160.15 617.344 160.582 617.264 160.902 617.104C161.238 616.96 161.494 616.752 161.67 616.48C161.846 616.224 161.958 615.92 162.006 615.568C162.07 615.216 162.102 614.832 162.102 614.416V603.04ZM167.774 616V597.472H170.726V616H167.774ZM184.174 604.96C184.654 604.224 185.278 603.68 186.046 603.328C186.814 602.976 187.606 602.8 188.422 602.8C189.014 602.8 189.59 602.896 190.15 603.088C190.726 603.28 191.238 603.568 191.686 603.952C192.134 604.32 192.494 604.792 192.766 605.368C193.038 605.928 193.182 606.584 193.198 607.336V616.072H190.246V608.464C190.246 607.904 190.174 607.416 190.03 607C189.886 606.584 189.694 606.24 189.454 605.968C189.23 605.696 188.966 605.496 188.662 605.368C188.374 605.24 188.07 605.176 187.75 605.176C187.414 605.176 187.078 605.248 186.742 605.392C186.422 605.52 186.126 605.72 185.854 605.992C185.582 606.264 185.35 606.6 185.158 607C184.982 607.384 184.87 607.84 184.822 608.368V616.072H181.846V608.368C181.846 607.808 181.774 607.328 181.63 606.928C181.502 606.512 181.326 606.168 181.102 605.896C180.878 605.624 180.614 605.424 180.31 605.296C180.022 605.168 179.718 605.104 179.398 605.104C179.046 605.104 178.686 605.192 178.318 605.368C177.966 605.528 177.646 605.768 177.358 606.088C177.07 606.408 176.838 606.8 176.662 607.264C176.486 607.728 176.398 608.264 176.398 608.872V616.144H173.446V603.088H176.398V604.192C176.878 603.728 177.43 603.384 178.054 603.16C178.694 602.92 179.35 602.8 180.022 602.8C180.838 602.8 181.622 602.984 182.374 603.352C183.126 603.704 183.726 604.24 184.174 604.96ZM208.503 607.264V615.976H205.551V608.368C205.551 607.808 205.463 607.32 205.287 606.904C205.111 606.488 204.871 606.144 204.567 605.872C204.279 605.6 203.943 605.4 203.559 605.272C203.191 605.144 202.807 605.08 202.407 605.08C201.959 605.08 201.511 605.16 201.063 605.32C200.615 605.48 200.215 605.72 199.863 606.04C199.511 606.344 199.223 606.728 198.999 607.192C198.791 607.64 198.687 608.168 198.687 608.776V616.072H195.735V602.992H198.687V604.288C199.247 603.76 199.903 603.368 200.655 603.112C201.423 602.84 202.207 602.704 203.007 602.704C203.695 602.704 204.367 602.8 205.023 602.992C205.679 603.184 206.255 603.472 206.751 603.856C207.263 604.24 207.679 604.72 207.999 605.296C208.319 605.856 208.487 606.512 208.503 607.264ZM217.135 602.872C218.063 602.872 218.935 603.048 219.751 603.4C220.567 603.736 221.279 604.208 221.887 604.816C222.495 605.408 222.975 606.112 223.327 606.928C223.679 607.728 223.855 608.584 223.855 609.496C223.855 610.408 223.679 611.272 223.327 612.088C222.975 612.888 222.495 613.592 221.887 614.2C221.279 614.792 220.567 615.264 219.751 615.616C218.935 615.968 218.063 616.144 217.135 616.144C216.207 616.144 215.335 615.968 214.519 615.616C213.703 615.264 212.991 614.792 212.383 614.2C211.775 613.592 211.295 612.888 210.943 612.088C210.591 611.272 210.415 610.408 210.415 609.496C210.415 608.584 210.591 607.728 210.943 606.928C211.295 606.112 211.775 605.408 212.383 604.816C212.991 604.208 213.703 603.736 214.519 603.4C215.335 603.048 216.207 602.872 217.135 602.872ZM217.135 613.48C217.695 613.48 218.215 613.376 218.695 613.168C219.191 612.96 219.623 612.68 219.991 612.328C220.359 611.96 220.647 611.536 220.855 611.056C221.063 610.56 221.167 610.04 221.167 609.496C221.167 608.936 221.063 608.416 220.855 607.936C220.647 607.456 220.359 607.04 219.991 606.688C219.623 606.32 219.191 606.032 218.695 605.824C218.215 605.616 217.695 605.512 217.135 605.512C216.575 605.512 216.047 605.616 215.551 605.824C215.071 606.032 214.647 606.32 214.279 606.688C213.911 607.04 213.623 607.456 213.415 607.936C213.207 608.416 213.103 608.936 213.103 609.496C213.103 610.04 213.207 610.56 213.415 611.056C213.623 611.536 213.911 611.96 214.279 612.328C214.647 612.68 215.071 612.96 215.551 613.168C216.047 613.376 216.575 613.48 217.135 613.48ZM232.642 602.872C233.57 602.872 234.434 603.048 235.234 603.4C236.05 603.752 236.762 604.232 237.37 604.84C237.978 605.432 238.458 606.136 238.81 606.952C239.162 607.752 239.338 608.608 239.338 609.52C239.338 610.432 239.162 611.288 238.81 612.088C238.458 612.888 237.978 613.584 237.37 614.176C236.762 614.768 236.05 615.24 235.234 615.592C234.434 615.928 233.57 616.096 232.642 616.096C231.922 616.096 231.242 615.944 230.602 615.64C229.962 615.32 229.386 614.888 228.874 614.344V622.576H225.922V603.04H228.874V604.6C229.386 604.056 229.962 603.632 230.602 603.328C231.242 603.024 231.922 602.872 232.642 602.872ZM232.642 613.456C233.202 613.456 233.706 613.36 234.154 613.168C234.618 612.96 235.01 612.68 235.33 612.328C235.666 611.96 235.922 611.536 236.098 611.056C236.29 610.576 236.386 610.064 236.386 609.52C236.386 608.96 236.29 608.44 236.098 607.96C235.922 607.48 235.666 607.056 235.33 606.688C235.01 606.32 234.618 606.032 234.154 605.824C233.706 605.616 233.202 605.512 232.642 605.512C232.082 605.512 231.554 605.616 231.058 605.824C230.578 606.032 230.154 606.32 229.786 606.688C229.418 607.04 229.122 607.456 228.898 607.936C228.69 608.416 228.586 608.936 228.586 609.496C228.586 610.04 228.69 610.552 228.898 611.032C229.122 611.512 229.418 611.936 229.786 612.304C230.154 612.656 230.578 612.936 231.058 613.144C231.554 613.352 232.082 613.456 232.642 613.456ZM254.23 603.04V622.576H251.278V614.344C250.782 614.888 250.214 615.32 249.574 615.64C248.934 615.944 248.254 616.096 247.534 616.096C246.606 616.096 245.734 615.928 244.918 615.592C244.102 615.24 243.39 614.768 242.782 614.176C242.174 613.584 241.694 612.888 241.342 612.088C240.99 611.288 240.814 610.432 240.814 609.52C240.814 608.608 240.99 607.752 241.342 606.952C241.694 606.136 242.174 605.432 242.782 604.84C243.39 604.232 244.102 603.752 244.918 603.4C245.734 603.048 246.606 602.872 247.534 602.872C248.254 602.872 248.926 603.024 249.55 603.328C250.19 603.632 250.766 604.056 251.278 604.6V603.04H254.23ZM247.534 613.456C248.094 613.456 248.614 613.352 249.094 613.144C249.59 612.936 250.022 612.656 250.39 612.304C250.758 611.936 251.046 611.512 251.254 611.032C251.462 610.552 251.566 610.04 251.566 609.496C251.566 608.936 251.462 608.416 251.254 607.936C251.046 607.456 250.758 607.04 250.39 606.688C250.022 606.32 249.59 606.032 249.094 605.824C248.614 605.616 248.094 605.512 247.534 605.512C246.974 605.512 246.462 605.616 245.998 605.824C245.534 606.032 245.134 606.32 244.798 606.688C244.478 607.056 244.222 607.48 244.03 607.96C243.854 608.44 243.766 608.96 243.766 609.52C243.766 610.064 243.854 610.576 244.03 611.056C244.222 611.536 244.478 611.96 244.798 612.328C245.134 612.68 245.534 612.96 245.998 613.168C246.462 613.36 246.974 613.456 247.534 613.456ZM46.296 634.368C46.664 633.408 47.216 632.744 47.952 632.376C48.704 631.992 49.504 631.8 50.352 631.8C50.832 631.8 51.312 631.848 51.792 631.944C52.272 632.04 52.736 632.152 53.184 632.28L52.464 634.752C51.664 634.4 50.944 634.224 50.304 634.224C49.728 634.224 49.2 634.36 48.72 634.632C48.24 634.888 47.816 635.304 47.448 635.88C47.096 636.456 46.816 637.192 46.608 638.088C46.416 638.984 46.32 640.072 46.32 641.352L46.296 640.824V645H43.344V632.04H46.296V634.368ZM57.0951 635.304C57.0951 635.72 57.2871 636.056 57.6711 636.312C58.0551 636.552 58.5351 636.768 59.1111 636.96C59.7031 637.152 60.3351 637.352 61.0071 637.56C61.6951 637.752 62.3271 638.008 62.9031 638.328C63.4951 638.632 63.9831 639.032 64.3671 639.528C64.7511 640.008 64.9431 640.64 64.9431 641.424C64.9431 642.032 64.7911 642.576 64.4871 643.056C64.1991 643.52 63.8071 643.92 63.3111 644.256C62.8151 644.576 62.2391 644.824 61.5831 645C60.9431 645.16 60.2711 645.24 59.5671 645.24C58.4791 645.24 57.3911 645.032 56.3031 644.616C55.2311 644.2 54.3111 643.536 53.5431 642.624L55.3671 640.944C55.6391 641.248 55.9511 641.52 56.3031 641.76C56.6711 641.984 57.0471 642.176 57.4311 642.336C57.8311 642.496 58.2311 642.616 58.6311 642.696C59.0471 642.76 59.4471 642.792 59.8311 642.792C60.5031 642.792 61.0711 642.68 61.5351 642.456C62.0151 642.216 62.2551 641.872 62.2551 641.424C62.2551 640.96 62.0631 640.608 61.6791 640.368C61.2951 640.112 60.8071 639.904 60.2151 639.744C59.6391 639.568 59.0071 639.4 58.3191 639.24C57.6471 639.08 57.0151 638.848 56.4231 638.544C55.8471 638.24 55.3671 637.84 54.9831 637.344C54.5991 636.832 54.4071 636.144 54.4071 635.28C54.4071 634.656 54.5431 634.112 54.8151 633.648C55.1031 633.184 55.4711 632.8 55.9191 632.496C56.3831 632.176 56.9111 631.944 57.5031 631.8C58.1111 631.64 58.7271 631.56 59.3511 631.56C60.2311 631.56 61.0791 631.704 61.8951 631.992C62.7271 632.28 63.4071 632.712 63.9351 633.288L62.3751 634.848C61.9111 634.464 61.3991 634.176 60.8391 633.984C60.2791 633.792 59.7431 633.696 59.2311 633.696C58.6231 633.696 58.1111 633.824 57.6951 634.08C57.2951 634.336 57.0951 634.744 57.0951 635.304ZM73.9776 644.976H70.2096C69.7296 644.976 69.3296 644.864 69.0096 644.64C68.7056 644.416 68.4656 644.128 68.2896 643.776C68.1136 643.408 67.9856 643.008 67.9056 642.576C67.8416 642.144 67.8096 641.72 67.8096 641.304V634.68H66.0816V632.04H67.8096V628.2H70.7856V632.04H73.1376V634.68H70.7856V641.304C70.7856 641.544 70.8336 641.736 70.9296 641.88C71.0416 642.024 71.2176 642.128 71.4576 642.192C71.7136 642.256 72.0416 642.296 72.4416 642.312C72.8576 642.328 73.3616 642.336 73.9536 642.336L73.9776 644.976ZM88.4987 631.944V645H85.5467V643.704C84.9867 644.248 84.3227 644.648 83.5547 644.904C82.8027 645.16 82.0187 645.288 81.2027 645.288C80.5147 645.288 79.8427 645.192 79.1867 645C78.5467 644.808 77.9707 644.528 77.4587 644.16C76.9467 643.776 76.5307 643.304 76.2107 642.744C75.9067 642.168 75.7467 641.504 75.7307 640.752V632.04H78.6827V638.952C78.6827 639.56 78.7787 640.096 78.9707 640.56C79.1787 641.008 79.4507 641.384 79.7867 641.688C80.1227 641.976 80.4987 642.2 80.9147 642.36C81.3307 642.504 81.7547 642.576 82.1867 642.576C82.6027 642.576 83.0107 642.504 83.4107 642.36C83.8267 642.216 84.1867 642.008 84.4907 641.736C84.8107 641.448 85.0667 641.096 85.2587 640.68C85.4507 640.264 85.5467 639.776 85.5467 639.216V631.944H88.4987ZM104.044 632.04L98.8119 645H95.2839L90.0519 632.04H93.2679L97.0599 641.4L100.828 632.04H104.044ZM118.481 645H114.785L111.497 640.8L108.209 645H104.489L109.625 638.424L104.609 632.016H108.329L111.497 636.048L114.641 632.016H118.361L113.345 638.424L118.481 645ZM132.919 632.04L124.375 651.576H121.183L124.111 644.856L118.927 632.04H122.143L126.031 640.92L129.703 632.04H132.919ZM153.069 632.04L149.013 645H145.509L143.229 637.344L140.949 645H137.445L133.413 632.04H136.485L139.173 640.536L141.597 632.04H144.861L147.309 640.536L149.973 632.04H153.069ZM166.576 632.016V634.296L158.488 642.36H166.576V645H154V642.552L161.992 634.68H154.48V632.04H164.68V632.016H166.576Z" fill="#1F2226"/>
<path d="M405.65 45.6H411.362L406.448 75H398.93L391.622 53.706L384.356 75H376.838L371.924 45.6H377.636L381.164 68.532L388.808 45.6H394.478L402.122 68.532L405.65 45.6ZM436.138 52.278V75H430.972V72.228C430.076 73.18 429.068 73.922 427.948 74.454C426.856 74.986 425.68 75.252 424.42 75.252C422.796 75.252 421.27 74.944 419.842 74.328C418.414 73.712 417.168 72.886 416.104 71.85C415.04 70.786 414.2 69.554 413.584 68.154C412.968 66.754 412.66 65.256 412.66 63.66C412.66 62.064 412.968 60.566 413.584 59.166C414.2 57.766 415.04 56.548 416.104 55.512C417.168 54.476 418.414 53.664 419.842 53.076C421.27 52.46 422.796 52.152 424.42 52.152C425.68 52.152 426.87 52.418 427.99 52.95C429.11 53.482 430.104 54.224 430.972 55.176V52.278H436.138ZM424.42 70.632C425.4 70.632 426.31 70.45 427.15 70.086C428.018 69.722 428.774 69.232 429.418 68.616C430.062 67.972 430.566 67.23 430.93 66.39C431.294 65.55 431.476 64.654 431.476 63.702C431.476 62.75 431.294 61.854 430.93 61.014C430.566 60.174 430.062 59.446 429.418 58.83C428.774 58.186 428.018 57.682 427.15 57.318C426.31 56.954 425.4 56.772 424.42 56.772C423.44 56.772 422.544 56.954 421.732 57.318C420.92 57.654 420.22 58.144 419.632 58.788C419.072 59.404 418.624 60.132 418.288 60.972C417.98 61.784 417.826 62.68 417.826 63.66C417.826 64.612 417.98 65.522 418.288 66.39C418.624 67.23 419.072 67.972 419.632 68.616C420.22 69.232 420.92 69.722 421.732 70.086C422.544 70.45 423.44 70.632 424.42 70.632ZM446.071 56.394C446.715 54.714 447.681 53.552 448.969 52.908C450.285 52.236 451.685 51.9 453.169 51.9C454.009 51.9 454.849 51.984 455.689 52.152C456.529 52.32 457.341 52.516 458.125 52.74L456.865 57.066C455.465 56.45 454.205 56.142 453.085 56.142C452.077 56.142 451.153 56.38 450.313 56.856C449.473 57.304 448.731 58.032 448.087 59.04C447.471 60.048 446.981 61.336 446.617 62.904C446.281 64.472 446.113 66.376 446.113 68.616L446.071 67.692V75H440.905V52.32H446.071V56.394ZM472.598 52.026C474.222 52.026 475.734 52.334 477.134 52.95C478.562 53.566 479.808 54.406 480.872 55.47C481.936 56.506 482.776 57.738 483.392 59.166C484.008 60.566 484.316 62.064 484.316 63.66C484.316 65.256 484.008 66.754 483.392 68.154C482.776 69.554 481.936 70.772 480.872 71.808C479.808 72.844 478.562 73.67 477.134 74.286C475.734 74.874 474.222 75.168 472.598 75.168C471.338 75.168 470.148 74.902 469.028 74.37C467.908 73.81 466.9 73.054 466.004 72.102V86.508H460.838V52.32H466.004V55.05C466.9 54.098 467.908 53.356 469.028 52.824C470.148 52.292 471.338 52.026 472.598 52.026ZM472.598 70.548C473.578 70.548 474.46 70.38 475.244 70.044C476.056 69.68 476.742 69.19 477.302 68.574C477.89 67.93 478.338 67.188 478.646 66.348C478.982 65.508 479.15 64.612 479.15 63.66C479.15 62.68 478.982 61.77 478.646 60.93C478.338 60.09 477.89 59.348 477.302 58.704C476.742 58.06 476.056 57.556 475.244 57.192C474.46 56.828 473.578 56.646 472.598 56.646C471.618 56.646 470.694 56.828 469.826 57.192C468.986 57.556 468.244 58.06 467.6 58.704C466.956 59.32 466.438 60.048 466.046 60.888C465.682 61.728 465.5 62.638 465.5 63.618C465.5 64.57 465.682 65.466 466.046 66.306C466.438 67.146 466.956 67.888 467.6 68.532C468.244 69.148 468.986 69.638 469.826 70.002C470.694 70.366 471.618 70.548 472.598 70.548ZM490.595 50.514C489.783 50.514 489.097 50.234 488.537 49.674C487.977 49.114 487.697 48.428 487.697 47.616C487.697 46.804 487.977 46.118 488.537 45.558C489.097 44.998 489.783 44.718 490.595 44.718C491.407 44.718 492.079 44.998 492.611 45.558C493.171 46.118 493.451 46.804 493.451 47.616C493.451 48.428 493.171 49.114 492.611 49.674C492.079 50.234 491.407 50.514 490.595 50.514ZM487.991 74.958V52.32H493.157V74.958H487.991ZM520.26 59.712V74.958H515.094V61.644C515.094 60.664 514.94 59.81 514.632 59.082C514.324 58.354 513.904 57.752 513.372 57.276C512.868 56.8 512.28 56.45 511.608 56.226C510.964 56.002 510.292 55.89 509.592 55.89C508.808 55.89 508.024 56.03 507.24 56.31C506.456 56.59 505.756 57.01 505.14 57.57C504.524 58.102 504.02 58.774 503.628 59.586C503.264 60.37 503.082 61.294 503.082 62.358V75.126H497.916V52.236H503.082V54.504C504.062 53.58 505.21 52.894 506.526 52.446C507.87 51.97 509.242 51.732 510.642 51.732C511.846 51.732 513.022 51.9 514.17 52.236C515.318 52.572 516.326 53.076 517.194 53.748C518.09 54.42 518.818 55.26 519.378 56.268C519.938 57.248 520.232 58.396 520.26 59.712ZM547.128 52.32V75.21C547.128 77.198 546.792 78.878 546.12 80.25C545.476 81.65 544.608 82.798 543.516 83.694C542.424 84.59 541.164 85.234 539.736 85.626C538.308 86.046 536.838 86.256 535.326 86.256C533.338 86.256 531.378 85.948 529.446 85.332C527.542 84.716 525.876 83.834 524.448 82.686L526.8 79.326C527.892 80.082 529.082 80.642 530.37 81.006C531.686 81.398 532.974 81.594 534.234 81.594C535.27 81.594 536.25 81.468 537.174 81.216C538.098 80.964 538.91 80.572 539.61 80.04C540.31 79.508 540.87 78.836 541.29 78.024C541.71 77.24 541.92 76.302 541.92 75.21V72.102C541.052 73.054 540.058 73.81 538.938 74.37C537.818 74.902 536.628 75.168 535.368 75.168C533.744 75.168 532.218 74.874 530.79 74.286C529.362 73.67 528.116 72.844 527.052 71.808C525.988 70.772 525.148 69.554 524.532 68.154C523.916 66.754 523.608 65.256 523.608 63.66C523.608 62.064 523.916 60.566 524.532 59.166C525.148 57.738 525.988 56.506 527.052 55.47C528.116 54.406 529.362 53.566 530.79 52.95C532.218 52.334 533.744 52.026 535.368 52.026C536.628 52.026 537.804 52.292 538.896 52.824C540.016 53.356 541.024 54.098 541.92 55.05V52.32H547.128ZM535.368 70.548C536.348 70.548 537.258 70.366 538.098 70.002C538.966 69.638 539.722 69.148 540.366 68.532C541.01 67.888 541.514 67.146 541.878 66.306C542.242 65.466 542.424 64.57 542.424 63.618C542.424 62.638 542.242 61.728 541.878 60.888C541.514 60.048 541.01 59.32 540.366 58.704C539.722 58.06 538.966 57.556 538.098 57.192C537.258 56.828 536.348 56.646 535.368 56.646C534.388 56.646 533.492 56.828 532.68 57.192C531.868 57.556 531.168 58.06 530.58 58.704C530.02 59.348 529.572 60.09 529.236 60.93C528.928 61.77 528.774 62.68 528.774 63.66C528.774 64.612 528.928 65.508 529.236 66.348C529.572 67.188 530.02 67.93 530.58 68.574C531.168 69.19 531.868 69.68 532.68 70.044C533.492 70.38 534.388 70.548 535.368 70.548Z" fill="#1F2226"/>
</svg>
