<svg width="64" height="64" viewBox="0 0 64 64" fill="none" xmlns="http://www.w3.org/2000/svg">
<mask id="mask0_1247_2987" style="mask-type:alpha" maskUnits="userSpaceOnUse" x="0" y="0" width="64" height="64">
<rect width="64" height="64" fill="#D9D9D9"/>
</mask>
<g mask="url(#mask0_1247_2987)">
<path d="M18.6667 53.3332H10.6667C9.19999 53.3332 7.94444 52.811 6.89999 51.7665C5.85555 50.7221 5.33333 49.4665 5.33333 47.9998V15.9998C5.33333 14.5332 5.85555 13.2776 6.89999 12.2332C7.94444 11.1887 9.19999 10.6665 10.6667 10.6665H53.3333V15.9998H10.6667V47.9998H18.6667V53.3332ZM29.3333 46.6665C30.4444 46.6665 31.3889 46.2776 32.1667 45.4998C32.9444 44.7221 33.3333 43.7776 33.3333 42.6665C33.3333 41.5554 32.9444 40.6109 32.1667 39.8332C31.3889 39.0554 30.4444 38.6665 29.3333 38.6665C28.2222 38.6665 27.2778 39.0554 26.5 39.8332C25.7222 40.6109 25.3333 41.5554 25.3333 42.6665C25.3333 43.7776 25.7222 44.7221 26.5 45.4998C27.2778 46.2776 28.2222 46.6665 29.3333 46.6665ZM24 53.3332V48.5998C23.1556 47.8443 22.5 46.9554 22.0333 45.9332C21.5667 44.9109 21.3333 43.8221 21.3333 42.6665C21.3333 41.511 21.5667 40.4221 22.0333 39.3998C22.5 38.3776 23.1556 37.4887 24 36.7332V31.9998H34.6667V36.7332C35.5111 37.4887 36.1667 38.3776 36.6333 39.3998C37.1 40.4221 37.3333 41.511 37.3333 42.6665C37.3333 43.8221 37.1 44.9109 36.6333 45.9332C36.1667 46.9554 35.5111 47.8443 34.6667 48.5998V53.3332H24ZM56 53.3332H42.6667C41.9111 53.3332 41.2778 53.0776 40.7667 52.5665C40.2556 52.0554 40 51.4221 40 50.6665V26.6665C40 25.9109 40.2556 25.2776 40.7667 24.7665C41.2778 24.2554 41.9111 23.9998 42.6667 23.9998H56C56.7555 23.9998 57.3889 24.2554 57.9 24.7665C58.4111 25.2776 58.6667 25.9109 58.6667 26.6665V50.6665C58.6667 51.4221 58.4111 52.0554 57.9 52.5665C57.3889 53.0776 56.7555 53.3332 56 53.3332ZM45.3333 47.9998H53.3333V29.3332H45.3333V47.9998Z" fill="#161D19"/>
</g>
</svg>
