<svg width="64" height="64" viewBox="0 0 64 64" fill="none" xmlns="http://www.w3.org/2000/svg">
<mask id="mask0_1247_3008" style="mask-type:alpha" maskUnits="userSpaceOnUse" x="0" y="0" width="64" height="64">
<rect width="64" height="64" fill="#D9D9D9"/>
</mask>
<g mask="url(#mask0_1247_3008)">
<path d="M12.4 58.6668C10 58.6668 8.22222 58.1779 7.06666 57.2002C5.91111 56.2224 5.33333 54.7557 5.33333 52.8002C5.33333 50.2224 6.42222 48.5779 8.6 47.8668C10.7778 47.1557 13.3556 46.8002 16.3333 46.8002H17.7333V43.0668C17.7333 41.5557 17.7111 40.3224 17.6667 39.3668C17.6222 38.4113 17.4889 37.6224 17.2667 37.0002C17.0444 36.3779 16.7889 35.9446 16.5 35.7002C16.2111 35.4557 15.8222 35.3335 15.3333 35.3335C14.9333 35.3335 14.5667 35.4002 14.2333 35.5335C13.9 35.6668 13.6222 35.8446 13.4 36.0668C13.2222 36.2891 13.1111 36.5224 13.0667 36.7668C13.0222 37.0113 13.0444 37.2668 13.1333 37.5335C13.4 38.0224 13.7111 38.5002 14.0667 38.9668C14.4222 39.4335 14.6 39.9779 14.6 40.6002C14.6 41.7113 14.2111 42.6557 13.4333 43.4335C12.6556 44.2113 11.7111 44.6002 10.6 44.6002C9.48888 44.6002 8.54444 44.2113 7.76666 43.4335C6.98888 42.6557 6.59999 41.7113 6.59999 40.6002C6.59999 39.4002 6.86666 38.4224 7.4 37.6668C7.93333 36.9113 8.65555 36.3113 9.56666 35.8668C10.4778 35.4224 11.5333 35.1113 12.7333 34.9335C13.9333 34.7557 15.2222 34.6668 16.6 34.6668C20.3778 34.6668 23 35.3446 24.4667 36.7002C25.9333 38.0557 26.6667 40.4446 26.6667 43.8668V53.6668C26.6667 54.5113 26.7667 55.1335 26.9667 55.5335C27.1667 55.9335 27.5111 56.1335 28 56.1335C28.5333 56.1335 28.9667 55.7335 29.3 54.9335C29.6333 54.1335 29.8444 52.889 29.9333 51.2002H30.6667C30.5333 53.9557 30.0111 55.889 29.1 57.0002C28.1889 58.1113 26.6667 58.6668 24.5333 58.6668C22.6222 58.6668 21.1222 58.3668 20.0333 57.7668C18.9444 57.1668 18.2444 56.2668 17.9333 55.0668C17.4889 56.3557 16.8333 57.2779 15.9667 57.8335C15.1 58.389 13.9111 58.6668 12.4 58.6668ZM37.2667 58.6668C36.3778 58.6668 35.6556 58.3002 35.1 57.5668C34.5444 56.8335 34.4444 56.0446 34.8 55.2002L41.6 37.2668C41.9111 36.5113 42.4 35.8891 43.0667 35.4002C43.7333 34.9113 44.4889 34.6668 45.3333 34.6668C46.1778 34.6668 46.9333 34.9113 47.6 35.4002C48.2667 35.8891 48.7556 36.5113 49.0667 37.2668L55.8667 55.2002C56.2222 56.0446 56.1222 56.8335 55.5667 57.5668C55.0111 58.3002 54.2889 58.6668 53.4 58.6668C52.8667 58.6668 52.3778 58.5113 51.9333 58.2002C51.4889 57.889 51.1556 57.4668 50.9333 56.9335L49.6 53.0668H41.0667L39.7333 56.9335C39.5556 57.4224 39.2444 57.8335 38.8 58.1668C38.3556 58.5002 37.8444 58.6668 37.2667 58.6668ZM15.6667 56.7335C16.2444 56.7335 16.7333 56.2779 17.1333 55.3668C17.5333 54.4557 17.7333 53.3557 17.7333 52.0668V47.6002C16.5778 47.6002 15.7333 47.9446 15.2 48.6335C14.6667 49.3224 14.4 50.4446 14.4 52.0002V52.7335C14.4 54.3335 14.4889 55.4002 14.6667 55.9335C14.8444 56.4668 15.1778 56.7335 15.6667 56.7335ZM42.8 48.4002H47.9333L45.3333 40.8002L42.8 48.4002ZM40.3333 29.4002C38.2 29.4002 36.5 28.6557 35.2333 27.1668C33.9667 25.6779 33.3333 23.6668 33.3333 21.1335C33.3333 16.5113 34.8 12.7224 37.7333 9.76683C40.6667 6.81127 44.4222 5.3335 49 5.3335C50.8667 5.3335 52.3778 5.54461 53.5333 5.96683C54.6889 6.38905 55.2667 6.9335 55.2667 7.60016C55.2667 7.86683 55.2222 8.1335 55.1333 8.40016C55.0444 8.66683 54.8889 8.91127 54.6667 9.1335C54.4444 9.44461 54.1667 9.66683 53.8333 9.80016C53.5 9.9335 53.1556 9.95572 52.8 9.86683C52.1778 9.68905 51.4667 9.5335 50.6667 9.40016C49.8667 9.26683 49.1333 9.20016 48.4667 9.20016C45.3111 9.20016 42.7778 10.2668 40.8667 12.4002C38.9556 14.5335 38 17.3557 38 20.8668C38 21.8446 38.1778 22.8668 38.5333 23.9335C38.8889 25.0002 39.6889 25.5335 40.9333 25.5335C41.4222 25.5335 41.9 25.4224 42.3667 25.2002C42.8333 24.9779 43.2444 24.6668 43.6 24.2668C44.3556 23.4668 45.0555 22.1335 45.7 20.2668C46.3444 18.4002 46.9333 16.1335 47.4667 13.4668C47.5556 12.8891 47.7889 12.4779 48.1667 12.2335C48.5444 11.9891 49.0667 11.8668 49.7333 11.8668C50.5333 11.8668 51.1444 12.0779 51.5667 12.5002C51.9889 12.9224 52.1111 13.4446 51.9333 14.0668C51.4 15.9779 51.0111 17.6446 50.7667 19.0668C50.5222 20.4891 50.4 21.7779 50.4 22.9335C50.4 23.8224 50.5222 24.4668 50.7667 24.8668C51.0111 25.2668 51.3778 25.4668 51.8667 25.4668C52.3556 25.4668 52.8333 25.2891 53.3 24.9335C53.7667 24.5779 54.4222 23.9113 55.2667 22.9335C55.3556 22.8002 55.6889 22.6446 56.2667 22.4668C56.6222 22.4668 56.8889 22.6002 57.0667 22.8668C57.2444 23.1335 57.3333 23.5113 57.3333 24.0002C57.3333 25.2446 56.6222 26.4446 55.2 27.6002C53.7778 28.7557 52.2889 29.3335 50.7333 29.3335C49.5778 29.3335 48.5889 29.0224 47.7667 28.4002C46.9444 27.7779 46.3778 26.8891 46.0667 25.7335C45.4 26.8891 44.5778 27.7891 43.6 28.4335C42.6222 29.0779 41.5333 29.4002 40.3333 29.4002ZM7.99999 29.3335V14.6668C7.99999 12.0891 8.91111 9.88905 10.7333 8.06683C12.5556 6.24461 14.7556 5.3335 17.3333 5.3335C19.9111 5.3335 22.1111 6.24461 23.9333 8.06683C25.7556 9.88905 26.6667 12.0891 26.6667 14.6668V29.3335H21.3333V24.0002H13.3333V29.3335H7.99999ZM13.3333 18.6668H21.3333V14.6668C21.3333 13.5557 20.9444 12.6113 20.1667 11.8335C19.3889 11.0557 18.4444 10.6668 17.3333 10.6668C16.2222 10.6668 15.2778 11.0557 14.5 11.8335C13.7222 12.6113 13.3333 13.5557 13.3333 14.6668V18.6668Z" fill="#161D19"/>
</g>
</svg>
