<svg width="64" height="64" viewBox="0 0 64 64" fill="none" xmlns="http://www.w3.org/2000/svg">
<mask id="mask0_1247_3001" style="mask-type:alpha" maskUnits="userSpaceOnUse" x="0" y="0" width="64" height="64">
<rect width="64" height="64" fill="#D9D9D9"/>
</mask>
<g mask="url(#mask0_1247_3001)">
<path d="M13.3333 56C11.8667 56 10.6111 55.4778 9.56667 54.4333C8.52222 53.3889 8 52.1333 8 50.6667V17.3333C8 16.7111 8.1 16.1222 8.3 15.5667C8.5 15.0111 8.8 14.4889 9.2 14L12.9333 9.46667C13.3333 8.97778 13.7889 8.61111 14.3 8.36667C14.8111 8.12222 15.3778 8 16 8H48C48.6222 8 49.1889 8.12222 49.7 8.36667C50.2111 8.61111 50.6667 8.97778 51.0667 9.46667L54.8 14C55.2 14.4889 55.5 15.0111 55.7 15.5667C55.9 16.1222 56 16.7111 56 17.3333V50.6667C56 52.1333 55.4778 53.3889 54.4333 54.4333C53.3889 55.4778 52.1333 56 50.6667 56H13.3333ZM14.4 16H49.6L47.3333 13.3333H16.6667L14.4 16ZM13.3333 50.6667H50.6667V21.3333H13.3333V50.6667ZM38.8 45.4667L48.2667 36L38.8 26.5333L34.9333 30.4L40.5333 36L34.9333 41.6L38.8 45.4667ZM25.3333 45.4667L29.2 41.6L23.6 36L29.2 30.4L25.3333 26.5333L15.8667 36L25.3333 45.4667Z" fill="#161D19"/>
</g>
</svg>
