<svg width="64" height="64" viewBox="0 0 64 64" fill="none" xmlns="http://www.w3.org/2000/svg">
<mask id="mask0_1247_2994" style="mask-type:alpha" maskUnits="userSpaceOnUse" x="0" y="0" width="64" height="64">
<rect width="64" height="64" fill="#D9D9D9"/>
</mask>
<g mask="url(#mask0_1247_2994)">
<path d="M2.66667 61.3332V45.3332H8.00001V18.6665H2.66667V2.6665H18.6667V7.99984H45.3333V2.6665H61.3333V18.6665H56V45.3332H61.3333V61.3332H45.3333V55.9998H18.6667V61.3332H2.66667ZM18.6667 50.6665H45.3333V45.3332H50.6667V18.6665H45.3333V13.3332H18.6667V18.6665H13.3333V45.3332H18.6667V50.6665ZM20.8 42.6665L29.8667 18.6665H34.1333L43.2 42.6665H39.0667L36.9333 36.5332H27.2L25.0667 42.6665H20.8ZM28.4 33.0665H35.6L32.1333 23.0665H31.8667L28.4 33.0665ZM8.00001 13.3332H13.3333V7.99984H8.00001V13.3332ZM50.6667 13.3332H56V7.99984H50.6667V13.3332ZM50.6667 55.9998H56V50.6665H50.6667V55.9998ZM8.00001 55.9998H13.3333V50.6665H8.00001V55.9998Z" fill="#161D19"/>
</g>
</svg>
