<svg width="592" height="695" viewBox="0 0 592 695" fill="none" xmlns="http://www.w3.org/2000/svg">
<rect width="592" height="695" rx="12" fill="#F5F8F5"/>
<path d="M117.355 300.355H474.645V519.615C474.645 537.857 459.857 552.645 441.615 552.645H150.385C132.143 552.645 117.355 537.857 117.355 519.615V300.355Z" fill="#222532" stroke="#20353C" stroke-width="0.710317"/>
<path d="M475 300L117 300L117 175.385C117 156.947 131.947 142 150.385 142L441.615 142C460.053 142 475 156.947 475 175.385L475 300Z" fill="white"/>
<mask id="mask0_508_2303" style="mask-type:alpha" maskUnits="userSpaceOnUse" x="117" y="142" width="358" height="159">
<path d="M475 300.296L117 300.296L117 175.385C117 156.947 131.947 142 150.385 142L441.615 142C460.053 142 475 156.947 475 175.385L475 300.296Z" fill="white"/>
</mask>
<g mask="url(#mask0_508_2303)">
<path d="M143.316 325.135C143.316 286.643 155.707 246.818 176.78 210.559L267.392 179.987V196.691C238.662 224.812 219.671 263.116 219.671 299.372C219.671 356.415 266.676 386.797 324.658 367.233V442.348C224.505 476.14 143.316 423.661 143.316 325.135Z" fill="url(#paint0_linear_508_2303)"/>
<path d="M176.776 210.56L267.388 179.988L241.073 156.297L150.461 186.871L176.776 210.56Z" fill="url(#paint1_linear_508_2303)"/>
<path d="M267.39 179.988V196.691L241.074 173.001V156.297L267.39 179.988Z" fill="url(#paint2_linear_508_2303)"/>
<path d="M117 301.444C117 262.953 129.391 223.128 150.464 186.871L241.076 156.297V173.001C212.346 201.124 193.354 239.425 193.354 275.682C193.354 332.724 240.36 363.106 298.344 343.542V418.657C198.189 452.449 117 399.972 117 301.444Z" fill="url(#paint3_linear_508_2303)"/>
<path d="M448.684 174.631C448.684 213.123 436.293 252.948 415.22 289.206L324.608 319.778V303.075C353.338 274.953 372.329 236.65 372.329 200.393C372.329 143.351 325.324 112.969 267.342 132.533V57.4178C367.495 23.626 448.684 76.105 448.684 174.631Z" fill="url(#paint4_linear_508_2303)"/>
<path d="M415.224 289.206L324.612 319.778L350.927 343.469L441.539 312.895L415.224 289.206Z" fill="url(#paint5_linear_508_2303)"/>
<path d="M267.343 132.533V57.4181L293.656 81.109V156.224L267.343 132.533Z" fill="url(#paint6_linear_508_2303)"/>
<path d="M475 198.322C475 236.814 462.609 276.639 441.536 312.895L350.924 343.469V326.766C379.654 298.642 398.646 260.341 398.646 224.084C398.646 167.042 351.64 136.66 293.656 156.224V81.1087C393.811 47.317 475 99.7941 475 198.322Z" fill="url(#paint7_linear_508_2303)"/>
</g>
<path fill-rule="evenodd" clip-rule="evenodd" d="M233.971 350.539C234.508 349.523 235.571 348.831 236.797 348.831C238.023 348.831 239.087 349.523 239.623 350.539C240.718 350.202 241.958 350.467 242.824 351.337C243.691 352.207 243.956 353.452 243.62 354.551C244.631 355.089 245.321 356.157 245.321 357.388C245.321 358.618 244.631 359.686 243.62 360.224C243.956 361.323 243.691 362.568 242.824 363.438C241.958 364.308 240.718 364.574 239.623 364.236C239.087 365.252 238.023 365.944 236.797 365.944C235.571 365.944 234.508 365.252 233.971 364.236C232.877 364.574 231.637 364.308 230.77 363.438C229.903 362.568 229.639 361.323 229.975 360.224C228.963 359.686 228.273 358.618 228.273 357.388C228.273 356.157 228.963 355.089 229.975 354.551C229.639 353.452 229.903 352.207 230.77 351.337C231.637 350.467 232.877 350.202 233.971 350.539ZM240.857 355.24C240.919 355.303 240.919 355.405 240.857 355.467L235.809 360.534C235.746 360.597 235.645 360.597 235.583 360.534L232.795 357.736C232.733 357.674 232.733 357.572 232.795 357.509L233.699 356.602C233.762 356.539 233.863 356.539 233.925 356.602L235.583 358.266C235.645 358.328 235.746 358.328 235.809 358.266L239.727 354.333C239.789 354.27 239.89 354.27 239.953 354.333L240.857 355.24Z" fill="#0085FF"/>
<path d="M240.857 355.467C240.919 355.405 240.919 355.303 240.857 355.24L239.953 354.333C239.89 354.27 239.789 354.27 239.727 354.333L235.809 358.266C235.746 358.328 235.645 358.328 235.583 358.266L233.925 356.602C233.863 356.539 233.762 356.539 233.699 356.602L232.795 357.509C232.733 357.572 232.733 357.674 232.795 357.736L235.583 360.534C235.645 360.597 235.746 360.597 235.809 360.534L240.857 355.467Z" fill="white"/>
<path d="M157.88 363.357V353.271H161.217C164.408 353.271 166.461 355.346 166.461 358.328C166.461 361.304 164.512 363.357 161.258 363.357H157.88ZM159.85 361.582H161.134C163.097 361.582 164.38 360.173 164.38 358.328C164.38 356.435 163.076 355.054 161.258 355.054H159.85V361.582ZM171.4 363.475C169.194 363.475 167.71 361.963 167.71 359.896C167.71 357.829 169.194 356.303 171.4 356.303C173.564 356.303 175.097 357.766 175.097 359.896C175.097 362.026 173.564 363.475 171.4 363.475ZM171.4 361.817V361.811C172.406 361.811 173.203 361.02 173.203 359.896C173.203 358.758 172.427 357.975 171.4 357.975C170.318 357.975 169.589 358.8 169.589 359.896C169.589 360.978 170.339 361.817 171.4 361.817ZM179.779 363.475C177.726 363.475 176.214 362.026 176.214 359.896C176.214 357.766 177.719 356.303 179.87 356.303C180.973 356.303 182.117 356.754 182.818 357.635L181.562 358.717C181.188 358.28 180.647 357.975 179.946 357.975C178.843 357.975 178.108 358.758 178.108 359.889C178.108 361.02 178.864 361.811 179.967 361.811C180.702 361.811 181.25 361.478 181.576 361.11L182.845 362.234C182.249 362.927 181.181 363.475 179.779 363.475ZM185.121 363.475C184.476 363.475 183.962 362.976 183.962 362.352C183.962 361.727 184.476 361.214 185.121 361.214C185.745 361.214 186.272 361.727 186.272 362.352C186.272 362.976 185.745 363.475 185.121 363.475ZM188.069 363.357V353.271H191.405C194.596 353.271 196.649 355.346 196.649 358.328C196.649 361.304 194.7 363.357 191.447 363.357H188.069ZM190.039 361.582H191.322C193.285 361.582 194.568 360.173 194.568 358.328C194.568 356.435 193.264 355.054 191.447 355.054H190.039V361.582ZM201.588 363.475C199.383 363.475 197.898 361.963 197.898 359.896C197.898 357.829 199.383 356.303 201.588 356.303C203.753 356.303 205.286 357.766 205.286 359.896C205.286 362.026 203.753 363.475 201.588 363.475ZM201.588 361.817V361.811C202.594 361.811 203.392 361.02 203.392 359.896C203.392 358.758 202.615 357.975 201.588 357.975C200.506 357.975 199.778 358.8 199.778 359.896C199.778 360.978 200.527 361.817 201.588 361.817ZM210.093 363.475C207.887 363.475 206.402 361.963 206.402 359.896C206.402 357.829 207.887 356.303 210.093 356.303C212.257 356.303 213.79 357.766 213.79 359.896C213.79 362.026 212.257 363.475 210.093 363.475ZM210.093 361.817V361.811C211.099 361.811 211.896 361.02 211.896 359.896C211.896 358.758 211.119 357.975 210.093 357.975C209.011 357.975 208.282 358.8 208.282 359.896C208.282 360.978 209.031 361.817 210.093 361.817ZM219.27 356.303C219.325 356.303 219.374 356.303 219.416 356.31V358.356C219.228 358.342 219.027 358.335 218.923 358.335C217.779 358.335 217.154 359.112 217.154 360.146V363.357H215.295V356.421H217.154V357.44H217.175C217.695 356.705 218.451 356.303 219.27 356.303Z" fill="white"/>
<path opacity="0.5" d="M165.982 384.146V384.152C165.122 384.152 164.588 383.625 164.595 382.793H164.574C164.158 383.577 163.402 384.007 162.458 384.007C161.064 384.007 160.017 382.932 160.017 381.295C160.017 379.977 160.87 378.069 162.868 378.069C163.77 378.069 164.401 378.471 164.782 379.283H164.81L164.921 378.152H166.093L165.719 381.988C165.705 382.141 165.698 382.273 165.698 382.391C165.698 383.098 165.941 383.216 166.308 383.216C167.439 383.216 167.959 381.537 167.959 380.566C167.959 378.111 166.225 376.293 163.652 376.293C159.857 376.293 158.387 379.214 158.387 381.426C158.387 383.944 160.315 385.873 162.646 385.873C163.783 385.873 164.803 385.581 165.656 385.131L166.073 385.796C165.094 386.414 163.936 386.747 162.646 386.747C159.705 386.747 157.464 384.513 157.464 381.419C157.464 379.047 159.066 375.426 163.652 375.426C166.794 375.426 168.889 377.556 168.889 380.559C168.889 381.87 168.237 384.146 165.982 384.146ZM162.791 382.952C164.068 382.952 164.734 381.787 164.734 380.837C164.734 379.852 164.102 379.13 163.187 379.13C161.924 379.13 161.21 380.143 161.21 381.184C161.21 382.217 161.876 382.952 162.791 382.952ZM170.88 384.749V374.663H173.897C177.095 374.663 179.134 376.737 179.134 379.72C179.134 382.696 177.157 384.749 173.939 384.749H170.88ZM172.114 383.625H173.862C176.283 383.625 177.858 381.988 177.858 379.72C177.858 377.41 176.269 375.787 173.918 375.787H172.114V383.625ZM184.212 384.839C182.069 384.839 180.64 383.292 180.64 381.308C180.64 379.304 182.069 377.757 184.212 377.757C186.251 377.757 187.77 379.2 187.77 381.308C187.77 383.403 186.251 384.839 184.212 384.839ZM184.212 383.785C185.544 383.785 186.605 382.765 186.605 381.308C186.605 379.831 185.551 378.818 184.212 378.818C182.769 378.818 181.798 379.928 181.798 381.308C181.798 382.675 182.783 383.785 184.212 383.785ZM192.536 384.839H192.543C190.552 384.839 189.123 383.403 189.123 381.308C189.123 379.214 190.552 377.75 192.585 377.75C193.618 377.75 194.693 378.173 195.373 378.978L194.575 379.671C194.145 379.158 193.466 378.804 192.64 378.804C191.239 378.804 190.289 379.831 190.289 381.295C190.289 382.772 191.253 383.778 192.64 383.778C193.452 383.778 194.173 383.431 194.596 382.952L195.394 383.667C194.811 384.333 193.778 384.839 192.536 384.839ZM197.579 384.839C197.121 384.839 196.76 384.485 196.76 384.041C196.76 383.591 197.121 383.23 197.579 383.23C198.03 383.23 198.397 383.591 198.397 384.041C198.397 384.485 198.03 384.839 197.579 384.839ZM200.485 384.749V374.663H203.503C206.701 374.663 208.74 376.737 208.74 379.72C208.74 382.696 206.763 384.749 203.545 384.749H200.485ZM201.72 383.625H203.468C205.889 383.625 207.464 381.988 207.464 379.72C207.464 377.41 205.875 375.787 203.524 375.787H201.72V383.625ZM213.818 384.839C211.674 384.839 210.245 383.292 210.245 381.308C210.245 379.304 211.674 377.757 213.818 377.757C215.857 377.757 217.376 379.2 217.376 381.308C217.376 383.403 215.857 384.839 213.818 384.839ZM213.818 383.785C215.15 383.785 216.211 382.765 216.211 381.308C216.211 379.831 215.157 378.818 213.818 378.818C212.375 378.818 211.404 379.928 211.404 381.308C211.404 382.675 212.389 383.785 213.818 383.785ZM222.294 384.839C220.151 384.839 218.722 383.292 218.722 381.308C218.722 379.304 220.151 377.757 222.294 377.757C224.334 377.757 225.853 379.2 225.853 381.308C225.853 383.403 224.334 384.839 222.294 384.839ZM222.294 383.785C223.626 383.785 224.688 382.765 224.688 381.308C224.688 379.831 223.633 378.818 222.294 378.818C220.852 378.818 219.88 379.928 219.88 381.308C219.88 382.675 220.865 383.785 222.294 383.785ZM231.049 377.757C231.153 377.757 231.25 377.757 231.333 377.771V379.04C231.166 379.026 230.993 379.019 230.875 379.019C229.564 379.019 228.773 380.032 228.773 381.419V384.749H227.622V377.84H228.773V379.047H228.801C229.314 378.229 230.112 377.757 231.049 377.757Z" fill="white"/>
<path d="M161.467 421.879L161.472 421.885C159.291 421.885 157.449 420.459 157.449 417.823C157.449 415.525 158.881 413.677 161.472 413.677C162.582 413.677 163.742 414.133 164.619 415.22L163.881 415.836C163.265 415.065 162.393 414.621 161.467 414.621C159.624 414.621 158.481 415.953 158.481 417.823C158.481 419.743 159.768 420.942 161.472 420.942C162.521 420.942 163.309 420.437 163.881 419.737L164.619 420.359C163.914 421.236 162.887 421.879 161.467 421.879ZM168.37 421.891C166.655 421.891 165.512 420.653 165.512 419.066C165.512 417.462 166.655 416.225 168.37 416.225C170.001 416.225 171.217 417.379 171.217 419.066C171.217 420.742 170.001 421.891 168.37 421.891ZM168.37 421.047C169.435 421.047 170.284 420.231 170.284 419.066C170.284 417.884 169.441 417.074 168.37 417.074C167.216 417.074 166.439 417.962 166.439 419.066C166.439 420.159 167.227 421.047 168.37 421.047ZM175.579 416.225H175.584C176.777 416.225 177.571 416.957 177.571 418.544V421.824H176.65V418.8C176.65 417.501 176.106 417.068 175.296 417.068C174.252 417.068 173.559 417.817 173.559 419.06V421.818H172.637V416.291H173.559V417.24H173.575C174.036 416.585 174.763 416.225 175.579 416.225ZM182.204 416.225V416.219C183.403 416.219 184.213 416.924 184.213 418.5V421.824H183.292V418.766C183.292 417.512 182.748 417.068 181.938 417.068C180.839 417.068 180.146 417.79 180.146 419.033V421.818H179.224V413.455H180.146V417.185H180.168C180.64 416.558 181.361 416.225 182.204 416.225ZM190.75 418.972C190.75 419.116 190.728 419.316 190.723 419.349H186.472C186.588 420.376 187.321 421.047 188.314 421.047C189.002 421.047 189.53 420.731 189.874 420.303L190.517 420.853C190.046 421.463 189.291 421.891 188.281 421.891C186.711 421.891 185.529 420.747 185.529 419.06C185.529 417.39 186.683 416.225 188.176 416.225C189.718 416.225 190.75 417.384 190.75 418.972ZM188.226 417.074C187.36 417.074 186.666 417.645 186.494 418.583H189.835C189.691 417.679 189.102 417.074 188.226 417.074ZM194.541 421.891H194.546C192.954 421.891 191.81 420.742 191.81 419.066C191.81 417.39 192.954 416.219 194.58 416.219C195.406 416.219 196.267 416.558 196.81 417.201L196.172 417.756C195.828 417.346 195.284 417.063 194.624 417.063C193.503 417.063 192.743 417.884 192.743 419.055C192.743 420.237 193.514 421.041 194.624 421.041C195.273 421.041 195.85 420.764 196.189 420.381L196.827 420.953C196.361 421.485 195.534 421.891 194.541 421.891ZM198.631 415.265C198.259 415.265 197.976 414.976 197.976 414.621C197.976 414.26 198.259 413.972 198.631 413.972C198.991 413.972 199.285 414.26 199.285 414.621C199.285 414.976 198.991 415.265 198.631 415.265ZM198.164 421.818V416.291H199.08V421.818H198.164ZM207.51 416.225C208.764 416.225 209.446 416.946 209.446 418.583V421.818H208.531V418.833C208.531 417.59 208.114 417.068 207.238 417.068C206.377 417.068 205.678 417.834 205.678 419.077V421.818H204.763V418.816C204.763 417.59 204.313 417.068 203.447 417.068C202.543 417.068 201.844 417.834 201.844 419.077V421.818H200.928V416.286H201.844V417.229H201.86C202.315 416.58 202.998 416.219 203.719 416.219C204.568 416.219 205.173 416.563 205.467 417.301H205.49C205.939 416.613 206.666 416.225 207.51 416.225ZM215.967 418.972C215.967 419.116 215.945 419.316 215.939 419.349H211.688C211.805 420.376 212.537 421.047 213.531 421.047C214.219 421.047 214.746 420.731 215.09 420.303L215.734 420.853C215.262 421.463 214.507 421.891 213.497 421.891C211.927 421.891 210.745 420.747 210.745 419.06C210.745 417.39 211.899 416.225 213.392 416.225C214.935 416.225 215.967 417.384 215.967 418.972ZM213.442 417.074C212.576 417.074 211.882 417.645 211.71 418.583H215.051C214.907 417.679 214.319 417.074 213.442 417.074ZM220.306 416.225H220.312C221.505 416.225 222.299 416.957 222.299 418.544V421.824H221.377V418.8C221.377 417.501 220.834 417.068 220.023 417.068C218.98 417.068 218.286 417.817 218.286 419.06V421.818H217.365V416.291H218.286V417.24H218.303C218.764 416.585 219.491 416.225 220.306 416.225ZM225.517 421.891V421.896C224.535 421.896 224.08 421.291 224.08 420.176V417.09H223.375V416.291H224.08V414.399L225.001 414.299V416.291H226.832V417.09H225.001V420.037C225.001 420.703 225.156 421.03 225.678 421.03C226.006 421.03 226.35 420.897 226.61 420.747L226.855 421.552C226.555 421.724 226.172 421.891 225.517 421.891ZM230.356 421.891C228.641 421.891 227.498 420.653 227.498 419.066C227.498 417.462 228.641 416.225 230.356 416.225C231.988 416.225 233.203 417.379 233.203 419.066C233.203 420.742 231.988 421.891 230.356 421.891ZM230.356 421.047C231.422 421.047 232.271 420.231 232.271 419.066C232.271 417.884 231.427 417.074 230.356 417.074C229.202 417.074 228.425 417.962 228.425 419.066C228.425 420.159 229.213 421.047 230.356 421.047ZM242.015 416.291L242.942 416.286V424.066H242.027V420.997H242.004C241.555 421.558 240.906 421.891 240.123 421.891C238.597 421.891 237.409 420.781 237.409 419.088C237.409 417.451 238.553 416.219 240.112 416.219C240.861 416.219 241.533 416.53 241.993 417.107H242.015V416.291ZM240.206 421.047C241.183 421.047 242.049 420.265 242.049 419.094C242.049 417.956 241.261 417.063 240.217 417.063C239.163 417.063 238.342 417.862 238.342 419.094C238.342 420.209 239.08 421.047 240.206 421.047ZM248.458 416.291H249.379V421.818H248.458V420.908H248.442C248.003 421.546 247.343 421.891 246.627 421.891C245.356 421.891 244.551 421.164 244.551 419.588V416.291H245.467V419.321C245.467 420.581 245.939 421.047 246.821 421.047C247.698 421.047 248.458 420.287 248.458 418.972V416.291ZM255.955 418.972C255.955 419.116 255.933 419.316 255.928 419.349H251.677C251.793 420.376 252.526 421.047 253.519 421.047C254.207 421.047 254.735 420.731 255.079 420.303L255.722 420.853C255.251 421.463 254.496 421.891 253.486 421.891C251.915 421.891 250.733 420.747 250.733 419.06C250.733 417.39 251.888 416.225 253.38 416.225C254.923 416.225 255.955 417.384 255.955 418.972ZM253.43 417.074C252.565 417.074 251.871 417.645 251.699 418.583H255.04C254.895 417.679 254.307 417.074 253.43 417.074ZM159.214 435.891V435.896C158.231 435.896 157.776 435.291 157.776 434.176V431.09H157.071V430.291H157.776V428.399L158.697 428.299V430.291H160.529V431.09H158.697V434.037C158.697 434.703 158.853 435.03 159.374 435.03C159.702 435.03 160.046 434.897 160.307 434.747L160.551 435.552C160.251 435.724 159.868 435.891 159.214 435.891ZM164.53 430.225C164.613 430.225 164.691 430.225 164.757 430.236V431.251C164.624 431.24 164.485 431.235 164.391 431.235C163.342 431.235 162.71 432.045 162.71 433.155V435.818H161.788V430.291H162.71V431.257H162.732C163.142 430.602 163.781 430.225 164.53 430.225ZM169.968 430.291L170.889 430.286V435.818H170.007V434.942H169.996C169.546 435.535 168.869 435.891 168.054 435.891C166.528 435.891 165.34 434.786 165.34 433.088C165.34 431.457 166.483 430.225 168.048 430.225C168.803 430.225 169.485 430.53 169.946 431.107H169.968V430.291ZM168.142 435.047C169.136 435.047 170.001 434.265 170.001 433.094C170.001 431.956 169.213 431.063 168.154 431.063C167.099 431.063 166.278 431.862 166.278 433.094C166.278 434.209 167.016 435.047 168.142 435.047ZM175.534 430.225H175.54C176.733 430.225 177.526 430.957 177.526 432.544V435.824H176.605V432.8C176.605 431.501 176.061 431.068 175.251 431.068C174.208 431.068 173.514 431.817 173.514 433.06V435.818H172.593V430.291H173.514V431.24H173.531C173.991 430.585 174.718 430.225 175.534 430.225ZM180.867 435.891V435.896C179.957 435.896 179.241 435.58 178.697 435.097L179.18 434.398C179.607 434.803 180.09 435.058 180.867 435.058C181.533 435.058 181.921 434.725 181.921 434.32C181.921 433.843 181.405 433.693 180.601 433.41C179.696 433.094 178.936 432.722 178.936 431.706C178.936 430.863 179.713 430.225 180.767 430.225C181.433 430.225 182.055 430.402 182.671 430.907L182.193 431.634C181.705 431.212 181.194 431.057 180.723 431.057C180.301 431.057 179.874 431.307 179.874 431.706C179.874 432.139 180.329 432.35 180.923 432.578C182.088 433.027 182.859 433.227 182.854 434.303C182.854 435.175 182.199 435.891 180.867 435.891ZM184.43 435.818V431.09H183.753V430.291H184.43V429.17C184.43 427.977 185.001 427.383 185.984 427.383C186.539 427.383 186.966 427.55 187.271 427.727L187.066 428.527C186.716 428.343 186.4 428.238 186.1 428.238C185.645 428.238 185.345 428.527 185.345 429.259V430.291H186.916V431.09H185.345V435.818H184.43ZM190.39 435.891C188.675 435.891 187.532 434.653 187.532 433.066C187.532 431.462 188.675 430.225 190.39 430.225C192.021 430.225 193.237 431.379 193.237 433.066C193.237 434.742 192.021 435.891 190.39 435.891ZM190.39 435.047C191.455 435.047 192.304 434.231 192.304 433.066C192.304 431.884 191.461 431.074 190.39 431.074C189.236 431.074 188.459 431.962 188.459 433.066C188.459 434.159 189.247 435.047 190.39 435.047ZM197.393 430.225C197.476 430.225 197.554 430.225 197.621 430.236V431.251C197.487 431.24 197.349 431.235 197.254 431.235C196.206 431.235 195.573 432.045 195.573 433.155V435.818H194.652V430.291H195.573V431.257H195.595C196.006 430.602 196.644 430.225 197.393 430.225ZM205.301 430.225C206.555 430.225 207.238 430.946 207.238 432.583V435.818H206.322V432.833C206.322 431.59 205.906 431.068 205.029 431.068C204.169 431.068 203.47 431.834 203.47 433.077V435.818H202.554V432.816C202.554 431.59 202.104 431.068 201.239 431.068C200.334 431.068 199.635 431.834 199.635 433.077V435.818H198.719V430.286H199.635V431.229H199.652C200.107 430.58 200.789 430.219 201.511 430.219C202.36 430.219 202.965 430.563 203.259 431.301H203.281C203.73 430.613 204.457 430.225 205.301 430.225ZM213.175 430.291L214.097 430.286V435.818H213.214V434.942H213.203C212.754 435.535 212.077 435.891 211.261 435.891C209.735 435.891 208.547 434.786 208.547 433.088C208.547 431.457 209.69 430.225 211.255 430.225C212.01 430.225 212.693 430.53 213.153 431.107H213.175V430.291ZM211.35 435.047C212.343 435.047 213.209 434.265 213.209 433.094C213.209 431.956 212.421 431.063 211.361 431.063C210.306 431.063 209.485 431.862 209.485 433.094C209.485 434.209 210.223 435.047 211.35 435.047ZM223.22 430.291L224.141 430.286V435.818H223.259V434.942H223.248C222.798 435.535 222.121 435.891 221.305 435.891C219.779 435.891 218.592 434.786 218.592 433.088C218.592 431.457 219.735 430.225 221.3 430.225C222.054 430.225 222.737 430.53 223.198 431.107H223.22V430.291ZM221.394 435.047C222.387 435.047 223.253 434.265 223.253 433.094C223.253 431.956 222.465 431.063 221.405 431.063C220.351 431.063 219.529 431.862 219.529 433.094C219.529 434.209 220.267 435.047 221.394 435.047ZM231.805 430.225C233.37 430.225 234.513 431.457 234.513 433.094C234.513 434.786 233.325 435.896 231.799 435.896C231.017 435.896 230.362 435.563 229.918 435.003H229.896V438.066H228.98V430.291H229.901V431.107H229.923C230.384 430.53 231.055 430.225 231.805 430.225ZM231.71 435.053H231.705C232.831 435.053 233.569 434.215 233.569 433.099C233.569 431.867 232.748 431.068 231.699 431.068C230.656 431.068 229.868 431.962 229.868 433.099C229.868 434.27 230.734 435.053 231.71 435.053ZM238.658 430.225C238.741 430.225 238.819 430.225 238.886 430.236V431.251C238.752 431.24 238.614 431.235 238.519 431.235C237.47 431.235 236.838 432.045 236.838 433.155V435.818H235.917V430.291H236.838V431.257H236.86C237.271 430.602 237.909 430.225 238.658 430.225ZM244.202 427.877L242.792 429.492H241.827L243.159 427.883L244.202 427.877ZM244.096 430.291L245.023 430.286V435.818H244.141V434.947H244.124C243.675 435.535 242.998 435.891 242.187 435.891C240.661 435.891 239.474 434.786 239.474 433.094C239.474 431.457 240.611 430.225 242.182 430.225C242.931 430.225 243.614 430.535 244.074 431.113H244.096V430.291ZM242.276 435.047H242.271C243.264 435.047 244.13 434.265 244.13 433.094C244.13 431.956 243.342 431.063 242.282 431.063C241.227 431.063 240.412 431.862 240.412 433.094C240.412 434.209 241.15 435.047 242.276 435.047ZM248.281 435.891V435.896C247.298 435.896 246.843 435.291 246.843 434.176V431.09H246.139V430.291H246.843V428.399L247.765 428.299V430.291H249.596V431.09H247.765V434.037C247.765 434.703 247.92 435.03 248.442 435.03C248.769 435.03 249.113 434.897 249.374 434.747L249.618 435.552C249.318 435.724 248.935 435.891 248.281 435.891ZM251.338 429.265C250.967 429.265 250.684 428.976 250.684 428.621C250.684 428.26 250.967 427.972 251.338 427.972C251.699 427.972 251.993 428.26 251.993 428.621C251.993 428.976 251.699 429.265 251.338 429.265ZM250.872 435.818V430.291H251.788V435.818H250.872ZM256.028 435.891H256.033C254.44 435.891 253.297 434.742 253.297 433.066C253.297 431.39 254.44 430.219 256.066 430.219C256.893 430.219 257.753 430.558 258.297 431.201L257.659 431.756C257.315 431.346 256.771 431.063 256.111 431.063C254.99 431.063 254.23 431.884 254.23 433.055C254.23 434.237 255.001 435.041 256.111 435.041C256.76 435.041 257.337 434.764 257.676 434.381L258.314 434.953C257.848 435.485 257.021 435.891 256.028 435.891ZM263.863 430.291L264.784 430.286V435.818H263.902V434.942H263.891C263.441 435.535 262.764 435.891 261.949 435.891C260.423 435.891 259.235 434.786 259.235 433.088C259.235 431.457 260.378 430.225 261.943 430.225C262.698 430.225 263.38 430.53 263.841 431.107H263.863V430.291ZM262.037 435.047C263.031 435.047 263.897 434.265 263.897 433.094C263.897 431.956 263.109 431.063 262.049 431.063C260.994 431.063 260.173 431.862 260.173 433.094C260.173 434.209 260.911 435.047 262.037 435.047ZM276.199 430.225C277.454 430.225 278.136 430.946 278.136 432.583V435.818H277.221V432.833C277.221 431.59 276.804 431.068 275.928 431.068C275.067 431.068 274.368 431.834 274.368 433.077V435.818H273.453V432.816C273.453 431.59 273.003 431.068 272.137 431.068C271.233 431.068 270.534 431.834 270.534 433.077V435.818H269.618V430.286H270.534V431.229H270.55C271.005 430.58 271.688 430.219 272.409 430.219C273.258 430.219 273.863 430.563 274.157 431.301H274.179C274.629 430.613 275.356 430.225 276.199 430.225ZM283.974 427.877L282.559 429.492H281.593L282.925 427.883L283.974 427.877ZM284.657 432.972C284.657 433.116 284.634 433.316 284.629 433.349H280.378C280.495 434.376 281.227 435.047 282.22 435.047C282.909 435.047 283.436 434.731 283.78 434.303L284.424 434.853C283.952 435.469 283.197 435.896 282.193 435.896C280.617 435.896 279.435 434.747 279.435 433.06C279.435 431.39 280.589 430.225 282.082 430.225C283.624 430.225 284.657 431.384 284.657 432.972ZM282.132 431.074C281.266 431.074 280.572 431.645 280.4 432.583H283.741C283.597 431.679 283.008 431.074 282.132 431.074ZM290.311 427.455H291.238V435.818H290.356V434.947H290.339C289.901 435.535 289.229 435.891 288.425 435.891C286.899 435.891 285.711 434.786 285.711 433.094C285.711 431.457 286.854 430.225 288.414 430.225C289.157 430.225 289.834 430.535 290.295 431.113H290.311V427.455ZM288.513 435.047C289.485 435.047 290.35 434.27 290.35 433.099C290.35 431.962 289.562 431.068 288.525 431.068C287.47 431.068 286.649 431.867 286.649 433.099C286.649 434.209 287.387 435.047 288.513 435.047ZM293.547 429.265C293.175 429.265 292.892 428.976 292.892 428.621C292.892 428.26 293.175 427.972 293.547 427.972C293.907 427.972 294.202 428.26 294.202 428.621C294.202 428.976 293.907 429.265 293.547 429.265ZM293.081 435.818V430.291H293.996V435.818H293.081ZM298.236 435.891H298.241C296.649 435.891 295.506 434.742 295.506 433.066C295.506 431.39 296.649 430.219 298.275 430.219C299.102 430.219 299.962 430.558 300.506 431.201L299.867 431.756C299.523 431.346 298.98 431.063 298.319 431.063C297.198 431.063 296.438 431.884 296.438 433.055C296.438 434.237 297.209 435.041 298.319 435.041C298.968 435.041 299.546 434.764 299.884 434.381L300.522 434.953C300.056 435.485 299.229 435.891 298.236 435.891ZM306.072 430.291L306.993 430.286V435.818H306.11V434.942H306.099C305.65 435.535 304.973 435.891 304.157 435.891C302.631 435.891 301.443 434.786 301.443 433.088C301.443 431.457 302.587 430.225 304.152 430.225C304.906 430.225 305.589 430.53 306.049 431.107H306.072V430.291ZM304.246 435.047C305.239 435.047 306.105 434.265 306.105 433.094C306.105 431.956 305.317 431.063 304.257 431.063C303.203 431.063 302.381 431.862 302.381 433.094C302.381 434.209 303.119 435.047 304.246 435.047ZM309.185 435.891C308.819 435.891 308.53 435.607 308.53 435.252C308.53 434.892 308.819 434.603 309.185 434.603C309.546 434.603 309.84 434.892 309.84 435.252C309.84 435.607 309.546 435.891 309.185 435.891Z" fill="white"/>
<path opacity="0.5" d="M158.98 471.018V465.075L157.676 466.051L156.933 464.908L159.291 463.221H160.534V471.018H158.98ZM165.029 471.112C163.226 471.112 161.994 469.647 161.994 467.122C161.994 464.736 163.148 463.127 165.029 463.127C166.838 463.127 168.076 464.597 168.076 467.122C168.076 469.509 166.933 471.112 165.029 471.112ZM165.035 469.681C165.939 469.681 166.494 468.776 166.494 467.122C166.494 465.541 165.956 464.564 165.035 464.564C164.136 464.564 163.575 465.469 163.575 467.117C163.575 468.693 164.119 469.681 165.035 469.681ZM172.21 471.112C170.407 471.112 169.175 469.647 169.175 467.122C169.175 464.736 170.329 463.127 172.21 463.127C174.019 463.127 175.257 464.597 175.257 467.122C175.257 469.509 174.114 471.112 172.21 471.112ZM172.216 469.681C173.12 469.681 173.675 468.776 173.675 467.122C173.675 465.541 173.137 464.564 172.216 464.564C171.317 464.564 170.756 465.469 170.756 467.117C170.756 468.693 171.3 469.681 172.216 469.681Z" fill="white"/>
<path opacity="0.5" d="M250.385 469.62H253.237V471.024H248.138L248.121 470.008L250.552 467.444C251.179 466.778 251.595 466.24 251.595 465.613C251.595 465.008 251.162 464.553 250.557 464.553C250.002 464.553 249.542 464.819 249.198 465.397L248.088 464.603C248.543 463.776 249.37 463.127 250.674 463.127C251.978 463.127 253.154 463.993 253.154 465.447C253.154 466.329 252.866 467.023 251.861 468.071L250.385 469.592V469.62ZM257.216 471.018V469.747H253.914V468.765L257.494 463.221H258.731V468.427H259.786V469.747H258.731V471.018H257.216ZM255.59 468.504H257.327V465.696L255.59 468.504ZM261.584 471.112C261.068 471.112 260.657 470.713 260.657 470.213C260.657 469.714 261.068 469.303 261.584 469.303C262.083 469.303 262.505 469.714 262.505 470.213C262.505 470.713 262.083 471.112 261.584 471.112ZM266.118 463.127C267.749 463.127 268.942 464.387 268.942 466.257C268.942 468.832 267.227 470.846 264.775 471.301L264.32 470.058C265.735 469.664 266.711 469.004 267.166 467.872L267.155 467.866C266.728 468.105 266.217 468.232 265.701 468.232C264.403 468.232 263.315 467.322 263.315 465.724C263.315 464.187 264.542 463.127 266.118 463.127ZM264.83 465.752C264.83 466.44 265.313 466.934 266.101 466.934C266.639 466.934 267.15 466.623 267.466 466.229V466.135C267.466 465.158 266.894 464.52 266.14 464.52C265.346 464.52 264.83 465.08 264.83 465.752ZM272.505 468.815H272.488L271.706 469.697V471.018H270.218V462.655H271.706V467.705H271.728L273.709 465.469H275.452L273.493 467.683L275.485 471.018H273.826L272.505 468.815Z" fill="white"/>
<path opacity="0.5" d="M184.998 471.09C183.988 471.09 182.945 470.702 182.14 469.842L182.767 469.081C183.355 469.803 184.221 470.152 185.009 470.152C185.997 470.152 186.663 469.692 186.663 468.92C186.663 468.01 185.93 467.766 184.854 467.361C183.661 466.917 182.445 466.401 182.445 465.008C182.445 463.798 183.527 462.877 184.909 462.872C185.803 462.866 186.696 463.205 187.462 463.815L186.868 464.581C186.224 464.054 185.514 463.793 184.904 463.793C184.154 463.793 183.477 464.209 183.472 464.964C183.466 465.741 184.188 466.013 185.198 466.401C186.552 466.928 187.695 467.306 187.695 468.815C187.695 470.302 186.391 471.09 184.998 471.09ZM194.038 468.171C194.038 468.316 194.016 468.515 194.01 468.549H189.759C189.876 469.575 190.608 470.247 191.602 470.247C192.29 470.247 192.817 469.93 193.161 469.503L193.805 470.052C193.333 470.663 192.578 471.09 191.568 471.09C189.998 471.09 188.816 469.947 188.816 468.26C188.816 466.59 189.97 465.424 191.463 465.424C193.006 465.424 194.038 466.584 194.038 468.171ZM191.513 466.273C190.647 466.273 189.954 466.845 189.782 467.783H193.122C192.978 466.878 192.39 466.273 191.513 466.273ZM199.632 465.491L200.553 465.485V470.602C200.553 472.195 199.759 473.332 197.834 473.332C197.007 473.332 196.241 473.132 195.581 472.733L195.803 471.884C196.446 472.25 197.001 472.466 197.789 472.466C199.038 472.466 199.654 471.739 199.654 470.846V470.075H199.626C199.182 470.602 198.544 470.918 197.745 470.918C196.274 470.918 195.07 469.825 195.07 468.177C195.07 466.612 196.197 465.424 197.7 465.424C198.439 465.424 199.132 465.713 199.609 466.257H199.632V465.491ZM197.823 470.052C198.938 470.052 199.67 469.237 199.67 468.132C199.67 467.017 198.866 466.273 197.823 466.273C196.763 466.273 196.013 467.078 196.013 468.144C196.013 469.32 196.829 470.052 197.823 470.052ZM206.041 465.491H206.962V471.018H206.041V470.108H206.024C205.586 470.746 204.926 471.09 204.21 471.09C202.939 471.09 202.134 470.363 202.134 468.787V465.491H203.05V468.521C203.05 469.781 203.522 470.247 204.404 470.247C205.281 470.247 206.041 469.486 206.041 468.171V465.491ZM209.21 464.464C208.838 464.464 208.555 464.176 208.555 463.821C208.555 463.46 208.838 463.171 209.21 463.171C209.571 463.171 209.865 463.46 209.865 463.821C209.865 464.176 209.571 464.464 209.21 464.464ZM208.744 471.018V465.491H209.659V471.018H208.744ZM214.448 465.424H214.454C215.647 465.424 216.441 466.157 216.441 467.744V471.024H215.519V467.999C215.519 466.701 214.976 466.268 214.165 466.268C213.122 466.268 212.428 467.017 212.428 468.26V471.018H211.507V465.491H212.428V466.44H212.445C212.906 465.785 213.633 465.424 214.448 465.424ZM222.356 462.655H223.283V471.018H222.401V470.147H222.384C221.946 470.735 221.274 471.09 220.469 471.09C218.943 471.09 217.756 469.986 217.756 468.293C217.756 466.656 218.899 465.424 220.458 465.424C221.202 465.424 221.879 465.735 222.34 466.312H222.356V462.655ZM220.558 470.247C221.529 470.247 222.395 469.47 222.395 468.299C222.395 467.161 221.607 466.268 220.569 466.268C219.515 466.268 218.694 467.067 218.694 468.299C218.694 469.409 219.432 470.247 220.558 470.247ZM227.562 471.09C225.847 471.09 224.704 469.853 224.704 468.266C224.704 466.662 225.847 465.424 227.562 465.424C229.193 465.424 230.408 466.579 230.408 468.266C230.408 469.941 229.193 471.09 227.562 471.09ZM227.562 470.247C228.627 470.247 229.476 469.431 229.476 468.266C229.476 467.084 228.633 466.273 227.562 466.273C226.407 466.273 225.63 467.161 225.63 468.266C225.63 469.359 226.418 470.247 227.562 470.247Z" fill="white"/>
<path d="M182.523 503.105V495.037H185.192C187.745 495.037 189.388 496.696 189.388 499.082C189.388 501.463 187.828 503.105 185.226 503.105H182.523ZM184.099 501.685H185.126C186.696 501.685 187.723 500.558 187.723 499.082C187.723 497.567 186.679 496.463 185.226 496.463H184.099V501.685ZM193.339 503.2C191.574 503.2 190.386 501.99 190.386 500.336C190.386 498.683 191.574 497.462 193.339 497.462C195.07 497.462 196.296 498.633 196.296 500.336C196.296 502.04 195.07 503.2 193.339 503.2ZM193.339 501.874V501.868C194.143 501.868 194.781 501.235 194.781 500.336C194.781 499.426 194.16 498.799 193.339 498.799C192.473 498.799 191.89 499.46 191.89 500.336C191.89 501.202 192.49 501.874 193.339 501.874ZM200.042 503.2C198.4 503.2 197.19 502.04 197.19 500.336C197.19 498.633 198.394 497.462 200.114 497.462C200.997 497.462 201.912 497.822 202.473 498.527L201.468 499.393C201.169 499.043 200.736 498.799 200.175 498.799C199.293 498.799 198.705 499.426 198.705 500.331C198.705 501.235 199.31 501.868 200.192 501.868C200.78 501.868 201.219 501.602 201.48 501.307L202.495 502.206C202.018 502.761 201.163 503.2 200.042 503.2ZM204.315 503.2C203.799 503.2 203.389 502.8 203.389 502.301C203.389 501.801 203.799 501.391 204.315 501.391C204.815 501.391 205.236 501.801 205.236 502.301C205.236 502.8 204.815 503.2 204.315 503.2ZM206.674 503.105V495.037H209.343C211.896 495.037 213.538 496.696 213.538 499.082C213.538 501.463 211.979 503.105 209.376 503.105H206.674ZM208.25 501.685H209.276C210.847 501.685 211.874 500.558 211.874 499.082C211.874 497.567 210.83 496.463 209.376 496.463H208.25V501.685ZM217.489 503.2C215.725 503.2 214.537 501.99 214.537 500.336C214.537 498.683 215.725 497.462 217.489 497.462C219.221 497.462 220.447 498.633 220.447 500.336C220.447 502.04 219.221 503.2 217.489 503.2ZM217.489 501.874V501.868C218.294 501.868 218.932 501.235 218.932 500.336C218.932 499.426 218.311 498.799 217.489 498.799C216.624 498.799 216.041 499.46 216.041 500.336C216.041 501.202 216.64 501.874 217.489 501.874ZM224.293 503.2C222.528 503.2 221.341 501.99 221.341 500.336C221.341 498.683 222.528 497.462 224.293 497.462C226.024 497.462 227.251 498.633 227.251 500.336C227.251 502.04 226.024 503.2 224.293 503.2ZM224.293 501.874V501.868C225.098 501.868 225.736 501.235 225.736 500.336C225.736 499.426 225.114 498.799 224.293 498.799C223.427 498.799 222.845 499.46 222.845 500.336C222.845 501.202 223.444 501.874 224.293 501.874ZM231.635 497.462C231.679 497.462 231.718 497.462 231.751 497.467V499.104C231.601 499.093 231.441 499.088 231.357 499.088C230.442 499.088 229.942 499.709 229.942 500.536V503.105H228.455V497.556H229.942V498.372H229.959C230.375 497.784 230.98 497.462 231.635 497.462ZM232.728 503.2C232.212 503.2 231.801 502.8 231.801 502.301C231.801 501.801 232.212 501.391 232.728 501.391C233.227 501.391 233.649 501.801 233.649 502.301C233.649 502.8 233.227 503.2 232.728 503.2ZM237.378 503.2C235.736 503.2 234.526 502.04 234.526 500.336C234.526 498.633 235.73 497.462 237.45 497.462C238.333 497.462 239.248 497.822 239.809 498.527L238.805 499.393C238.505 499.043 238.072 498.799 237.512 498.799C236.629 498.799 236.041 499.426 236.041 500.331C236.041 501.235 236.646 501.868 237.528 501.868C238.116 501.868 238.555 501.602 238.816 501.307L239.831 502.206C239.354 502.761 238.499 503.2 237.378 503.2ZM243.516 503.2C241.751 503.2 240.564 501.99 240.564 500.336C240.564 498.683 241.751 497.462 243.516 497.462C245.247 497.462 246.474 498.633 246.474 500.336C246.474 502.04 245.247 503.2 243.516 503.2ZM243.516 501.874V501.868C244.321 501.868 244.959 501.235 244.959 500.336C244.959 499.426 244.337 498.799 243.516 498.799C242.65 498.799 242.068 499.46 242.068 500.336C242.068 501.202 242.667 501.874 243.516 501.874ZM254.426 497.462H254.431C255.636 497.462 256.385 498.189 256.385 499.881V503.111H254.898V500.242C254.898 499.354 254.631 498.799 253.927 498.799C253.305 498.799 252.794 499.337 252.794 500.331V503.111H251.313V500.242C251.313 499.354 251.019 498.799 250.325 498.799C249.659 498.799 249.154 499.337 249.154 500.331V503.105H247.667V497.556H249.154V498.294H249.171C249.609 497.75 250.214 497.462 250.83 497.462C251.568 497.462 252.145 497.745 252.478 498.361H252.495C252.95 497.778 253.632 497.462 254.426 497.462ZM258.599 503.2C258.083 503.2 257.672 502.8 257.672 502.301C257.672 501.801 258.083 501.391 258.599 501.391C259.098 501.391 259.52 501.801 259.52 502.301C259.52 502.8 259.098 503.2 258.599 503.2ZM264.082 497.462V497.467C265.569 497.467 266.696 498.666 266.696 500.353C266.696 502.068 265.575 503.2 264.043 503.2C263.305 503.2 262.728 502.933 262.339 502.434H262.312V503.105H260.891V494.743H262.378V498.189H262.406C262.822 497.711 263.405 497.462 264.082 497.462ZM263.766 501.874C264.603 501.874 265.186 501.258 265.186 500.359C265.186 499.41 264.565 498.805 263.771 498.805C262.916 498.805 262.306 499.471 262.306 500.359C262.306 501.269 262.95 501.874 263.766 501.874ZM271.091 497.462C271.135 497.462 271.174 497.462 271.207 497.467V499.104C271.057 499.093 270.896 499.088 270.813 499.088C269.898 499.088 269.398 499.709 269.398 500.536V503.105H267.911V497.556H269.398V498.372H269.415C269.831 497.784 270.436 497.462 271.091 497.462Z" fill="white"/>
<path opacity="0.5" d="M285.15 471.09C284.14 471.09 283.097 470.702 282.292 469.842L282.919 469.081C283.508 469.803 284.373 470.152 285.161 470.152C286.149 470.152 286.815 469.692 286.815 468.92C286.815 468.01 286.083 467.766 285.006 467.361C283.813 466.917 282.598 466.401 282.598 465.008C282.598 463.798 283.68 462.877 285.062 462.872C285.955 462.866 286.848 463.205 287.614 463.815L287.02 464.581C286.377 464.054 285.666 463.793 285.056 463.793C284.307 463.793 283.63 464.209 283.624 464.964C283.619 465.741 284.34 466.013 285.35 466.401C286.704 466.928 287.847 467.306 287.847 468.815C287.847 470.302 286.543 471.09 285.15 471.09ZM294.19 468.171C294.19 468.316 294.168 468.515 294.162 468.549H289.912C290.028 469.575 290.761 470.247 291.754 470.247C292.442 470.247 292.969 469.93 293.313 469.503L293.957 470.052C293.485 470.663 292.731 471.09 291.721 471.09C290.15 471.09 288.968 469.947 288.968 468.26C288.968 466.59 290.123 465.424 291.615 465.424C293.158 465.424 294.19 466.584 294.19 468.171ZM291.665 466.273C290.8 466.273 290.106 466.845 289.934 467.783H293.275C293.13 466.878 292.542 466.273 291.665 466.273ZM299.784 465.491L300.705 465.485V470.602C300.705 472.195 299.912 473.332 297.986 473.332C297.159 473.332 296.393 473.132 295.733 472.733L295.955 471.884C296.599 472.25 297.154 472.466 297.942 472.466C299.19 472.466 299.806 471.739 299.806 470.846V470.075H299.778C299.334 470.602 298.696 470.918 297.897 470.918C296.427 470.918 295.222 469.825 295.222 468.177C295.222 466.612 296.349 465.424 297.853 465.424C298.591 465.424 299.285 465.713 299.762 466.257H299.784V465.491ZM297.975 470.052C299.09 470.052 299.823 469.237 299.823 468.132C299.823 467.017 299.018 466.273 297.975 466.273C296.915 466.273 296.166 467.078 296.166 468.144C296.166 469.32 296.982 470.052 297.975 470.052ZM306.193 465.491H307.115V471.018H306.193V470.108H306.177C305.738 470.746 305.078 471.09 304.362 471.09C303.091 471.09 302.287 470.363 302.287 468.787V465.491H303.202V468.521C303.202 469.781 303.674 470.247 304.556 470.247C305.433 470.247 306.193 469.486 306.193 468.171V465.491ZM309.362 464.464C308.99 464.464 308.707 464.176 308.707 463.821C308.707 463.46 308.99 463.171 309.362 463.171C309.723 463.171 310.017 463.46 310.017 463.821C310.017 464.176 309.723 464.464 309.362 464.464ZM308.896 471.018V465.491H309.812V471.018H308.896ZM314.601 465.424H314.606C315.799 465.424 316.593 466.157 316.593 467.744V471.024H315.672V467.999C315.672 466.701 315.128 466.268 314.318 466.268C313.274 466.268 312.581 467.017 312.581 468.26V471.018H311.66V465.491H312.581V466.44H312.597C313.058 465.785 313.785 465.424 314.601 465.424ZM322.509 462.655H323.435V471.018H322.553V470.147H322.536C322.098 470.735 321.426 471.09 320.622 471.09C319.096 471.09 317.908 469.986 317.908 468.293C317.908 466.656 319.051 465.424 320.611 465.424C321.354 465.424 322.031 465.735 322.492 466.312H322.509V462.655ZM320.711 470.247C321.682 470.247 322.547 469.47 322.547 468.299C322.547 467.161 321.759 466.268 320.722 466.268C319.667 466.268 318.846 467.067 318.846 468.299C318.846 469.409 319.584 470.247 320.711 470.247ZM327.714 471.09C325.999 471.09 324.856 469.853 324.856 468.266C324.856 466.662 325.999 465.424 327.714 465.424C329.345 465.424 330.561 466.579 330.561 468.266C330.561 469.941 329.345 471.09 327.714 471.09ZM327.714 470.247C328.779 470.247 329.628 469.431 329.628 468.266C329.628 467.084 328.785 466.273 327.714 466.273C326.56 466.273 325.783 467.161 325.783 468.266C325.783 469.359 326.571 470.247 327.714 470.247ZM334.717 465.424C334.8 465.424 334.878 465.424 334.945 465.435V466.451C334.811 466.44 334.673 466.434 334.578 466.434C333.53 466.434 332.897 467.245 332.897 468.354V471.018H331.976V465.491H332.897V466.456H332.919C333.33 465.802 333.968 465.424 334.717 465.424ZM340.727 468.171C340.727 468.316 340.705 468.515 340.699 468.549H336.449C336.565 469.575 337.298 470.247 338.291 470.247C338.979 470.247 339.506 469.93 339.85 469.503L340.494 470.052C340.022 470.663 339.268 471.09 338.258 471.09C336.687 471.09 335.505 469.947 335.505 468.26C335.505 466.59 336.659 465.424 338.152 465.424C339.695 465.424 340.727 466.584 340.727 468.171ZM338.202 466.273C337.336 466.273 336.643 466.845 336.471 467.783H339.811C339.667 466.878 339.079 466.273 338.202 466.273ZM343.807 471.09V471.096C342.897 471.096 342.181 470.779 341.637 470.297L342.12 469.597C342.547 470.003 343.03 470.258 343.807 470.258C344.473 470.258 344.861 469.925 344.861 469.52C344.861 469.042 344.345 468.893 343.541 468.61C342.636 468.293 341.876 467.922 341.876 466.906C341.876 466.062 342.653 465.424 343.707 465.424C344.373 465.424 344.995 465.602 345.611 466.107L345.133 466.834C344.645 466.412 344.134 466.257 343.663 466.257C343.241 466.257 342.814 466.506 342.814 466.906C342.814 467.339 343.269 467.55 343.862 467.777C345.028 468.227 345.799 468.427 345.794 469.503C345.794 470.374 345.139 471.09 343.807 471.09Z" fill="white"/>
<mask id="mask1_508_2303" style="mask-type:alpha" maskUnits="userSpaceOnUse" x="148" y="482" width="34" height="34">
<rect width="23.2243" height="23.2201" transform="matrix(0.68909 -0.724675 0.722031 0.69186 148.254 499.236)" fill="#D9D9D9"/>
</mask>
<g mask="url(#mask1_508_2303)">
<path d="M167.464 502.902L164.796 505.707C163.874 506.677 162.747 507.177 161.416 507.208C160.085 507.239 158.936 506.792 157.969 505.866C157.003 504.94 156.504 503.809 156.473 502.472C156.442 501.136 156.888 499.983 157.811 499.013L160.478 496.208L161.875 497.547L159.208 500.352C158.652 500.936 158.384 501.628 158.402 502.427C158.421 503.227 158.721 503.906 159.303 504.463C159.885 505.021 160.574 505.291 161.371 505.272C162.167 505.254 162.844 504.952 163.399 504.368L166.066 501.563L167.464 502.902ZM162.669 502.328L161.272 500.989L166.606 495.379L168.003 496.718L162.669 502.328ZM168.797 501.499L167.4 500.16L170.067 497.355C170.623 496.771 170.892 496.079 170.873 495.279C170.855 494.48 170.554 493.801 169.972 493.243C169.39 492.686 168.701 492.416 167.904 492.435C167.108 492.453 166.432 492.755 165.876 493.339L163.209 496.144L161.812 494.805L164.479 492C165.401 491.03 166.528 490.53 167.859 490.499C169.191 490.467 170.339 490.915 171.306 491.841C172.272 492.767 172.771 493.898 172.802 495.234C172.833 496.571 172.387 497.724 171.465 498.694L168.797 501.499Z" fill="#7C7CF8"/>
</g>
<path d="M239.448 282C239.448 306.583 219.737 326.448 195.5 326.448C171.263 326.448 151.552 306.583 151.552 282C151.552 257.417 171.263 237.552 195.5 237.552C219.737 237.552 239.448 257.417 239.448 282Z" fill="white" stroke="white" stroke-width="7.10317"/>
<rect x="323" y="323" width="124" height="39" rx="19.5" fill="white"/>
<path d="M367.634 348.118V348.125C366.337 348.125 365.026 347.625 363.965 346.536L365.158 345.059C365.921 345.926 366.885 346.321 367.676 346.321C368.64 346.321 369.126 345.877 369.126 345.253C369.126 344.511 368.592 344.247 367.371 343.824C365.838 343.29 364.312 342.582 364.312 340.682C364.312 339.059 365.741 337.817 367.551 337.796C368.8 337.782 369.965 338.254 370.95 339.066L369.799 340.571C368.959 339.884 368.231 339.579 367.6 339.579C366.906 339.579 366.393 339.953 366.386 340.592C366.379 341.223 366.927 341.486 368.085 341.937C369.826 342.617 371.207 343.075 371.207 345.017C371.207 347.223 369.285 348.118 367.634 348.118ZM379.198 344.476V344.469C379.198 344.691 379.184 345.01 379.149 345.135H374.287C374.509 345.961 375.168 346.46 376.055 346.467C376.784 346.474 377.332 346.148 377.713 345.683L378.92 346.807C378.331 347.556 377.318 348.118 375.924 348.118C373.891 348.118 372.351 346.689 372.351 344.525C372.351 342.416 373.822 340.945 375.792 340.945C377.831 340.945 379.198 342.437 379.198 344.476ZM375.854 342.582C375.098 342.582 374.509 342.992 374.293 343.796H377.353C377.165 343.061 376.659 342.582 375.854 342.582ZM385.6 341.063H387.459V347.202C387.459 349.367 386.502 350.927 383.838 350.927C382.756 350.927 381.806 350.691 380.994 350.227L381.424 348.659C382.104 349.034 382.791 349.304 383.679 349.304C384.976 349.304 385.642 348.61 385.642 347.764V347.07H385.607C385.115 347.591 384.435 347.882 383.589 347.882C381.674 347.882 380.28 346.488 380.28 344.469C380.28 342.43 381.633 340.945 383.492 340.945C384.268 340.945 385.018 341.223 385.566 341.785H385.6V341.063ZM383.929 346.19C384.955 346.19 385.684 345.44 385.684 344.393C385.684 343.332 384.914 342.638 383.929 342.638C382.895 342.638 382.167 343.359 382.167 344.407C382.167 345.503 382.937 346.19 383.929 346.19ZM393.799 341.063H395.659V348H393.799V347.154H393.772C393.231 347.799 392.495 348.118 391.712 348.118C390.213 348.118 389.159 347.355 389.159 345.246V341.063H391.018V344.761C391.018 346.03 391.392 346.446 392.26 346.446C393.071 346.446 393.799 345.773 393.799 344.428V341.063ZM398.496 340.092C397.857 340.092 397.344 339.586 397.344 338.955C397.344 338.337 397.857 337.824 398.496 337.824C399.127 337.824 399.654 338.337 399.654 338.955C399.654 339.586 399.127 340.092 398.496 340.092ZM397.566 348V341.063H399.425V348H397.566ZM405.377 340.945C405.432 340.945 405.481 340.945 405.522 340.952V342.999C405.335 342.985 405.134 342.978 405.03 342.978C403.885 342.978 403.261 343.755 403.261 344.788V348H401.402V341.063H403.261V342.083H403.282C403.802 341.348 404.558 340.945 405.377 340.945Z" fill="#222532"/>
<path d="M176.012 281.852C176.012 277.446 177.407 273.365 179.78 270.029H189.984V271.941C186.749 274.05 184.61 277.701 184.61 281.852C184.61 288.381 189.904 293.675 196.433 293.675V302.273C185.155 302.273 176.012 293.13 176.012 281.852Z" fill="#7C7CF8"/>
<path d="M213.086 293.675C215.459 290.338 216.855 286.258 216.855 281.852C216.855 270.573 207.712 261.43 196.433 261.43V270.029C202.963 270.029 208.256 275.322 208.256 281.852C208.256 286.002 206.118 289.653 202.882 291.763V293.675H213.086Z" fill="#7C7CF8"/>
<defs>
<linearGradient id="paint0_linear_508_2303" x1="201.589" y1="61.5165" x2="370.589" y2="228.35" gradientUnits="userSpaceOnUse">
<stop stop-color="#7C7CF8"/>
<stop offset="0.635171" stop-color="#7C7CF8" stop-opacity="0.38"/>
<stop offset="1" stop-color="#7C7CF8" stop-opacity="0.09"/>
</linearGradient>
<linearGradient id="paint1_linear_508_2303" x1="188.034" y1="132.715" x2="207.201" y2="194.006" gradientUnits="userSpaceOnUse">
<stop stop-color="#7C7CF8"/>
<stop offset="0.635171" stop-color="#7C7CF8" stop-opacity="0.38"/>
<stop offset="1" stop-color="#7C7CF8" stop-opacity="0.09"/>
</linearGradient>
<linearGradient id="paint2_linear_508_2303" x1="249.53" y1="138.742" x2="274.56" y2="162.941" gradientUnits="userSpaceOnUse">
<stop stop-color="#7C7CF8"/>
<stop offset="0.635171" stop-color="#7C7CF8" stop-opacity="0.38"/>
<stop offset="1" stop-color="#7C7CF8" stop-opacity="0.09"/>
</linearGradient>
<linearGradient id="paint3_linear_508_2303" x1="175.273" y1="37.826" x2="344.274" y2="204.661" gradientUnits="userSpaceOnUse">
<stop stop-color="#7C7CF8"/>
<stop offset="0.635171" stop-color="#7C7CF8" stop-opacity="0.38"/>
<stop offset="1" stop-color="#7C7CF8" stop-opacity="0.09"/>
</linearGradient>
<linearGradient id="paint4_linear_508_2303" x1="390.411" y1="438.249" x2="221.411" y2="271.416" gradientUnits="userSpaceOnUse">
<stop stop-color="#7C7CF8"/>
<stop offset="0.635171" stop-color="#7C7CF8" stop-opacity="0.38"/>
<stop offset="1" stop-color="#7C7CF8" stop-opacity="0.09"/>
</linearGradient>
<linearGradient id="paint5_linear_508_2303" x1="403.966" y1="367.051" x2="384.799" y2="305.76" gradientUnits="userSpaceOnUse">
<stop stop-color="#7C7CF8"/>
<stop offset="0.635171" stop-color="#7C7CF8" stop-opacity="0.38"/>
<stop offset="1" stop-color="#7C7CF8" stop-opacity="0.09"/>
</linearGradient>
<linearGradient id="paint6_linear_508_2303" x1="285.201" y1="199.163" x2="243.322" y2="182.611" gradientUnits="userSpaceOnUse">
<stop stop-color="#7C7CF8"/>
<stop offset="0.635171" stop-color="#7C7CF8" stop-opacity="0.38"/>
<stop offset="1" stop-color="#7C7CF8" stop-opacity="0.09"/>
</linearGradient>
<linearGradient id="paint7_linear_508_2303" x1="416.727" y1="461.94" x2="247.726" y2="295.105" gradientUnits="userSpaceOnUse">
<stop stop-color="#7C7CF8"/>
<stop offset="0.635171" stop-color="#7C7CF8" stop-opacity="0.38"/>
<stop offset="1" stop-color="#7C7CF8" stop-opacity="0.09"/>
</linearGradient>
</defs>
</svg>
