<svg width="384" height="547" viewBox="0 0 384 547" fill="none" xmlns="http://www.w3.org/2000/svg">
<path d="M373.459 371.066C371.184 368.914 368.15 367.698 365.022 367.698H212.015C211.351 367.698 210.593 367.698 209.929 367.511C194.761 364.798 185.282 352.449 185.282 339.164V210.994C185.282 210.339 185.282 209.591 185.471 208.936C188.22 193.967 200.734 184.612 214.195 184.612H364.927C368.15 184.612 371.184 183.396 373.364 181.15L537.178 19.9562C544.762 12.4718 539.453 -0.251565 528.741 -0.251565L390.333 -0.438674C382.749 -0.438674 375.45 2.46151 370.046 7.70056L160.634 210.246C153.05 217.637 140.252 212.304 140.252 201.826V10.8814C140.252 4.3326 134.848 -1 128.212 -1H11.1344C4.49839 -1 -0.9052 4.3326 -0.9052 10.8814V134.28C-0.9052 136.899 -0.0520025 139.425 1.55959 141.483L73.5126 234.57C78.537 241.119 75.5034 250.568 67.635 253L7.34238 272.085C2.41279 273.676 -1 278.26 -1 283.405V540.119C-1 546.667 4.40359 552 11.0396 552H111.243C127.169 552 140.157 534.225 140.157 512.239V348.987C140.157 338.509 152.955 333.176 160.539 340.474L369.951 542.364C375.355 547.603 382.56 550.503 390.144 550.503H528.551C539.264 550.503 544.667 537.686 536.989 530.202L373.269 370.972L373.459 371.066Z" fill="#1F2823"/>
</svg>
