<svg width="49" height="48" viewBox="0 0 49 48" fill="none" xmlns="http://www.w3.org/2000/svg">
<g clip-path="url(#clip0_152_184)">
<path fill-rule="evenodd" clip-rule="evenodd" d="M8.50498 8C8.28407 8 8.10498 8.17909 8.10498 8.4V39.6C8.10498 39.8209 8.28407 40 8.50498 40H39.705C39.9259 40 40.105 39.8209 40.105 39.6V8.4C40.105 8.17909 39.9259 8 39.705 8H8.50498ZM21.8827 16.1316L16.2027 31.7316C16.1552 31.862 16.2518 32 16.3907 32H20.7396C20.8235 32 20.8983 31.9478 20.9273 31.8691L26.6725 16.2691C26.7206 16.1386 26.624 16 26.4848 16H22.0706C21.9865 16 21.9114 16.0526 21.8827 16.1316ZM30.2209 26.7986L32.0083 31.7318C32.0555 31.8622 31.959 32 31.8203 32H28.9152C28.8302 32 28.7545 31.9463 28.7264 31.8661L26.9987 26.9328C26.9531 26.8027 27.0496 26.6666 27.1875 26.6666H30.0328C30.1171 26.6666 30.1922 26.7194 30.2209 26.7986Z" fill="#7B867E"/>
</g>
<defs>
<clipPath id="clip0_152_184">
<rect width="32" height="32" fill="white" transform="translate(8.10498 8)"/>
</clipPath>
</defs>
</svg>
