<svg width="95" height="48" viewBox="0 0 95 48" fill="none" xmlns="http://www.w3.org/2000/svg">
<g clip-path="url(#clip0_152_131)">
<path d="M63.181 24.953C63.441 28.9793 66.9455 32.2075 72.01 32.4524L72.581 35.8958C64.1763 35.8753 58.5942 30.9125 58.5942 24.4704C58.5942 18.0283 64.18 13.0164 72.591 13L72.0175 16.4444C66.9219 16.6841 63.4647 19.8919 63.1848 23.9377L58.6975 24.4438L63.181 24.953Z" fill="#7B867E"/>
<path d="M72.6012 13H72.631C80.629 13 86.5879 17.7046 86.5879 24.4704C86.5879 31.2363 80.6302 35.8958 72.6323 35.8958H72.5912L73.1647 32.4565C77.953 32.2485 81.7312 29.2467 82.0011 24.9642L86.5655 24.452L81.9987 23.9377C81.7125 19.6183 77.968 16.6483 73.1722 16.4403L72.6012 13Z" fill="#7B867E"/>
<path d="M74.2949 23.0566L72.5963 18.769L70.8889 23.0545L65.6479 24.4438L70.8863 25.8403L72.5849 30.1268L74.2924 25.8423L79.5346 24.452L74.2949 23.0566Z" fill="#7B867E"/>
<path d="M42.7524 35.8958L31.7026 13H36.9419L45.3101 30.532L53.3939 13H58.5942L47.8701 35.8958H42.7524Z" fill="#7B867E"/>
<path d="M29.278 35.8958V32.364H13.0744V16.5318H29.278V13H12.6361C10.2622 13 8.33789 14.5812 8.33789 16.5318V32.364C8.33789 34.3146 10.2622 35.8958 12.6361 35.8958H29.278Z" fill="#7B867E"/>
<path d="M15.5361 22.5843H27.3149V26.3115H15.5361V22.5843Z" fill="#7B867E"/>
</g>
<defs>
<clipPath id="clip0_152_131">
<rect width="78.25" height="32" fill="white" transform="translate(8.33789 8)"/>
</clipPath>
</defs>
</svg>
