<svg width="676" height="676" viewBox="0 0 676 676" fill="none" xmlns="http://www.w3.org/2000/svg">
<path d="M467.258 454.822C464.419 452.192 460.633 450.705 456.73 450.705H265.805C264.977 450.705 264.03 450.705 263.202 450.476C244.275 447.16 232.446 432.064 232.446 415.824V259.147C232.446 258.346 232.446 257.431 232.683 256.631C236.113 238.333 251.728 226.896 268.525 226.896H456.612C460.633 226.896 464.419 225.41 467.14 222.665L671.55 25.6173C681.014 16.4683 674.389 0.914904 661.022 0.914904L488.314 0.686178C478.851 0.686178 469.742 4.23143 462.999 10.6358L201.69 258.232C192.226 267.266 176.257 260.748 176.257 247.939V14.5241C176.257 6.51869 169.514 0 161.234 0H15.1415C6.861 0 0.118293 6.51869 0.118293 14.5241V165.369C0.118293 168.571 1.18293 171.659 3.19391 174.175L92.9784 287.966C99.2479 295.972 95.4626 307.522 85.6442 310.496L10.4098 333.826C4.25855 335.77 0 341.374 0 347.664V661.476C0 669.481 6.74271 676 15.0232 676H140.059C159.932 676 176.138 654.271 176.138 627.396V427.832C176.138 415.024 192.108 408.505 201.572 417.425L462.881 664.221C469.624 670.625 478.614 674.17 488.077 674.17H660.785C674.153 674.17 680.895 658.502 671.314 649.353L467.021 454.707L467.258 454.822Z" fill="#1F2823"/>
</svg>
