<svg width="60" height="60" viewBox="0 0 60 60" fill="none" xmlns="http://www.w3.org/2000/svg">
<path id="Vector" d="M41.4726 40.3688C41.2206 40.1353 40.8846 40.0034 40.5381 40.0034H23.5921C23.5186 40.0034 23.4346 40.0034 23.3611 39.9831C21.6812 39.6887 20.6313 38.3488 20.6313 36.9075V23.0012C20.6313 22.9301 20.6313 22.8489 20.6523 22.7779C20.9568 21.1538 22.3427 20.1387 23.8336 20.1387H40.5276C40.8846 20.1387 41.2206 20.0068 41.4621 19.7632L59.605 2.27373C60.445 1.46168 59.857 0.0812045 58.6706 0.0812045L43.3415 0.0609034C42.5015 0.0609034 41.6931 0.375571 41.0946 0.944003L17.9015 22.92C17.0615 23.7219 15.6441 23.1433 15.6441 22.0064V1.28912C15.6441 0.578582 15.0456 0 14.3107 0H1.34392C0.608965 0 0.0104994 0.578582 0.0104994 1.28912V14.6777C0.0104994 14.9619 0.104994 15.236 0.283484 15.4593L8.25252 25.5591C8.80899 26.2697 8.47301 27.2949 7.60156 27.5588L0.923946 29.6295C0.377978 29.8021 0 30.2994 0 30.8577V58.7109C0 59.4214 0.598465 60 1.33342 60H12.4313C14.1952 60 15.6336 58.0714 15.6336 55.686V37.9733C15.6336 36.8364 17.051 36.2578 17.891 37.0496L41.0841 58.9545C41.6826 59.5229 42.4805 59.8376 43.3205 59.8376H58.6496C59.836 59.8376 60.4345 58.447 59.584 57.6349L41.4516 40.3587L41.4726 40.3688Z" fill="#F5F8F5"/>
</svg>
