<svg width="40" height="40" viewBox="0 0 40 40" fill="none" xmlns="http://www.w3.org/2000/svg">
<path d="M27.1009 26.9125C26.9362 26.7569 26.7167 26.6689 26.4903 26.6689H15.4166C15.3686 26.6689 15.3137 26.6689 15.2657 26.6554C14.1679 26.4591 13.4818 25.5659 13.4818 24.605V15.3341C13.4818 15.2868 13.4818 15.2326 13.4956 15.1852C13.6945 14.1025 14.6002 13.4258 15.5744 13.4258H26.4834C26.7167 13.4258 26.9362 13.3378 27.094 13.1754L38.9498 1.51582C39.4987 0.974454 39.1145 0.0541364 38.3392 0.0541364L28.3222 0.0406023C27.7733 0.0406023 27.245 0.250381 26.8539 0.629335L11.698 15.28C11.1491 15.8146 10.2229 15.4289 10.2229 14.671V0.859415C10.2229 0.385722 9.8318 0 9.35153 0H0.878207C0.397937 0 0.00686099 0.385722 0.00686099 0.859415V9.78515C0.00686099 9.97462 0.0686099 10.1573 0.185247 10.3062L5.39274 17.0394C5.75637 17.5131 5.53682 18.1966 4.96736 18.3725L0.603767 19.753C0.246996 19.868 0 20.1996 0 20.5718V39.1406C0 39.6143 0.391076 40 0.871346 40H8.12341C9.27606 40 10.216 38.7143 10.216 37.124V25.3155C10.216 24.5576 11.1422 24.1719 11.6911 24.6997L26.847 39.303C27.2381 39.6819 27.7596 39.8917 28.3084 39.8917H38.3255C39.1008 39.8917 39.4919 38.9646 38.9361 38.4233L27.0872 26.9058L27.1009 26.9125Z" fill="#161D19"/>
</svg>
