<svg width="781" height="781" viewBox="0 0 781 781" fill="none" xmlns="http://www.w3.org/2000/svg">
<path opacity="0.24" d="M539.835 525.467C536.555 522.428 532.182 520.711 527.672 520.711H307.091C306.134 520.711 305.041 520.711 304.084 520.446C282.218 516.615 268.551 499.174 268.551 480.412V299.399C268.551 298.474 268.551 297.417 268.824 296.492C272.787 275.352 290.828 262.139 310.234 262.139H527.535C532.182 262.139 536.555 260.421 539.698 257.25L775.859 29.5963C786.792 19.0262 779.139 1.05701 763.696 1.05701L564.162 0.792759C553.228 0.792759 542.705 4.88868 534.915 12.2878L233.017 298.342C222.084 308.78 203.634 301.249 203.634 286.45V16.7801C203.634 7.53121 195.844 0 186.277 0H17.4934C7.92669 0 0.136667 7.53121 0.136667 16.7801V191.055C0.136667 194.755 1.36667 198.322 3.69001 201.229L107.42 332.695C114.664 341.943 110.29 355.288 98.947 358.724L12.0267 385.677C4.92002 387.924 0 394.398 0 401.665V764.22C0 773.469 7.79002 781 17.3567 781H161.814C184.774 781 203.497 755.896 203.497 724.846V494.285C203.497 479.487 221.947 471.956 232.881 482.262L534.778 767.391C542.568 774.79 552.955 778.886 563.888 778.886H763.422C778.866 778.886 786.656 760.785 775.586 750.214L539.562 525.335L539.835 525.467Z" fill="url(#paint0_linear_1247_3082)"/>
<defs>
<linearGradient id="paint0_linear_1247_3082" x1="390.5" y1="0" x2="390.5" y2="781" gradientUnits="userSpaceOnUse">
<stop stop-color="#333C36"/>
<stop offset="1" stop-color="#333C36" stop-opacity="0"/>
</linearGradient>
</defs>
</svg>
