<svg width="781" height="781" viewBox="0 0 781 781" fill="none" xmlns="http://www.w3.org/2000/svg">
<path d="M539.266 525.626L539.217 525.697L775.24 750.576C775.241 750.576 775.241 750.576 775.241 750.576C785.956 760.808 778.454 778.386 763.422 778.386H563.888C553.08 778.386 542.818 774.337 535.123 767.028L535.122 767.027L233.224 481.898L233.224 481.898C221.995 471.314 202.997 479.016 202.997 494.285V724.846C202.997 740.274 198.345 754.206 190.864 764.268C183.383 774.331 173.099 780.5 161.814 780.5H17.3567C8.05011 780.5 0.5 773.177 0.5 764.22V401.665C0.5 394.628 5.2663 388.34 12.1748 386.155L539.266 525.626ZM539.266 525.626C536.106 522.803 531.952 521.211 527.672 521.211H307.091H307.06C306.13 521.211 304.991 521.211 303.975 520.935C281.89 517.054 268.051 499.418 268.051 480.412V299.399V299.366C268.051 298.47 268.051 297.364 268.337 296.375C272.357 274.998 290.61 261.639 310.234 261.639H527.535C532.059 261.639 536.301 259.967 539.343 256.898L539.351 256.89L775.511 29.2369C786.098 19.002 778.723 1.55701 763.695 1.55701L564.162 1.29276C553.352 1.29276 542.953 5.34252 535.259 12.6503L535.259 12.6507L233.363 298.703C222.134 309.423 203.134 301.72 203.134 286.45V16.7801C203.134 7.82314 195.584 0.5 186.277 0.5H17.4934C8.18677 0.5 0.636667 7.82314 0.636667 16.7801V191.055C0.636667 194.643 1.82903 198.1 4.08058 200.917L4.08254 200.919L107.813 332.385L107.814 332.386C115.281 341.921 110.761 355.668 99.0919 359.202L12.1774 386.154L539.266 525.626Z" stroke="#333C36"/>
</svg>
