<svg width="87" height="48" viewBox="0 0 87 48" fill="none" xmlns="http://www.w3.org/2000/svg">
<path d="M76.0798 24.4216C75.2818 23.715 74.3051 23.1726 73.1747 22.8094C72.7547 22.6745 72.3178 22.5684 71.8656 22.4881C72.3749 21.4425 72.2999 20.3004 71.6225 19.2688C72.0273 18.7884 72.349 18.2652 72.5849 17.7038C72.8494 17.0738 72.9871 16.4084 72.9942 15.7283C73.0031 14.8905 72.8244 14.1035 72.4616 13.3888C72.4554 13.3763 72.4491 13.3637 72.442 13.3512C70.8746 10.3603 67.1394 10.0081 65.6069 9.9956C65.5694 9.9956 65.5318 9.9956 65.4934 9.9956C64.6508 9.9956 63.8367 10.0759 63.0557 10.2284C63.053 9.17769 62.6009 8.194 61.7519 7.42473C60.7538 6.51988 59.299 6.01441 57.6548 6.00041C55.4736 5.9842 53.7257 6.45725 53.2378 6.60388C51.6088 7.09315 50.5043 8.21169 50.2068 9.66917C50.1478 9.95654 50.1255 10.2373 50.1326 10.5114C50.07 10.532 50.0084 10.5556 49.9467 10.577C49.6232 10.3942 49.2667 10.2432 48.8816 10.1326C48.2516 9.9536 47.5019 9.84749 46.8245 9.84233C46.1007 9.8357 45.385 9.92265 44.7049 10.0958C42.6488 9.54464 40.38 9.92633 39.3541 10.1577C39.2022 10.1916 39.0565 10.2336 38.9127 10.2785C37.6259 9.84528 36.3561 9.75759 35.61 9.7517C33.8407 9.73843 32.1911 10.0678 30.7211 10.7111C29.7346 10.0708 28.4791 9.69349 27.053 9.6817C25.9378 9.67065 24.8663 9.90717 23.9477 10.353C23.0711 9.9138 22.0104 9.64043 20.7889 9.63086C20.7639 9.63086 20.7388 9.63086 20.7138 9.63086C18.1045 9.63086 15.9903 10.7288 14.8778 11.7618C13.5311 13.0108 13.3381 14.8227 14.4006 16.2743C14.7098 16.6958 15.1146 17.0797 15.5873 17.395L16.715 21.9701C14.2407 22.2501 12.1371 23.2633 10.4635 25.0133C8.85588 26.6889 8.02753 28.6563 8.00072 30.8617C7.97481 33.0096 8.64411 34.7743 9.98807 36.1058C9.99611 36.1139 10.0033 36.1213 10.0113 36.1294C10.7691 36.867 11.6957 37.4314 12.7644 37.8079C13.7376 38.1506 14.8054 38.3296 15.9403 38.3385C15.9769 38.3385 16.0135 38.3385 16.0502 38.3385C16.9777 38.3385 17.8642 38.2434 18.6898 38.054C19.3493 37.903 19.9757 37.6967 20.5664 37.4506C21.6869 38.068 23.0157 38.4033 24.4598 38.4151C24.4946 38.4151 24.5286 38.4151 24.5634 38.4151C25.4874 38.4151 26.3274 38.3105 27.0887 38.1343C27.8089 38.3768 28.5962 38.5109 29.4237 38.5175C29.4558 38.5175 29.488 38.5175 29.5202 38.5175C30.4852 38.5175 31.3815 38.3996 32.2349 38.1601C32.6513 38.2655 33.0865 38.3274 33.5324 38.3311L35.904 38.3502C35.9209 38.3502 35.937 38.3502 35.9549 38.3502C36.6939 38.3502 37.3945 38.2147 38.0182 37.9693C38.6419 38.2242 39.3318 38.3679 40.0422 38.3731L42.4995 38.393C42.5156 38.393 42.5317 38.393 42.5478 38.393C43.369 38.393 44.1464 38.2169 44.822 37.9045C45.4591 38.2036 46.2455 38.4431 47.2079 38.5485C47.1132 39.5373 47.4894 40.521 48.2748 41.2829C49.1345 42.117 50.39 42.6019 51.7196 42.6129L54.0054 42.6313C54.0224 42.6313 54.0385 42.6313 54.0555 42.6313C56.4333 42.6313 58.4108 41.2343 58.7656 39.3052L58.9282 38.435C60.1614 38.1926 61.3132 37.7674 62.3471 37.1713C62.9565 37.5935 63.6901 37.9641 64.5748 38.2522C65.5801 38.5787 66.6881 38.7489 67.8686 38.7585C67.9079 38.7585 67.9472 38.7585 67.9865 38.7585C69.024 38.7585 70.015 38.645 70.9559 38.4166C72.853 37.9457 74.4579 37.0799 75.7393 35.8317C77.4353 34.1635 78.3093 32.132 78.337 29.7962C78.3638 27.5878 77.606 25.7818 76.078 24.4201L76.0798 24.4216Z" fill="#7B867E"/>
<path d="M28.6738 14.7615C28.6783 14.3747 28.6148 13.2274 27.0108 13.2141C26.0198 13.206 25.4828 13.7741 25.4774 14.2339C25.472 14.6598 25.7955 15.2618 25.7857 16.0731C25.7723 17.1835 24.927 19.1848 23.7126 20.5133L22.4821 14.2656C22.4151 13.9156 22.0112 13.1729 20.7459 13.1625C19.4805 13.1522 18.4493 13.7631 18.0785 14.1079C18.0106 14.1713 17.9409 14.2744 18.0651 14.4439C18.2009 14.6296 18.3769 14.7696 18.5271 14.6952C18.9962 14.4623 19.2804 14.5957 19.3778 15.043L21.1417 22.2022C21.2105 22.424 21.3776 22.5581 21.7842 22.561C24.3729 22.5824 28.6407 17.3618 28.672 14.7615H28.6738Z" fill="white"/>
<path d="M67.7983 21.307C67.9055 21.1861 67.9698 21.1065 67.8367 20.9245L67.5061 20.4758C67.4364 20.3807 67.2773 20.3741 67.1888 20.4574C66.4409 21.1611 65.5366 21.5081 64.4777 21.4993C63.9192 21.4949 63.4813 21.3055 63.1641 20.9319C62.8469 20.5583 62.6941 19.9585 62.7039 19.1318C63.5778 19.1281 64.4589 19.0087 65.3489 18.7722C65.8002 18.6543 66.2309 18.5003 66.6411 18.3102C67.0512 18.1201 67.4122 17.8939 67.7241 17.6316C68.094 17.3199 68.3648 16.9596 68.5373 16.5491C68.6516 16.2758 68.7079 15.9862 68.7115 15.6966C68.7151 15.3378 68.6481 15.0239 68.5105 14.7534C68.0896 13.9503 67.1084 13.5421 65.5661 13.5295C63.786 13.5148 62.2955 14.0512 61.0945 15.1381C59.8802 16.2249 59.2627 17.5969 59.243 19.2556C59.243 19.2718 59.243 19.2873 59.243 19.3035C59.235 19.9394 59.3663 20.5178 59.6371 21.0387C59.7756 21.3048 59.9525 21.5509 60.1679 21.7778C60.3832 22.0048 60.6477 22.2015 60.9605 22.3688C61.2733 22.5353 61.6334 22.6672 62.04 22.763C62.4466 22.8588 62.9327 22.9096 63.4983 22.914C64.0631 22.9184 64.5974 22.8595 65.1005 22.7364C66.3578 22.4255 67.3336 21.8345 67.8001 21.3077L67.7983 21.307ZM64.8396 14.6201C65.3659 14.6245 65.6251 14.9944 65.6161 15.7312C65.6072 16.4673 65.2721 17.0664 64.6117 17.5269C64.0291 17.9307 63.3964 18.1474 62.7146 18.179C62.9291 15.7968 63.6377 14.6105 64.8387 14.6201H64.8396Z" fill="white"/>
<path d="M35.1007 22.491C36.358 22.18 37.3347 21.5891 37.8012 21.0622C37.9084 20.9414 37.9727 20.8618 37.8396 20.6798L37.509 20.231C37.4393 20.136 37.2802 20.1294 37.1918 20.2126C36.4438 20.9163 35.5395 21.2634 34.4797 21.2545C33.9212 21.2501 33.4825 21.0607 33.1661 20.6872C32.8489 20.3136 32.6961 19.7138 32.7059 18.887C33.5799 18.8834 34.4609 18.764 35.351 18.5275C35.8022 18.4096 36.2329 18.2556 36.6431 18.0655C37.0532 17.8753 37.4143 17.6491 37.7261 17.3868C38.0961 17.0751 38.3668 16.7148 38.5393 16.3044C38.6537 16.031 38.71 15.7414 38.7135 15.4519C38.7171 15.093 38.6501 14.7791 38.5134 14.5087C38.0925 13.7055 37.1113 13.2973 35.569 13.2848C33.7899 13.27 32.2985 13.8065 31.0975 14.8933C29.8831 15.9802 29.2656 17.3522 29.246 19.0108C29.246 19.027 29.246 19.0425 29.246 19.0587C29.2379 19.6946 29.3693 20.273 29.6391 20.794C29.7767 21.06 29.9546 21.3061 30.1699 21.5331C30.3853 21.76 30.6498 21.9567 30.9625 22.124C31.2753 22.2905 31.6354 22.4224 32.042 22.5182C32.4486 22.614 32.9347 22.6649 33.5003 22.6693C34.0651 22.6737 34.5994 22.6148 35.1025 22.4917L35.1007 22.491ZM34.8416 14.3753C35.3679 14.3797 35.6271 14.7496 35.6181 15.4865C35.6092 16.2226 35.2741 16.8217 34.6137 17.2822C34.0302 17.686 33.3985 17.9026 32.7167 17.9343C32.9311 15.5521 33.6397 14.3657 34.8407 14.3753H34.8416Z" fill="white"/>
<path d="M40.1164 22.5631L42.472 22.5822C42.7615 22.5845 42.9062 22.4592 42.9438 22.2492L43.9678 16.5541C44.5406 16.277 45.6344 16.0508 46.7317 16.3087C46.8604 16.3389 46.9926 16.2689 47.0185 16.1606L47.6289 13.6907C47.6512 13.5986 47.5922 13.5028 47.485 13.4719C47.2634 13.4092 46.9676 13.3761 46.7817 13.3746C45.6344 13.365 44.6863 13.9626 44.0509 14.7864L44.0188 14.0319C43.933 13.0091 41.2504 13.3923 40.4873 13.564C40.3622 13.592 40.246 13.6266 40.2174 13.9073C40.1879 14.2006 40.2755 14.32 40.4667 14.3494C40.7768 14.3959 41.1718 14.513 41.1369 14.8033C41.1003 15.1069 40.0753 20.9789 39.8367 22.2941C39.8108 22.4356 39.9431 22.5616 40.1164 22.5631Z" fill="white"/>
<path d="M20.6309 25.6934C20.1448 25.5925 19.3343 25.4289 18.1914 25.4201C15.7564 25.4002 14.533 26.4627 13.8235 27.2047C12.8147 28.2562 12.3026 29.486 12.2857 30.8956C12.2705 32.1888 12.602 33.171 13.2811 33.8445C13.6046 34.1598 13.9942 34.3978 14.4481 34.557C14.9021 34.7169 15.4141 34.7994 15.9824 34.8038C16.5508 34.8083 17.0708 34.7574 17.5409 34.6498C18.7034 34.3831 19.6891 33.8577 20.2833 33.2211C20.378 33.1194 20.3896 32.9809 20.3074 32.8718L19.9509 32.4002C19.8472 32.2956 19.6989 32.2706 19.5443 32.4017C18.8205 33.0185 18.1342 33.3191 17.2299 33.3117C16.6642 33.3073 16.2523 33.1268 15.9932 32.7694C15.8538 32.583 15.751 32.3435 15.6831 32.0517C15.6161 31.7599 15.5803 31.4895 15.5776 31.2404C15.5741 30.9914 15.5741 30.7092 15.5776 30.3938C15.5812 30.0784 15.6438 29.6886 15.7653 29.223C16.0352 28.1759 16.4677 27.428 17.0646 26.977C17.3371 26.7678 17.6034 26.6631 17.8635 26.6654C18.2128 26.6683 18.5202 26.9225 19.0537 27.4302C19.0537 27.4302 19.3218 27.6903 19.5684 27.9445C19.8463 28.2312 20.1314 28.17 20.2413 27.9445C20.3485 27.7242 20.9079 26.0995 20.9079 26.0995C20.9722 25.9233 20.848 25.7377 20.6318 25.6927L20.6309 25.6934Z" fill="white"/>
<path d="M72.9438 26.828C72.5872 26.5127 72.1476 26.2702 71.6222 26.1022C71.0976 25.9335 70.5069 25.8466 69.8519 25.8414C69.1969 25.8362 68.592 25.9026 68.038 26.0411C66.9424 26.3078 66.0372 26.7986 65.3215 27.5126C64.2751 28.5427 63.7425 29.8101 63.7246 31.314C63.7014 33.2158 64.5092 34.4331 66.148 34.9658C66.6663 35.1345 67.2543 35.2215 67.9138 35.2266C68.5723 35.2318 69.1755 35.1677 69.7233 35.0351C70.8188 34.7632 71.7303 34.2724 72.4586 33.5636C73.5049 32.5335 74.0375 31.2668 74.0554 29.7622C74.0706 28.4801 73.7006 27.5023 72.9438 26.8288V26.828ZM70.6044 29.8528C70.5918 30.9286 70.4453 31.8541 70.1665 32.6307C70.053 32.9476 69.9136 33.2231 69.7474 33.4575C69.5803 33.6918 69.3873 33.8782 69.1675 34.0167C68.9476 34.1553 68.7091 34.2238 68.4517 34.2216C68.1943 34.2194 67.9897 34.1678 67.8369 34.0654C67.3651 33.7647 67.1381 32.8304 67.1569 31.2624C67.1694 30.2345 67.3311 29.3171 67.643 28.5088C67.7627 28.1971 67.9084 27.9245 68.0818 27.6902C68.2542 27.4558 68.4562 27.2709 68.6858 27.1346C68.9155 26.999 69.1496 26.9319 69.3864 26.9342C69.6241 26.9364 69.8135 26.9828 69.9538 27.0734C70.4069 27.3689 70.6231 28.2951 70.6044 29.8521V29.8528Z" fill="white"/>
<path d="M31.3371 25.4332C30.9198 25.4295 30.1871 25.6034 29.6152 25.8083L29.625 25.7729C29.625 25.7729 29.1487 25.5268 27.8861 25.5165C23.8873 25.4841 21.5005 28.3394 21.4638 31.3906C21.4361 33.6852 22.6711 34.8656 24.5038 34.8804C26.1829 34.8944 27.2007 34.3152 27.7109 33.8384C27.8798 34.3815 28.3311 34.9739 29.4659 34.9835C30.1549 34.9894 30.7196 34.8907 31.2621 34.6792C31.38 34.6335 31.481 34.5716 31.5185 34.324C31.5587 34.0588 31.4443 33.9527 31.2531 33.9239C30.943 33.8775 30.4739 33.7596 30.5088 33.4693C30.524 33.3411 31.8214 26.2445 31.8214 26.2445C31.8634 25.8363 32.0413 25.4391 31.3371 25.4332ZM27.685 32.7096C27.4008 33.0272 26.8343 33.515 26.0363 33.5083C24.855 33.4988 24.7478 32.0973 24.7612 30.9765C24.7844 29.0209 25.5529 26.5842 27.8342 26.6033C28.2078 26.6063 28.4964 26.6505 28.7207 26.719C28.5062 27.9783 27.8807 31.5852 27.685 32.7096Z" fill="white"/>
<path d="M50.6815 22.8086C52.3132 22.8219 53.3185 22.2751 53.843 21.8072C54.0807 22.3245 54.5999 22.8565 55.6749 22.8654C56.3638 22.8713 56.9286 22.7725 57.471 22.561C57.5889 22.5154 57.6676 22.4439 57.714 22.228C57.7703 21.9679 57.7489 21.8485 57.4611 21.8065C57.1511 21.7608 56.7561 21.6429 56.791 21.3526C56.8061 21.2244 58.7694 10.3205 58.7694 10.3205C58.8114 9.91231 58.5343 9.54167 57.613 9.53431C56.2432 9.52325 55.0788 9.8121 54.7053 9.9241C54.5731 9.96389 54.4864 9.99263 54.4319 10.2579C54.3541 10.6396 54.4935 10.6801 54.6848 10.7088C54.9948 10.7553 55.3898 10.8724 55.3549 11.1627C55.3505 11.2025 55.1825 12.1752 54.9546 13.4919C54.7223 13.4669 54.4301 13.4484 54.0628 13.4455C50.064 13.4131 47.6772 16.2684 47.6406 19.3196C47.6129 21.6142 48.8478 22.7946 50.6806 22.8094L50.6815 22.8086ZM50.9397 18.9048C50.9603 17.2108 51.7314 14.5125 54.0128 14.5309C54.3166 14.5331 54.5588 14.5648 54.7616 14.6127C54.3264 17.1275 53.793 20.1972 53.6848 20.8191C53.3694 21.1124 52.8708 21.441 52.2149 21.4359C51.0335 21.4263 50.9263 20.0248 50.9397 18.9041V18.9048Z" fill="white"/>
<path d="M59.7799 25.7774C58.2081 25.7649 57.2314 26.3978 56.6506 26.9475L56.6917 26.428C56.6032 25.4053 53.7554 25.7413 52.9753 25.9137C52.8466 25.9417 52.7447 25.9822 52.6938 26.2549C52.6259 26.6218 52.7563 26.6859 52.9547 26.6984C53.3211 26.7213 53.6758 26.862 53.6401 27.1523C53.624 27.2806 53.28 29.1426 52.8689 31.3516C52.1478 32.0767 50.3731 33.4413 49.7271 33.4362C49.4769 33.434 49.3526 33.294 49.3562 33.0154C49.3598 32.7377 50.1104 28.3704 50.1435 28.0808C50.3302 26.4457 49.3205 25.6742 47.6191 25.6602C46.2162 25.6484 44.672 26.2902 43.7695 27.5915C43.5988 26.2814 42.7329 25.6204 41.1718 25.6072C40.8055 25.6042 40.4543 25.6492 40.1201 25.7413C39.1925 25.9933 38.2435 26.5511 37.5742 27.3719L37.5823 27.2806L37.7324 26.2725C37.8638 25.171 34.7791 25.5851 34.016 25.7575C33.8909 25.7855 33.7899 25.826 33.7407 26.0986C33.6746 26.4656 33.8015 26.5297 33.9954 26.5422C34.3537 26.5651 34.7005 26.7058 34.6656 26.9961C34.629 27.2997 33.5343 33.2129 33.2957 34.5275C33.2698 34.6689 33.4021 34.7949 33.5754 34.7964L35.9479 34.8156C36.2374 34.8178 36.3822 34.6925 36.4206 34.4832L37.4205 28.92C37.7413 28.4249 38.6564 27.159 39.8082 27.1686C40.3819 27.173 40.7438 27.4272 40.5427 29.2664L39.7117 34.4832C39.6804 34.6704 39.8556 34.8377 40.0843 34.8399L42.5426 34.8598C42.7356 34.8612 42.8991 34.7434 42.9233 34.5857C42.9233 34.5857 43.639 29.7601 43.7525 28.8456C44.0796 28.3453 44.9982 27.2106 46.1143 27.2201C47.0829 27.2282 46.9489 28.3785 46.6933 29.749L46.1697 32.9027C45.9722 33.8053 46.1018 35.0558 48.2553 35.0735C49.6475 35.0845 51.3641 34.145 52.5365 33.1238C52.062 35.6688 51.5884 38.1947 51.4749 38.81C51.449 38.9515 51.5839 39.0775 51.7609 39.079L54.0467 39.0974C54.3425 39.0996 54.4908 38.9743 54.5292 38.7651L55.2271 35.0418C55.5014 35.0911 55.883 35.1346 56.3959 35.139C60.3938 35.1715 62.7815 32.3162 62.8182 29.2649C62.8459 26.9703 61.6109 25.7899 59.7782 25.7752L59.7799 25.7774ZM59.5253 29.4093C59.5047 31.1033 58.73 34.0736 56.4486 34.0551C56.0036 34.0514 55.6819 33.9881 55.4443 33.8952L56.5478 28.0064C56.8114 27.6947 57.3976 27.1428 58.2465 27.1501C59.4279 27.1597 59.5414 28.0388 59.5253 29.41V29.4093Z" fill="white"/>
</svg>
