<svg width="592" height="695" viewBox="0 0 592 695" fill="none" xmlns="http://www.w3.org/2000/svg">
<rect width="592" height="695" rx="12" fill="#DFC2A0"/>
<g clip-path="url(#clip0_509_1252)">
<path d="M291.948 341.619L300.078 341.677L318.492 463.705C319.104 467.697 318.93 471.863 317.473 475.622C314.005 484.684 305.206 491.123 294.92 491.036C284.343 490.948 275.427 484.043 272.339 474.486C271.202 470.96 271.144 467.172 271.727 463.53L291.919 341.59L291.948 341.619Z" fill="#FEECD8"/>
<path d="M299.495 341.298L303.516 348.379L207.042 425.33C203.866 427.865 200.195 429.759 196.203 430.4C186.617 431.945 176.652 427.516 171.582 418.571C166.366 409.363 167.911 398.174 174.612 390.744C177.089 388.005 180.323 386.053 183.79 384.742L299.495 341.269V341.298Z" fill="#FEECD8"/>
<path d="M303.545 347.68L299.407 354.702L184.518 309.626C180.76 308.14 177.263 305.926 174.699 302.779C168.58 295.261 167.415 284.422 172.63 275.535C177.991 266.415 188.452 262.161 198.242 264.23C201.855 264.988 205.177 266.823 208.032 269.183L303.515 347.65L303.545 347.68Z" fill="#FEECD8"/>
<path d="M300.052 354.381L291.923 354.323L273.508 232.295C272.896 228.303 273.071 224.137 274.528 220.378C277.966 211.316 286.795 204.877 297.051 204.964C307.628 205.052 316.544 211.957 319.632 221.514C320.769 225.04 320.827 228.828 320.244 232.47L300.052 354.41V354.381Z" fill="#FEECD8"/>
<path d="M292.474 354.702L288.453 347.621L384.927 270.669C388.103 268.134 391.774 266.241 395.766 265.6C405.352 264.055 415.317 268.484 420.387 277.429C425.603 286.637 424.059 297.826 417.357 305.256C414.88 307.994 411.646 309.947 408.179 311.258L292.474 354.731V354.702Z" fill="#FEECD8"/>
<path d="M288.422 348.32L292.559 341.298L407.448 386.374C411.207 387.86 414.703 390.074 417.268 393.221C423.386 400.739 424.552 411.578 419.336 420.465C413.975 429.585 403.515 433.839 393.724 431.77C390.111 431.012 386.79 429.177 383.934 426.817L288.451 348.35L288.422 348.32Z" fill="#FEECD8"/>
</g>
<path d="M151.621 356.53C150.316 356.53 149.162 356.28 148.161 355.779C147.182 355.257 146.377 354.561 145.746 353.691L147.9 351.701C148.314 352.31 148.825 352.778 149.434 353.104C150.065 353.43 150.762 353.593 151.523 353.593C152.285 353.593 152.96 353.43 153.547 353.104C154.135 352.778 154.592 352.299 154.918 351.669C155.266 351.016 155.44 350.222 155.44 349.287V333.562H158.508V349.124C158.508 350.625 158.204 351.93 157.595 353.039C157.007 354.148 156.191 355.007 155.147 355.616C154.124 356.225 152.949 356.53 151.621 356.53Z" fill="#440F02"/>
<path d="M170.165 356.53C168.642 356.53 167.271 356.171 166.052 355.453C164.834 354.735 163.865 353.767 163.147 352.549C162.429 351.31 162.07 349.929 162.07 348.406C162.07 346.905 162.429 345.557 163.147 344.361C163.865 343.143 164.834 342.175 166.052 341.457C167.271 340.739 168.642 340.38 170.165 340.38C171.666 340.38 173.026 340.739 174.245 341.457C175.485 342.153 176.464 343.11 177.183 344.328C177.901 345.546 178.26 346.905 178.26 348.406C178.26 349.929 177.901 351.31 177.183 352.549C176.464 353.767 175.485 354.735 174.245 355.453C173.026 356.171 171.666 356.53 170.165 356.53ZM170.165 353.691C171.144 353.691 172.014 353.463 172.776 353.006C173.538 352.549 174.136 351.93 174.571 351.147C175.007 350.342 175.224 349.428 175.224 348.406C175.224 347.406 174.996 346.514 174.539 345.731C174.103 344.948 173.505 344.339 172.743 343.904C172.004 343.447 171.144 343.219 170.165 343.219C169.186 343.219 168.315 343.447 167.554 343.904C166.792 344.339 166.194 344.948 165.758 345.731C165.323 346.514 165.106 347.406 165.106 348.406C165.106 349.428 165.323 350.342 165.758 351.147C166.194 351.93 166.792 352.549 167.554 353.006C168.315 353.463 169.186 353.691 170.165 353.691Z" fill="#440F02"/>
<path d="M192.537 356.203V347.166C192.537 345.992 192.167 345.024 191.427 344.263C190.687 343.501 189.73 343.121 188.555 343.121C187.771 343.121 187.075 343.295 186.466 343.643C185.856 343.991 185.378 344.469 185.029 345.078C184.681 345.687 184.507 346.383 184.507 347.166L183.3 346.481C183.3 345.307 183.561 344.263 184.083 343.349C184.605 342.436 185.334 341.718 186.27 341.196C187.206 340.652 188.261 340.38 189.436 340.38C190.611 340.38 191.645 340.641 192.537 341.163C193.451 341.685 194.169 342.414 194.691 343.349C195.213 344.284 195.474 345.361 195.474 346.579V356.203H192.537ZM181.57 356.203V332.909H184.507V356.203H181.57Z" fill="#440F02"/>
<path d="M199.06 356.203V347.297C199.06 345.927 199.343 344.73 199.909 343.708C200.496 342.664 201.29 341.848 202.291 341.261C203.314 340.674 204.511 340.38 205.882 340.38C207.253 340.38 208.439 340.674 209.44 341.261C210.462 341.827 211.257 342.631 211.822 343.675C212.388 344.719 212.671 345.927 212.671 347.297V356.203H209.733V347.525C209.733 346.242 209.396 345.198 208.722 344.393C208.069 343.588 207.122 343.186 205.882 343.186C204.641 343.186 203.684 343.588 203.009 344.393C202.335 345.198 201.998 346.242 201.998 347.525V356.203H199.06Z" fill="#440F02"/>
<path d="M217.922 355.547V332.909H220.078L229.681 348.665H228.211L237.814 332.909H239.97V355.547H236.899V338.291L237.618 338.487L230.04 350.915H227.884L220.306 338.487L220.992 338.291V355.547H217.922Z" fill="#440F02"/>
<path d="M251.397 355.874C249.982 355.874 248.697 355.526 247.543 354.83C246.389 354.112 245.474 353.144 244.799 351.927C244.146 350.709 243.82 349.339 243.82 347.816C243.82 346.294 244.146 344.924 244.799 343.706C245.474 342.489 246.378 341.521 247.51 340.803C248.665 340.086 249.96 339.727 251.397 339.727C252.573 339.727 253.619 339.977 254.533 340.477C255.469 340.955 256.221 341.63 256.787 342.499C257.353 343.348 257.669 344.337 257.734 345.468V350.132C257.669 351.242 257.353 352.231 256.787 353.101C256.242 353.971 255.502 354.656 254.566 355.156C253.651 355.634 252.595 355.874 251.397 355.874ZM251.887 353.101C253.346 353.101 254.522 352.612 255.415 351.633C256.308 350.633 256.754 349.36 256.754 347.816C256.754 346.751 256.547 345.827 256.134 345.044C255.742 344.239 255.175 343.619 254.435 343.184C253.695 342.728 252.835 342.499 251.855 342.499C250.875 342.499 250.004 342.728 249.242 343.184C248.501 343.641 247.913 344.272 247.478 345.076C247.064 345.859 246.857 346.762 246.857 347.784C246.857 348.828 247.064 349.752 247.478 350.557C247.913 351.339 248.512 351.959 249.274 352.416C250.036 352.873 250.907 353.101 251.887 353.101ZM256.558 355.547V351.372L257.114 347.588L256.558 343.837V340.053H259.531V355.547H256.558Z" fill="#440F02"/>
<path d="M263.811 355.547V340.053H266.75V355.547H263.811ZM266.75 346.805L265.64 346.283C265.64 344.326 266.13 342.804 267.11 341.717C268.089 340.607 269.625 340.053 271.715 340.053H282.429V342.728H271.192C269.755 342.728 268.656 343.054 267.893 343.706C267.131 344.337 266.75 345.37 266.75 346.805ZM275.667 355.547V333.562H278.64V355.547H275.667Z" fill="#440F02"/>
<path d="M285.342 355.547V340.053H288.282V355.547H285.342ZM286.812 336.954C286.268 336.954 285.821 336.78 285.473 336.432C285.125 336.062 284.95 335.606 284.95 335.062C284.95 334.54 285.125 334.105 285.473 333.757C285.821 333.388 286.268 333.203 286.812 333.203C287.356 333.203 287.803 333.388 288.151 333.757C288.5 334.105 288.674 334.54 288.674 335.062C288.674 335.606 288.5 336.062 288.151 336.432C287.803 336.78 287.356 336.954 286.812 336.954Z" fill="#440F02"/>
<path d="M292.222 355.547V346.642C292.222 345.272 292.505 344.076 293.071 343.054C293.659 342.01 294.454 341.195 295.456 340.607C296.479 340.02 297.677 339.727 299.049 339.727C300.421 339.727 301.607 340.02 302.609 340.607C303.633 341.173 304.427 341.978 304.994 343.021C305.56 344.065 305.843 345.272 305.843 346.642V355.547H302.903V346.871C302.903 345.587 302.566 344.544 301.891 343.739C301.237 342.934 300.29 342.532 299.049 342.532C297.808 342.532 296.85 342.934 296.174 343.739C295.499 344.544 295.162 345.587 295.162 346.871V355.547H292.222Z" fill="#440F02"/>
<path d="M322.545 357.098C320.909 357.098 319.392 356.798 317.996 356.196C316.599 355.573 315.377 354.715 314.33 353.624C313.305 352.532 312.508 351.263 311.941 349.815C311.373 348.367 311.09 346.819 311.09 345.171C311.09 343.5 311.373 341.941 311.941 340.493C312.508 339.046 313.305 337.787 314.33 336.718C315.377 335.627 316.588 334.78 317.963 334.179C319.359 333.555 320.876 333.243 322.512 333.243C324.302 333.243 325.872 333.555 327.225 334.179C328.578 334.802 329.778 335.649 330.826 336.718L328.698 338.89C327.978 338.066 327.094 337.42 326.047 336.952C325.022 336.484 323.843 336.25 322.512 336.25C321.312 336.25 320.21 336.473 319.207 336.918C318.203 337.342 317.33 337.954 316.588 338.756C315.846 339.558 315.268 340.505 314.854 341.596C314.461 342.687 314.265 343.879 314.265 345.171C314.265 346.463 314.461 347.654 314.854 348.746C315.268 349.837 315.846 350.784 316.588 351.586C317.33 352.388 318.203 353.011 319.207 353.457C320.21 353.88 321.312 354.091 322.512 354.091C323.931 354.091 325.163 353.858 326.211 353.39C327.258 352.9 328.142 352.243 328.862 351.419L330.989 353.557C329.942 354.671 328.709 355.539 327.291 356.163C325.894 356.787 324.312 357.098 322.545 357.098Z" fill="#440F02"/>
<path d="M334.245 356.764V332.909H337.191V356.764H334.245Z" fill="#440F02"/>
<path d="M348.603 357.098C347.075 357.098 345.701 356.731 344.479 355.996C343.257 355.261 342.286 354.27 341.566 353.022C340.846 351.753 340.486 350.338 340.486 348.779C340.486 347.242 340.846 345.861 341.566 344.636C342.286 343.389 343.257 342.398 344.479 341.663C345.701 340.928 347.075 340.56 348.603 340.56C350.108 340.56 351.472 340.928 352.694 341.663C353.937 342.376 354.919 343.356 355.639 344.603C356.359 345.85 356.719 347.242 356.719 348.779C356.719 350.338 356.359 351.753 355.639 353.022C354.919 354.27 353.937 355.261 352.694 355.996C351.472 356.731 350.108 357.098 348.603 357.098ZM348.603 354.192C349.584 354.192 350.457 353.958 351.221 353.49C351.985 353.022 352.585 352.388 353.021 351.586C353.457 350.762 353.676 349.826 353.676 348.779C353.676 347.755 353.446 346.841 352.988 346.04C352.552 345.238 351.952 344.614 351.188 344.169C350.446 343.701 349.584 343.467 348.603 343.467C347.621 343.467 346.748 343.701 345.984 344.169C345.221 344.614 344.62 345.238 344.184 346.04C343.748 346.841 343.53 347.755 343.53 348.779C343.53 349.826 343.748 350.762 344.184 351.586C344.62 352.388 345.221 353.022 345.984 353.49C346.748 353.958 347.621 354.192 348.603 354.192Z" fill="#440F02"/>
<path d="M367.533 357.098C366.595 357.098 365.733 356.898 364.948 356.497C364.184 356.074 363.573 355.472 363.115 354.693C362.657 353.891 362.428 352.911 362.428 351.753V334.246H365.373V351.686C365.373 352.555 365.591 353.212 366.028 353.657C366.486 354.08 367.053 354.292 367.73 354.292C368.21 354.292 368.635 354.203 369.006 354.025C369.399 353.846 369.748 353.59 370.053 353.256L371.854 355.094C371.308 355.762 370.697 356.263 370.021 356.597C369.366 356.931 368.537 357.098 367.533 357.098ZM358.598 343.701V340.894H371.166V343.701H358.598Z" fill="#440F02"/>
<path d="M385.77 356.764V347.51C385.77 346.307 385.399 345.316 384.657 344.536C383.915 343.756 382.955 343.367 381.777 343.367C380.991 343.367 380.293 343.545 379.682 343.901C379.071 344.258 378.591 344.748 378.242 345.371C377.893 345.995 377.718 346.708 377.718 347.51L376.507 346.808C376.507 345.605 376.769 344.536 377.293 343.601C377.817 342.665 378.548 341.93 379.486 341.395C380.424 340.839 381.482 340.56 382.661 340.56C383.839 340.56 384.875 340.827 385.77 341.362C386.686 341.897 387.406 342.643 387.93 343.601C388.454 344.558 388.715 345.661 388.715 346.908V356.764H385.77ZM374.773 356.764V332.909H377.718V356.764H374.773Z" fill="#440F02"/>
<path d="M392.736 356.764V340.894H395.682V356.764H392.736ZM394.209 337.72C393.664 337.72 393.216 337.542 392.867 337.186C392.518 336.807 392.343 336.339 392.343 335.782C392.343 335.248 392.518 334.802 392.867 334.446C393.216 334.067 393.664 333.878 394.209 333.878C394.755 333.878 395.202 334.067 395.551 334.446C395.9 334.802 396.075 335.248 396.075 335.782C396.075 336.339 395.9 336.807 395.551 337.186C395.202 337.542 394.755 337.72 394.209 337.72Z" fill="#440F02"/>
<path d="M399.63 356.764V347.643C399.63 346.24 399.914 345.015 400.481 343.968C401.07 342.899 401.867 342.064 402.87 341.462C403.896 340.861 405.096 340.56 406.47 340.56C407.845 340.56 409.034 340.861 410.038 341.462C411.063 342.041 411.86 342.866 412.427 343.935C412.994 345.004 413.278 346.24 413.278 347.643V356.764H410.332V347.877C410.332 346.563 409.994 345.494 409.318 344.67C408.663 343.846 407.714 343.434 406.47 343.434C405.227 343.434 404.267 343.846 403.59 344.67C402.914 345.494 402.576 346.563 402.576 347.877V356.764H399.63Z" fill="#440F02"/>
<path d="M422.913 363.747C421.582 363.747 420.371 363.491 419.28 362.979C418.211 362.466 417.36 361.765 416.727 360.874C416.095 359.983 415.778 358.936 415.778 357.733C415.778 356.842 415.909 356.096 416.171 355.495C416.433 354.893 416.826 354.348 417.349 353.858L419.673 355.461C419.389 355.729 419.171 356.04 419.018 356.397C418.888 356.731 418.822 357.143 418.822 357.633C418.822 358.613 419.193 359.393 419.935 359.972C420.677 360.551 421.67 360.84 422.913 360.84C424.222 360.84 425.248 360.517 425.99 359.872C426.732 359.248 427.103 358.368 427.103 357.232C427.103 356.497 426.928 355.84 426.579 355.261C426.23 354.682 425.75 354.225 425.139 353.891C424.528 353.535 423.83 353.356 423.044 353.356C421.866 353.356 420.797 353.089 419.837 352.555C418.898 351.998 418.146 351.24 417.578 350.283C417.033 349.303 416.76 348.211 416.76 347.008C416.76 345.761 417.044 344.659 417.611 343.701C418.178 342.743 418.942 341.986 419.902 341.429C420.862 340.85 421.942 340.56 423.142 340.56C424.342 340.56 425.422 340.839 426.383 341.395C427.343 341.93 428.095 342.665 428.641 343.601C429.208 344.514 429.492 345.561 429.492 346.741C429.492 347.877 429.219 348.902 428.674 349.815C428.128 350.728 427.386 351.452 426.448 351.987C425.532 352.499 424.484 352.755 423.306 352.755L423.11 351.118C424.484 351.118 425.695 351.385 426.743 351.92C427.79 352.454 428.619 353.201 429.23 354.158C429.841 355.094 430.146 356.174 430.146 357.399C430.146 358.646 429.841 359.749 429.23 360.707C428.641 361.665 427.812 362.411 426.743 362.945C425.673 363.48 424.397 363.747 422.913 363.747ZM423.142 350.55C423.841 350.55 424.452 350.394 424.975 350.082C425.499 349.77 425.913 349.347 426.219 348.813C426.524 348.278 426.677 347.666 426.677 346.975C426.677 346.285 426.524 345.672 426.219 345.137C425.913 344.603 425.499 344.191 424.975 343.901C424.452 343.589 423.841 343.434 423.142 343.434C422.444 343.434 421.822 343.589 421.277 343.901C420.753 344.191 420.339 344.603 420.033 345.137C419.749 345.672 419.608 346.285 419.608 346.975C419.608 347.666 419.749 348.278 420.033 348.813C420.339 349.347 420.764 349.77 421.31 350.082C421.855 350.394 422.466 350.55 423.142 350.55ZM427.528 344.436L425.728 342.565L429.361 338.823L431.161 340.694L427.528 344.436Z" fill="#440F02"/>
<path d="M439.691 362.435C438.806 362.435 438.017 362.233 437.323 361.827C436.642 361.421 436.098 360.867 435.69 360.164C435.295 359.461 435.098 358.677 435.098 357.812C435.098 356.947 435.295 356.169 435.69 355.48C436.084 354.791 436.622 354.25 437.302 353.858C437.983 353.452 438.772 353.25 439.67 353.25C440.568 353.25 441.364 353.452 442.058 353.858C442.752 354.263 443.297 354.811 443.691 355.5C444.086 356.19 444.283 356.967 444.283 357.832C444.283 358.684 444.086 359.461 443.691 360.164C443.297 360.867 442.752 361.421 442.058 361.827C441.378 362.233 440.589 362.435 439.691 362.435ZM439.67 361.462C440.391 361.462 441.017 361.306 441.548 360.996C442.092 360.671 442.514 360.232 442.814 359.678C443.127 359.123 443.283 358.501 443.283 357.812C443.283 357.136 443.127 356.528 442.814 355.987C442.514 355.446 442.092 355.02 441.548 354.71C441.017 354.385 440.391 354.223 439.67 354.223C438.962 354.223 438.343 354.385 437.813 354.71C437.282 355.02 436.867 355.446 436.567 355.987C436.268 356.528 436.118 357.136 436.118 357.812C436.118 358.501 436.268 359.123 436.567 359.678C436.867 360.232 437.282 360.671 437.813 360.996C438.357 361.306 438.976 361.462 439.67 361.462ZM438.997 358.197V357.386H439.874C440.051 357.386 440.187 357.346 440.283 357.264C440.391 357.17 440.446 357.041 440.446 356.879C440.446 356.744 440.391 356.629 440.283 356.534C440.187 356.44 440.051 356.393 439.874 356.393H438.997V355.561H440.017C440.466 355.561 440.834 355.683 441.119 355.926C441.405 356.169 441.548 356.487 441.548 356.879C441.548 357.271 441.405 357.589 441.119 357.832C440.834 358.076 440.453 358.197 439.976 358.197H438.997ZM438.139 359.982V355.561H439.241V359.982H438.139ZM440.548 359.982L439.241 358.096L440.242 357.832L441.834 359.982H440.548Z" fill="#440F02"/>
<defs>
<clipPath id="clip0_509_1252">
<rect width="286.071" height="286.071" fill="white" transform="translate(152.965 204.964)"/>
</clipPath>
</defs>
</svg>
