<svg width="99" height="48" viewBox="0 0 99 48" fill="none" xmlns="http://www.w3.org/2000/svg">
<path d="M8.73682 23.433C8.73682 20.5347 9.65473 17.8507 11.2157 15.656H17.9278V16.9137C15.7996 18.3014 14.3928 20.7029 14.3928 23.433C14.3928 27.7282 17.8747 31.2101 22.1699 31.2101V36.8661C14.751 36.8661 8.73682 30.8519 8.73682 23.433Z" fill="#7B867E"/>
<path d="M33.124 31.2101C34.685 29.0154 35.6029 26.3314 35.6029 23.433C35.6029 16.0142 29.5887 10 22.1699 10V15.656C26.465 15.656 29.9469 19.1379 29.9469 23.433C29.9469 26.1632 28.5401 28.5647 26.4119 29.9524V31.2101H33.124Z" fill="#7B867E"/>
<path d="M43.7393 19.3564C44.6253 19.3564 45.3909 19.5221 46.036 19.8537C46.6888 20.1775 47.1863 20.644 47.5282 21.2531C47.878 21.8622 48.0529 22.5792 48.0529 23.4042C48.0529 24.2292 47.878 24.9462 47.5282 25.5553C47.1863 26.1567 46.6888 26.6193 46.036 26.9432C45.3909 27.2593 44.6253 27.4173 43.7393 27.4173H41.2095V19.3564H43.7393ZM43.7393 26.5499C44.7885 26.5499 45.5891 26.2762 46.1409 25.7288C46.6927 25.1737 46.9686 24.3988 46.9686 23.4042C46.9686 22.4019 46.6888 21.6193 46.1292 21.0564C45.5774 20.4936 44.7808 20.2122 43.7393 20.2122H42.2704V26.5499H43.7393Z" fill="#7B867E"/>
<path d="M51.8888 27.5214C51.2903 27.5214 50.7463 27.3865 50.2566 27.1166C49.7747 26.8468 49.3939 26.4651 49.1141 25.9717C48.8421 25.4705 48.7061 24.8923 48.7061 24.2369C48.7061 23.5892 48.846 23.0187 49.1258 22.5252C49.4133 22.0241 49.802 21.6424 50.2916 21.3803C50.7812 21.1104 51.3292 20.9755 51.9354 20.9755C52.5416 20.9755 53.0896 21.1104 53.5792 21.3803C54.0689 21.6424 54.4536 22.0202 54.7334 22.5137C55.021 23.0071 55.1647 23.5815 55.1647 24.2369C55.1647 24.8923 55.0171 25.4705 54.7217 25.9717C54.4342 26.4651 54.0417 26.8468 53.5442 27.1166C53.0468 27.3865 52.495 27.5214 51.8888 27.5214ZM51.8888 26.5962C52.2696 26.5962 52.6271 26.5075 52.9613 26.3302C53.2955 26.1529 53.5637 25.8869 53.7657 25.5322C53.9756 25.1775 54.0805 24.7458 54.0805 24.2369C54.0805 23.728 53.9795 23.2963 53.7774 22.9416C53.5753 22.5869 53.3111 22.3248 52.9846 22.1551C52.6582 21.9778 52.3046 21.8891 51.9237 21.8891C51.5351 21.8891 51.1776 21.9778 50.8512 22.1551C50.5325 22.3248 50.2761 22.5869 50.0817 22.9416C49.8874 23.2963 49.7903 23.728 49.7903 24.2369C49.7903 24.7535 49.8836 25.1891 50.0701 25.5438C50.2644 25.8984 50.5209 26.1644 50.8395 26.3418C51.1582 26.5114 51.5079 26.5962 51.8888 26.5962Z" fill="#7B867E"/>
<path d="M55.8135 24.2369C55.8135 23.5815 55.9456 23.011 56.2099 22.5252C56.4741 22.0318 56.8394 21.6501 57.3057 21.3803C57.7799 21.1104 58.32 20.9755 58.9262 20.9755C59.7112 20.9755 60.3563 21.1644 60.8615 21.5422C61.3745 21.92 61.7126 22.4443 61.8758 23.1151H60.7333C60.6245 22.7296 60.4107 22.425 60.0921 22.2014C59.7812 21.9778 59.3926 21.866 58.9262 21.866C58.32 21.866 57.8304 22.0742 57.4573 22.4905C57.0842 22.8992 56.8977 23.4813 56.8977 24.2369C56.8977 25.0002 57.0842 25.59 57.4573 26.0064C57.8304 26.4227 58.32 26.6309 58.9262 26.6309C59.3926 26.6309 59.7812 26.523 60.0921 26.3071C60.403 26.0912 60.6167 25.7828 60.7333 25.3819H61.8758C61.7048 26.0295 61.3628 26.5499 60.8499 26.9432C60.3369 27.3287 59.6957 27.5214 58.9262 27.5214C58.32 27.5214 57.7799 27.3865 57.3057 27.1166C56.8394 26.8468 56.4741 26.4651 56.2099 25.9717C55.9456 25.4782 55.8135 24.9 55.8135 24.2369Z" fill="#7B867E"/>
<path d="M63.2797 27.4867C63.0776 27.4867 62.9066 27.4173 62.7667 27.2786C62.6268 27.1398 62.5569 26.9701 62.5569 26.7697C62.5569 26.5692 62.6268 26.3996 62.7667 26.2608C62.9066 26.122 63.0776 26.0526 63.2797 26.0526C63.474 26.0526 63.6372 26.122 63.7693 26.2608C63.9092 26.3996 63.9792 26.5692 63.9792 26.7697C63.9792 26.9701 63.9092 27.1398 63.7693 27.2786C63.6372 27.4173 63.474 27.4867 63.2797 27.4867Z" fill="#7B867E"/>
<path d="M67.791 19.3448C68.6459 19.3448 69.3959 19.5106 70.041 19.8421C70.6939 20.1736 71.1952 20.6478 71.5449 21.2646C71.9024 21.8737 72.0812 22.5831 72.0812 23.3926C72.0812 24.2022 71.9024 24.9115 71.5449 25.5206C71.1952 26.122 70.6939 26.5885 70.041 26.92C69.3959 27.2516 68.6459 27.4173 67.791 27.4173H64.9464V19.3448H67.791ZM67.7327 26.0411C68.5876 26.0411 69.2482 25.8098 69.7146 25.3472C70.1809 24.8845 70.4141 24.233 70.4141 23.3926C70.4141 22.5522 70.1809 21.8969 69.7146 21.4265C69.2482 20.9485 68.5876 20.7095 67.7327 20.7095H66.5785V26.0411H67.7327Z" fill="#7B867E"/>
<path d="M75.8211 27.5214C75.1993 27.5214 74.6397 27.3865 74.1423 27.1166C73.6449 26.8391 73.2524 26.4497 72.9648 25.9485C72.685 25.4474 72.5452 24.8691 72.5452 24.2138C72.5452 23.5584 72.6889 22.9801 72.9765 22.479C73.2718 21.9778 73.6721 21.5923 74.1773 21.3224C74.6825 21.0449 75.246 20.9061 75.8677 20.9061C76.4895 20.9061 77.053 21.0449 77.5582 21.3224C78.0634 21.5923 78.4598 21.9778 78.7473 22.479C79.0427 22.9801 79.1903 23.5584 79.1903 24.2138C79.1903 24.8691 79.0388 25.4474 78.7357 25.9485C78.4403 26.4497 78.0362 26.8391 77.5232 27.1166C77.018 27.3865 76.4507 27.5214 75.8211 27.5214ZM75.8211 26.1105C76.1165 26.1105 76.3924 26.0411 76.6488 25.9023C76.9131 25.7558 77.1229 25.5399 77.2784 25.2546C77.4338 24.9694 77.5116 24.6224 77.5116 24.2138C77.5116 23.6047 77.3483 23.1382 77.0219 22.8144C76.7033 22.4828 76.3108 22.3171 75.8444 22.3171C75.3781 22.3171 74.9856 22.4828 74.6669 22.8144C74.3561 23.1382 74.2006 23.6047 74.2006 24.2138C74.2006 24.8229 74.3522 25.2932 74.6553 25.6247C74.9662 25.9486 75.3548 26.1105 75.8211 26.1105Z" fill="#7B867E"/>
<path d="M82.9058 27.5214C82.284 27.5214 81.7244 27.3865 81.227 27.1166C80.7296 26.8391 80.3371 26.4497 80.0495 25.9485C79.7697 25.4474 79.6298 24.8691 79.6298 24.2138C79.6298 23.5584 79.7736 22.9801 80.0612 22.479C80.3565 21.9778 80.7568 21.5923 81.262 21.3224C81.7671 21.0449 82.3306 20.9061 82.9524 20.9061C83.5742 20.9061 84.1376 21.0449 84.6428 21.3224C85.148 21.5923 85.5444 21.9778 85.832 22.479C86.1273 22.9801 86.275 23.5584 86.275 24.2138C86.275 24.8691 86.1234 25.4474 85.8203 25.9485C85.525 26.4497 85.1208 26.8391 84.6079 27.1166C84.1027 27.3865 83.5353 27.5214 82.9058 27.5214ZM82.9058 26.1105C83.2011 26.1105 83.477 26.0411 83.7335 25.9023C83.9977 25.7558 84.2076 25.5399 84.363 25.2546C84.5185 24.9694 84.5962 24.6224 84.5962 24.2138C84.5962 23.6047 84.433 23.1382 84.1066 22.8144C83.7879 22.4828 83.3954 22.3171 82.9291 22.3171C82.4627 22.3171 82.0703 22.4828 81.7516 22.8144C81.4407 23.1382 81.2853 23.6047 81.2853 24.2138C81.2853 24.8229 81.4368 25.2932 81.7399 25.6247C82.0508 25.9486 82.4394 26.1105 82.9058 26.1105Z" fill="#7B867E"/>
<path d="M88.7546 22.0048C88.9645 21.6655 89.2365 21.3995 89.5707 21.2068C89.9127 21.014 90.3013 20.9177 90.7365 20.9177V22.6178H90.3052C89.7922 22.6178 89.4036 22.7373 89.1394 22.9763C88.8829 23.2153 88.7546 23.6316 88.7546 24.2253V27.4173H87.1225V21.0102H88.7546V22.0048Z" fill="#7B867E"/>
</svg>
