<svg width="87" height="48" viewBox="0 0 87 48" fill="none" xmlns="http://www.w3.org/2000/svg">
<g clip-path="url(#clip0_152_131)">
<path d="M57.7233 24.953C57.9559 28.9793 61.0909 32.2075 65.6214 32.4524L66.1323 35.8958C58.6136 35.8753 53.6201 30.9125 53.6201 24.4704C53.6201 18.0283 58.617 13.0164 66.1412 13L65.6281 16.4444C61.0698 16.6841 57.9771 19.8919 57.7267 23.9377L53.7125 24.4438L57.7233 24.953Z" fill="#7B867E"/>
<path d="M66.1503 13H66.177C73.3317 13 78.6624 17.7046 78.6624 24.4704C78.6624 31.2363 73.3328 35.8958 66.1781 35.8958H66.1414L66.6544 32.4565C70.9379 32.2485 74.3177 29.2467 74.5592 24.9642L78.6424 24.452L74.557 23.9377C74.301 19.6183 70.9512 16.6483 66.6611 16.4403L66.1503 13Z" fill="#7B867E"/>
<path d="M67.6652 23.0566L66.1457 18.769L64.6183 23.0545L59.9299 24.4438L64.616 25.8403L66.1355 30.1268L67.663 25.8423L72.3525 24.452L67.6652 23.0566Z" fill="#7B867E"/>
<path d="M39.4485 35.8958L29.5637 13H34.2506L41.7366 30.532L48.968 13H53.6201L44.0267 35.8958H39.4485Z" fill="#7B867E"/>
<path d="M27.3947 35.8958V32.364H12.8995V16.5318H27.3947V13H12.5074C10.3838 13 8.66235 14.5812 8.66235 16.5318V32.364C8.66235 34.3146 10.3838 35.8958 12.5074 35.8958H27.3947Z" fill="#7B867E"/>
<path d="M15.1016 22.5843H25.6386V26.3115H15.1016V22.5843Z" fill="#7B867E"/>
</g>
<defs>
<clipPath id="clip0_152_131">
<rect width="70" height="32" fill="white" transform="translate(8.66235 8)"/>
</clipPath>
</defs>
</svg>
