<svg width="130" height="48" viewBox="0 0 130 48" fill="none" xmlns="http://www.w3.org/2000/svg">
<path d="M40.1324 29.8572V18.5268H41.9485L46.111 27.8965H45.6128L49.7753 18.5268H51.5753V29.8572H49.695V21.4518H50.2736L46.4646 29.8572H45.2271L41.4182 21.4518H42.0128V29.8572H40.1324ZM57.0737 30.018C56.3665 30.018 55.7451 29.8519 55.2094 29.5197C54.6737 29.1769 54.2558 28.6894 53.9558 28.0572C53.6558 27.4251 53.5058 26.6697 53.5058 25.7912C53.5058 24.9126 53.6558 24.1626 53.9558 23.5411C54.2558 22.909 54.6737 22.4269 55.2094 22.0947C55.7451 21.7519 56.3665 21.5804 57.0737 21.5804C57.7594 21.5804 58.3594 21.7519 58.8737 22.0947C59.3987 22.4269 59.7469 22.8769 59.9183 23.4447H59.7415L59.9183 21.7411H61.8469C61.8148 22.0733 61.7826 22.4108 61.7505 22.7536C61.729 23.0965 61.7183 23.434 61.7183 23.7661V29.8572H59.7255L59.7094 28.1858H59.9023C59.7308 28.7429 59.3826 29.1876 58.8576 29.5197C58.3326 29.8519 57.738 30.018 57.0737 30.018ZM57.6362 28.4751C58.2683 28.4751 58.7773 28.2554 59.163 27.8162C59.5487 27.3662 59.7415 26.6912 59.7415 25.7912C59.7415 24.8911 59.5487 24.2215 59.163 23.7822C58.7773 23.3429 58.2683 23.1233 57.6362 23.1233C57.004 23.1233 56.4951 23.3429 56.1094 23.7822C55.7237 24.2215 55.5308 24.8911 55.5308 25.7912C55.5308 26.6912 55.7183 27.3662 56.0933 27.8162C56.479 28.2554 56.9933 28.4751 57.6362 28.4751ZM63.9059 33.3287V23.7661C63.9059 23.434 63.8952 23.0965 63.8738 22.7536C63.8524 22.4108 63.8202 22.0733 63.7774 21.7411H65.722L65.8988 23.4447H65.722C65.8827 22.8769 66.2202 22.4269 66.7345 22.0947C67.2595 21.7519 67.8649 21.5804 68.5506 21.5804C69.2685 21.5804 69.8952 21.7519 70.431 22.0947C70.9667 22.4269 71.3845 22.909 71.6845 23.5411C71.9845 24.1626 72.1345 24.9126 72.1345 25.7912C72.1345 26.6697 71.9845 27.4251 71.6845 28.0572C71.3845 28.6894 70.9667 29.1769 70.431 29.5197C69.8952 29.8519 69.2685 30.018 68.5506 30.018C67.8756 30.018 67.281 29.8519 66.7667 29.5197C66.2524 29.1876 65.9095 28.7429 65.7381 28.1858H65.9149V33.3287H63.9059ZM67.9881 28.4751C68.631 28.4751 69.1452 28.2554 69.531 27.8162C69.9167 27.3662 70.1095 26.6912 70.1095 25.7912C70.1095 24.8911 69.9167 24.2215 69.531 23.7822C69.1452 23.3429 68.631 23.1233 67.9881 23.1233C67.356 23.1233 66.847 23.3429 66.4613 23.7822C66.0756 24.2215 65.8827 24.8911 65.8827 25.7912C65.8827 26.6912 66.0756 27.3662 66.4613 27.8162C66.847 28.2554 67.356 28.4751 67.9881 28.4751ZM73.8721 29.8572V18.0286H75.8811V29.8572H73.8721ZM81.9841 30.018C80.6234 30.018 79.5573 29.643 78.7859 28.8929C78.0144 28.1429 77.6287 27.1144 77.6287 25.8072C77.6287 24.9608 77.7948 24.2215 78.127 23.5894C78.4591 22.9572 78.9198 22.4644 79.5091 22.1108C80.1091 21.7572 80.8055 21.5804 81.5984 21.5804C82.3805 21.5804 83.0341 21.7465 83.5591 22.0786C84.0841 22.4108 84.4805 22.8769 84.7484 23.4769C85.027 24.0769 85.1663 24.7786 85.1663 25.5822V26.1126H79.252V25.0519H83.7359L83.4627 25.2769C83.4627 24.5269 83.302 23.9536 82.9805 23.5572C82.6698 23.1608 82.2145 22.9626 81.6145 22.9626C80.9502 22.9626 80.4359 23.1983 80.0716 23.6697C79.718 24.1411 79.5412 24.8001 79.5412 25.6465V25.8554C79.5412 26.734 79.7555 27.3929 80.1841 27.8322C80.6234 28.2608 81.2395 28.4751 82.0323 28.4751C82.493 28.4751 82.9216 28.4162 83.318 28.2983C83.7252 28.1697 84.1109 27.9662 84.4752 27.6876L85.0698 29.0376C84.6841 29.3483 84.2234 29.5894 83.6877 29.7608C83.152 29.9322 82.5841 30.018 81.9841 30.018Z" fill="#7B867E"/>
<path d="M108.481 30.1965C107.312 30.1965 106.428 29.9448 105.831 29.4412C105.233 28.9376 104.934 28.1822 104.934 27.1751V23.4304H103.043V21.9197H104.934V19.8465L107.37 19.3322V21.9197H112.366V23.4304H107.37V27.0465C107.37 27.6037 107.5 27.9947 107.76 28.2197C108.02 28.4447 108.377 28.5572 108.832 28.5572C109.079 28.5572 109.287 28.5412 109.456 28.509C109.638 28.4769 109.813 28.434 109.982 28.3805V29.9715C109.761 30.0465 109.514 30.1001 109.241 30.1323C108.981 30.1751 108.728 30.1965 108.481 30.1965Z" fill="#7B867E"/>
<path d="M114.693 30.0358L110.444 21.9197H113.036L116.116 28.268H115.512L118.669 21.9197H121.105L116.837 30.0358H114.693Z" fill="#7B867E"/>
<ellipse cx="99.6321" cy="27.1965" rx="2.01399" ry="1.66072" fill="#7B867E"/>
<path d="M31.0666 23.6972L32.8116 24.4418L30.2349 26.1454C27.5059 24.6106 24.2147 23.7143 20.6718 23.7143C17.142 23.7143 13.8621 24.604 11.139 26.1284L8.58789 24.4418L10.3329 23.6972L9.18949 20.0757L13.0395 20.8204L13.641 19.1832L17.1909 22.1597L15.9279 15.9089L18.3343 16.9011L20.6991 13L23.0652 16.9011L25.4716 15.9089L24.2086 22.1597L27.7585 19.1832L28.36 20.8204L32.21 20.0757L31.0666 23.6972Z" fill="#7B867E"/>
<path d="M13.7367 27.8458L14.9651 28.6579L14.2648 30.6303C16.0596 29.583 18.2751 28.9643 20.6718 28.9643C23.1002 28.9643 25.3421 29.5992 27.1495 30.6718L26.4344 28.6579L27.6393 27.8613C25.5888 26.8777 23.2094 26.3149 20.6718 26.3149C18.1476 26.3149 15.7799 26.8718 13.7367 27.8458Z" fill="#7B867E"/>
<path d="M21.4311 34.6481C22.4418 34.3001 22.9191 33.3425 22.4971 32.5091C22.0752 31.6757 20.9138 31.2821 19.9031 31.6301C18.8924 31.978 18.4152 32.9357 18.8371 33.7691C19.2591 34.6025 20.4205 34.996 21.4311 34.6481Z" fill="#7B867E"/>
</svg>
