<svg width="80" height="48" viewBox="0 0 80 48" fill="none" xmlns="http://www.w3.org/2000/svg">
<path d="M69.6187 24.4216C68.8965 23.715 68.0125 23.1726 66.9894 22.8094C66.6092 22.6745 66.2137 22.5684 65.8045 22.4881C66.2655 21.4425 66.1976 20.3004 65.5845 19.2688C65.9509 18.7884 66.242 18.2652 66.4556 17.7038C66.695 17.0738 66.8195 16.4084 66.826 15.7283C66.8341 14.8905 66.6723 14.1035 66.344 13.3888C66.3383 13.3763 66.3326 13.3637 66.3261 13.3512C64.9075 10.3603 61.5268 10.0081 60.1398 9.9956C60.1058 9.9956 60.0718 9.9956 60.037 9.9956C59.2744 9.9956 58.5376 10.0759 57.8307 10.2284C57.8283 9.17769 57.419 8.194 56.6507 7.42473C55.7472 6.51988 54.4305 6.01441 52.9424 6.00041C50.9681 5.9842 49.3862 6.45725 48.9446 6.60388C47.4702 7.09315 46.4705 8.21169 46.2012 9.66917C46.1478 9.95654 46.1276 10.2373 46.134 10.5114C46.0774 10.532 46.0216 10.5556 45.9658 10.577C45.673 10.3942 45.3503 10.2432 45.0017 10.1326C44.4315 9.9536 43.753 9.84749 43.1399 9.84233C42.4848 9.8357 41.837 9.92265 41.2215 10.0958C39.3605 9.54464 37.307 9.92633 36.3785 10.1577C36.241 10.1916 36.1092 10.2336 35.9789 10.2785C34.8143 9.84528 33.665 9.75759 32.9897 9.7517C31.3883 9.73843 29.8953 10.0678 28.5648 10.7111C27.6719 10.0708 26.5356 9.69349 25.2447 9.6817C24.2354 9.67065 23.2657 9.90717 22.4342 10.353C21.6408 9.9138 20.6808 9.64043 19.5752 9.63086C19.5525 9.63086 19.5299 9.63086 19.5072 9.63086C17.1456 9.63086 15.232 10.7288 14.2251 11.7618C13.0062 13.0108 12.8315 14.8227 13.7932 16.2743C14.073 16.6958 14.4394 17.0797 14.8672 17.395L15.8879 21.9701C13.6484 22.2501 11.7445 23.2633 10.2297 25.0133C8.77466 26.6889 8.02492 28.6563 8.00066 30.8617C7.9772 33.0096 8.58298 34.7743 9.79939 36.1058C9.80667 36.1139 9.81314 36.1213 9.82042 36.1294C10.5063 36.867 11.345 37.4314 12.3123 37.8079C13.193 38.1506 14.1595 38.3296 15.1867 38.3385C15.2199 38.3385 15.253 38.3385 15.2862 38.3385C16.1257 38.3385 16.928 38.2434 17.6753 38.054C18.2722 37.903 18.8392 37.6967 19.3738 37.4506C20.388 38.068 21.5907 38.4033 22.8977 38.4151C22.9292 38.4151 22.9599 38.4151 22.9915 38.4151C23.8278 38.4151 24.588 38.3105 25.2771 38.1343C25.929 38.3768 26.6415 38.5109 27.3905 38.5175C27.4196 38.5175 27.4487 38.5175 27.4778 38.5175C28.3513 38.5175 29.1625 38.3996 29.9349 38.1601C30.3118 38.2655 30.7057 38.3274 31.1092 38.3311L33.2558 38.3502C33.2711 38.3502 33.2857 38.3502 33.3019 38.3502C33.9707 38.3502 34.6048 38.2147 35.1693 37.9693C35.7339 38.2242 36.3583 38.3679 37.0012 38.3731L39.2254 38.393C39.24 38.393 39.2545 38.393 39.2691 38.393C40.0123 38.393 40.716 38.2169 41.3274 37.9045C41.9041 38.2036 42.6158 38.4431 43.4869 38.5485C43.4012 39.5373 43.7417 40.521 44.4526 41.2829C45.2306 42.117 46.367 42.6019 47.5704 42.6129L49.6393 42.6313C49.6547 42.6313 49.6692 42.6313 49.6846 42.6313C51.8368 42.6313 53.6266 41.2343 53.9477 39.3052L54.0949 38.435C55.211 38.1926 56.2535 37.7674 57.1893 37.1713C57.7409 37.5935 58.4049 37.9641 59.2056 38.2522C60.1155 38.5787 61.1184 38.7489 62.1868 38.7585C62.2224 38.7585 62.258 38.7585 62.2936 38.7585C63.2325 38.7585 64.1295 38.645 64.9811 38.4166C66.6982 37.9457 68.1508 37.0799 69.3106 35.8317C70.8456 34.1635 71.6366 32.132 71.6617 29.7962C71.686 27.5878 71.0001 25.7818 69.6171 24.4201L69.6187 24.4216Z" fill="#7B867E"/>
<path d="M26.7117 14.7615C26.7158 14.3747 26.6584 13.2274 25.2066 13.2141C24.3097 13.206 23.8236 13.7741 23.8187 14.2339C23.8139 14.6598 24.1066 15.2618 24.0977 16.0731C24.0856 17.1835 23.3205 19.1848 22.2214 20.5133L21.1077 14.2656C21.047 13.9156 20.6814 13.1729 19.5362 13.1625C18.391 13.1522 17.4576 13.7631 17.122 14.1079C17.0605 14.1713 16.9974 14.2744 17.1099 14.4439C17.2328 14.6296 17.3921 14.7696 17.528 14.6952C17.9526 14.4623 18.2098 14.5957 18.298 15.043L19.8945 22.2022C19.9568 22.424 20.108 22.5581 20.476 22.561C22.8191 22.5824 26.6818 17.3618 26.7101 14.7615H26.7117Z" fill="white"/>
<path d="M62.123 21.307C62.2201 21.1861 62.2783 21.1065 62.1578 20.9245L61.8585 20.4758C61.7955 20.3807 61.6515 20.3741 61.5714 20.4574C60.8945 21.1611 60.076 21.5081 59.1176 21.4993C58.6121 21.4949 58.2158 21.3055 57.9287 20.9319C57.6415 20.5583 57.5032 19.9585 57.5121 19.1318C58.3031 19.1281 59.1006 19.0087 59.9061 18.7722C60.3146 18.6543 60.7044 18.5003 61.0756 18.3102C61.4469 18.1201 61.7736 17.8939 62.0559 17.6316C62.3907 17.3199 62.6358 16.9596 62.7919 16.5491C62.8954 16.2758 62.9464 15.9862 62.9496 15.6966C62.9528 15.3378 62.8922 15.0239 62.7676 14.7534C62.3867 13.9503 61.4986 13.5421 60.1027 13.5295C58.4916 13.5148 57.1425 14.0512 56.0555 15.1381C54.9564 16.2249 54.3975 17.5969 54.3797 19.2556C54.3797 19.2718 54.3797 19.2873 54.3797 19.3035C54.3724 19.9394 54.4913 20.5178 54.7364 21.0387C54.8617 21.3048 55.0219 21.5509 55.2168 21.7778C55.4117 22.0048 55.6511 22.2015 55.9342 22.3688C56.2173 22.5353 56.5432 22.6672 56.9112 22.763C57.2792 22.8588 57.7192 22.9096 58.2311 22.914C58.7423 22.9184 59.226 22.8595 59.6813 22.7364C60.8193 22.4255 61.7025 21.8345 62.1246 21.3077L62.123 21.307ZM59.4451 14.6201C59.9215 14.6245 60.1561 14.9944 60.148 15.7312C60.1399 16.4673 59.8366 17.0664 59.2389 17.5269C58.7116 17.9307 58.1389 18.1474 57.5218 18.179C57.7159 15.7968 58.3573 14.6105 59.4443 14.6201H59.4451Z" fill="white"/>
<path d="M32.5287 22.491C33.6667 22.18 34.5507 21.5891 34.9729 21.0622C35.0699 20.9414 35.1281 20.8618 35.0076 20.6798L34.7084 20.231C34.6453 20.136 34.5013 20.1294 34.4213 20.2126C33.7443 20.9163 32.9258 21.2634 31.9666 21.2545C31.4611 21.2501 31.064 21.0607 30.7777 20.6872C30.4906 20.3136 30.3523 19.7138 30.3612 18.887C31.1522 18.8834 31.9496 18.764 32.7552 18.5275C33.1636 18.4096 33.5534 18.2556 33.9247 18.0655C34.2959 17.8753 34.6227 17.6491 34.9049 17.3868C35.2398 17.0751 35.4848 16.7148 35.6409 16.3044C35.7444 16.031 35.7954 15.7414 35.7986 15.4519C35.8019 15.093 35.7412 14.7791 35.6175 14.5087C35.2365 13.7055 34.3485 13.2973 32.9525 13.2848C31.3422 13.27 29.9924 13.8065 28.9054 14.8933C27.8062 15.9802 27.2474 17.3522 27.2296 19.0108C27.2296 19.027 27.2296 19.0425 27.2296 19.0587C27.2223 19.6946 27.3412 20.273 27.5854 20.794C27.71 21.06 27.8709 21.3061 28.0658 21.5331C28.2608 21.76 28.5002 21.9567 28.7832 22.124C29.0663 22.2905 29.3922 22.4224 29.7602 22.5182C30.1282 22.614 30.5682 22.6649 31.0802 22.6693C31.5913 22.6737 32.075 22.6148 32.5303 22.4917L32.5287 22.491ZM32.2942 14.3753C32.7705 14.3797 33.0051 14.7496 32.997 15.4865C32.9889 16.2226 32.6856 16.8217 32.0879 17.2822C31.5598 17.686 30.988 17.9026 30.3709 17.9343C30.565 15.5521 31.2064 14.3657 32.2934 14.3753H32.2942Z" fill="white"/>
<path d="M37.0683 22.5631L39.2003 22.5822C39.4624 22.5845 39.5934 22.4592 39.6273 22.2492L40.5542 16.5541C41.0727 16.277 42.0626 16.0508 43.0558 16.3087C43.1723 16.3389 43.292 16.2689 43.3154 16.1606L43.8678 13.6907C43.888 13.5986 43.8346 13.5028 43.7376 13.4719C43.537 13.4092 43.2693 13.3761 43.1011 13.3746C42.0626 13.365 41.2045 13.9626 40.6294 14.7864L40.6003 14.0319C40.5227 13.0091 38.0947 13.3923 37.404 13.564C37.2908 13.592 37.1856 13.6266 37.1597 13.9073C37.1331 14.2006 37.2123 14.32 37.3854 14.3494C37.666 14.3959 38.0235 14.513 37.992 14.8033C37.9588 15.1069 37.0311 20.9789 36.8152 22.2941C36.7917 22.4356 36.9114 22.5616 37.0683 22.5631Z" fill="white"/>
<path d="M19.4319 25.6934C18.9919 25.5925 18.2583 25.4289 17.2239 25.4201C15.0199 25.4002 13.9127 26.4627 13.2705 27.2047C12.3574 28.2562 11.894 29.486 11.8786 30.8956C11.8649 32.1888 12.1649 33.171 12.7796 33.8445C13.0724 34.1598 13.425 34.3978 13.8359 34.557C14.2467 34.7169 14.7102 34.7994 15.2246 34.8038C15.739 34.8083 16.2097 34.7574 16.6351 34.6498C17.6873 34.3831 18.5794 33.8577 19.1173 33.2211C19.203 33.1194 19.2135 32.9809 19.1391 32.8718L18.8164 32.4002C18.7226 32.2956 18.5883 32.2706 18.4484 32.4017C17.7933 33.0185 17.1721 33.3191 16.3536 33.3117C15.8417 33.3073 15.4688 33.1268 15.2343 32.7694C15.1081 32.583 15.0151 32.3435 14.9536 32.0517C14.893 31.7599 14.8606 31.4895 14.8582 31.2404C14.855 30.9914 14.855 30.7092 14.8582 30.3938C14.8614 30.0784 14.918 29.6886 15.028 29.223C15.2723 28.1759 15.6637 27.428 16.204 26.977C16.4507 26.7678 16.6917 26.6631 16.9271 26.6654C17.2433 26.6683 17.5215 26.9225 18.0044 27.4302C18.0044 27.4302 18.247 27.6903 18.4702 27.9445C18.7218 28.2312 18.9798 28.17 19.0792 27.9445C19.1763 27.7242 19.6826 26.0995 19.6826 26.0995C19.7408 25.9233 19.6284 25.7377 19.4327 25.6927L19.4319 25.6934Z" fill="white"/>
<path d="M66.78 26.828C66.4573 26.5127 66.0593 26.2702 65.5838 26.1022C65.109 25.9335 64.5744 25.8466 63.9816 25.8414C63.3887 25.8362 62.8412 25.9026 62.3397 26.0411C61.3482 26.3078 60.5289 26.7986 59.881 27.5126C58.934 28.5427 58.4519 29.8101 58.4357 31.314C58.4147 33.2158 59.1459 34.4331 60.6292 34.9658C61.0983 35.1345 61.6304 35.2215 62.2273 35.2266C62.8234 35.2318 63.3693 35.1677 63.8651 35.0351C64.8567 34.7632 65.6816 34.2724 66.3408 33.5636C67.2879 32.5335 67.7699 31.2668 67.7861 29.7622C67.7998 28.4801 67.465 27.5023 66.78 26.8288V26.828ZM64.6626 29.8528C64.6513 30.9286 64.5186 31.8541 64.2663 32.6307C64.1636 32.9476 64.0374 33.2231 63.887 33.4575C63.7357 33.6918 63.561 33.8782 63.3621 34.0167C63.1631 34.1553 62.9471 34.2238 62.7142 34.2216C62.4813 34.2194 62.2961 34.1678 62.1578 34.0654C61.7307 33.7647 61.5253 32.8304 61.5423 31.2624C61.5536 30.2345 61.7 29.3171 61.9823 28.5088C62.0906 28.1971 62.2225 27.9245 62.3794 27.6902C62.5355 27.4558 62.7183 27.2709 62.9261 27.1346C63.134 26.999 63.3459 26.9319 63.5602 26.9342C63.7753 26.9364 63.9468 26.9828 64.0738 27.0734C64.4838 27.3689 64.6796 28.2951 64.6626 29.8521V29.8528Z" fill="white"/>
<path d="M29.122 25.4332C28.7443 25.4295 28.0811 25.6034 27.5635 25.8083L27.5724 25.7729C27.5724 25.7729 27.1413 25.5268 25.9985 25.5165C22.3791 25.4841 20.2189 28.3394 20.1857 31.3906C20.1606 33.6852 21.2784 34.8656 22.9372 34.8803C24.4569 34.8943 25.3781 34.3152 25.8399 33.8384C25.9928 34.3815 26.4012 34.9739 27.4284 34.9835C28.052 34.9894 28.5631 34.8907 29.054 34.6792C29.1608 34.6335 29.2522 34.5716 29.2862 34.324C29.3226 34.0588 29.219 33.9527 29.046 33.9239C28.7653 33.8775 28.3407 33.7596 28.3722 33.4693C28.386 33.3411 29.5603 26.2445 29.5603 26.2445C29.5984 25.8363 29.7593 25.4391 29.122 25.4332ZM25.8165 32.7096C25.5593 33.0272 25.0465 33.515 24.3243 33.5083C23.2551 33.4988 23.158 32.0973 23.1701 30.9765C23.1912 29.0209 23.8867 26.5842 25.9515 26.6033C26.2896 26.6063 26.5509 26.6505 26.7539 26.719C26.5598 27.9783 25.9936 31.5852 25.8165 32.7096Z" fill="white"/>
<path d="M46.6304 22.8086C48.1072 22.8219 49.0171 22.2751 49.4919 21.8072C49.707 22.3245 50.1769 22.8565 51.1499 22.8654C51.7735 22.8713 52.2846 22.7725 52.7755 22.561C52.8823 22.5154 52.9535 22.4439 52.9955 22.228C53.0465 21.9679 53.0271 21.8485 52.7666 21.8065C52.486 21.7608 52.1285 21.6429 52.16 21.3526C52.1738 21.2244 53.9507 10.3205 53.9507 10.3205C53.9887 9.91231 53.738 9.54167 52.9041 9.53431C51.6643 9.52325 50.6104 9.8121 50.2723 9.9241C50.1526 9.96389 50.0742 9.99263 50.0249 10.2579C49.9545 10.6396 50.0807 10.6801 50.2537 10.7088C50.5344 10.7553 50.8919 10.8724 50.8603 11.1627C50.8563 11.2025 50.7042 12.1752 50.498 13.4919C50.2877 13.4669 50.0232 13.4484 49.6908 13.4455C46.0715 13.4131 43.9113 16.2684 43.8781 19.3196C43.853 21.6142 44.9708 22.7946 46.6296 22.8094L46.6304 22.8086ZM46.8641 18.9048C46.8827 17.2108 47.5807 14.5125 49.6455 14.5309C49.9205 14.5331 50.1397 14.5648 50.3233 14.6127C49.9294 17.1275 49.4466 20.1972 49.3487 20.8191C49.0632 21.1124 48.6119 21.441 48.0183 21.4359C46.949 21.4263 46.852 20.0248 46.8641 18.9041V18.9048Z" fill="white"/>
<path d="M54.8655 25.7774C53.4429 25.7649 52.5589 26.3978 52.0332 26.9475L52.0704 26.428C51.9903 25.4053 49.4127 25.7413 48.7066 25.9137C48.5902 25.9417 48.498 25.9822 48.4519 26.2549C48.3904 26.6218 48.5085 26.6859 48.688 26.6984C49.0196 26.7213 49.3407 26.862 49.3084 27.1523C49.2938 27.2806 48.9824 29.1426 48.6104 31.3516C47.9577 32.0767 46.3515 33.4413 45.7667 33.4362C45.5403 33.434 45.4278 33.294 45.4311 33.0154C45.4343 32.7377 46.1137 28.3704 46.1436 28.0808C46.3126 26.4457 45.3987 25.6742 43.8588 25.6602C42.589 25.6484 41.1914 26.2902 40.3745 27.5915C40.2201 26.2814 39.4364 25.6204 38.0234 25.6072C37.6918 25.6042 37.374 25.6492 37.0715 25.7413C36.232 25.9933 35.373 26.5511 34.7672 27.3719L34.7745 27.2806L34.9104 26.2725C35.0293 25.171 32.2374 25.5851 31.5467 25.7575C31.4334 25.7855 31.342 25.826 31.2976 26.0986C31.2377 26.4656 31.3526 26.5297 31.5281 26.5422C31.8524 26.5651 32.1662 26.7058 32.1347 26.9961C32.1015 27.2997 31.1107 33.2129 30.8948 34.5275C30.8713 34.6689 30.991 34.7949 31.1479 34.7964L33.2953 34.8156C33.5573 34.8178 33.6883 34.6925 33.7231 34.4832L34.6281 28.92C34.9185 28.4249 35.7467 27.159 36.7892 27.1686C37.3085 27.173 37.636 27.4272 37.454 29.2664L36.7019 34.4832C36.6736 34.6704 36.8321 34.8377 37.0391 34.8399L39.2641 34.8598C39.4388 34.8612 39.5868 34.7434 39.6086 34.5857C39.6086 34.5857 40.2565 29.7601 40.3592 28.8456C40.6552 28.3453 41.4866 27.2106 42.4968 27.2201C43.3735 27.2282 43.2522 28.3785 43.0209 29.749L42.547 32.9027C42.3682 33.8053 42.4855 35.0558 44.4347 35.0735C45.6947 35.0845 47.2484 34.145 48.3095 33.1238C47.8801 35.6688 47.4514 38.1947 47.3487 38.81C47.3253 38.9515 47.4474 39.0775 47.6075 39.079L49.6764 39.0974C49.9441 39.0996 50.0783 38.9743 50.1131 38.7651L50.7448 35.0418C50.9931 35.0911 51.3384 35.1346 51.8027 35.139C55.4212 35.1715 57.5822 32.3162 57.6154 29.2649C57.6405 26.9703 56.5227 25.7899 54.8639 25.7752L54.8655 25.7774ZM54.635 29.4093C54.6164 31.1033 53.9152 34.0736 51.8504 34.0551C51.4476 34.0514 51.1565 33.9881 50.9413 33.8952L51.9402 28.0064C52.1788 27.6947 52.7093 27.1428 53.4777 27.1501C54.5469 27.1597 54.6496 28.0388 54.635 29.41V29.4093Z" fill="white"/>
</svg>
