<svg width="98" height="48" viewBox="0 0 98 48" fill="none" xmlns="http://www.w3.org/2000/svg">
<g clip-path="url(#clip0_152_145)">
<path d="M23.121 21.3467L20.2654 22.0189C19.4345 22.215 18.6283 21.8758 18.1198 21.2346C17.847 20.8923 17.6858 20.4721 17.6331 20.0302C17.5804 19.5882 17.6517 19.1743 17.7912 18.7697L19.6887 13.2484C19.7445 12.9558 20.0794 12.2898 19.9988 12.0035C19.7662 11.1787 17.9152 11.0698 16.8982 11.0698C11.6119 11.0698 8.2168 15.7756 8.2168 20.525C8.2168 22.7192 8.87721 24.7454 9.99029 26.3887L15.748 36.5847C16.5014 37.9167 18.4144 37.9136 19.1585 36.5753L24.9534 26.1988C25.2045 25.8098 25.434 25.3989 25.6324 24.9726C26.5129 23.074 25.0154 20.8985 23.121 21.3436V21.3467Z" fill="#7B867E"/>
<path d="M34.4216 26.0381L31.6284 16.8402H33.7391L35.9686 24.6566L35.4878 24.415H36.7808L36.2748 24.6566L38.3386 16.8402H40.3862L37.7821 26.0381H34.4216Z" fill="#7B867E"/>
<path d="M43.9113 26.0383C43.3387 26.0383 42.829 25.9445 42.3824 25.7588C41.9358 25.573 41.5594 25.3187 41.2532 24.9959C40.9471 24.673 40.7129 24.3033 40.5545 23.8849C40.3942 23.4665 40.3149 23.0264 40.3149 22.5629V22.278C40.3149 21.8073 40.396 21.3582 40.5599 20.9326C40.7237 20.5069 40.9615 20.1318 41.2766 19.809C41.5918 19.4861 41.9718 19.2318 42.4166 19.0461C42.8632 18.8603 43.3603 18.7665 43.9095 18.7665C44.4588 18.7665 44.9793 18.8603 45.4205 19.0461C45.8635 19.2318 46.2381 19.4861 46.5497 19.809C46.8594 20.1318 47.0989 20.5051 47.2664 20.9326C47.4339 21.3582 47.5168 21.8073 47.5168 22.278V22.5629C47.5168 23.0264 47.4375 23.4665 47.2772 23.8849C47.1188 24.3033 46.8846 24.673 46.5785 24.9959C46.2723 25.3187 45.8959 25.573 45.4493 25.7588C45.0027 25.9445 44.4894 26.0383 43.9077 26.0383H43.9113ZM43.8987 24.3755C44.2751 24.3755 44.5885 24.2925 44.837 24.1266C45.0855 23.9607 45.2764 23.728 45.4079 23.4268C45.5394 23.1274 45.606 22.7938 45.606 22.4277C45.606 22.0363 45.5376 21.6936 45.4025 21.3979C45.2656 21.1021 45.0711 20.8676 44.819 20.6927C44.5669 20.5178 44.2607 20.4312 43.8987 20.4312C43.5368 20.4312 43.2414 20.5178 42.9857 20.6927C42.73 20.8676 42.5355 21.1021 42.4022 21.3979C42.2707 21.6936 42.2041 22.0363 42.2041 22.4277C42.2041 22.7938 42.2689 23.1274 42.3968 23.4268C42.5247 23.7262 42.7173 23.9589 42.9731 24.1266C43.2288 24.2925 43.5386 24.3755 43.8987 24.3755Z" fill="#7B867E"/>
<path d="M48.0581 18.283V16.8402H50.9396V18.283H48.0581ZM48.9586 26.0381V16.8402H50.9396V26.0381H48.9586Z" fill="#7B867E"/>
<path d="M52.0205 20.4475V19.0047H56.8829V20.4475H52.0205ZM55.8961 26.0384C55.1865 26.0384 54.6138 25.9464 54.178 25.7642C53.7422 25.5821 53.4234 25.2737 53.2235 24.8426C53.0218 24.4116 52.9228 23.8255 52.9228 23.086V16.8405H54.7237V23.2195C54.7237 23.5495 54.8065 23.802 54.9722 23.9751C55.1379 24.1483 55.3738 24.2349 55.6799 24.2349H56.8866V26.0384H55.8997H55.8961Z" fill="#7B867E"/>
<path d="M58.1436 26.0382V16.8403H60.1245V26.0382H58.1436ZM59.9445 21.7098V20.4474H61.6931C62.0731 20.4474 62.3487 20.35 62.518 20.1552C62.6872 19.9604 62.7737 19.7007 62.7737 19.3779C62.7737 19.037 62.689 18.7701 62.518 18.5753C62.3487 18.3805 62.0731 18.2831 61.6931 18.2831H59.9445V16.8403H61.7454C62.8169 16.8403 63.5517 16.8818 64.1262 17.3219C64.7006 17.7637 64.987 18.3932 64.987 19.2101V19.3977C64.987 19.964 64.8393 20.4185 64.5458 20.7594C64.2522 21.1002 63.856 21.3455 63.359 21.4898C62.8619 21.6359 62.2928 21.708 61.6553 21.708H59.9445V21.7098ZM59.9445 26.0382V24.4151H62.1326C62.5252 24.4151 62.8187 24.3123 63.015 24.1085C63.2113 23.9029 63.3085 23.6125 63.3085 23.2374C63.3085 22.8623 63.2095 22.5737 63.015 22.3717C62.8187 22.1715 62.5252 22.0705 62.1326 22.0705H59.9445V20.8081H62.0173C62.662 20.8081 63.2329 20.8874 63.7336 21.0443C64.2342 21.2012 64.6268 21.4555 64.915 21.8036C65.2031 22.1517 65.3472 22.6242 65.3472 23.2194V23.3979C65.3472 23.9516 65.2193 24.4241 64.9654 24.8209C64.7115 25.2158 64.3387 25.5188 63.847 25.7262C63.3554 25.9354 62.7449 26.0382 62.0173 26.0382H59.9445Z" fill="#7B867E"/>
<path d="M66.4276 26.0383V19.1849H68.0484V22.0705H68.0124C68.0124 21.0912 68.2087 20.3356 68.6049 19.8035C68.9993 19.2715 69.5702 19.0046 70.3193 19.0046H70.5697V20.8081H70.0834C69.5485 20.8081 69.1361 20.956 68.8444 21.2536C68.5526 21.5511 68.4068 21.9786 68.4068 22.5395V26.0383H66.4258H66.4276Z" fill="#7B867E"/>
<path d="M73.2714 26.0383C72.7942 26.0383 72.3404 26.0599 71.9802 25.8904C71.62 25.7209 71.3391 25.4756 71.1374 25.1546C70.9357 24.8336 70.833 24.4512 70.833 24.0057C70.833 23.5188 70.9591 23.1202 71.2094 22.8082C71.4597 22.4962 71.8127 22.2654 72.2665 22.1157C72.7204 21.966 73.2408 21.8902 73.8333 21.8902H75.2542V22.9723H73.8225C73.4821 22.9723 73.221 23.0553 73.0391 23.2212C72.8572 23.3871 72.7654 23.6126 72.7654 23.8957C72.7654 24.1626 72.8572 24.3809 73.0391 24.5468C73.221 24.7127 73.4821 24.7957 73.8225 24.7957C74.0404 24.7957 74.2367 24.7578 74.4114 24.6803C74.5861 24.6027 74.7284 24.471 74.8418 24.2853C74.9553 24.0995 75.0579 23.8452 75.0741 23.5134L75.4973 23.9931C75.4559 24.4548 75.3461 24.8444 75.1642 25.16C74.9823 25.4756 74.732 25.7191 74.4114 25.8886C74.0908 26.0581 73.7361 26.0365 73.2732 26.0365L73.2714 26.0383ZM75.2524 26.0383V24.0544H75.0723V21.8307C75.0723 21.4772 74.9877 21.2121 74.8202 21.0336C74.6509 20.8568 74.3826 20.7684 74.0116 20.7684C73.8261 20.7684 73.5812 20.7594 73.2786 20.7811C72.9131 20.8081 72.6915 20.8081 72.3728 20.8081H71.4723V19.0046C71.6614 18.9884 71.9388 19.0208 72.1927 19.0046C72.4466 18.9884 72.6429 19.0136 72.9131 19.0046C73.1832 18.9974 73.3957 19.0046 73.6334 19.0046C74.3232 19.0046 74.9571 19.185 75.4289 19.3833C75.9008 19.5799 76.2591 19.8793 76.5059 20.2761C76.7526 20.6747 76.875 21.1869 76.875 21.8109V26.0383H75.2542H75.2524Z" fill="#7B867E"/>
<path d="M80.5179 26.0382C79.6102 26.0382 78.9007 25.8452 78.3892 25.4574C77.8777 25.0697 77.6058 24.525 77.5752 23.8235H79.2266C79.2572 24.0327 79.3797 24.2202 79.5922 24.3862C79.8047 24.5521 80.1253 24.635 80.5521 24.635C80.8781 24.635 81.1464 24.5773 81.3607 24.4601C81.5732 24.3429 81.6813 24.1752 81.6813 23.9569C81.6813 23.764 81.6002 23.607 81.4363 23.4916C81.2743 23.3744 80.9825 23.2914 80.5629 23.2427L80.0622 23.194C79.2951 23.1129 78.7188 22.8911 78.3352 22.5285C77.9516 22.166 77.7589 21.7007 77.7589 21.1362C77.7589 20.6691 77.8705 20.276 78.0957 19.9621C78.3208 19.6465 78.6323 19.4103 79.0321 19.248C79.4319 19.0874 79.8876 19.0063 80.399 19.0063C81.2202 19.0063 81.8595 19.2281 82.3872 19.569C82.6321 19.7277 82.9923 20.2687 82.9923 20.8098H81.5516C81.3715 20.8098 81.3859 20.7954 81.2004 20.6475C81.0149 20.4978 80.7394 20.4238 80.3738 20.4238C80.0875 20.4238 79.8587 20.4798 79.6877 20.5934C79.5166 20.707 79.4319 20.8603 79.4319 21.0533C79.4319 21.2462 79.5058 21.3797 79.6534 21.4771C79.8011 21.5745 80.0406 21.643 80.3738 21.6827L80.8745 21.7314C81.6578 21.8198 82.2665 22.047 82.7006 22.4095C83.1346 22.772 83.3525 23.2608 83.3525 23.874C83.3525 24.3176 83.2354 24.7036 83.0031 25.03C82.7708 25.3565 82.4412 25.6071 82.0144 25.7803C81.5876 25.9534 81.087 26.04 80.5143 26.04L80.5179 26.0382Z" fill="#7B867E"/>
<path d="M89.0777 18.3641C89.0777 19.2282 88.4145 19.9064 87.5514 19.9064C86.6884 19.9064 86.0161 19.2282 86.0161 18.3641C86.0161 17.5001 86.6975 16.8405 87.5514 16.8405C88.4054 16.8405 89.0777 17.5187 89.0777 18.3641ZM86.3977 18.3641C86.3977 19.0424 86.8882 19.5812 87.5605 19.5812C88.2328 19.5812 88.6961 19.0424 88.6961 18.3734C88.6961 17.7045 88.2146 17.1471 87.5514 17.1471C86.8882 17.1471 86.3977 17.6952 86.3977 18.3641ZM87.3152 19.1632H86.97V17.6395C87.1063 17.6116 87.2971 17.593 87.5423 17.593C87.824 17.593 87.9512 17.6395 88.0602 17.7045C88.1419 17.7695 88.2055 17.8903 88.2055 18.039C88.2055 18.2062 88.0783 18.3363 87.8966 18.392V18.4106C88.042 18.4663 88.1238 18.5778 88.1692 18.7822C88.2146 19.0145 88.2419 19.1074 88.2782 19.1632H87.9057C87.8603 19.1074 87.833 18.9681 87.7876 18.7915C87.7604 18.6243 87.6695 18.55 87.4787 18.55H87.3152V19.1632ZM87.3243 18.2991H87.4878C87.6786 18.2991 87.833 18.2341 87.833 18.0761C87.833 17.9368 87.7331 17.8439 87.5151 17.8439C87.4242 17.8439 87.3606 17.8532 87.3243 17.8624V18.2991Z" fill="#7B867E"/>
<path d="M59.7946 32.7181C59.5695 32.7181 59.3723 32.6793 59.2045 32.6018C59.036 32.5242 58.8975 32.4192 58.7878 32.2853C58.678 32.1521 58.5969 32.0041 58.543 31.8405C58.4892 31.6777 58.4619 31.5121 58.4619 31.3443V31.2555C58.4619 31.0807 58.4899 30.9123 58.5451 30.7495C58.6004 30.5866 58.6836 30.4393 58.7947 30.3075C58.9059 30.1757 59.0437 30.0714 59.2087 29.9939C59.3737 29.9163 59.5674 29.8776 59.789 29.8776C60.0107 29.8776 60.2163 29.9206 60.3946 30.0058C60.5729 30.0918 60.7155 30.2124 60.8232 30.3688C60.9309 30.5253 60.9917 30.7072 61.0043 30.9144H60.4505C60.4309 30.7664 60.3645 30.6409 60.2519 30.5387C60.1393 30.4365 59.9848 30.3858 59.789 30.3858C59.6191 30.3858 59.4786 30.4252 59.3674 30.5042C59.2562 30.5831 59.173 30.691 59.1178 30.8277C59.0625 30.9644 59.0346 31.1216 59.0346 31.2992C59.0346 31.4769 59.0618 31.6249 59.1157 31.7637C59.1695 31.9019 59.2527 32.0104 59.3653 32.0894C59.4779 32.1683 59.6212 32.2078 59.7939 32.2078C59.9282 32.2078 60.0429 32.1838 60.1393 32.1359C60.2358 32.0879 60.3135 32.0238 60.3722 31.9435C60.4309 31.8631 60.4652 31.7701 60.475 31.6643H61.0337C61.0239 31.8786 60.9637 32.064 60.8526 32.2198C60.7414 32.3762 60.5945 32.4982 60.4113 32.5856C60.2281 32.673 60.0226 32.7167 59.7939 32.7167L59.7946 32.7181Z" fill="#7B867E"/>
<path d="M62.8671 32.7181C62.635 32.7181 62.4308 32.6793 62.2546 32.6018C62.0784 32.5243 61.9295 32.4214 61.8085 32.2931C61.6875 32.1648 61.5959 32.0189 61.5344 31.8561C61.4722 31.6933 61.4414 31.5241 61.4414 31.35V31.2513C61.4414 31.0765 61.4736 30.9074 61.5372 30.7424C61.6008 30.5775 61.6938 30.4302 61.8162 30.3005C61.9386 30.1701 62.0882 30.0679 62.2644 29.9918C62.4406 29.9164 62.642 29.8783 62.8671 29.8783C63.0923 29.8783 63.2922 29.9164 63.4671 29.9918C63.6419 30.0679 63.7915 30.1701 63.9153 30.3005C64.039 30.4309 64.1334 30.5782 64.197 30.7424C64.2607 30.9067 64.2928 31.0765 64.2928 31.2513V31.35C64.2928 31.5248 64.2614 31.6933 64.1998 31.8561C64.1376 32.0189 64.046 32.1648 63.9257 32.2931C63.8055 32.4214 63.6565 32.5243 63.4796 32.6018C63.3034 32.6793 63.0993 32.7181 62.8671 32.7181ZM62.8671 32.2141C63.0468 32.2141 63.1999 32.174 63.3279 32.0929C63.4552 32.0126 63.5524 31.9026 63.6195 31.7645C63.6866 31.6263 63.7202 31.4712 63.7202 31.3C63.7202 31.1287 63.6859 30.9687 63.6174 30.8305C63.5489 30.6924 63.451 30.5831 63.323 30.5021C63.1958 30.4217 63.044 30.3808 62.8671 30.3808C62.6902 30.3808 62.5385 30.421 62.4112 30.5021C62.284 30.5831 62.1861 30.6924 62.1169 30.8305C62.0483 30.9687 62.0141 31.1252 62.0141 31.3C62.0141 31.4748 62.0476 31.6256 62.1148 31.7645C62.1819 31.9026 62.2791 32.0126 62.4063 32.0929C62.5336 32.174 62.6874 32.2141 62.8671 32.2141Z" fill="#7B867E"/>
<path d="M64.9502 32.6293V29.9671H65.4061V31.1083H65.3522C65.3522 30.8447 65.3872 30.6226 65.4578 30.4415C65.5278 30.2603 65.6347 30.1229 65.7788 30.0292C65.9228 29.9354 66.1004 29.8882 66.313 29.8882H66.3375C66.664 29.8882 66.9073 29.9918 67.0674 30.1997C67.2276 30.4069 67.3073 30.71 67.3073 31.1083V32.6293H66.7339V31.0286C66.7339 30.8439 66.6815 30.6952 66.5773 30.5817C66.4724 30.4683 66.3291 30.4112 66.1459 30.4112C65.9627 30.4112 65.8095 30.4697 65.6949 30.5867C65.5802 30.7037 65.5236 30.8595 65.5236 31.0533V32.6293H64.9502Z" fill="#7B867E"/>
<path d="M70.09 33.6175V31.8391L70.2809 31.4931C70.2746 31.7665 70.2215 31.9935 70.1215 32.1746C70.0215 32.3558 69.8901 32.4918 69.7271 32.582C69.5635 32.673 69.381 32.7181 69.1782 32.7181C68.9923 32.7181 68.8209 32.6821 68.6664 32.6095C68.5119 32.5369 68.3783 32.4376 68.2672 32.3107C68.156 32.1838 68.07 32.0372 68.0098 31.8709C67.949 31.7045 67.9189 31.5262 67.9189 31.3352V31.2414C67.9189 31.0504 67.949 30.8735 68.0098 30.7107C68.07 30.5479 68.1574 30.4034 68.2721 30.2786C68.386 30.1532 68.5217 30.0566 68.679 29.9875C68.8356 29.9184 69.009 29.8839 69.1985 29.8839C69.4209 29.8839 69.6153 29.9318 69.7817 30.027C69.9481 30.1229 70.0795 30.2617 70.176 30.4443C70.2725 30.6268 70.3236 30.8488 70.3306 31.1089H70.2082V29.9671H70.6641V33.6175H70.0907H70.09ZM69.3111 32.205C69.4579 32.205 69.5915 32.1718 69.7104 32.1063C69.8299 32.0407 69.9257 31.9442 69.9991 31.8173C70.0725 31.6904 70.1096 31.5417 70.1096 31.3704V31.1583C70.1096 30.9905 70.0718 30.8467 69.997 30.7283C69.9215 30.6099 69.8236 30.519 69.7027 30.4569C69.5817 30.3942 69.4509 30.3632 69.3104 30.3632C69.1468 30.3632 69.0041 30.402 68.8818 30.4795C68.7594 30.557 68.6636 30.6656 68.5951 30.8058C68.5266 30.9461 68.4923 31.1082 68.4923 31.2922C68.4923 31.4761 68.5273 31.6333 68.5979 31.7715C68.6678 31.9096 68.7643 32.0168 68.8867 32.0929C69.009 32.169 69.1503 32.2064 69.3104 32.2064L69.3111 32.205Z" fill="#7B867E"/>
<path d="M72.4132 32.7083C72.1027 32.7083 71.8643 32.6068 71.6979 32.4045C71.5314 32.2022 71.4482 31.9034 71.4482 31.5079V29.9672H72.0216V31.5876C72.0216 31.7723 72.0719 31.9175 72.1733 32.0246C72.2747 32.1317 72.4118 32.1853 72.5852 32.1853C72.7586 32.1853 72.9061 32.1282 73.0187 32.0147C73.1313 31.9012 73.1879 31.7455 73.1879 31.5481V29.9672H73.7613V32.6294H73.3054V31.4931H73.3641C73.3641 31.7596 73.3291 31.983 73.2585 32.1627C73.1879 32.3425 73.0851 32.4778 72.9495 32.5701C72.8138 32.6625 72.6432 32.7083 72.4376 32.7083H72.4132Z" fill="#7B867E"/>
<path d="M74.3535 30.4111V29.9664H75.3142V30.4111H74.3535ZM74.9269 29.5963C74.8094 29.5963 74.722 29.5653 74.6647 29.5026C74.6073 29.4399 74.5787 29.3595 74.5787 29.2608C74.5787 29.1622 74.6073 29.0853 74.6647 29.0212C74.722 28.957 74.8094 28.9246 74.9269 28.9246C75.0443 28.9246 75.1366 28.957 75.194 29.0212C75.2513 29.0853 75.28 29.165 75.28 29.2608C75.28 29.3567 75.2513 29.4406 75.194 29.5026C75.1366 29.5653 75.0478 29.5963 74.9269 29.5963ZM74.7409 32.6293V29.9671H75.3142V32.6293H74.7409Z" fill="#7B867E"/>
<path d="M77.0769 32.7083C76.721 32.7083 76.4441 32.6321 76.2462 32.4813C76.0483 32.3298 75.9448 32.1204 75.9351 31.854H76.4644C76.4707 31.9527 76.5217 32.0436 76.6161 32.1254C76.7105 32.2078 76.8657 32.2487 77.0818 32.2487C77.265 32.2487 77.4083 32.2128 77.5132 32.1402C77.6181 32.0676 77.6698 31.9773 77.6698 31.8688C77.6698 31.7701 77.6314 31.6919 77.5545 31.6341C77.4775 31.5763 77.3475 31.5375 77.165 31.5178L76.9056 31.4931C76.6343 31.4635 76.4196 31.3824 76.2609 31.2513C76.1022 31.1195 76.0232 30.9419 76.0232 30.7178C76.0232 30.5402 76.0672 30.39 76.1553 30.2681C76.2434 30.1462 76.3651 30.0524 76.5203 29.9869C76.6755 29.9213 76.8545 29.8882 77.0566 29.8882C77.3706 29.8882 77.6237 29.958 77.816 30.0982C78.0089 30.2385 78.1082 30.4429 78.1145 30.7128H77.5901C77.5838 30.6106 77.5363 30.5254 77.4482 30.4563C77.3601 30.3872 77.2293 30.3527 77.0559 30.3527C76.8923 30.3527 76.7678 30.3858 76.6811 30.4514C76.5944 30.5169 76.5511 30.6015 76.5511 30.703C76.5511 30.7953 76.5839 30.8679 76.649 30.9201C76.714 30.9729 76.8203 31.0075 76.9678 31.0237L77.2272 31.0484C77.5244 31.0815 77.7607 31.1647 77.9355 31.2979C78.1103 31.4311 78.1977 31.6165 78.1977 31.8533C78.1977 32.0246 78.1502 32.1747 78.0558 32.303C77.9607 32.4313 77.8293 32.5313 77.6614 32.6018C77.4929 32.6723 77.2978 32.7083 77.0755 32.7083H77.0769Z" fill="#7B867E"/>
<path d="M78.4639 30.3964V29.9664H80.3063V30.3964H78.4639ZM79.9092 32.6589C79.6903 32.6589 79.5057 32.6293 79.3554 32.5701C79.205 32.5109 79.0918 32.4087 79.0149 32.2642C78.9379 32.1197 78.8995 31.9231 78.8995 31.6764V29.1911H79.4435V31.725C79.4435 31.8632 79.4805 31.9696 79.554 32.0436C79.6274 32.1176 79.7309 32.155 79.8651 32.155H80.3063V32.6589H79.9092Z" fill="#7B867E"/>
<path d="M82.0654 32.7181C81.8367 32.7181 81.6374 32.6786 81.4675 32.5997C81.2976 32.5207 81.1585 32.4164 81.0508 32.286C80.9431 32.1563 80.862 32.0097 80.8082 31.8462C80.7543 31.6834 80.7271 31.5163 80.7271 31.345V31.2513C80.7271 31.0765 80.7536 30.908 80.8082 30.7452C80.862 30.5824 80.9431 30.4358 81.0508 30.3054C81.1585 30.175 81.2948 30.0714 81.4598 29.9939C81.6249 29.9163 81.8164 29.8776 82.0353 29.8776C82.3192 29.8776 82.5562 29.9403 82.7457 30.0651C82.9352 30.1905 83.0771 30.3526 83.1722 30.5514C83.2666 30.7509 83.3142 30.9658 83.3142 31.1963V31.4282H80.9718V31.0377H82.9268L82.7702 31.2351C82.7702 31.0575 82.7422 30.9031 82.687 30.7734C82.6317 30.6437 82.5499 30.5429 82.4422 30.4725C82.3346 30.402 82.1989 30.366 82.0353 30.366C81.8717 30.366 81.7234 30.4055 81.6088 30.4844C81.4941 30.5634 81.4095 30.6719 81.3543 30.8101C81.299 30.9482 81.271 31.1117 81.271 31.2992C81.271 31.4769 81.299 31.6361 81.3543 31.7757C81.4095 31.916 81.4962 32.0259 81.6137 32.107C81.7311 32.188 81.8815 32.2282 82.0647 32.2282C82.2479 32.2282 82.3982 32.188 82.5157 32.107C82.6331 32.0266 82.7051 31.9315 82.731 31.8229H83.2652C83.2296 32.0041 83.1568 32.162 83.0471 32.2973C82.9373 32.4326 82.7995 32.5362 82.6331 32.6088C82.4667 32.6814 82.2772 32.7174 82.0647 32.7174L82.0654 32.7181Z" fill="#7B867E"/>
<path d="M59.8876 37.5814C59.6555 37.5814 59.4513 37.5427 59.2751 37.4651C59.0989 37.3876 58.95 37.2847 58.829 37.1564C58.708 37.0281 58.6164 36.8822 58.5549 36.7194C58.4927 36.5566 58.4619 36.3874 58.4619 36.2133V36.1147C58.4619 35.9399 58.4941 35.7707 58.5577 35.6058C58.6213 35.4408 58.7143 35.2935 58.8367 35.1638C58.9591 35.0334 59.1087 34.9312 59.2849 34.8551C59.4611 34.7797 59.6625 34.7416 59.8876 34.7416C60.1128 34.7416 60.3128 34.7797 60.4876 34.8551C60.6624 34.9312 60.812 35.0334 60.9358 35.1638C61.0595 35.2942 61.1539 35.4415 61.2175 35.6058C61.2812 35.77 61.3133 35.9399 61.3133 36.1147V36.2133C61.3133 36.3881 61.2819 36.5566 61.2203 36.7194C61.1581 36.8822 61.0665 37.0281 60.9462 37.1564C60.826 37.2847 60.677 37.3876 60.5001 37.4651C60.3239 37.5427 60.1198 37.5814 59.8876 37.5814ZM59.8876 37.0775C60.0673 37.0775 60.2205 37.0373 60.3484 36.9563C60.4757 36.8759 60.5729 36.7659 60.64 36.6278C60.7071 36.4896 60.7407 36.3346 60.7407 36.1633C60.7407 35.992 60.7064 35.832 60.6379 35.6939C60.5694 35.5557 60.4715 35.4465 60.3435 35.3654C60.2163 35.2851 60.0645 35.2442 59.8876 35.2442C59.7107 35.2442 59.559 35.2844 59.4317 35.3654C59.3045 35.4465 59.2066 35.5557 59.1374 35.6939C59.0688 35.832 59.0346 35.9885 59.0346 36.1633C59.0346 36.3381 59.0681 36.4889 59.1353 36.6278C59.2024 36.7659 59.2996 36.8759 59.4268 36.9563C59.5541 37.0373 59.7079 37.0775 59.8876 37.0775Z" fill="#7B867E"/>
<path d="M62.7744 35.2993V34.8694H64.4504V35.2993H62.7744ZM63.1226 37.4928V34.7361C63.1226 34.4366 63.2037 34.2153 63.3653 34.0715C63.5268 33.9277 63.7631 33.8565 64.0736 33.8565H64.4071V34.3161H64.0099C63.9023 34.3161 63.8177 34.3471 63.7575 34.4098C63.6967 34.4725 63.6666 34.5578 63.6666 34.6664V37.4921H63.1226V37.4928Z" fill="#7B867E"/>
<path d="M65.8272 37.5719C65.5168 37.5719 65.2783 37.4704 65.1119 37.2681C64.9455 37.0658 64.8623 36.7669 64.8623 36.3715V34.83H65.4357V36.4504C65.4357 36.6351 65.486 36.7803 65.5874 36.8875C65.6888 36.9946 65.8258 37.0482 65.9992 37.0482C66.1726 37.0482 66.3202 36.9911 66.4328 36.8776C66.5453 36.7641 66.602 36.6083 66.602 36.411V34.83H67.1753V37.4922H66.7194V36.356H66.7782C66.7782 36.6224 66.7432 36.8459 66.6726 37.0256C66.602 37.2053 66.4992 37.3407 66.3635 37.433C66.2279 37.5253 66.0573 37.5711 65.8517 37.5711H65.8272V37.5719Z" fill="#7B867E"/>
<path d="M67.6646 35.2598V34.8299H69.507V35.2598H67.6646ZM69.1098 37.5224C68.891 37.5224 68.7064 37.4928 68.5561 37.4335C68.4057 37.3743 68.2925 37.2721 68.2155 37.1276C68.1386 36.9832 68.1002 36.7865 68.1002 36.5398V34.0552H68.6442V36.5891C68.6442 36.7273 68.6812 36.8337 68.7546 36.9077C68.8281 36.9817 68.9315 37.0191 69.0658 37.0191H69.507V37.5231H69.1098V37.5224Z" fill="#7B867E"/>
<path d="M71.0352 37.5719C70.7248 37.5719 70.4863 37.4704 70.3199 37.2681C70.1535 37.0658 70.0703 36.7669 70.0703 36.3715V34.83H70.6437V36.4504C70.6437 36.6351 70.694 36.7803 70.7954 36.8875C70.8968 36.9946 71.0338 37.0482 71.2072 37.0482C71.3807 37.0482 71.5282 36.9911 71.6408 36.8776C71.7533 36.7641 71.81 36.6083 71.81 36.411V34.83H72.3833V37.4922H71.9274V36.356H71.9862C71.9862 36.6224 71.9512 36.8459 71.8806 37.0256C71.81 37.2053 71.7072 37.3407 71.5715 37.433C71.4359 37.5253 71.2653 37.5711 71.0597 37.5711H71.0352V37.5719Z" fill="#7B867E"/>
<path d="M73.2356 37.4927V34.8305H73.6915V35.942H73.6719C73.6719 35.56 73.7551 35.2746 73.9215 35.085C74.0879 34.8954 74.3347 34.8009 74.6613 34.8009H74.7543V35.3098H74.5781C74.3298 35.3098 74.1397 35.3768 74.0068 35.51C73.8747 35.6432 73.8082 35.8335 73.8082 36.0802V37.4927H73.2349H73.2356Z" fill="#7B867E"/>
<path d="M76.4799 37.5815C76.2478 37.5815 76.0436 37.5427 75.8674 37.4652C75.6912 37.3877 75.5423 37.2848 75.4213 37.1565C75.3003 37.0282 75.2087 36.8823 75.1472 36.7195C75.085 36.5567 75.0542 36.3875 75.0542 36.2134V36.1147C75.0542 35.9399 75.0864 35.7708 75.15 35.6058C75.2136 35.4409 75.3066 35.2936 75.429 35.1639C75.5513 35.0335 75.701 34.9313 75.8772 34.8552C76.0534 34.7798 76.2548 34.7417 76.4799 34.7417C76.7051 34.7417 76.905 34.7798 77.0798 34.8552C77.2547 34.9313 77.4043 35.0335 77.528 35.1639C77.6518 35.2943 77.7462 35.4416 77.8098 35.6058C77.8735 35.7701 77.9056 35.9399 77.9056 36.1147V36.2134C77.9056 36.3882 77.8742 36.5567 77.8126 36.7195C77.7504 36.8823 77.6588 37.0282 77.5385 37.1565C77.4183 37.2848 77.2693 37.3877 77.0924 37.4652C76.9162 37.5427 76.7121 37.5815 76.4799 37.5815ZM76.4799 37.0775C76.6596 37.0775 76.8127 37.0374 76.9407 36.9563C77.068 36.876 77.1652 36.766 77.2323 36.6279C77.2994 36.4897 77.333 36.3346 77.333 36.1634C77.333 35.9921 77.2987 35.8321 77.2302 35.6939C77.1617 35.5558 77.0638 35.4465 76.9358 35.3655C76.8085 35.2851 76.6568 35.2443 76.4799 35.2443C76.303 35.2443 76.1513 35.2844 76.024 35.3655C75.8968 35.4465 75.7989 35.5558 75.7296 35.6939C75.6611 35.8321 75.6269 35.9886 75.6269 36.1634C75.6269 36.3382 75.6604 36.489 75.7276 36.6279C75.7947 36.766 75.8919 36.876 76.0191 36.9563C76.1464 37.0374 76.3002 37.0775 76.4799 37.0775Z" fill="#7B867E"/>
<path d="M78.3955 37.4927V36.7963H79.0619V37.4927H78.3955Z" fill="#7B867E"/>
</g>
<defs>
<clipPath id="clip0_152_145">
<rect width="81" height="32" fill="white" transform="translate(8.10498 8)"/>
</clipPath>
</defs>
</svg>
