<svg width="1216" height="695" viewBox="0 0 1216 695" fill="none" xmlns="http://www.w3.org/2000/svg">
<rect width="1216" height="695" rx="12" fill="#F5F8F5"/>
<path d="M487 340.779C487 339.128 488.652 339.74 488.652 334.359V323.109C488.652 317.728 487 318.339 487 316.688C487 315.832 487.673 315.221 488.59 315.221C492.75 315.221 494.095 311.675 497.276 311.675C498.316 311.675 499.172 312.531 499.172 313.57C499.172 314.235 500.004 314.557 500.479 314.092C502.651 311.97 504.851 310.696 507.858 310.696C510.232 310.696 512.408 311.414 514.103 312.819C515.522 313.995 517.853 314.315 519.341 313.227C521.551 311.612 524.01 310.696 526.269 310.696C531.591 310.696 535.995 314.243 535.995 323.17V334.359C535.995 339.74 537.646 339.128 537.646 340.779C537.646 341.574 536.973 342.247 536.056 342.247H525.474C524.495 342.247 523.823 341.574 523.823 340.779C523.823 339.128 525.474 339.74 525.474 334.359V321.213C525.474 317.972 523.823 316.566 521.865 316.566C519.724 316.566 517.584 318.462 517.584 321.213V334.359C517.584 339.74 519.235 339.128 519.235 340.779C519.235 341.574 518.562 342.247 517.645 342.247H507.063C506.084 342.247 505.411 341.574 505.411 340.779C505.411 339.128 507.063 339.74 507.063 334.359V321.213C507.063 317.972 505.411 316.566 503.454 316.566C501.374 316.566 499.172 318.339 499.172 321.213V334.359C499.172 339.74 500.824 339.128 500.824 340.779C500.824 341.574 500.151 342.247 499.172 342.247H488.59C487.673 342.247 487 341.574 487 340.779Z" fill="#C31717"/>
<path d="M553.483 314.12C550.241 314.976 549.201 321.458 551.097 328.55C552.994 335.643 557.153 340.657 560.395 339.801C563.637 338.945 564.738 332.464 562.841 325.371C560.945 318.278 556.786 313.264 553.483 314.12ZM539.843 326.961C539.843 317.972 547.488 310.696 556.969 310.696C566.389 310.696 574.035 317.972 574.035 326.961C574.035 335.949 566.389 343.225 556.969 343.225C547.488 343.225 539.843 335.949 539.843 326.961Z" fill="#C31717"/>
<path d="M598.953 318.951C598.953 315.527 596.812 313.692 594.121 313.692C590.39 313.692 588.004 318.951 588.004 326.9C588.004 334.604 590.39 340.29 594.549 340.29C596.812 340.29 598.953 338.395 598.953 334.237V318.951ZM577.116 326.9C577.116 316.994 584.762 310.696 594.182 310.696C594.655 310.696 595.099 310.731 595.517 310.794C597.082 311.03 598.953 310.016 598.953 308.434C598.953 303.053 597.301 303.665 597.301 302.014C597.301 301.158 597.974 300.546 598.892 300.546C603.051 300.546 604.336 297 607.577 297C608.617 297 609.474 297.856 609.474 298.895V334.359C609.474 339.74 611.125 339.128 611.125 340.779C611.125 341.574 610.452 342.247 609.474 342.247H600.237C599.503 342.247 598.953 341.635 598.953 340.963C598.953 340.819 598.769 340.751 598.67 340.855C597.498 342.085 595.426 343.225 592.836 343.225C584.946 343.225 577.116 336.744 577.116 326.9Z" fill="#C31717"/>
<path d="M629.02 313.631C625.822 313.631 624.256 318.399 624.276 323.307C624.285 325.507 627.662 326.654 629.709 325.848C630.156 325.672 630.621 325.495 631.1 325.31C637.156 322.925 633.791 313.631 629.02 313.631ZM613.912 326.961C613.912 317.972 619.968 310.696 629.02 310.696C635.81 310.696 642.538 314.976 643.945 320.296C646.759 330.935 621.68 325.371 627.124 333.503C628.959 336.255 631.773 337.967 635.749 337.661C640.703 337.233 642.844 334.481 643.272 333.992C644.067 333.136 644.924 333.625 645.168 333.87C645.719 334.42 645.658 335.093 645.474 335.46C643.517 339.128 638.195 343.225 630.978 343.225C621.558 343.225 613.912 335.949 613.912 326.961Z" fill="#C31717"/>
<path d="M675.696 333.259C675.696 339.679 670.008 343.225 661.322 343.225C654.104 343.225 646.825 339.312 646.825 334.604C646.825 332.28 648.721 330.385 651.046 330.385C653.676 330.385 654.716 332.341 654.96 333.136C656 336.316 658.08 340.29 662.606 340.29C664.686 340.29 666.827 339.312 666.827 337.477C666.827 331.363 648.171 329.896 648.171 319.195C648.171 312.164 655.511 310.696 660.343 310.696C661.472 310.696 662.823 310.845 664.225 311.125C666.32 311.545 668.623 309.589 668.766 307.457C669.17 301.44 673.132 297 678.938 297C683.22 297 690.804 299.813 690.804 308.495V309.127C690.804 310.534 691.945 311.675 693.353 311.675H694.597C695.392 311.675 696.065 312.347 696.065 313.142C696.065 313.998 695.392 314.61 694.597 314.61H693.353C691.945 314.61 690.804 315.75 690.804 317.157V333.503C690.804 337.111 692.15 338.211 693.435 338.211C694.413 338.211 695.025 337.783 695.575 337.783C696.432 337.783 697.105 338.517 697.105 339.373C697.105 339.801 696.921 340.229 696.615 340.474C695.025 342.002 692.028 343.225 689.459 343.225C684.749 343.225 680.284 340.29 680.284 333.564V317.055C680.284 315.705 679.188 314.61 677.837 314.61C676.981 314.61 676.308 313.998 676.308 313.142C676.308 312.347 676.981 311.736 677.837 311.675L679.244 311.613C683.036 311.185 684.749 308.251 684.749 305.56C684.749 302.258 682.057 299.935 678.938 299.935C672.944 299.935 670.191 306.172 672.944 314.793C673.188 315.527 673.311 316.322 673.311 317.116C673.311 318.951 671.843 320.418 670.008 320.418C668.845 320.418 667.683 319.807 667.194 318.828C665.787 316.016 664.258 313.631 660.588 313.631C658.814 313.631 656.795 314.243 656.795 316.26C656.795 321.519 675.696 323.047 675.696 333.259Z" fill="#C31717"/>
<path d="M728.532 337.477C729.388 337.294 730 337.783 730 338.7C730 340.412 726.88 342.247 723.272 342.247C719.663 342.247 716.727 340.107 716.727 336.316V327.454C716.727 325.734 714.317 324.653 712.934 325.677C709.876 327.817 708.836 330.752 708.836 333.381C708.775 336.927 710.671 339.984 713.363 338.089C713.974 337.661 714.769 338.028 714.769 338.761C714.769 339.067 714.708 339.373 714.525 339.617C713.118 341.574 710.671 343.225 706.634 343.225C701.68 343.225 698.315 339.862 698.315 334.909C698.315 329.101 704.493 325.982 708.897 323.965C713.24 322.008 715.809 319.868 715.809 316.872C715.809 315.099 714.341 313.631 711.956 313.631C708.653 313.631 707.001 315.71 707.001 318.523C707.001 320.846 705.35 321.458 703.821 321.458C702.353 321.458 700.762 320.418 700.762 318.4C700.762 314.854 705.35 310.696 711.956 310.696C721.192 310.696 727.247 316.26 727.247 324.331V335.827C727.247 336.927 727.492 337.661 728.532 337.477Z" fill="#C31717"/>
<path d="M529.052 395.554C529.052 393.903 530.704 394.515 530.704 389.134V377.884C530.704 372.503 529.052 373.114 529.052 371.463C529.052 370.607 529.725 369.996 530.643 369.996C534.802 369.996 536.148 366.45 539.328 366.45C540.368 366.45 541.225 367.306 541.225 368.345C541.225 369.01 542.056 369.332 542.532 368.867C544.703 366.745 546.903 365.471 549.91 365.471C552.285 365.471 554.461 366.189 556.155 367.594C557.574 368.77 559.906 369.09 561.394 368.002C563.603 366.387 566.063 365.471 568.322 365.471C573.643 365.471 578.047 369.018 578.047 377.945V389.134C578.047 394.515 579.699 393.903 579.699 395.554C579.699 396.349 579.026 397.022 578.108 397.022H567.526C566.548 397.022 565.875 396.349 565.875 395.554C565.875 393.903 567.526 394.515 567.526 389.134V375.988C567.526 372.747 565.875 371.341 563.918 371.341C561.777 371.341 559.636 373.237 559.636 375.988V389.134C559.636 394.515 561.287 393.903 561.287 395.554C561.287 396.349 560.615 397.022 559.697 397.022H549.115C548.136 397.022 547.464 396.349 547.464 395.554C547.464 393.903 549.115 394.515 549.115 389.134V375.988C549.115 372.747 547.464 371.341 545.506 371.341C543.427 371.341 541.225 373.114 541.225 375.988V389.134C541.225 394.515 542.876 393.903 542.876 395.554C542.876 396.349 542.203 397.022 541.225 397.022H530.643C529.725 397.022 529.052 396.349 529.052 395.554Z" fill="#C31717"/>
<path d="M595.535 368.895C592.293 369.751 591.254 376.233 593.15 383.325C595.046 390.418 599.205 395.432 602.447 394.576C605.689 393.72 606.79 387.239 604.894 380.146C602.998 373.053 598.838 368.039 595.535 368.895ZM581.895 381.736C581.895 372.747 589.541 365.471 599.022 365.471C608.441 365.471 616.087 372.747 616.087 381.736C616.087 390.724 608.441 398 599.022 398C589.541 398 581.895 390.724 581.895 381.736Z" fill="#C31717"/>
<path d="M641.005 373.726C641.005 370.302 638.864 368.467 636.173 368.467C632.442 368.467 630.056 373.726 630.056 381.675C630.056 389.379 632.442 395.065 636.601 395.065C638.864 395.065 641.005 393.17 641.005 389.012V373.726ZM619.169 381.675C619.169 371.769 626.815 365.471 636.234 365.471C636.707 365.471 637.152 365.506 637.57 365.569C639.135 365.805 641.005 364.791 641.005 363.209C641.005 357.828 639.354 358.44 639.354 356.789C639.354 355.933 640.027 355.321 640.944 355.321C645.103 355.321 646.388 351.775 649.63 351.775C650.67 351.775 651.526 352.631 651.526 353.67V389.134C651.526 394.515 653.178 393.903 653.178 395.554C653.178 396.349 652.505 397.022 651.526 397.022H642.29C641.556 397.022 641.005 396.41 641.005 395.738C641.005 395.594 640.821 395.526 640.722 395.63C639.55 396.86 637.479 398 634.889 398C626.998 398 619.169 391.519 619.169 381.675Z" fill="#C31717"/>
<path d="M686.181 392.252C687.037 392.069 687.649 392.558 687.649 393.475C687.649 395.187 684.529 397.022 680.921 397.022C677.312 397.022 674.376 394.882 674.376 391.091V382.229C674.376 380.509 671.966 379.428 670.583 380.452C667.525 382.592 666.485 385.527 666.485 388.156C666.424 391.702 668.32 394.759 671.012 392.864C671.623 392.436 672.418 392.803 672.418 393.536C672.418 393.842 672.357 394.148 672.174 394.392C670.767 396.349 668.32 398 664.283 398C659.329 398 655.964 394.637 655.964 389.684C655.964 383.876 662.142 380.757 666.546 378.74C670.889 376.783 673.458 374.643 673.458 371.647C673.458 369.874 671.99 368.406 669.605 368.406C666.302 368.406 664.65 370.485 664.65 373.298C664.65 375.621 662.999 376.233 661.469 376.233C660.001 376.233 658.411 375.193 658.411 373.175C658.411 369.629 662.999 365.471 669.605 365.471C678.841 365.471 684.896 371.035 684.896 379.106V390.602C684.896 391.702 685.141 392.436 686.181 392.252Z" fill="#C31717"/>
</svg>
