<svg width="592" height="695" viewBox="0 0 592 695" fill="none" xmlns="http://www.w3.org/2000/svg">
<rect width="592" height="695" rx="12" fill="#F5F8F5"/>
<path d="M50.02 64.22C48.9933 64.22 48.0333 64.0333 47.14 63.66C46.26 63.2867 45.4867 62.7733 44.82 62.12C44.1667 61.4533 43.6533 60.68 43.28 59.8C42.9067 58.9067 42.72 57.9533 42.72 56.94C42.72 55.9267 42.9 54.9867 43.26 54.12C43.6333 53.24 44.1467 52.4733 44.8 51.82C45.4667 51.1533 46.24 50.64 47.12 50.28C48 49.9067 48.9533 49.72 49.98 49.72C51.02 49.72 51.98 49.9067 52.86 50.28C53.74 50.64 54.5067 51.1533 55.16 51.82C55.8267 52.4733 56.3467 53.24 56.72 54.12C57.0933 55 57.28 55.9467 57.28 56.96C57.28 57.9733 57.0933 58.92 56.72 59.8C56.3467 60.68 55.8267 61.4533 55.16 62.12C54.5067 62.7733 53.74 63.2867 52.86 63.66C51.9933 64.0333 51.0467 64.22 50.02 64.22ZM49.98 61.68C50.8867 61.68 51.6733 61.48 52.34 61.08C53.0067 60.68 53.5267 60.1267 53.9 59.42C54.2867 58.7133 54.48 57.8867 54.48 56.94C54.48 56.2467 54.3733 55.6133 54.16 55.04C53.9467 54.4667 53.64 53.9733 53.24 53.56C52.84 53.1333 52.3667 52.8067 51.82 52.58C51.2733 52.3533 50.66 52.24 49.98 52.24C49.1 52.24 48.32 52.44 47.64 52.84C46.9733 53.2267 46.4467 53.7733 46.06 54.48C45.6867 55.1867 45.5 56.0067 45.5 56.94C45.5 57.6467 45.6067 58.2933 45.82 58.88C46.0467 59.4667 46.3533 59.9667 46.74 60.38C47.14 60.7933 47.6133 61.1133 48.16 61.34C48.72 61.5667 49.3267 61.68 49.98 61.68ZM60.4361 64V53.72C60.4361 52.9067 60.6028 52.1867 60.9361 51.56C61.2828 50.9333 61.7694 50.44 62.3961 50.08C63.0361 49.7067 63.7828 49.52 64.6361 49.52C65.4894 49.52 66.1894 49.7 66.7361 50.06C67.2961 50.42 67.7094 50.9 67.9761 51.5C68.2561 52.0867 68.3961 52.74 68.3961 53.46L66.4161 53.62C66.4161 53.06 66.2694 52.6267 65.9761 52.32C65.6961 52 65.2828 51.84 64.7361 51.84C64.1894 51.84 63.7694 51.9933 63.4761 52.3C63.1961 52.6067 63.0561 53.0267 63.0561 53.56V64H60.4361ZM58.1961 56.64V54.34H71.8961V56.64H58.1961ZM66.4161 64V53.3C66.4161 52.54 66.5828 51.86 66.9161 51.26C67.2494 50.66 67.7228 50.1867 68.3361 49.84C68.9494 49.4933 69.6694 49.32 70.4961 49.32C71.1228 49.32 71.6628 49.4267 72.1161 49.64C72.5694 49.8533 72.9761 50.1467 73.3361 50.52L71.6761 52.2C71.5294 52.0533 71.3694 51.94 71.1961 51.86C71.0228 51.78 70.8028 51.74 70.5361 51.74C70.0561 51.74 69.6828 51.8733 69.4161 52.14C69.1628 52.3933 69.0361 52.76 69.0361 53.24V64H66.4161ZM73.5116 64V54.34H76.1516V64H73.5116ZM74.8316 52.78C74.4049 52.78 74.0516 52.64 73.7716 52.36C73.4916 52.0667 73.3516 51.7067 73.3516 51.28C73.3516 50.8667 73.4916 50.5133 73.7716 50.22C74.0516 49.9267 74.4049 49.78 74.8316 49.78C75.2716 49.78 75.6249 49.9267 75.8916 50.22C76.1716 50.5133 76.3116 50.8667 76.3116 51.28C76.3116 51.7067 76.1716 52.0667 75.8916 52.36C75.6249 52.64 75.2716 52.78 74.8316 52.78ZM83.0325 64.2C82.0458 64.2 81.1592 63.98 80.3725 63.54C79.5858 63.1 78.9658 62.5 78.5125 61.74C78.0592 60.98 77.8325 60.1267 77.8325 59.18C77.8325 58.22 78.0592 57.36 78.5125 56.6C78.9658 55.84 79.5858 55.24 80.3725 54.8C81.1725 54.3467 82.0592 54.12 83.0325 54.12C83.7925 54.12 84.4925 54.26 85.1325 54.54C85.7725 54.82 86.3258 55.22 86.7925 55.74L85.1125 57.44C84.8592 57.16 84.5525 56.9467 84.1925 56.8C83.8458 56.6533 83.4592 56.58 83.0325 56.58C82.5525 56.58 82.1192 56.6933 81.7325 56.92C81.3592 57.1333 81.0592 57.4333 80.8325 57.82C80.6192 58.1933 80.5125 58.64 80.5125 59.16C80.5125 59.6667 80.6192 60.12 80.8325 60.52C81.0592 60.9067 81.3592 61.2133 81.7325 61.44C82.1192 61.6533 82.5525 61.76 83.0325 61.76C83.4725 61.76 83.8658 61.6867 84.2125 61.54C84.5725 61.38 84.8792 61.1533 85.1325 60.86L86.8325 62.56C86.3392 63.0933 85.7725 63.5 85.1325 63.78C84.4925 64.06 83.7925 64.2 83.0325 64.2ZM88.3163 64V54.34H90.9563V64H88.3163ZM89.6363 52.78C89.2096 52.78 88.8563 52.64 88.5763 52.36C88.2963 52.0667 88.1563 51.7067 88.1563 51.28C88.1563 50.8667 88.2963 50.5133 88.5763 50.22C88.8563 49.9267 89.2096 49.78 89.6363 49.78C90.0763 49.78 90.4296 49.9267 90.6963 50.22C90.9763 50.5133 91.1163 50.8667 91.1163 51.28C91.1163 51.7067 90.9763 52.0667 90.6963 52.36C90.4296 52.64 90.0763 52.78 89.6363 52.78ZM97.3172 64.2C96.4372 64.2 95.6439 63.98 94.9372 63.54C94.2305 63.1 93.6772 62.5 93.2772 61.74C92.8772 60.98 92.6772 60.1267 92.6772 59.18C92.6772 58.22 92.8772 57.36 93.2772 56.6C93.6772 55.84 94.2305 55.24 94.9372 54.8C95.6439 54.36 96.4372 54.14 97.3172 54.14C98.0105 54.14 98.6305 54.28 99.1772 54.56C99.7239 54.84 100.157 55.2333 100.477 55.74C100.811 56.2333 100.991 56.7933 101.017 57.42V60.9C100.991 61.54 100.811 62.1067 100.477 62.6C100.157 63.0933 99.7239 63.4867 99.1772 63.78C98.6305 64.06 98.0105 64.2 97.3172 64.2ZM97.7972 61.78C98.5305 61.78 99.1239 61.54 99.5772 61.06C100.031 60.5667 100.257 59.9333 100.257 59.16C100.257 58.6533 100.151 58.2067 99.9372 57.82C99.7372 57.42 99.4505 57.1133 99.0772 56.9C98.7172 56.6733 98.2905 56.56 97.7972 56.56C97.3172 56.56 96.8905 56.6733 96.5172 56.9C96.1572 57.1133 95.8705 57.42 95.6572 57.82C95.4572 58.2067 95.3572 58.6533 95.3572 59.16C95.3572 59.68 95.4572 60.14 95.6572 60.54C95.8705 60.9267 96.1572 61.2333 96.5172 61.46C96.8905 61.6733 97.3172 61.78 97.7972 61.78ZM100.117 64V61.4L100.537 59.04L100.117 56.72V54.34H102.717V64H100.117ZM105.035 64V49.54H107.655V64H105.035ZM119.243 64.2C118.549 64.2 117.923 64.0533 117.363 63.76C116.803 63.4667 116.356 63.0667 116.023 62.56C115.689 62.0533 115.509 61.4867 115.483 60.86V57.42C115.509 56.7933 115.689 56.2333 116.023 55.74C116.369 55.2333 116.823 54.84 117.383 54.56C117.943 54.28 118.563 54.14 119.243 54.14C120.136 54.14 120.936 54.36 121.643 54.8C122.349 55.24 122.903 55.84 123.303 56.6C123.716 57.36 123.923 58.22 123.923 59.18C123.923 60.1267 123.716 60.98 123.303 61.74C122.903 62.5 122.349 63.1 121.643 63.54C120.936 63.98 120.136 64.2 119.243 64.2ZM113.883 64V49.54H116.503V56.72L116.063 59.04L116.483 61.4V64H113.883ZM118.803 61.78C119.283 61.78 119.703 61.6733 120.063 61.46C120.436 61.2333 120.723 60.9267 120.923 60.54C121.136 60.14 121.243 59.68 121.243 59.16C121.243 58.6533 121.136 58.2067 120.923 57.82C120.723 57.42 120.436 57.1133 120.063 56.9C119.689 56.6733 119.263 56.56 118.783 56.56C118.303 56.56 117.876 56.6733 117.503 56.9C117.143 57.1133 116.856 57.42 116.643 57.82C116.443 58.2067 116.343 58.6533 116.343 59.16C116.343 59.68 116.443 60.14 116.643 60.54C116.856 60.9267 117.149 61.2333 117.523 61.46C117.896 61.6733 118.323 61.78 118.803 61.78ZM125.64 64V54.34H128.26V64H125.64ZM128.26 58.66L127.24 57.98C127.36 56.7933 127.707 55.86 128.28 55.18C128.854 54.4867 129.68 54.14 130.76 54.14C131.227 54.14 131.647 54.22 132.02 54.38C132.394 54.5267 132.734 54.7733 133.04 55.12L131.4 57C131.254 56.84 131.074 56.72 130.86 56.64C130.66 56.56 130.427 56.52 130.16 56.52C129.6 56.52 129.14 56.7 128.78 57.06C128.434 57.4067 128.26 57.94 128.26 58.66ZM137.727 64.2C136.847 64.2 136.054 63.98 135.347 63.54C134.641 63.1 134.087 62.5 133.687 61.74C133.287 60.98 133.087 60.1267 133.087 59.18C133.087 58.22 133.287 57.36 133.687 56.6C134.087 55.84 134.641 55.24 135.347 54.8C136.054 54.36 136.847 54.14 137.727 54.14C138.421 54.14 139.041 54.28 139.587 54.56C140.134 54.84 140.567 55.2333 140.887 55.74C141.221 56.2333 141.401 56.7933 141.427 57.42V60.9C141.401 61.54 141.221 62.1067 140.887 62.6C140.567 63.0933 140.134 63.4867 139.587 63.78C139.041 64.06 138.421 64.2 137.727 64.2ZM138.207 61.78C138.941 61.78 139.534 61.54 139.987 61.06C140.441 60.5667 140.667 59.9333 140.667 59.16C140.667 58.6533 140.561 58.2067 140.347 57.82C140.147 57.42 139.861 57.1133 139.487 56.9C139.127 56.6733 138.701 56.56 138.207 56.56C137.727 56.56 137.301 56.6733 136.927 56.9C136.567 57.1133 136.281 57.42 136.067 57.82C135.867 58.2067 135.767 58.6533 135.767 59.16C135.767 59.68 135.867 60.14 136.067 60.54C136.281 60.9267 136.567 61.2333 136.927 61.46C137.301 61.6733 137.727 61.78 138.207 61.78ZM140.527 64V61.4L140.947 59.04L140.527 56.72V54.34H143.127V64H140.527ZM151.945 64V58.46C151.945 57.8867 151.765 57.42 151.405 57.06C151.045 56.7 150.578 56.52 150.005 56.52C149.632 56.52 149.298 56.6 149.005 56.76C148.712 56.92 148.478 57.1467 148.305 57.44C148.145 57.7333 148.065 58.0733 148.065 58.46L147.045 57.94C147.045 57.18 147.205 56.52 147.525 55.96C147.858 55.3867 148.312 54.94 148.885 54.62C149.472 54.3 150.132 54.14 150.865 54.14C151.572 54.14 152.205 54.32 152.765 54.68C153.325 55.0267 153.765 55.4867 154.085 56.06C154.405 56.62 154.565 57.2267 154.565 57.88V64H151.945ZM145.445 64V54.34H148.065V64H145.445ZM160.756 64.2C159.862 64.2 159.062 63.98 158.356 63.54C157.649 63.1 157.089 62.5 156.676 61.74C156.276 60.98 156.076 60.1267 156.076 59.18C156.076 58.22 156.276 57.36 156.676 56.6C157.089 55.84 157.642 55.24 158.336 54.8C159.042 54.36 159.849 54.14 160.756 54.14C161.449 54.14 162.069 54.28 162.616 54.56C163.176 54.84 163.622 55.2333 163.956 55.74C164.302 56.2333 164.489 56.7933 164.516 57.42V60.86C164.489 61.4867 164.309 62.0533 163.976 62.56C163.642 63.0667 163.196 63.4667 162.636 63.76C162.076 64.0533 161.449 64.2 160.756 64.2ZM161.196 61.78C161.689 61.78 162.116 61.6733 162.476 61.46C162.849 61.2333 163.136 60.9267 163.336 60.54C163.549 60.14 163.656 59.68 163.656 59.16C163.656 58.6533 163.549 58.2067 163.336 57.82C163.136 57.42 162.849 57.1133 162.476 56.9C162.116 56.6733 161.696 56.56 161.216 56.56C160.722 56.56 160.289 56.6733 159.916 56.9C159.556 57.1267 159.269 57.4333 159.056 57.82C158.856 58.2067 158.756 58.6533 158.756 59.16C158.756 59.68 158.856 60.14 159.056 60.54C159.269 60.9267 159.562 61.2333 159.936 61.46C160.309 61.6733 160.729 61.78 161.196 61.78ZM166.116 64H163.516V61.4L163.936 59.04L163.496 56.72V49.54H166.116V64ZM173.76 64V50.32H176.38V64H173.76ZM171.5 56.64V54.34H178.64V56.64H171.5ZM183.153 64.08L179.113 54.34H181.953L184.633 61.78H183.673L186.453 54.34H189.313L185.013 64.08H183.153ZM180.473 68.04L183.413 61.82L185.013 64.08L183.253 68.04H180.473ZM195.766 64.2C195.073 64.2 194.446 64.06 193.886 63.78C193.326 63.4867 192.879 63.0933 192.546 62.6C192.213 62.1067 192.033 61.54 192.006 60.9V57.48C192.033 56.84 192.213 56.2733 192.546 55.78C192.893 55.2733 193.339 54.8733 193.886 54.58C194.446 54.2867 195.073 54.14 195.766 54.14C196.659 54.14 197.459 54.36 198.166 54.8C198.873 55.24 199.426 55.84 199.826 56.6C200.239 57.36 200.446 58.22 200.446 59.18C200.446 60.1267 200.239 60.98 199.826 61.74C199.426 62.5 198.873 63.1 198.166 63.54C197.459 63.98 196.659 64.2 195.766 64.2ZM190.406 68.04V54.34H193.026V56.88L192.586 59.22L193.006 61.56V68.04H190.406ZM195.306 61.78C195.786 61.78 196.213 61.6733 196.586 61.46C196.959 61.2333 197.246 60.9267 197.446 60.54C197.659 60.14 197.766 59.68 197.766 59.16C197.766 58.6533 197.659 58.2067 197.446 57.82C197.246 57.42 196.959 57.1133 196.586 56.9C196.213 56.6733 195.786 56.56 195.306 56.56C194.839 56.56 194.419 56.6733 194.046 56.9C193.673 57.1133 193.379 57.42 193.166 57.82C192.966 58.2067 192.866 58.6533 192.866 59.16C192.866 59.68 192.966 60.14 193.166 60.54C193.379 60.9267 193.666 61.2333 194.026 61.46C194.399 61.6733 194.826 61.78 195.306 61.78ZM206.704 64.2C205.731 64.2 204.851 63.98 204.064 63.54C203.291 63.0867 202.671 62.48 202.204 61.72C201.751 60.9467 201.524 60.0867 201.524 59.14C201.524 58.1933 201.751 57.3467 202.204 56.6C202.657 55.84 203.277 55.24 204.064 54.8C204.851 54.3467 205.724 54.12 206.684 54.12C207.671 54.12 208.551 54.3467 209.324 54.8C210.111 55.24 210.731 55.84 211.184 56.6C211.637 57.3467 211.864 58.1933 211.864 59.14C211.864 60.0867 211.637 60.9467 211.184 61.72C210.731 62.48 210.111 63.0867 209.324 63.54C208.551 63.98 207.677 64.2 206.704 64.2ZM206.684 61.76C207.177 61.76 207.611 61.6533 207.984 61.44C208.371 61.2133 208.664 60.9067 208.864 60.52C209.077 60.12 209.184 59.6667 209.184 59.16C209.184 58.6533 209.077 58.2067 208.864 57.82C208.651 57.4333 208.357 57.1333 207.984 56.92C207.611 56.6933 207.177 56.58 206.684 56.58C206.204 56.58 205.777 56.6933 205.404 56.92C205.031 57.1333 204.737 57.4333 204.524 57.82C204.311 58.2067 204.204 58.6533 204.204 59.16C204.204 59.6667 204.311 60.12 204.524 60.52C204.737 60.9067 205.031 61.2133 205.404 61.44C205.777 61.6533 206.204 61.76 206.684 61.76ZM217.591 68.28C216.564 68.28 215.657 68.0933 214.871 67.72C214.084 67.36 213.457 66.8467 212.991 66.18L214.651 64.52C215.024 64.96 215.437 65.2933 215.891 65.52C216.357 65.76 216.917 65.88 217.571 65.88C218.384 65.88 219.024 65.6733 219.491 65.26C219.971 64.8467 220.211 64.2733 220.211 63.54V61.12L220.651 59L220.231 56.88V54.34H222.831V63.5C222.831 64.46 222.604 65.2933 222.151 66C221.711 66.72 221.097 67.28 220.311 67.68C219.524 68.08 218.617 68.28 217.591 68.28ZM217.471 63.74C216.604 63.74 215.824 63.5333 215.131 63.12C214.437 62.6933 213.891 62.1133 213.491 61.38C213.104 60.6467 212.911 59.8267 212.911 58.92C212.911 58.0133 213.104 57.2 213.491 56.48C213.891 55.76 214.437 55.1933 215.131 54.78C215.824 54.3533 216.604 54.14 217.471 54.14C218.191 54.14 218.824 54.28 219.371 54.56C219.931 54.84 220.371 55.2267 220.691 55.72C221.011 56.2 221.184 56.7667 221.211 57.42V60.46C221.184 61.1 221.004 61.6733 220.671 62.18C220.351 62.6733 219.911 63.06 219.351 63.34C218.804 63.6067 218.177 63.74 217.471 63.74ZM217.991 61.36C218.471 61.36 218.884 61.26 219.231 61.06C219.591 60.8467 219.871 60.56 220.071 60.2C220.271 59.8267 220.371 59.4067 220.371 58.94C220.371 58.46 220.271 58.04 220.071 57.68C219.871 57.32 219.591 57.04 219.231 56.84C218.884 56.6267 218.471 56.52 217.991 56.52C217.511 56.52 217.091 56.6267 216.731 56.84C216.371 57.04 216.091 57.3267 215.891 57.7C215.691 58.06 215.591 58.4733 215.591 58.94C215.591 59.3933 215.691 59.8067 215.891 60.18C216.091 60.54 216.371 60.8267 216.731 61.04C217.091 61.2533 217.511 61.36 217.991 61.36ZM225.133 64V54.34H227.753V64H225.133ZM227.753 58.66L226.733 57.98C226.853 56.7933 227.199 55.86 227.773 55.18C228.346 54.4867 229.173 54.14 230.253 54.14C230.719 54.14 231.139 54.22 231.513 54.38C231.886 54.5267 232.226 54.7733 232.533 55.12L230.893 57C230.746 56.84 230.566 56.72 230.353 56.64C230.153 56.56 229.919 56.52 229.653 56.52C229.093 56.52 228.633 56.7 228.273 57.06C227.926 57.4067 227.753 57.94 227.753 58.66ZM237.22 64.2C236.34 64.2 235.546 63.98 234.84 63.54C234.133 63.1 233.58 62.5 233.18 61.74C232.78 60.98 232.58 60.1267 232.58 59.18C232.58 58.22 232.78 57.36 233.18 56.6C233.58 55.84 234.133 55.24 234.84 54.8C235.546 54.36 236.34 54.14 237.22 54.14C237.913 54.14 238.533 54.28 239.08 54.56C239.626 54.84 240.06 55.2333 240.38 55.74C240.713 56.2333 240.893 56.7933 240.92 57.42V60.9C240.893 61.54 240.713 62.1067 240.38 62.6C240.06 63.0933 239.626 63.4867 239.08 63.78C238.533 64.06 237.913 64.2 237.22 64.2ZM237.7 61.78C238.433 61.78 239.026 61.54 239.48 61.06C239.933 60.5667 240.16 59.9333 240.16 59.16C240.16 58.6533 240.053 58.2067 239.84 57.82C239.64 57.42 239.353 57.1133 238.98 56.9C238.62 56.6733 238.193 56.56 237.7 56.56C237.22 56.56 236.793 56.6733 236.42 56.9C236.06 57.1133 235.773 57.42 235.56 57.82C235.36 58.2067 235.26 58.6533 235.26 59.16C235.26 59.68 235.36 60.14 235.56 60.54C235.773 60.9267 236.06 61.2333 236.42 61.46C236.793 61.6733 237.22 61.78 237.7 61.78ZM240.02 64V61.4L240.44 59.04L240.02 56.72V54.34H242.62V64H240.02ZM250.297 64.2C249.604 64.2 248.977 64.06 248.417 63.78C247.857 63.4867 247.411 63.0933 247.077 62.6C246.744 62.1067 246.564 61.54 246.537 60.9V57.48C246.564 56.84 246.744 56.2733 247.077 55.78C247.424 55.2733 247.871 54.8733 248.417 54.58C248.977 54.2867 249.604 54.14 250.297 54.14C251.191 54.14 251.991 54.36 252.697 54.8C253.404 55.24 253.957 55.84 254.357 56.6C254.771 57.36 254.977 58.22 254.977 59.18C254.977 60.1267 254.771 60.98 254.357 61.74C253.957 62.5 253.404 63.1 252.697 63.54C251.991 63.98 251.191 64.2 250.297 64.2ZM244.937 68.04V54.34H247.557V56.88L247.117 59.22L247.537 61.56V68.04H244.937ZM249.837 61.78C250.317 61.78 250.744 61.6733 251.117 61.46C251.491 61.2333 251.777 60.9267 251.977 60.54C252.191 60.14 252.297 59.68 252.297 59.16C252.297 58.6533 252.191 58.2067 251.977 57.82C251.777 57.42 251.491 57.1133 251.117 56.9C250.744 56.6733 250.317 56.56 249.837 56.56C249.371 56.56 248.951 56.6733 248.577 56.9C248.204 57.1133 247.911 57.42 247.697 57.82C247.497 58.2067 247.397 58.6533 247.397 59.16C247.397 59.68 247.497 60.14 247.697 60.54C247.911 60.9267 248.197 61.2333 248.557 61.46C248.931 61.6733 249.357 61.78 249.837 61.78ZM263.195 64V58.46C263.195 57.8867 263.015 57.42 262.655 57.06C262.295 56.7 261.828 56.52 261.255 56.52C260.882 56.52 260.548 56.6 260.255 56.76C259.962 56.92 259.728 57.1467 259.555 57.44C259.395 57.7333 259.315 58.0733 259.315 58.46L258.295 57.94C258.295 57.18 258.455 56.52 258.775 55.96C259.095 55.3867 259.535 54.94 260.095 54.62C260.668 54.3 261.322 54.14 262.055 54.14C262.788 54.14 263.435 54.3 263.995 54.62C264.568 54.94 265.015 55.38 265.335 55.94C265.655 56.5 265.815 57.1467 265.815 57.88V64H263.195ZM256.695 64V49.54H259.315V64H256.695ZM270.966 64.08L266.926 54.34H269.766L272.446 61.78H271.486L274.266 54.34H277.126L272.826 64.08H270.966ZM268.286 68.04L271.226 61.82L272.826 64.08L271.066 68.04H268.286Z" fill="#4C554E"/>
<path d="M53.3139 481H43.4276L58.4915 437.364H70.3807L85.4233 481H75.5369L64.6065 447.335H64.2656L53.3139 481ZM52.696 463.848H76.0483V471.05H52.696V463.848ZM99.8374 481.618C97.7493 481.618 95.8885 481.256 94.255 480.531C92.6214 479.793 91.3288 478.706 90.3771 477.271C89.4396 475.822 88.9709 474.018 88.9709 471.859C88.9709 470.041 89.3047 468.514 89.9723 467.278C90.6399 466.043 91.549 465.048 92.6996 464.295C93.8501 463.543 95.157 462.974 96.62 462.591C98.0973 462.207 99.6456 461.938 101.265 461.781C103.168 461.582 104.702 461.398 105.867 461.227C107.032 461.043 107.877 460.773 108.403 460.418C108.928 460.062 109.191 459.537 109.191 458.841V458.713C109.191 457.364 108.765 456.32 107.913 455.581C107.075 454.842 105.881 454.473 104.333 454.473C102.7 454.473 101.4 454.835 100.434 455.56C99.468 456.27 98.8288 457.165 98.5163 458.244L90.1214 457.562C90.5476 455.574 91.3857 453.855 92.6357 452.406C93.8857 450.943 95.4979 449.821 97.4723 449.04C99.4609 448.244 101.762 447.847 104.376 447.847C106.194 447.847 107.934 448.06 109.596 448.486C111.272 448.912 112.756 449.572 114.049 450.467C115.356 451.362 116.386 452.513 117.138 453.919C117.891 455.311 118.268 456.98 118.268 458.926V481H109.66V476.462H109.404C108.879 477.484 108.175 478.386 107.295 479.168C106.414 479.935 105.356 480.538 104.12 480.979C102.884 481.405 101.457 481.618 99.8374 481.618ZM102.437 475.354C103.772 475.354 104.951 475.091 105.974 474.565C106.996 474.026 107.799 473.301 108.381 472.392C108.964 471.483 109.255 470.453 109.255 469.303V465.83C108.971 466.014 108.58 466.185 108.083 466.341C107.6 466.483 107.053 466.618 106.442 466.746C105.832 466.859 105.221 466.966 104.61 467.065C103.999 467.151 103.445 467.229 102.948 467.3C101.883 467.456 100.952 467.705 100.157 468.045C99.3615 468.386 98.7436 468.848 98.3033 469.43C97.8629 469.999 97.6428 470.709 97.6428 471.561C97.6428 472.797 98.0902 473.741 98.9851 474.395C99.8942 475.034 101.045 475.354 102.437 475.354Z" fill="#1F2226"/>
<path d="M46.5256 536H42.571L48.5966 518.545H53.3523L59.3693 536H55.4148L51.0426 522.534H50.9062L46.5256 536ZM46.2784 529.139H55.6193V532.02H46.2784V529.139ZM61.4702 536V518.545H68.4588C69.7429 518.545 70.8139 518.736 71.6719 519.116C72.5298 519.497 73.1747 520.026 73.6065 520.702C74.0384 521.372 74.2543 522.145 74.2543 523.02C74.2543 523.702 74.1179 524.301 73.8452 524.818C73.5724 525.33 73.1974 525.75 72.7202 526.08C72.2486 526.403 71.7088 526.634 71.1009 526.77V526.94C71.7656 526.969 72.3878 527.156 72.9673 527.503C73.5526 527.849 74.027 528.335 74.3906 528.96C74.7543 529.58 74.9361 530.318 74.9361 531.176C74.9361 532.102 74.706 532.929 74.2457 533.656C73.7912 534.378 73.1179 534.949 72.2259 535.369C71.3338 535.79 70.2344 536 68.9276 536H61.4702ZM65.1605 532.983H68.169C69.1974 532.983 69.9474 532.787 70.419 532.395C70.8906 531.997 71.1264 531.469 71.1264 530.81C71.1264 530.327 71.0099 529.901 70.777 529.531C70.544 529.162 70.2116 528.872 69.7798 528.662C69.3537 528.452 68.8452 528.347 68.2543 528.347H65.1605V532.983ZM65.1605 525.849H67.8963C68.402 525.849 68.8509 525.761 69.2429 525.585C69.6406 525.403 69.9531 525.148 70.1804 524.818C70.4134 524.489 70.5298 524.094 70.5298 523.634C70.5298 523.003 70.3054 522.494 69.8565 522.108C69.4134 521.722 68.7827 521.528 67.9645 521.528H65.1605V525.849ZM92.7379 524.656H89.005C88.9368 524.173 88.7976 523.744 88.5874 523.369C88.3771 522.989 88.1072 522.665 87.7777 522.398C87.4482 522.131 87.0675 521.926 86.6357 521.784C86.2095 521.642 85.7464 521.571 85.2464 521.571C84.343 521.571 83.5561 521.795 82.8857 522.244C82.2152 522.687 81.6953 523.335 81.326 524.188C80.9567 525.034 80.772 526.062 80.772 527.273C80.772 528.517 80.9567 529.562 81.326 530.409C81.701 531.256 82.2237 531.895 82.8942 532.327C83.5646 532.759 84.3402 532.974 85.2209 532.974C85.7152 532.974 86.1726 532.909 86.593 532.778C87.0192 532.648 87.397 532.457 87.7266 532.207C88.0561 531.952 88.3288 531.642 88.5447 531.278C88.7663 530.915 88.9197 530.5 89.005 530.034L92.7379 530.051C92.6413 530.852 92.3999 531.625 92.0135 532.369C91.6328 533.108 91.1186 533.77 90.4709 534.355C89.8288 534.935 89.0618 535.395 88.1697 535.736C87.2834 536.071 86.2805 536.239 85.1612 536.239C83.6044 536.239 82.2124 535.886 80.9851 535.182C79.7635 534.477 78.7976 533.457 78.0874 532.122C77.3828 530.787 77.0305 529.17 77.0305 527.273C77.0305 525.369 77.3885 523.75 78.1044 522.415C78.8203 521.08 79.7919 520.062 81.0192 519.364C82.2464 518.659 83.6271 518.307 85.1612 518.307C86.1726 518.307 87.1101 518.449 87.9737 518.733C88.843 519.017 89.6129 519.432 90.2834 519.977C90.9538 520.517 91.4993 521.179 91.9197 521.963C92.3459 522.747 92.6186 523.645 92.7379 524.656ZM101.572 536H95.3842V518.545H101.623C103.379 518.545 104.89 518.895 106.157 519.594C107.424 520.287 108.398 521.284 109.08 522.585C109.768 523.886 110.112 525.443 110.112 527.256C110.112 529.074 109.768 530.636 109.08 531.943C108.398 533.25 107.418 534.253 106.14 534.952C104.867 535.651 103.344 536 101.572 536ZM99.0746 532.838H101.418C102.509 532.838 103.427 532.645 104.171 532.259C104.921 531.866 105.484 531.261 105.859 530.443C106.239 529.619 106.43 528.557 106.43 527.256C106.43 525.966 106.239 524.912 105.859 524.094C105.484 523.276 104.924 522.673 104.18 522.287C103.435 521.901 102.518 521.707 101.427 521.707H99.0746V532.838ZM112.845 536V518.545H124.607V521.588H116.536V525.747H124.001V528.79H116.536V532.957H124.641V536H112.845ZM127.54 536V518.545H139.097V521.588H131.231V525.747H138.33V528.79H131.231V536H127.54ZM153.153 524.188C153.034 523.773 152.866 523.406 152.651 523.088C152.435 522.764 152.17 522.491 151.858 522.27C151.551 522.043 151.199 521.869 150.801 521.75C150.409 521.631 149.974 521.571 149.497 521.571C148.605 521.571 147.821 521.793 147.145 522.236C146.474 522.679 145.952 523.324 145.577 524.17C145.202 525.011 145.014 526.04 145.014 527.256C145.014 528.472 145.199 529.506 145.568 530.358C145.938 531.21 146.46 531.861 147.136 532.31C147.812 532.753 148.611 532.974 149.531 532.974C150.366 532.974 151.08 532.827 151.67 532.531C152.267 532.23 152.722 531.807 153.034 531.261C153.352 530.716 153.511 530.071 153.511 529.327L154.261 529.438H149.761V526.659H157.065V528.858C157.065 530.392 156.741 531.71 156.094 532.812C155.446 533.909 154.554 534.756 153.418 535.352C152.281 535.943 150.98 536.239 149.514 536.239C147.878 536.239 146.44 535.878 145.202 535.156C143.963 534.429 142.997 533.398 142.304 532.062C141.616 530.722 141.273 529.131 141.273 527.29C141.273 525.875 141.477 524.614 141.886 523.506C142.301 522.392 142.881 521.449 143.625 520.676C144.369 519.903 145.236 519.315 146.224 518.912C147.213 518.509 148.284 518.307 149.438 518.307C150.426 518.307 151.347 518.452 152.199 518.741C153.051 519.026 153.807 519.429 154.466 519.952C155.131 520.474 155.673 521.097 156.094 521.818C156.514 522.534 156.784 523.324 156.903 524.188H153.153ZM159.837 536V518.545H163.528V525.747H171.019V518.545H174.701V536H171.019V528.79H163.528V536H159.837ZM181.434 518.545V536H177.744V518.545H181.434ZM191.459 518.545H195.107V530.716C195.107 531.841 194.854 532.818 194.348 533.648C193.848 534.477 193.152 535.116 192.26 535.565C191.368 536.014 190.331 536.239 189.149 536.239C188.098 536.239 187.143 536.054 186.286 535.685C185.433 535.31 184.757 534.741 184.257 533.98C183.757 533.213 183.51 532.25 183.516 531.091H187.189C187.2 531.551 187.294 531.946 187.47 532.276C187.652 532.599 187.899 532.849 188.212 533.026C188.53 533.196 188.905 533.281 189.337 533.281C189.791 533.281 190.175 533.185 190.487 532.991C190.805 532.793 191.047 532.503 191.212 532.122C191.376 531.741 191.459 531.273 191.459 530.716V518.545ZM198.158 536V518.545H201.848V532.957H209.331V536H198.158ZM211.775 518.545H216.326L221.133 530.273H221.337L226.144 518.545H230.695V536H227.116V524.639H226.971L222.454 535.915H220.016L215.499 524.597H215.354V536H211.775V518.545ZM248.335 518.545V536H245.148L237.554 525.014H237.426V536H233.736V518.545H236.974L244.509 529.523H244.662V518.545H248.335ZM59.5568 556.273C59.5568 558.176 59.196 559.795 58.4744 561.131C57.7585 562.466 56.7813 563.486 55.5426 564.19C54.3097 564.889 52.9233 565.239 51.3835 565.239C49.8324 565.239 48.4403 564.886 47.2074 564.182C45.9744 563.477 45 562.457 44.2841 561.122C43.5682 559.787 43.2102 558.17 43.2102 556.273C43.2102 554.369 43.5682 552.75 44.2841 551.415C45 550.08 45.9744 549.062 47.2074 548.364C48.4403 547.659 49.8324 547.307 51.3835 547.307C52.9233 547.307 54.3097 547.659 55.5426 548.364C56.7813 549.062 57.7585 550.08 58.4744 551.415C59.196 552.75 59.5568 554.369 59.5568 556.273ZM55.8153 556.273C55.8153 555.04 55.6307 554 55.2614 553.153C54.8977 552.307 54.3835 551.665 53.7188 551.227C53.054 550.79 52.2756 550.571 51.3835 550.571C50.4915 550.571 49.7131 550.79 49.0483 551.227C48.3835 551.665 47.8665 552.307 47.4972 553.153C47.1335 554 46.9517 555.04 46.9517 556.273C46.9517 557.506 47.1335 558.545 47.4972 559.392C47.8665 560.239 48.3835 560.881 49.0483 561.318C49.7131 561.756 50.4915 561.974 51.3835 561.974C52.2756 561.974 53.054 561.756 53.7188 561.318C54.3835 560.881 54.8977 560.239 55.2614 559.392C55.6307 558.545 55.8153 557.506 55.8153 556.273ZM62.2905 565V547.545H69.1768C70.5007 547.545 71.6286 547.798 72.5604 548.304C73.4922 548.804 74.2024 549.5 74.6911 550.392C75.1854 551.278 75.4325 552.301 75.4325 553.46C75.4325 554.619 75.1825 555.642 74.6825 556.528C74.1825 557.415 73.4581 558.105 72.5092 558.599C71.5661 559.094 70.424 559.341 69.0831 559.341H64.6939V556.384H68.4865C69.1967 556.384 69.782 556.261 70.2422 556.017C70.7081 555.767 71.0547 555.423 71.282 554.986C71.5149 554.543 71.6314 554.034 71.6314 553.46C71.6314 552.881 71.5149 552.375 71.282 551.943C71.0547 551.506 70.7081 551.168 70.2422 550.929C69.7763 550.685 69.1854 550.562 68.4695 550.562H65.9808V565H62.2905ZM84.4176 558.932H87.554L89.1307 560.96L90.6818 562.767L93.6051 566.432H90.1619L88.1506 563.96L87.1193 562.494L84.4176 558.932ZM93.8693 556.273C93.8693 558.176 93.5085 559.795 92.7869 561.131C92.071 562.466 91.0938 563.486 89.8551 564.19C88.6222 564.889 87.2358 565.239 85.696 565.239C84.1449 565.239 82.7528 564.886 81.5199 564.182C80.2869 563.477 79.3125 562.457 78.5966 561.122C77.8807 559.787 77.5227 558.17 77.5227 556.273C77.5227 554.369 77.8807 552.75 78.5966 551.415C79.3125 550.08 80.2869 549.062 81.5199 548.364C82.7528 547.659 84.1449 547.307 85.696 547.307C87.2358 547.307 88.6222 547.659 89.8551 548.364C91.0938 549.062 92.071 550.08 92.7869 551.415C93.5085 552.75 93.8693 554.369 93.8693 556.273ZM90.1278 556.273C90.1278 555.04 89.9432 554 89.5739 553.153C89.2102 552.307 88.696 551.665 88.0312 551.227C87.3665 550.79 86.5881 550.571 85.696 550.571C84.804 550.571 84.0256 550.79 83.3608 551.227C82.696 551.665 82.179 552.307 81.8097 553.153C81.446 554 81.2642 555.04 81.2642 556.273C81.2642 557.506 81.446 558.545 81.8097 559.392C82.179 560.239 82.696 560.881 83.3608 561.318C84.0256 561.756 84.804 561.974 85.696 561.974C86.5881 561.974 87.3665 561.756 88.0312 561.318C88.696 560.881 89.2102 560.239 89.5739 559.392C89.9432 558.545 90.1278 557.506 90.1278 556.273ZM96.603 565V547.545H103.489C104.808 547.545 105.933 547.781 106.864 548.253C107.802 548.719 108.515 549.381 109.004 550.239C109.498 551.091 109.745 552.094 109.745 553.247C109.745 554.406 109.495 555.403 108.995 556.239C108.495 557.068 107.771 557.705 106.822 558.148C105.879 558.591 104.737 558.812 103.396 558.812H98.7848V555.847H102.799C103.504 555.847 104.089 555.75 104.555 555.557C105.021 555.364 105.367 555.074 105.594 554.688C105.827 554.301 105.944 553.821 105.944 553.247C105.944 552.668 105.827 552.179 105.594 551.781C105.367 551.384 105.018 551.082 104.546 550.878C104.08 550.668 103.492 550.562 102.782 550.562H100.293V565H96.603ZM106.029 557.057L110.367 565H106.293L102.049 557.057H106.029ZM121.822 552.565C121.754 551.878 121.461 551.344 120.944 550.963C120.427 550.582 119.725 550.392 118.839 550.392C118.237 550.392 117.728 550.477 117.313 550.648C116.898 550.812 116.58 551.043 116.359 551.338C116.143 551.634 116.035 551.969 116.035 552.344C116.023 552.656 116.089 552.929 116.231 553.162C116.379 553.395 116.58 553.597 116.836 553.767C117.092 553.932 117.387 554.077 117.722 554.202C118.058 554.321 118.415 554.423 118.796 554.509L120.364 554.884C121.126 555.054 121.825 555.281 122.461 555.565C123.097 555.849 123.648 556.199 124.114 556.614C124.58 557.028 124.941 557.517 125.197 558.08C125.458 558.642 125.592 559.287 125.597 560.014C125.592 561.082 125.319 562.009 124.779 562.793C124.245 563.571 123.472 564.176 122.461 564.608C121.455 565.034 120.242 565.247 118.822 565.247C117.413 565.247 116.185 565.031 115.14 564.599C114.1 564.168 113.288 563.528 112.702 562.682C112.123 561.83 111.819 560.776 111.79 559.52H115.362C115.401 560.105 115.569 560.594 115.864 560.986C116.165 561.372 116.566 561.665 117.066 561.864C117.572 562.057 118.143 562.153 118.779 562.153C119.404 562.153 119.947 562.062 120.407 561.881C120.873 561.699 121.234 561.446 121.489 561.122C121.745 560.798 121.873 560.426 121.873 560.006C121.873 559.614 121.756 559.284 121.523 559.017C121.296 558.75 120.961 558.523 120.518 558.335C120.08 558.148 119.543 557.977 118.907 557.824L117.006 557.347C115.535 556.989 114.373 556.429 113.521 555.668C112.668 554.906 112.245 553.881 112.251 552.591C112.245 551.534 112.526 550.611 113.094 549.821C113.668 549.031 114.455 548.415 115.455 547.972C116.455 547.528 117.592 547.307 118.864 547.307C120.16 547.307 121.29 547.528 122.256 547.972C123.228 548.415 123.984 549.031 124.523 549.821C125.063 550.611 125.342 551.526 125.359 552.565H121.822ZM127.415 550.588V547.545H141.75V550.588H136.406V565H132.759V550.588H127.415ZM154.892 547.545H158.582V558.881C158.582 560.153 158.278 561.267 157.67 562.222C157.068 563.176 156.224 563.92 155.139 564.455C154.054 564.983 152.79 565.247 151.347 565.247C149.898 565.247 148.631 564.983 147.545 564.455C146.46 563.92 145.616 563.176 145.014 562.222C144.412 561.267 144.111 560.153 144.111 558.881V547.545H147.801V558.565C147.801 559.23 147.946 559.821 148.236 560.338C148.531 560.855 148.946 561.261 149.48 561.557C150.014 561.852 150.636 562 151.347 562C152.063 562 152.685 561.852 153.213 561.557C153.747 561.261 154.159 560.855 154.449 560.338C154.744 559.821 154.892 559.23 154.892 558.565V547.545ZM164.772 547.545L168.991 560.807H169.153L173.38 547.545H177.471L171.454 565H166.698L160.673 547.545H164.772ZM183.032 547.545L186.552 553.494H186.688L190.225 547.545H194.393L189.066 556.273L194.512 565H190.268L186.688 559.043H186.552L182.972 565H178.745L184.208 556.273L178.847 547.545H183.032ZM195.705 547.545H199.839L203.819 555.062H203.989L207.969 547.545H212.103L205.737 558.83V565H202.072V558.83L195.705 547.545ZM218.048 565L213.053 547.545H217.085L219.974 559.673H220.119L223.306 547.545H226.758L229.937 559.699H230.09L232.979 547.545H237.011L232.016 565H228.42L225.096 553.588H224.96L221.644 565H218.048ZM238.798 565V562.81L247.509 550.588H238.781V547.545H252.145V549.736L243.426 561.957H252.162V565H238.798Z" fill="#1F2226"/>
<path d="M47.6932 618.307C46.8636 618.307 46.1108 618.151 45.4347 617.838C44.7585 617.52 44.2216 617.062 43.8239 616.466C43.4261 615.864 43.2273 615.136 43.2273 614.284C43.2273 613.534 43.375 612.926 43.6705 612.46C43.9659 611.989 44.3608 611.619 44.8551 611.352C45.3494 611.085 45.8949 610.886 46.4915 610.756C47.0938 610.619 47.6989 610.511 48.3068 610.432C49.1023 610.33 49.7472 610.253 50.2415 610.202C50.7415 610.145 51.1051 610.051 51.3324 609.92C51.5653 609.79 51.6818 609.562 51.6818 609.239V609.17C51.6818 608.33 51.4517 607.676 50.9915 607.21C50.5369 606.744 49.8466 606.511 48.9205 606.511C47.9602 606.511 47.2074 606.722 46.6619 607.142C46.1165 607.562 45.733 608.011 45.5114 608.489L43.6023 607.807C43.9432 607.011 44.3977 606.392 44.9659 605.949C45.5398 605.5 46.1648 605.187 46.8409 605.011C47.5227 604.83 48.1932 604.739 48.8523 604.739C49.2727 604.739 49.7557 604.79 50.3011 604.892C50.8523 604.989 51.3835 605.19 51.8949 605.497C52.4119 605.804 52.8409 606.267 53.1818 606.886C53.5227 607.506 53.6932 608.335 53.6932 609.375V618H51.6818V616.227H51.5795C51.4432 616.511 51.2159 616.815 50.8977 617.139C50.5795 617.463 50.1563 617.739 49.6278 617.966C49.0994 618.193 48.4545 618.307 47.6932 618.307ZM48 616.5C48.7955 616.5 49.4659 616.344 50.0114 616.031C50.5625 615.719 50.9773 615.315 51.2557 614.821C51.5398 614.327 51.6818 613.807 51.6818 613.261V611.42C51.5966 611.523 51.4091 611.616 51.1193 611.702C50.8352 611.781 50.5057 611.852 50.1307 611.915C49.7614 611.972 49.4006 612.023 49.0483 612.068C48.7017 612.108 48.4205 612.142 48.2045 612.17C47.6818 612.239 47.1932 612.349 46.7386 612.503C46.2898 612.651 45.9261 612.875 45.6477 613.176C45.375 613.472 45.2386 613.875 45.2386 614.386C45.2386 615.085 45.4972 615.614 46.0142 615.972C46.5369 616.324 47.1989 616.5 48 616.5ZM57.6371 618V600.545H59.6484V606.989H59.8189C59.9666 606.761 60.1712 606.472 60.4325 606.119C60.6996 605.761 61.0803 605.443 61.5746 605.165C62.0746 604.881 62.7507 604.739 63.603 604.739C64.7053 604.739 65.6768 605.014 66.5178 605.565C67.3587 606.116 68.0149 606.898 68.4865 607.909C68.9581 608.92 69.1939 610.114 69.1939 611.489C69.1939 612.875 68.9581 614.077 68.4865 615.094C68.0149 616.105 67.3615 616.889 66.5263 617.446C65.6911 617.997 64.728 618.273 63.6371 618.273C62.7962 618.273 62.1229 618.134 61.6172 617.855C61.1115 617.571 60.7223 617.25 60.4496 616.892C60.1768 616.528 59.9666 616.227 59.8189 615.989H59.5803V618H57.6371ZM59.6143 611.455C59.6143 612.443 59.7592 613.315 60.049 614.071C60.3388 614.821 60.7621 615.409 61.3189 615.835C61.8757 616.256 62.5575 616.466 63.3643 616.466C64.2053 616.466 64.907 616.244 65.4695 615.801C66.0376 615.352 66.4638 614.75 66.7479 613.994C67.0376 613.233 67.1825 612.386 67.1825 611.455C67.1825 610.534 67.0405 609.705 66.7564 608.966C66.478 608.222 66.0547 607.634 65.4865 607.202C64.924 606.764 64.2166 606.545 63.3643 606.545C62.5462 606.545 61.8587 606.753 61.3018 607.168C60.745 607.577 60.3246 608.151 60.0405 608.889C59.7564 609.622 59.6143 610.477 59.6143 611.455ZM77.5888 618.273C76.3615 618.273 75.3047 617.983 74.4183 617.403C73.532 616.824 72.8501 616.026 72.3729 615.009C71.8956 613.991 71.657 612.83 71.657 611.523C71.657 610.193 71.9013 609.02 72.3899 608.003C72.8842 606.98 73.5717 606.182 74.4524 605.608C75.3388 605.028 76.3729 604.739 77.5547 604.739C78.4751 604.739 79.3047 604.909 80.0433 605.25C80.782 605.591 81.3871 606.068 81.8587 606.682C82.3303 607.295 82.6229 608.011 82.7365 608.83H80.7251C80.5717 608.233 80.2308 607.705 79.7024 607.244C79.1797 606.778 78.4751 606.545 77.5888 606.545C76.8047 606.545 76.1172 606.75 75.5263 607.159C74.9411 607.562 74.4837 608.134 74.1541 608.872C73.8303 609.605 73.6683 610.466 73.6683 611.455C73.6683 612.466 73.8274 613.347 74.1456 614.097C74.4695 614.847 74.924 615.429 75.5092 615.844C76.1001 616.259 76.7933 616.466 77.5888 616.466C78.1115 616.466 78.5859 616.375 79.0121 616.193C79.4382 616.011 79.799 615.75 80.0945 615.409C80.3899 615.068 80.6001 614.659 80.7251 614.182H82.7365C82.6229 614.955 82.3416 615.651 81.8928 616.27C81.4496 616.884 80.8615 617.372 80.1286 617.736C79.4013 618.094 78.5547 618.273 77.5888 618.273ZM90.62 618.273C89.5291 618.273 88.5661 617.997 87.7308 617.446C86.8956 616.889 86.2422 616.105 85.7706 615.094C85.299 614.077 85.0632 612.875 85.0632 611.489C85.0632 610.114 85.299 608.92 85.7706 607.909C86.2422 606.898 86.8984 606.116 87.7393 605.565C88.5803 605.014 89.5518 604.739 90.6541 604.739C91.5064 604.739 92.1797 604.881 92.674 605.165C93.174 605.443 93.5547 605.761 93.8161 606.119C94.0831 606.472 94.2905 606.761 94.4382 606.989H94.6087V600.545H96.62V618H94.6768V615.989H94.4382C94.2905 616.227 94.0803 616.528 93.8075 616.892C93.5348 617.25 93.1456 617.571 92.6399 617.855C92.1342 618.134 91.4609 618.273 90.62 618.273ZM90.8928 616.466C91.6996 616.466 92.3814 616.256 92.9382 615.835C93.495 615.409 93.9183 614.821 94.2081 614.071C94.4979 613.315 94.6428 612.443 94.6428 611.455C94.6428 610.477 94.5007 609.622 94.2166 608.889C93.9325 608.151 93.5121 607.577 92.9553 607.168C92.3984 606.753 91.7109 606.545 90.8928 606.545C90.0405 606.545 89.3303 606.764 88.7621 607.202C88.1996 607.634 87.7763 608.222 87.4922 608.966C87.2138 609.705 87.0746 610.534 87.0746 611.455C87.0746 612.386 87.2166 613.233 87.5007 613.994C87.7905 614.75 88.2166 615.352 88.7791 615.801C89.3473 616.244 90.0518 616.466 90.8928 616.466ZM106.072 618.273C104.81 618.273 103.722 617.994 102.808 617.438C101.898 616.875 101.197 616.091 100.702 615.085C100.214 614.074 99.9695 612.898 99.9695 611.557C99.9695 610.216 100.214 609.034 100.702 608.011C101.197 606.983 101.884 606.182 102.765 605.608C103.651 605.028 104.685 604.739 105.867 604.739C106.549 604.739 107.222 604.852 107.887 605.08C108.552 605.307 109.157 605.676 109.702 606.188C110.248 606.693 110.683 607.364 111.006 608.199C111.33 609.034 111.492 610.062 111.492 611.284V612.136H101.401V610.398H109.447C109.447 609.659 109.299 609 109.004 608.42C108.714 607.841 108.299 607.384 107.759 607.048C107.225 606.713 106.594 606.545 105.867 606.545C105.066 606.545 104.373 606.744 103.788 607.142C103.208 607.534 102.762 608.045 102.45 608.676C102.137 609.307 101.981 609.983 101.981 610.705V611.864C101.981 612.852 102.151 613.69 102.492 614.378C102.839 615.06 103.319 615.58 103.933 615.938C104.546 616.29 105.259 616.466 106.072 616.466C106.6 616.466 107.077 616.392 107.504 616.244C107.935 616.091 108.308 615.864 108.62 615.562C108.933 615.256 109.174 614.875 109.344 614.42L111.288 614.966C111.083 615.625 110.739 616.205 110.256 616.705C109.773 617.199 109.177 617.585 108.467 617.864C107.756 618.136 106.958 618.273 106.072 618.273ZM120.381 604.909V606.614H113.325V604.909H120.381ZM115.438 618V603.102C115.438 602.352 115.614 601.727 115.967 601.227C116.319 600.727 116.776 600.352 117.339 600.102C117.901 599.852 118.495 599.727 119.12 599.727C119.614 599.727 120.018 599.767 120.33 599.847C120.643 599.926 120.876 600 121.029 600.068L120.45 601.807C120.347 601.773 120.205 601.73 120.023 601.679C119.847 601.628 119.614 601.602 119.325 601.602C118.66 601.602 118.18 601.77 117.884 602.105C117.594 602.44 117.45 602.932 117.45 603.58V618H115.438ZM127.945 623.182C126.974 623.182 126.138 623.057 125.44 622.807C124.741 622.562 124.158 622.239 123.692 621.835C123.232 621.438 122.866 621.011 122.593 620.557L124.195 619.432C124.377 619.67 124.607 619.943 124.886 620.25C125.164 620.562 125.545 620.832 126.028 621.06C126.516 621.293 127.156 621.409 127.945 621.409C129.002 621.409 129.874 621.153 130.562 620.642C131.249 620.131 131.593 619.33 131.593 618.239V615.58H131.423C131.275 615.818 131.065 616.114 130.792 616.466C130.525 616.812 130.138 617.122 129.633 617.395C129.133 617.662 128.457 617.795 127.604 617.795C126.548 617.795 125.599 617.545 124.758 617.045C123.923 616.545 123.261 615.818 122.772 614.864C122.289 613.909 122.048 612.75 122.048 611.386C122.048 610.045 122.283 608.878 122.755 607.884C123.227 606.884 123.883 606.111 124.724 605.565C125.565 605.014 126.536 604.739 127.638 604.739C128.491 604.739 129.167 604.881 129.667 605.165C130.173 605.443 130.559 605.761 130.826 606.119C131.099 606.472 131.309 606.761 131.457 606.989H131.661V604.909H133.604V618.375C133.604 619.5 133.349 620.415 132.837 621.119C132.332 621.83 131.65 622.349 130.792 622.679C129.94 623.014 128.991 623.182 127.945 623.182ZM127.877 615.989C128.684 615.989 129.366 615.804 129.923 615.435C130.479 615.065 130.903 614.534 131.192 613.841C131.482 613.148 131.627 612.318 131.627 611.352C131.627 610.409 131.485 609.577 131.201 608.855C130.917 608.134 130.496 607.568 129.94 607.159C129.383 606.75 128.695 606.545 127.877 606.545C127.025 606.545 126.315 606.761 125.746 607.193C125.184 607.625 124.761 608.205 124.477 608.932C124.198 609.659 124.059 610.466 124.059 611.352C124.059 612.261 124.201 613.065 124.485 613.764C124.775 614.457 125.201 615.003 125.763 615.401C126.332 615.793 127.036 615.989 127.877 615.989ZM139.298 610.125V618H137.286V600.545H139.298V606.955H139.468C139.775 606.278 140.235 605.741 140.849 605.344C141.468 604.94 142.292 604.739 143.32 604.739C144.212 604.739 144.994 604.918 145.664 605.276C146.335 605.628 146.854 606.17 147.224 606.903C147.599 607.631 147.786 608.557 147.786 609.682V618H145.775V609.818C145.775 608.778 145.505 607.974 144.965 607.406C144.431 606.832 143.69 606.545 142.741 606.545C142.082 606.545 141.491 606.685 140.968 606.963C140.451 607.241 140.042 607.648 139.741 608.182C139.445 608.716 139.298 609.364 139.298 610.125ZM151.466 618V604.909H153.477V618H151.466ZM152.489 602.727C152.097 602.727 151.759 602.594 151.474 602.327C151.196 602.06 151.057 601.739 151.057 601.364C151.057 600.989 151.196 600.668 151.474 600.401C151.759 600.134 152.097 600 152.489 600C152.881 600 153.216 600.134 153.494 600.401C153.778 600.668 153.92 600.989 153.92 601.364C153.92 601.739 153.778 602.06 153.494 602.327C153.216 602.594 152.881 602.727 152.489 602.727ZM157.161 604.909H159.173V618.955C159.173 619.761 159.033 620.46 158.755 621.051C158.482 621.642 158.067 622.099 157.511 622.423C156.96 622.747 156.263 622.909 155.423 622.909C155.354 622.909 155.286 622.909 155.218 622.909C155.15 622.909 155.082 622.909 155.013 622.909V621.034C155.082 621.034 155.144 621.034 155.201 621.034C155.258 621.034 155.32 621.034 155.388 621.034C156.002 621.034 156.451 620.852 156.735 620.489C157.019 620.131 157.161 619.619 157.161 618.955V604.909ZM158.15 602.727C157.758 602.727 157.42 602.594 157.136 602.327C156.857 602.06 156.718 601.739 156.718 601.364C156.718 600.989 156.857 600.668 157.136 600.401C157.42 600.134 157.758 600 158.15 600C158.542 600 158.877 600.134 159.156 600.401C159.44 600.668 159.582 600.989 159.582 601.364C159.582 601.739 159.44 602.06 159.156 602.327C158.877 602.594 158.542 602.727 158.15 602.727ZM164.868 600.545V618H162.857V600.545H164.868ZM168.552 618V604.909H170.495V606.955H170.665C170.938 606.256 171.379 605.713 171.987 605.327C172.594 604.935 173.325 604.739 174.177 604.739C175.04 604.739 175.759 604.935 176.333 605.327C176.913 605.713 177.364 606.256 177.688 606.955H177.825C178.16 606.278 178.663 605.741 179.333 605.344C180.004 604.94 180.808 604.739 181.745 604.739C182.915 604.739 183.873 605.105 184.617 605.838C185.362 606.565 185.734 607.699 185.734 609.239V618H183.722V609.239C183.722 608.273 183.458 607.582 182.93 607.168C182.401 606.753 181.779 606.545 181.063 606.545C180.143 606.545 179.43 606.824 178.924 607.381C178.418 607.932 178.165 608.631 178.165 609.477V618H176.12V609.034C176.12 608.29 175.879 607.69 175.396 607.236C174.913 606.776 174.29 606.545 173.529 606.545C173.006 606.545 172.518 606.685 172.063 606.963C171.614 607.241 171.251 607.628 170.972 608.122C170.7 608.611 170.563 609.176 170.563 609.818V618H168.552ZM191.423 610.125V618H189.411V604.909H191.354V606.955H191.525C191.832 606.29 192.298 605.756 192.923 605.352C193.548 604.943 194.354 604.739 195.343 604.739C196.229 604.739 197.005 604.92 197.67 605.284C198.335 605.642 198.852 606.188 199.221 606.92C199.59 607.648 199.775 608.568 199.775 609.682V618H197.763V609.818C197.763 608.79 197.496 607.989 196.962 607.415C196.428 606.835 195.695 606.545 194.763 606.545C194.121 606.545 193.548 606.685 193.042 606.963C192.542 607.241 192.147 607.648 191.857 608.182C191.567 608.716 191.423 609.364 191.423 610.125ZM208.768 618.273C207.587 618.273 206.55 617.991 205.658 617.429C204.771 616.866 204.078 616.08 203.578 615.068C203.084 614.057 202.837 612.875 202.837 611.523C202.837 610.159 203.084 608.969 203.578 607.952C204.078 606.935 204.771 606.145 205.658 605.582C206.55 605.02 207.587 604.739 208.768 604.739C209.95 604.739 210.984 605.02 211.871 605.582C212.763 606.145 213.456 606.935 213.95 607.952C214.45 608.969 214.7 610.159 214.7 611.523C214.7 612.875 214.45 614.057 213.95 615.068C213.456 616.08 212.763 616.866 211.871 617.429C210.984 617.991 209.95 618.273 208.768 618.273ZM208.768 616.466C209.666 616.466 210.405 616.236 210.984 615.776C211.564 615.315 211.993 614.71 212.271 613.96C212.55 613.21 212.689 612.398 212.689 611.523C212.689 610.648 212.55 609.832 212.271 609.077C211.993 608.321 211.564 607.71 210.984 607.244C210.405 606.778 209.666 606.545 208.768 606.545C207.871 606.545 207.132 606.778 206.553 607.244C205.973 607.71 205.544 608.321 205.266 609.077C204.987 609.832 204.848 610.648 204.848 611.523C204.848 612.398 204.987 613.21 205.266 613.96C205.544 614.71 205.973 615.315 206.553 615.776C207.132 616.236 207.871 616.466 208.768 616.466ZM217.771 622.909V604.909H219.714V606.989H219.952C220.1 606.761 220.305 606.472 220.566 606.119C220.833 605.761 221.214 605.443 221.708 605.165C222.208 604.881 222.884 604.739 223.737 604.739C224.839 604.739 225.81 605.014 226.651 605.565C227.492 606.116 228.148 606.898 228.62 607.909C229.092 608.92 229.327 610.114 229.327 611.489C229.327 612.875 229.092 614.077 228.62 615.094C228.148 616.105 227.495 616.889 226.66 617.446C225.825 617.997 224.862 618.273 223.771 618.273C222.93 618.273 222.256 618.134 221.751 617.855C221.245 617.571 220.856 617.25 220.583 616.892C220.31 616.528 220.1 616.227 219.952 615.989H219.782V622.909H217.771ZM219.748 611.455C219.748 612.443 219.893 613.315 220.183 614.071C220.472 614.821 220.896 615.409 221.452 615.835C222.009 616.256 222.691 616.466 223.498 616.466C224.339 616.466 225.04 616.244 225.603 615.801C226.171 615.352 226.597 614.75 226.881 613.994C227.171 613.233 227.316 612.386 227.316 611.455C227.316 610.534 227.174 609.705 226.89 608.966C226.612 608.222 226.188 607.634 225.62 607.202C225.058 606.764 224.35 606.545 223.498 606.545C222.68 606.545 221.992 606.753 221.435 607.168C220.879 607.577 220.458 608.151 220.174 608.889C219.89 609.622 219.748 610.477 219.748 611.455ZM241.327 622.909V615.989H241.157C241.009 616.227 240.799 616.528 240.526 616.892C240.254 617.25 239.864 617.571 239.359 617.855C238.853 618.134 238.18 618.273 237.339 618.273C236.248 618.273 235.285 617.997 234.45 617.446C233.614 616.889 232.961 616.105 232.489 615.094C232.018 614.077 231.782 612.875 231.782 611.489C231.782 610.114 232.018 608.92 232.489 607.909C232.961 606.898 233.617 606.116 234.458 605.565C235.299 605.014 236.271 604.739 237.373 604.739C238.225 604.739 238.898 604.881 239.393 605.165C239.893 605.443 240.273 605.761 240.535 606.119C240.802 606.472 241.009 606.761 241.157 606.989H241.396V604.909H243.339V622.909H241.327ZM237.612 616.466C238.418 616.466 239.1 616.256 239.657 615.835C240.214 615.409 240.637 614.821 240.927 614.071C241.217 613.315 241.362 612.443 241.362 611.455C241.362 610.477 241.219 609.622 240.935 608.889C240.651 608.151 240.231 607.577 239.674 607.168C239.117 606.753 238.43 606.545 237.612 606.545C236.759 606.545 236.049 606.764 235.481 607.202C234.918 607.634 234.495 608.222 234.211 608.966C233.933 609.705 233.793 610.534 233.793 611.455C233.793 612.386 233.935 613.233 234.219 613.994C234.509 614.75 234.935 615.352 235.498 615.801C236.066 616.244 236.771 616.466 237.612 616.466ZM247.021 618V604.909H248.964V606.886H249.1C249.339 606.239 249.771 605.713 250.396 605.31C251.021 604.906 251.725 604.705 252.509 604.705C252.657 604.705 252.842 604.707 253.063 604.713C253.285 604.719 253.452 604.727 253.566 604.739V606.784C253.498 606.767 253.342 606.741 253.097 606.707C252.859 606.668 252.606 606.648 252.339 606.648C251.702 606.648 251.134 606.781 250.634 607.048C250.14 607.31 249.748 607.673 249.458 608.139C249.174 608.599 249.032 609.125 249.032 609.716V618H247.021ZM53.1136 636.841L51.3068 637.352C51.1932 637.051 51.0256 636.759 50.804 636.474C50.5881 636.185 50.2926 635.946 49.9176 635.759C49.5426 635.571 49.0625 635.477 48.4773 635.477C47.6761 635.477 47.0085 635.662 46.4744 636.031C45.946 636.395 45.6818 636.858 45.6818 637.42C45.6818 637.92 45.8636 638.315 46.2273 638.605C46.5909 638.895 47.1591 639.136 47.9318 639.33L49.875 639.807C51.0455 640.091 51.9176 640.526 52.4915 641.111C53.0653 641.69 53.3523 642.437 53.3523 643.352C53.3523 644.102 53.1364 644.773 52.7045 645.364C52.2784 645.955 51.6818 646.42 50.9148 646.761C50.1477 647.102 49.2557 647.273 48.2386 647.273C46.9034 647.273 45.7983 646.983 44.9233 646.403C44.0483 645.824 43.4943 644.977 43.2614 643.864L45.1705 643.386C45.3523 644.091 45.696 644.619 46.2017 644.972C46.7131 645.324 47.3807 645.5 48.2045 645.5C49.142 645.5 49.8864 645.301 50.4375 644.903C50.9943 644.5 51.2727 644.017 51.2727 643.455C51.2727 643 51.1136 642.619 50.7955 642.312C50.4773 642 49.9886 641.767 49.3295 641.614L47.1477 641.102C45.9489 640.818 45.0682 640.378 44.5057 639.781C43.9489 639.179 43.6705 638.426 43.6705 637.523C43.6705 636.784 43.8778 636.131 44.2926 635.562C44.7131 634.994 45.2841 634.548 46.0057 634.224C46.733 633.901 47.5568 633.739 48.4773 633.739C49.7727 633.739 50.7898 634.023 51.5284 634.591C52.2727 635.159 52.8011 635.909 53.1136 636.841ZM62.0732 633.909V635.614H55.2891V633.909H62.0732ZM57.2663 630.773H59.2777V643.25C59.2777 643.818 59.3601 644.244 59.5249 644.528C59.6953 644.807 59.9112 644.994 60.1726 645.091C60.4396 645.182 60.7209 645.227 61.0163 645.227C61.2379 645.227 61.4197 645.216 61.5618 645.193C61.7038 645.165 61.8175 645.142 61.9027 645.125L62.3118 646.932C62.1754 646.983 61.9851 647.034 61.7408 647.085C61.4964 647.142 61.1868 647.17 60.8118 647.17C60.2436 647.17 59.6868 647.048 59.1413 646.804C58.6016 646.56 58.1527 646.188 57.7947 645.688C57.4425 645.188 57.2663 644.557 57.2663 643.795V630.773ZM73.3487 641.648V633.909H75.3601V647H73.3487V644.784H73.2124C72.9055 645.449 72.4283 646.014 71.7805 646.48C71.1328 646.94 70.3146 647.17 69.326 647.17C68.5078 647.17 67.7805 646.991 67.1442 646.634C66.5078 646.27 66.0078 645.724 65.6442 644.997C65.2805 644.264 65.0987 643.341 65.0987 642.227V633.909H67.1101V642.091C67.1101 643.045 67.3771 643.807 67.9112 644.375C68.451 644.943 69.1385 645.227 69.9737 645.227C70.4737 645.227 70.9822 645.099 71.4993 644.844C72.022 644.588 72.4595 644.196 72.8118 643.668C73.1697 643.139 73.3487 642.466 73.3487 641.648ZM89.7486 633.909L84.9077 647H82.8622L78.0213 633.909H80.2031L83.8168 644.341H83.9531L87.5668 633.909H89.7486ZM93.9034 633.909L97.0398 639.261L100.176 633.909H102.494L98.267 640.455L102.494 647H100.176L97.0398 641.92L93.9034 647H91.5852L95.7443 640.455L91.5852 633.909H93.9034ZM106.66 651.909C106.319 651.909 106.015 651.881 105.748 651.824C105.481 651.773 105.296 651.722 105.194 651.67L105.705 649.898C106.194 650.023 106.626 650.068 107.001 650.034C107.376 650 107.708 649.832 107.998 649.531C108.293 649.236 108.563 648.756 108.808 648.091L109.183 647.068L104.342 633.909H106.523L110.137 644.341H110.273L113.887 633.909H116.069L110.512 648.909C110.262 649.585 109.952 650.145 109.583 650.588C109.214 651.037 108.785 651.369 108.296 651.585C107.813 651.801 107.268 651.909 106.66 651.909ZM121.69 647L117.701 633.909H119.815L122.644 643.932H122.781L125.576 633.909H127.724L130.485 643.898H130.621L133.451 633.909H135.565L131.576 647H129.599L126.735 636.943H126.531L123.667 647H121.69ZM137.849 647V645.466L145.281 635.92V635.784H138.087V633.909H147.871V635.511L140.644 644.989V645.125H148.11V647H137.849Z" fill="#1F2226"/>
<path d="M425.018 50.3636V94H415.793V50.3636H425.018ZM441.515 75.0795V94H432.439V61.2727H441.089V67.0469H441.473C442.197 65.1435 443.412 63.6378 445.116 62.5298C446.821 61.4077 448.887 60.8466 451.316 60.8466C453.589 60.8466 455.571 61.3438 457.261 62.3381C458.951 63.3324 460.265 64.7528 461.203 66.5994C462.14 68.4318 462.609 70.6193 462.609 73.1619V94H453.532V74.7812C453.547 72.7784 453.035 71.2159 451.998 70.0938C450.961 68.9574 449.534 68.3892 447.716 68.3892C446.494 68.3892 445.414 68.652 444.477 69.1776C443.554 69.7031 442.829 70.4702 442.304 71.4787C441.792 72.473 441.529 73.6733 441.515 75.0795ZM487.17 61.2727V68.0909H467.462V61.2727H487.17ZM471.936 53.4318H481.013V83.9432C481.013 84.7812 481.141 85.4347 481.396 85.9034C481.652 86.358 482.007 86.6776 482.462 86.8622C482.93 87.0469 483.47 87.1392 484.081 87.1392C484.507 87.1392 484.933 87.1037 485.359 87.0327C485.786 86.9474 486.112 86.8835 486.339 86.8409L487.767 93.5952C487.313 93.7372 486.673 93.9006 485.849 94.0852C485.026 94.2841 484.024 94.4048 482.845 94.4474C480.658 94.5327 478.74 94.2415 477.092 93.5739C475.459 92.9062 474.188 91.8693 473.278 90.4631C472.369 89.0568 471.922 87.2812 471.936 85.1364V53.4318ZM507.646 94.6392C504.28 94.6392 501.382 93.9574 498.953 92.5938C496.538 91.2159 494.678 89.2699 493.371 86.7557C492.064 84.2273 491.411 81.2372 491.411 77.7855C491.411 74.419 492.064 71.4645 493.371 68.9219C494.678 66.3793 496.517 64.3977 498.889 62.9773C501.276 61.5568 504.074 60.8466 507.284 60.8466C509.443 60.8466 511.453 61.1946 513.314 61.8906C515.189 62.5724 516.822 63.6023 518.214 64.9801C519.621 66.358 520.714 68.0909 521.496 70.179C522.277 72.2528 522.668 74.6818 522.668 77.4659V79.9588H495.033V74.3338H514.124C514.124 73.027 513.839 71.8693 513.271 70.8608C512.703 69.8523 511.915 69.0639 510.906 68.4957C509.912 67.9134 508.754 67.6222 507.433 67.6222C506.055 67.6222 504.834 67.9418 503.768 68.581C502.717 69.206 501.893 70.0511 501.297 71.1165C500.7 72.1676 500.395 73.3395 500.381 74.6321V79.9801C500.381 81.5994 500.679 82.9986 501.276 84.1776C501.886 85.3565 502.746 86.2656 503.854 86.9048C504.962 87.544 506.276 87.8636 507.795 87.8636C508.804 87.8636 509.727 87.7216 510.565 87.4375C511.403 87.1534 512.121 86.7273 512.717 86.1591C513.314 85.5909 513.768 84.8949 514.081 84.071L522.476 84.625C522.05 86.642 521.176 88.4034 519.855 89.9091C518.548 91.4006 516.858 92.5653 514.784 93.4034C512.724 94.2273 510.345 94.6392 507.646 94.6392ZM528.591 94V61.2727H537.391V66.983H537.732C538.328 64.9517 539.33 63.4176 540.736 62.3807C542.142 61.3295 543.761 60.804 545.594 60.804C546.048 60.804 546.538 60.8324 547.064 60.8892C547.589 60.946 548.051 61.0241 548.449 61.1236V69.1776C548.023 69.0497 547.433 68.9361 546.68 68.8366C545.928 68.7372 545.239 68.6875 544.614 68.6875C543.278 68.6875 542.085 68.9787 541.034 69.5611C539.997 70.1293 539.173 70.9247 538.562 71.9474C537.966 72.9702 537.668 74.1491 537.668 75.4844V94H528.591Z" fill="#1F2226"/>
</svg>
