<svg width="1216" height="695" viewBox="0 0 1216 695" fill="none" xmlns="http://www.w3.org/2000/svg">
<rect width="1216" height="695" rx="12" fill="#F5F8F5"/>
<g clip-path="url(#clip0_509_1250)">
<path d="M496.103 345.011L499.911 345.038L508.537 402.198C508.824 404.068 508.742 406.019 508.059 407.78C506.435 412.025 502.313 415.041 497.495 415C492.541 414.959 488.365 411.724 486.918 407.248C486.386 405.596 486.358 403.822 486.631 402.116L496.09 344.997L496.103 345.011Z" fill="#DFC2A0"/>
<path d="M499.638 344.861L501.522 348.177L456.332 384.223C454.844 385.41 453.125 386.297 451.255 386.598C446.764 387.321 442.097 385.246 439.722 381.056C437.279 376.744 438.002 371.503 441.141 368.022C442.301 366.739 443.816 365.825 445.44 365.211L499.638 344.847V344.861Z" fill="#DFC2A0"/>
<path d="M501.533 347.85L499.595 351.139L445.779 330.025C444.019 329.329 442.381 328.292 441.18 326.818C438.314 323.296 437.768 318.219 440.211 314.056C442.722 309.785 447.622 307.792 452.208 308.761C453.9 309.116 455.456 309.976 456.794 311.081L501.519 347.836L501.533 347.85Z" fill="#DFC2A0"/>
<path d="M499.898 350.989L496.09 350.962L487.464 293.802C487.178 291.932 487.259 289.981 487.942 288.22C489.552 283.975 493.688 280.959 498.492 281C503.446 281.041 507.623 284.276 509.07 288.752C509.602 290.404 509.629 292.178 509.356 293.884L499.898 351.003V350.989Z" fill="#DFC2A0"/>
<path d="M496.348 351.139L494.465 347.823L539.655 311.777C541.142 310.59 542.862 309.703 544.732 309.402C549.222 308.679 553.89 310.753 556.265 314.944C558.708 319.256 557.984 324.497 554.845 327.978C553.685 329.261 552.17 330.175 550.546 330.789L496.348 351.153V351.139Z" fill="#DFC2A0"/>
<path d="M494.453 348.15L496.391 344.861L550.207 365.975C551.968 366.671 553.605 367.708 554.806 369.182C557.673 372.704 558.219 377.781 555.775 381.944C553.264 386.216 548.364 388.208 543.778 387.239C542.086 386.884 540.53 386.024 539.193 384.919L494.467 348.164L494.453 348.15Z" fill="#DFC2A0"/>
</g>
<path d="M589.954 317C587.965 317 586.207 316.619 584.681 315.856C583.189 315.061 581.962 314 581 312.674L584.283 309.641C584.913 310.569 585.693 311.282 586.621 311.779C587.583 312.276 588.644 312.525 589.805 312.525C590.966 312.525 591.994 312.276 592.89 311.779C593.785 311.282 594.481 310.552 594.979 309.591C595.51 308.597 595.775 307.387 595.775 305.961V281.994H600.451V305.713C600.451 308 599.987 309.989 599.058 311.68C598.163 313.37 596.919 314.68 595.327 315.608C593.768 316.536 591.978 317 589.954 317Z" fill="#440F02"/>
<path d="M618.217 317C615.895 317 613.806 316.453 611.948 315.359C610.091 314.265 608.615 312.79 607.521 310.934C606.427 309.044 605.879 306.939 605.879 304.619C605.879 302.331 606.427 300.276 607.521 298.453C608.615 296.597 610.091 295.122 611.948 294.028C613.806 292.934 615.895 292.387 618.217 292.387C620.505 292.387 622.578 292.934 624.435 294.028C626.325 295.088 627.818 296.547 628.912 298.403C630.007 300.26 630.554 302.331 630.554 304.619C630.554 306.939 630.007 309.044 628.912 310.934C627.818 312.79 626.325 314.265 624.435 315.359C622.578 316.453 620.505 317 618.217 317ZM618.217 312.674C619.709 312.674 621.036 312.326 622.196 311.63C623.357 310.934 624.269 309.989 624.932 308.796C625.596 307.569 625.927 306.177 625.927 304.619C625.927 303.094 625.579 301.735 624.883 300.541C624.219 299.348 623.307 298.42 622.147 297.757C621.019 297.061 619.709 296.713 618.217 296.713C616.724 296.713 615.398 297.061 614.237 297.757C613.076 298.42 612.164 299.348 611.501 300.541C610.837 301.735 610.506 303.094 610.506 304.619C610.506 306.177 610.837 307.569 611.501 308.796C612.164 309.989 613.076 310.934 614.237 311.63C615.398 312.326 616.724 312.674 618.217 312.674Z" fill="#440F02"/>
<path d="M652.313 316.503V302.729C652.313 300.939 651.75 299.464 650.622 298.304C649.494 297.144 648.035 296.564 646.244 296.564C645.05 296.564 643.989 296.829 643.061 297.359C642.132 297.89 641.402 298.619 640.872 299.547C640.341 300.475 640.076 301.536 640.076 302.729L638.235 301.685C638.235 299.895 638.633 298.304 639.429 296.912C640.225 295.519 641.336 294.425 642.762 293.63C644.188 292.801 645.797 292.387 647.588 292.387C649.378 292.387 650.954 292.785 652.313 293.58C653.706 294.376 654.801 295.486 655.597 296.912C656.393 298.337 656.791 299.978 656.791 301.834V316.503H652.313ZM635.598 316.503V281H640.076V316.503H635.598Z" fill="#440F02"/>
<path d="M662.255 316.503V302.928C662.255 300.84 662.687 299.017 663.549 297.459C664.444 295.867 665.655 294.624 667.18 293.729C668.739 292.834 670.563 292.387 672.653 292.387C674.742 292.387 676.549 292.834 678.075 293.729C679.634 294.591 680.844 295.818 681.707 297.409C682.569 299 683 300.84 683 302.928V316.503H678.523V303.276C678.523 301.32 678.009 299.729 676.981 298.503C675.986 297.276 674.543 296.663 672.653 296.663C670.762 296.663 669.303 297.276 668.275 298.503C667.247 299.729 666.733 301.32 666.733 303.276V316.503H662.255Z" fill="#440F02"/>
<path d="M581 359.503V325H584.286L598.922 349.013H596.681L611.317 325H614.603V359.503H609.923V333.203L611.019 333.501L599.469 352.443H596.184L584.634 333.501L585.68 333.203V359.503H581Z" fill="#440F02"/>
<path d="M632.02 360C629.863 360 627.905 359.47 626.146 358.409C624.387 357.315 622.993 355.84 621.964 353.984C620.968 352.128 620.471 350.04 620.471 347.72C620.471 345.4 620.968 343.312 621.964 341.456C622.993 339.6 624.37 338.125 626.096 337.031C627.855 335.938 629.83 335.391 632.02 335.391C633.812 335.391 635.405 335.772 636.799 336.534C638.226 337.263 639.371 338.291 640.234 339.616C641.097 340.909 641.578 342.417 641.678 344.141V351.25C641.578 352.94 641.097 354.448 640.234 355.774C639.404 357.1 638.276 358.144 636.849 358.906C635.455 359.635 633.845 360 632.02 360ZM632.767 355.774C634.99 355.774 636.782 355.028 638.143 353.537C639.504 352.012 640.184 350.073 640.184 347.72C640.184 346.096 639.869 344.687 639.238 343.494C638.641 342.268 637.778 341.323 636.65 340.661C635.521 339.964 634.21 339.616 632.717 339.616C631.223 339.616 629.896 339.964 628.734 340.661C627.606 341.357 626.71 342.318 626.046 343.544C625.416 344.737 625.1 346.113 625.1 347.67C625.1 349.261 625.416 350.67 626.046 351.896C626.71 353.089 627.623 354.034 628.784 354.73C629.946 355.426 631.273 355.774 632.767 355.774ZM639.886 359.503V353.139L640.732 347.372L639.886 341.655V335.888H644.416V359.503H639.886Z" fill="#440F02"/>
<path d="M650.939 359.503V335.888H655.419V359.503H650.939ZM655.419 346.179L653.726 345.384C653.726 342.401 654.473 340.08 655.967 338.423C657.46 336.733 659.8 335.888 662.986 335.888H679.314V339.964H662.189C659.999 339.964 658.323 340.462 657.161 341.456C656 342.417 655.419 343.991 655.419 346.179ZM669.01 359.503V325.994H673.54V359.503H669.01Z" fill="#440F02"/>
<path d="M683.755 359.503V335.888H688.236V359.503H683.755ZM685.995 331.165C685.166 331.165 684.485 330.9 683.954 330.369C683.423 329.806 683.158 329.11 683.158 328.281C683.158 327.486 683.423 326.823 683.954 326.293C684.485 325.729 685.166 325.447 685.995 325.447C686.825 325.447 687.505 325.729 688.036 326.293C688.567 326.823 688.833 327.486 688.833 328.281C688.833 329.11 688.567 329.806 688.036 330.369C687.505 330.9 686.825 331.165 685.995 331.165Z" fill="#440F02"/>
<path d="M694.241 359.503V345.93C694.241 343.842 694.672 342.019 695.535 340.462C696.431 338.871 697.643 337.628 699.169 336.733C700.729 335.838 702.555 335.391 704.645 335.391C706.736 335.391 708.545 335.838 710.072 336.733C711.631 337.595 712.843 338.821 713.706 340.412C714.569 342.003 715 343.842 715 345.93V359.503H710.52V346.278C710.52 344.323 710.005 342.732 708.976 341.506C707.981 340.279 706.537 339.666 704.645 339.666C702.754 339.666 701.293 340.279 700.265 341.506C699.236 342.732 698.721 344.323 698.721 346.278V359.503H694.241Z" fill="#440F02"/>
<path d="M598.459 404.867C595.965 404.867 593.653 404.408 591.525 403.492C589.397 402.541 587.535 401.234 585.938 399.571C584.375 397.908 583.162 395.973 582.297 393.766C581.432 391.559 581 389.2 581 386.688C581 384.142 581.432 381.766 582.297 379.559C583.162 377.352 584.375 375.434 585.938 373.805C587.535 372.142 589.38 370.852 591.475 369.935C593.604 368.984 595.915 368.509 598.409 368.509C601.136 368.509 603.53 368.984 605.592 369.935C607.654 370.886 609.483 372.176 611.079 373.805L607.837 377.115C606.739 375.859 605.392 374.874 603.796 374.161C602.233 373.449 600.437 373.092 598.409 373.092C596.58 373.092 594.901 373.432 593.371 374.111C591.841 374.756 590.511 375.689 589.38 376.911C588.25 378.133 587.368 379.576 586.736 381.239C586.138 382.903 585.839 384.719 585.839 386.688C585.839 388.657 586.138 390.473 586.736 392.137C587.368 393.8 588.25 395.243 589.38 396.465C590.511 397.687 591.841 398.637 593.371 399.316C594.901 399.961 596.58 400.284 598.409 400.284C600.571 400.284 602.449 399.927 604.046 399.215C605.642 398.468 606.989 397.466 608.086 396.21L611.328 399.469C609.732 401.166 607.853 402.49 605.692 403.441C603.563 404.391 601.152 404.867 598.459 404.867Z" fill="#440F02"/>
<path d="M616.291 404.358V368H620.78V404.358H616.291Z" fill="#440F02"/>
<path d="M638.173 404.867C635.845 404.867 633.75 404.307 631.888 403.186C630.026 402.066 628.546 400.555 627.448 398.654C626.351 396.719 625.802 394.564 625.802 392.187C625.802 389.845 626.351 387.74 627.448 385.873C628.546 383.972 630.026 382.462 631.888 381.341C633.75 380.221 635.845 379.661 638.173 379.661C640.468 379.661 642.546 380.221 644.408 381.341C646.304 382.428 647.8 383.921 648.898 385.822C649.995 387.723 650.544 389.845 650.544 392.187C650.544 394.564 649.995 396.719 648.898 398.654C647.8 400.555 646.304 402.066 644.408 403.186C642.546 404.307 640.468 404.867 638.173 404.867ZM638.173 400.437C639.669 400.437 641 400.08 642.164 399.367C643.327 398.654 644.242 397.687 644.907 396.465C645.572 395.209 645.905 393.783 645.905 392.187C645.905 390.626 645.556 389.234 644.857 388.012C644.192 386.79 643.278 385.839 642.114 385.16C640.983 384.447 639.669 384.091 638.173 384.091C636.676 384.091 635.346 384.447 634.182 385.16C633.018 385.839 632.104 386.79 631.439 388.012C630.774 389.234 630.441 390.626 630.441 392.187C630.441 393.783 630.774 395.209 631.439 396.465C632.104 397.687 633.018 398.654 634.182 399.367C635.346 400.08 636.676 400.437 638.173 400.437Z" fill="#440F02"/>
<path d="M667.025 404.867C665.595 404.867 664.282 404.561 663.085 403.95C661.921 403.305 660.989 402.389 660.291 401.2C659.593 399.978 659.244 398.485 659.244 396.719V370.037H663.733V396.618C663.733 397.941 664.066 398.943 664.731 399.622C665.429 400.267 666.294 400.589 667.325 400.589C668.056 400.589 668.705 400.454 669.27 400.182C669.869 399.91 670.401 399.52 670.866 399.011L673.61 401.811C672.778 402.83 671.847 403.594 670.816 404.103C669.819 404.612 668.555 404.867 667.025 404.867ZM653.407 384.447V380.17H672.562V384.447H653.407Z" fill="#440F02"/>
<path d="M694.819 404.358V390.252C694.819 388.419 694.254 386.909 693.123 385.72C691.993 384.532 690.53 383.938 688.734 383.938C687.537 383.938 686.472 384.21 685.541 384.753C684.61 385.296 683.879 386.043 683.346 386.994C682.814 387.944 682.548 389.03 682.548 390.252L680.703 389.183C680.703 387.35 681.102 385.72 681.9 384.295C682.698 382.869 683.812 381.749 685.242 380.934C686.672 380.085 688.285 379.661 690.081 379.661C691.876 379.661 693.456 380.068 694.819 380.883C696.216 381.698 697.314 382.835 698.112 384.295C698.91 385.754 699.309 387.435 699.309 389.336V404.358H694.819ZM678.059 404.358V368H682.548V404.358H678.059Z" fill="#440F02"/>
<path d="M705.437 404.358V380.17H709.926V404.358H705.437ZM707.682 375.333C706.85 375.333 706.169 375.061 705.636 374.518C705.104 373.941 704.838 373.228 704.838 372.379C704.838 371.564 705.104 370.886 705.636 370.342C706.169 369.765 706.85 369.477 707.682 369.477C708.513 369.477 709.195 369.765 709.727 370.342C710.259 370.886 710.525 371.564 710.525 372.379C710.525 373.228 710.259 373.941 709.727 374.518C709.195 375.061 708.513 375.333 707.682 375.333Z" fill="#440F02"/>
<path d="M715.944 404.358V390.456C715.944 388.317 716.376 386.45 717.241 384.855C718.139 383.225 719.352 381.952 720.882 381.036C722.445 380.119 724.274 379.661 726.369 379.661C728.464 379.661 730.277 380.119 731.806 381.036C733.369 381.918 734.583 383.174 735.448 384.804C736.312 386.433 736.745 388.317 736.745 390.456V404.358H732.255V390.813C732.255 388.81 731.74 387.18 730.709 385.924C729.711 384.668 728.265 384.04 726.369 384.04C724.474 384.04 723.01 384.668 721.98 385.924C720.949 387.18 720.433 388.81 720.433 390.813V404.358H715.944Z" fill="#440F02"/>
<path d="M751.43 415C749.401 415 747.555 414.61 745.893 413.829C744.263 413.048 742.966 411.979 742.002 410.621C741.037 409.263 740.555 407.667 740.555 405.834C740.555 404.476 740.755 403.339 741.154 402.423C741.553 401.506 742.152 400.674 742.95 399.927L746.491 402.372C746.059 402.779 745.726 403.254 745.494 403.797C745.294 404.307 745.194 404.935 745.194 405.681C745.194 407.175 745.76 408.363 746.89 409.246C748.021 410.129 749.534 410.57 751.43 410.57C753.425 410.57 754.988 410.078 756.119 409.093C757.249 408.143 757.815 406.802 757.815 405.07C757.815 403.95 757.549 402.949 757.016 402.066C756.484 401.183 755.753 400.488 754.822 399.978C753.891 399.435 752.826 399.164 751.629 399.164C749.833 399.164 748.204 398.756 746.741 397.941C745.311 397.093 744.163 395.939 743.299 394.479C742.467 392.985 742.052 391.322 742.052 389.489C742.052 387.588 742.484 385.907 743.349 384.447C744.213 382.988 745.377 381.834 746.84 380.985C748.304 380.102 749.95 379.661 751.779 379.661C753.608 379.661 755.254 380.085 756.717 380.934C758.18 381.749 759.328 382.869 760.159 384.295C761.024 385.687 761.456 387.282 761.456 389.081C761.456 390.813 761.04 392.374 760.209 393.766C759.378 395.158 758.247 396.261 756.817 397.076C755.42 397.857 753.824 398.247 752.028 398.247L751.729 395.752C753.824 395.752 755.67 396.159 757.266 396.974C758.862 397.789 760.126 398.926 761.057 400.386C761.988 401.811 762.454 403.458 762.454 405.325C762.454 407.226 761.988 408.906 761.057 410.366C760.159 411.826 758.895 412.963 757.266 413.778C755.636 414.593 753.691 415 751.43 415ZM751.779 394.886C752.843 394.886 753.774 394.649 754.572 394.173C755.37 393.698 756.002 393.053 756.468 392.238C756.933 391.424 757.166 390.49 757.166 389.438C757.166 388.385 756.933 387.452 756.468 386.637C756.002 385.822 755.37 385.194 754.572 384.753C753.774 384.278 752.843 384.04 751.779 384.04C750.715 384.04 749.767 384.278 748.936 384.753C748.137 385.194 747.506 385.822 747.04 386.637C746.608 387.452 746.392 388.385 746.392 389.438C746.392 390.49 746.608 391.424 747.04 392.238C747.506 393.053 748.154 393.698 748.985 394.173C749.817 394.649 750.748 394.886 751.779 394.886ZM758.463 385.568L755.72 382.716L761.256 377.013L764 379.865L758.463 385.568Z" fill="#440F02"/>
<path d="M777 413C775.652 413 774.449 412.691 773.391 412.073C772.354 411.455 771.524 410.61 770.902 409.539C770.301 408.467 770 407.272 770 405.954C770 404.635 770.301 403.45 770.902 402.4C771.504 401.349 772.323 400.525 773.36 399.927C774.397 399.309 775.6 399 776.969 399C778.338 399 779.551 399.309 780.609 399.927C781.667 400.545 782.496 401.38 783.098 402.43C783.699 403.481 784 404.666 784 405.985C784 407.283 783.699 408.467 783.098 409.539C782.496 410.61 781.667 411.455 780.609 412.073C779.572 412.691 778.369 413 777 413ZM776.969 411.517C778.068 411.517 779.022 411.28 779.831 410.806C780.661 410.311 781.304 409.642 781.76 408.797C782.237 407.952 782.476 407.004 782.476 405.954C782.476 404.923 782.237 403.996 781.76 403.172C781.304 402.348 780.661 401.699 779.831 401.225C779.022 400.731 778.068 400.483 776.969 400.483C775.89 400.483 774.947 400.731 774.138 401.225C773.329 401.699 772.696 402.348 772.24 403.172C771.784 403.996 771.556 404.923 771.556 405.954C771.556 407.004 771.784 407.952 772.24 408.797C772.696 409.642 773.329 410.311 774.138 410.806C774.967 411.28 775.911 411.517 776.969 411.517ZM775.942 406.541V405.305H777.28C777.55 405.305 777.757 405.243 777.902 405.119C778.068 404.975 778.151 404.779 778.151 404.532C778.151 404.326 778.068 404.151 777.902 404.007C777.757 403.862 777.55 403.79 777.28 403.79H775.942V402.523H777.498C778.182 402.523 778.742 402.709 779.178 403.079C779.613 403.45 779.831 403.935 779.831 404.532C779.831 405.13 779.613 405.614 779.178 405.985C778.742 406.355 778.161 406.541 777.436 406.541H775.942ZM774.636 409.26V402.523H776.316V409.26H774.636ZM778.307 409.26L776.316 406.386L777.84 405.985L780.267 409.26H778.307Z" fill="#440F02"/>
<defs>
<clipPath id="clip0_509_1250">
<rect width="134" height="134" fill="white" transform="translate(431 281)"/>
</clipPath>
</defs>
</svg>
