<svg width="592" height="695" viewBox="0 0 592 695" fill="none" xmlns="http://www.w3.org/2000/svg">
<rect width="592" height="695" rx="12" fill="#F5F8F5"/>
<path d="M50.02 64.22C48.9933 64.22 48.0333 64.0333 47.14 63.66C46.26 63.2867 45.4867 62.7733 44.82 62.12C44.1667 61.4533 43.6533 60.68 43.28 59.8C42.9067 58.9067 42.72 57.9533 42.72 56.94C42.72 55.9267 42.9 54.9867 43.26 54.12C43.6333 53.24 44.1467 52.4733 44.8 51.82C45.4667 51.1533 46.24 50.64 47.12 50.28C48 49.9067 48.9533 49.72 49.98 49.72C51.02 49.72 51.98 49.9067 52.86 50.28C53.74 50.64 54.5067 51.1533 55.16 51.82C55.8267 52.4733 56.3467 53.24 56.72 54.12C57.0933 55 57.28 55.9467 57.28 56.96C57.28 57.9733 57.0933 58.92 56.72 59.8C56.3467 60.68 55.8267 61.4533 55.16 62.12C54.5067 62.7733 53.74 63.2867 52.86 63.66C51.9933 64.0333 51.0467 64.22 50.02 64.22ZM49.98 61.68C50.8867 61.68 51.6733 61.48 52.34 61.08C53.0067 60.68 53.5267 60.1267 53.9 59.42C54.2867 58.7133 54.48 57.8867 54.48 56.94C54.48 56.2467 54.3733 55.6133 54.16 55.04C53.9467 54.4667 53.64 53.9733 53.24 53.56C52.84 53.1333 52.3667 52.8067 51.82 52.58C51.2733 52.3533 50.66 52.24 49.98 52.24C49.1 52.24 48.32 52.44 47.64 52.84C46.9733 53.2267 46.4467 53.7733 46.06 54.48C45.6867 55.1867 45.5 56.0067 45.5 56.94C45.5 57.6467 45.6067 58.2933 45.82 58.88C46.0467 59.4667 46.3533 59.9667 46.74 60.38C47.14 60.7933 47.6133 61.1133 48.16 61.34C48.72 61.5667 49.3267 61.68 49.98 61.68ZM60.4361 64V53.72C60.4361 52.9067 60.6028 52.1867 60.9361 51.56C61.2828 50.9333 61.7694 50.44 62.3961 50.08C63.0361 49.7067 63.7828 49.52 64.6361 49.52C65.4894 49.52 66.1894 49.7 66.7361 50.06C67.2961 50.42 67.7094 50.9 67.9761 51.5C68.2561 52.0867 68.3961 52.74 68.3961 53.46L66.4161 53.62C66.4161 53.06 66.2694 52.6267 65.9761 52.32C65.6961 52 65.2828 51.84 64.7361 51.84C64.1894 51.84 63.7694 51.9933 63.4761 52.3C63.1961 52.6067 63.0561 53.0267 63.0561 53.56V64H60.4361ZM58.1961 56.64V54.34H71.8961V56.64H58.1961ZM66.4161 64V53.3C66.4161 52.54 66.5828 51.86 66.9161 51.26C67.2494 50.66 67.7228 50.1867 68.3361 49.84C68.9494 49.4933 69.6694 49.32 70.4961 49.32C71.1228 49.32 71.6628 49.4267 72.1161 49.64C72.5694 49.8533 72.9761 50.1467 73.3361 50.52L71.6761 52.2C71.5294 52.0533 71.3694 51.94 71.1961 51.86C71.0228 51.78 70.8028 51.74 70.5361 51.74C70.0561 51.74 69.6828 51.8733 69.4161 52.14C69.1628 52.3933 69.0361 52.76 69.0361 53.24V64H66.4161ZM73.5116 64V54.34H76.1516V64H73.5116ZM74.8316 52.78C74.4049 52.78 74.0516 52.64 73.7716 52.36C73.4916 52.0667 73.3516 51.7067 73.3516 51.28C73.3516 50.8667 73.4916 50.5133 73.7716 50.22C74.0516 49.9267 74.4049 49.78 74.8316 49.78C75.2716 49.78 75.6249 49.9267 75.8916 50.22C76.1716 50.5133 76.3116 50.8667 76.3116 51.28C76.3116 51.7067 76.1716 52.0667 75.8916 52.36C75.6249 52.64 75.2716 52.78 74.8316 52.78ZM83.0325 64.2C82.0458 64.2 81.1592 63.98 80.3725 63.54C79.5858 63.1 78.9658 62.5 78.5125 61.74C78.0592 60.98 77.8325 60.1267 77.8325 59.18C77.8325 58.22 78.0592 57.36 78.5125 56.6C78.9658 55.84 79.5858 55.24 80.3725 54.8C81.1725 54.3467 82.0592 54.12 83.0325 54.12C83.7925 54.12 84.4925 54.26 85.1325 54.54C85.7725 54.82 86.3258 55.22 86.7925 55.74L85.1125 57.44C84.8592 57.16 84.5525 56.9467 84.1925 56.8C83.8458 56.6533 83.4592 56.58 83.0325 56.58C82.5525 56.58 82.1192 56.6933 81.7325 56.92C81.3592 57.1333 81.0592 57.4333 80.8325 57.82C80.6192 58.1933 80.5125 58.64 80.5125 59.16C80.5125 59.6667 80.6192 60.12 80.8325 60.52C81.0592 60.9067 81.3592 61.2133 81.7325 61.44C82.1192 61.6533 82.5525 61.76 83.0325 61.76C83.4725 61.76 83.8658 61.6867 84.2125 61.54C84.5725 61.38 84.8792 61.1533 85.1325 60.86L86.8325 62.56C86.3392 63.0933 85.7725 63.5 85.1325 63.78C84.4925 64.06 83.7925 64.2 83.0325 64.2ZM88.3163 64V54.34H90.9563V64H88.3163ZM89.6363 52.78C89.2096 52.78 88.8563 52.64 88.5763 52.36C88.2963 52.0667 88.1563 51.7067 88.1563 51.28C88.1563 50.8667 88.2963 50.5133 88.5763 50.22C88.8563 49.9267 89.2096 49.78 89.6363 49.78C90.0763 49.78 90.4296 49.9267 90.6963 50.22C90.9763 50.5133 91.1163 50.8667 91.1163 51.28C91.1163 51.7067 90.9763 52.0667 90.6963 52.36C90.4296 52.64 90.0763 52.78 89.6363 52.78ZM97.3172 64.2C96.4372 64.2 95.6439 63.98 94.9372 63.54C94.2305 63.1 93.6772 62.5 93.2772 61.74C92.8772 60.98 92.6772 60.1267 92.6772 59.18C92.6772 58.22 92.8772 57.36 93.2772 56.6C93.6772 55.84 94.2305 55.24 94.9372 54.8C95.6439 54.36 96.4372 54.14 97.3172 54.14C98.0105 54.14 98.6305 54.28 99.1772 54.56C99.7239 54.84 100.157 55.2333 100.477 55.74C100.811 56.2333 100.991 56.7933 101.017 57.42V60.9C100.991 61.54 100.811 62.1067 100.477 62.6C100.157 63.0933 99.7239 63.4867 99.1772 63.78C98.6305 64.06 98.0105 64.2 97.3172 64.2ZM97.7972 61.78C98.5305 61.78 99.1239 61.54 99.5772 61.06C100.031 60.5667 100.257 59.9333 100.257 59.16C100.257 58.6533 100.151 58.2067 99.9372 57.82C99.7372 57.42 99.4505 57.1133 99.0772 56.9C98.7172 56.6733 98.2905 56.56 97.7972 56.56C97.3172 56.56 96.8905 56.6733 96.5172 56.9C96.1572 57.1133 95.8705 57.42 95.6572 57.82C95.4572 58.2067 95.3572 58.6533 95.3572 59.16C95.3572 59.68 95.4572 60.14 95.6572 60.54C95.8705 60.9267 96.1572 61.2333 96.5172 61.46C96.8905 61.6733 97.3172 61.78 97.7972 61.78ZM100.117 64V61.4L100.537 59.04L100.117 56.72V54.34H102.717V64H100.117ZM105.035 64V49.54H107.655V64H105.035ZM119.243 64.2C118.549 64.2 117.923 64.0533 117.363 63.76C116.803 63.4667 116.356 63.0667 116.023 62.56C115.689 62.0533 115.509 61.4867 115.483 60.86V57.42C115.509 56.7933 115.689 56.2333 116.023 55.74C116.369 55.2333 116.823 54.84 117.383 54.56C117.943 54.28 118.563 54.14 119.243 54.14C120.136 54.14 120.936 54.36 121.643 54.8C122.349 55.24 122.903 55.84 123.303 56.6C123.716 57.36 123.923 58.22 123.923 59.18C123.923 60.1267 123.716 60.98 123.303 61.74C122.903 62.5 122.349 63.1 121.643 63.54C120.936 63.98 120.136 64.2 119.243 64.2ZM113.883 64V49.54H116.503V56.72L116.063 59.04L116.483 61.4V64H113.883ZM118.803 61.78C119.283 61.78 119.703 61.6733 120.063 61.46C120.436 61.2333 120.723 60.9267 120.923 60.54C121.136 60.14 121.243 59.68 121.243 59.16C121.243 58.6533 121.136 58.2067 120.923 57.82C120.723 57.42 120.436 57.1133 120.063 56.9C119.689 56.6733 119.263 56.56 118.783 56.56C118.303 56.56 117.876 56.6733 117.503 56.9C117.143 57.1133 116.856 57.42 116.643 57.82C116.443 58.2067 116.343 58.6533 116.343 59.16C116.343 59.68 116.443 60.14 116.643 60.54C116.856 60.9267 117.149 61.2333 117.523 61.46C117.896 61.6733 118.323 61.78 118.803 61.78ZM125.64 64V54.34H128.26V64H125.64ZM128.26 58.66L127.24 57.98C127.36 56.7933 127.707 55.86 128.28 55.18C128.854 54.4867 129.68 54.14 130.76 54.14C131.227 54.14 131.647 54.22 132.02 54.38C132.394 54.5267 132.734 54.7733 133.04 55.12L131.4 57C131.254 56.84 131.074 56.72 130.86 56.64C130.66 56.56 130.427 56.52 130.16 56.52C129.6 56.52 129.14 56.7 128.78 57.06C128.434 57.4067 128.26 57.94 128.26 58.66ZM137.727 64.2C136.847 64.2 136.054 63.98 135.347 63.54C134.641 63.1 134.087 62.5 133.687 61.74C133.287 60.98 133.087 60.1267 133.087 59.18C133.087 58.22 133.287 57.36 133.687 56.6C134.087 55.84 134.641 55.24 135.347 54.8C136.054 54.36 136.847 54.14 137.727 54.14C138.421 54.14 139.041 54.28 139.587 54.56C140.134 54.84 140.567 55.2333 140.887 55.74C141.221 56.2333 141.401 56.7933 141.427 57.42V60.9C141.401 61.54 141.221 62.1067 140.887 62.6C140.567 63.0933 140.134 63.4867 139.587 63.78C139.041 64.06 138.421 64.2 137.727 64.2ZM138.207 61.78C138.941 61.78 139.534 61.54 139.987 61.06C140.441 60.5667 140.667 59.9333 140.667 59.16C140.667 58.6533 140.561 58.2067 140.347 57.82C140.147 57.42 139.861 57.1133 139.487 56.9C139.127 56.6733 138.701 56.56 138.207 56.56C137.727 56.56 137.301 56.6733 136.927 56.9C136.567 57.1133 136.281 57.42 136.067 57.82C135.867 58.2067 135.767 58.6533 135.767 59.16C135.767 59.68 135.867 60.14 136.067 60.54C136.281 60.9267 136.567 61.2333 136.927 61.46C137.301 61.6733 137.727 61.78 138.207 61.78ZM140.527 64V61.4L140.947 59.04L140.527 56.72V54.34H143.127V64H140.527ZM151.945 64V58.46C151.945 57.8867 151.765 57.42 151.405 57.06C151.045 56.7 150.578 56.52 150.005 56.52C149.632 56.52 149.298 56.6 149.005 56.76C148.712 56.92 148.478 57.1467 148.305 57.44C148.145 57.7333 148.065 58.0733 148.065 58.46L147.045 57.94C147.045 57.18 147.205 56.52 147.525 55.96C147.858 55.3867 148.312 54.94 148.885 54.62C149.472 54.3 150.132 54.14 150.865 54.14C151.572 54.14 152.205 54.32 152.765 54.68C153.325 55.0267 153.765 55.4867 154.085 56.06C154.405 56.62 154.565 57.2267 154.565 57.88V64H151.945ZM145.445 64V54.34H148.065V64H145.445ZM160.756 64.2C159.862 64.2 159.062 63.98 158.356 63.54C157.649 63.1 157.089 62.5 156.676 61.74C156.276 60.98 156.076 60.1267 156.076 59.18C156.076 58.22 156.276 57.36 156.676 56.6C157.089 55.84 157.642 55.24 158.336 54.8C159.042 54.36 159.849 54.14 160.756 54.14C161.449 54.14 162.069 54.28 162.616 54.56C163.176 54.84 163.622 55.2333 163.956 55.74C164.302 56.2333 164.489 56.7933 164.516 57.42V60.86C164.489 61.4867 164.309 62.0533 163.976 62.56C163.642 63.0667 163.196 63.4667 162.636 63.76C162.076 64.0533 161.449 64.2 160.756 64.2ZM161.196 61.78C161.689 61.78 162.116 61.6733 162.476 61.46C162.849 61.2333 163.136 60.9267 163.336 60.54C163.549 60.14 163.656 59.68 163.656 59.16C163.656 58.6533 163.549 58.2067 163.336 57.82C163.136 57.42 162.849 57.1133 162.476 56.9C162.116 56.6733 161.696 56.56 161.216 56.56C160.722 56.56 160.289 56.6733 159.916 56.9C159.556 57.1267 159.269 57.4333 159.056 57.82C158.856 58.2067 158.756 58.6533 158.756 59.16C158.756 59.68 158.856 60.14 159.056 60.54C159.269 60.9267 159.562 61.2333 159.936 61.46C160.309 61.6733 160.729 61.78 161.196 61.78ZM166.116 64H163.516V61.4L163.936 59.04L163.496 56.72V49.54H166.116V64ZM173.76 64V50.32H176.38V64H173.76ZM171.5 56.64V54.34H178.64V56.64H171.5ZM183.153 64.08L179.113 54.34H181.953L184.633 61.78H183.673L186.453 54.34H189.313L185.013 64.08H183.153ZM180.473 68.04L183.413 61.82L185.013 64.08L183.253 68.04H180.473ZM195.766 64.2C195.073 64.2 194.446 64.06 193.886 63.78C193.326 63.4867 192.879 63.0933 192.546 62.6C192.213 62.1067 192.033 61.54 192.006 60.9V57.48C192.033 56.84 192.213 56.2733 192.546 55.78C192.893 55.2733 193.339 54.8733 193.886 54.58C194.446 54.2867 195.073 54.14 195.766 54.14C196.659 54.14 197.459 54.36 198.166 54.8C198.873 55.24 199.426 55.84 199.826 56.6C200.239 57.36 200.446 58.22 200.446 59.18C200.446 60.1267 200.239 60.98 199.826 61.74C199.426 62.5 198.873 63.1 198.166 63.54C197.459 63.98 196.659 64.2 195.766 64.2ZM190.406 68.04V54.34H193.026V56.88L192.586 59.22L193.006 61.56V68.04H190.406ZM195.306 61.78C195.786 61.78 196.213 61.6733 196.586 61.46C196.959 61.2333 197.246 60.9267 197.446 60.54C197.659 60.14 197.766 59.68 197.766 59.16C197.766 58.6533 197.659 58.2067 197.446 57.82C197.246 57.42 196.959 57.1133 196.586 56.9C196.213 56.6733 195.786 56.56 195.306 56.56C194.839 56.56 194.419 56.6733 194.046 56.9C193.673 57.1133 193.379 57.42 193.166 57.82C192.966 58.2067 192.866 58.6533 192.866 59.16C192.866 59.68 192.966 60.14 193.166 60.54C193.379 60.9267 193.666 61.2333 194.026 61.46C194.399 61.6733 194.826 61.78 195.306 61.78ZM206.704 64.2C205.731 64.2 204.851 63.98 204.064 63.54C203.291 63.0867 202.671 62.48 202.204 61.72C201.751 60.9467 201.524 60.0867 201.524 59.14C201.524 58.1933 201.751 57.3467 202.204 56.6C202.657 55.84 203.277 55.24 204.064 54.8C204.851 54.3467 205.724 54.12 206.684 54.12C207.671 54.12 208.551 54.3467 209.324 54.8C210.111 55.24 210.731 55.84 211.184 56.6C211.637 57.3467 211.864 58.1933 211.864 59.14C211.864 60.0867 211.637 60.9467 211.184 61.72C210.731 62.48 210.111 63.0867 209.324 63.54C208.551 63.98 207.677 64.2 206.704 64.2ZM206.684 61.76C207.177 61.76 207.611 61.6533 207.984 61.44C208.371 61.2133 208.664 60.9067 208.864 60.52C209.077 60.12 209.184 59.6667 209.184 59.16C209.184 58.6533 209.077 58.2067 208.864 57.82C208.651 57.4333 208.357 57.1333 207.984 56.92C207.611 56.6933 207.177 56.58 206.684 56.58C206.204 56.58 205.777 56.6933 205.404 56.92C205.031 57.1333 204.737 57.4333 204.524 57.82C204.311 58.2067 204.204 58.6533 204.204 59.16C204.204 59.6667 204.311 60.12 204.524 60.52C204.737 60.9067 205.031 61.2133 205.404 61.44C205.777 61.6533 206.204 61.76 206.684 61.76ZM217.591 68.28C216.564 68.28 215.657 68.0933 214.871 67.72C214.084 67.36 213.457 66.8467 212.991 66.18L214.651 64.52C215.024 64.96 215.437 65.2933 215.891 65.52C216.357 65.76 216.917 65.88 217.571 65.88C218.384 65.88 219.024 65.6733 219.491 65.26C219.971 64.8467 220.211 64.2733 220.211 63.54V61.12L220.651 59L220.231 56.88V54.34H222.831V63.5C222.831 64.46 222.604 65.2933 222.151 66C221.711 66.72 221.097 67.28 220.311 67.68C219.524 68.08 218.617 68.28 217.591 68.28ZM217.471 63.74C216.604 63.74 215.824 63.5333 215.131 63.12C214.437 62.6933 213.891 62.1133 213.491 61.38C213.104 60.6467 212.911 59.8267 212.911 58.92C212.911 58.0133 213.104 57.2 213.491 56.48C213.891 55.76 214.437 55.1933 215.131 54.78C215.824 54.3533 216.604 54.14 217.471 54.14C218.191 54.14 218.824 54.28 219.371 54.56C219.931 54.84 220.371 55.2267 220.691 55.72C221.011 56.2 221.184 56.7667 221.211 57.42V60.46C221.184 61.1 221.004 61.6733 220.671 62.18C220.351 62.6733 219.911 63.06 219.351 63.34C218.804 63.6067 218.177 63.74 217.471 63.74ZM217.991 61.36C218.471 61.36 218.884 61.26 219.231 61.06C219.591 60.8467 219.871 60.56 220.071 60.2C220.271 59.8267 220.371 59.4067 220.371 58.94C220.371 58.46 220.271 58.04 220.071 57.68C219.871 57.32 219.591 57.04 219.231 56.84C218.884 56.6267 218.471 56.52 217.991 56.52C217.511 56.52 217.091 56.6267 216.731 56.84C216.371 57.04 216.091 57.3267 215.891 57.7C215.691 58.06 215.591 58.4733 215.591 58.94C215.591 59.3933 215.691 59.8067 215.891 60.18C216.091 60.54 216.371 60.8267 216.731 61.04C217.091 61.2533 217.511 61.36 217.991 61.36ZM225.133 64V54.34H227.753V64H225.133ZM227.753 58.66L226.733 57.98C226.853 56.7933 227.199 55.86 227.773 55.18C228.346 54.4867 229.173 54.14 230.253 54.14C230.719 54.14 231.139 54.22 231.513 54.38C231.886 54.5267 232.226 54.7733 232.533 55.12L230.893 57C230.746 56.84 230.566 56.72 230.353 56.64C230.153 56.56 229.919 56.52 229.653 56.52C229.093 56.52 228.633 56.7 228.273 57.06C227.926 57.4067 227.753 57.94 227.753 58.66ZM237.22 64.2C236.34 64.2 235.546 63.98 234.84 63.54C234.133 63.1 233.58 62.5 233.18 61.74C232.78 60.98 232.58 60.1267 232.58 59.18C232.58 58.22 232.78 57.36 233.18 56.6C233.58 55.84 234.133 55.24 234.84 54.8C235.546 54.36 236.34 54.14 237.22 54.14C237.913 54.14 238.533 54.28 239.08 54.56C239.626 54.84 240.06 55.2333 240.38 55.74C240.713 56.2333 240.893 56.7933 240.92 57.42V60.9C240.893 61.54 240.713 62.1067 240.38 62.6C240.06 63.0933 239.626 63.4867 239.08 63.78C238.533 64.06 237.913 64.2 237.22 64.2ZM237.7 61.78C238.433 61.78 239.026 61.54 239.48 61.06C239.933 60.5667 240.16 59.9333 240.16 59.16C240.16 58.6533 240.053 58.2067 239.84 57.82C239.64 57.42 239.353 57.1133 238.98 56.9C238.62 56.6733 238.193 56.56 237.7 56.56C237.22 56.56 236.793 56.6733 236.42 56.9C236.06 57.1133 235.773 57.42 235.56 57.82C235.36 58.2067 235.26 58.6533 235.26 59.16C235.26 59.68 235.36 60.14 235.56 60.54C235.773 60.9267 236.06 61.2333 236.42 61.46C236.793 61.6733 237.22 61.78 237.7 61.78ZM240.02 64V61.4L240.44 59.04L240.02 56.72V54.34H242.62V64H240.02ZM250.297 64.2C249.604 64.2 248.977 64.06 248.417 63.78C247.857 63.4867 247.411 63.0933 247.077 62.6C246.744 62.1067 246.564 61.54 246.537 60.9V57.48C246.564 56.84 246.744 56.2733 247.077 55.78C247.424 55.2733 247.871 54.8733 248.417 54.58C248.977 54.2867 249.604 54.14 250.297 54.14C251.191 54.14 251.991 54.36 252.697 54.8C253.404 55.24 253.957 55.84 254.357 56.6C254.771 57.36 254.977 58.22 254.977 59.18C254.977 60.1267 254.771 60.98 254.357 61.74C253.957 62.5 253.404 63.1 252.697 63.54C251.991 63.98 251.191 64.2 250.297 64.2ZM244.937 68.04V54.34H247.557V56.88L247.117 59.22L247.537 61.56V68.04H244.937ZM249.837 61.78C250.317 61.78 250.744 61.6733 251.117 61.46C251.491 61.2333 251.777 60.9267 251.977 60.54C252.191 60.14 252.297 59.68 252.297 59.16C252.297 58.6533 252.191 58.2067 251.977 57.82C251.777 57.42 251.491 57.1133 251.117 56.9C250.744 56.6733 250.317 56.56 249.837 56.56C249.371 56.56 248.951 56.6733 248.577 56.9C248.204 57.1133 247.911 57.42 247.697 57.82C247.497 58.2067 247.397 58.6533 247.397 59.16C247.397 59.68 247.497 60.14 247.697 60.54C247.911 60.9267 248.197 61.2333 248.557 61.46C248.931 61.6733 249.357 61.78 249.837 61.78ZM263.195 64V58.46C263.195 57.8867 263.015 57.42 262.655 57.06C262.295 56.7 261.828 56.52 261.255 56.52C260.882 56.52 260.548 56.6 260.255 56.76C259.962 56.92 259.728 57.1467 259.555 57.44C259.395 57.7333 259.315 58.0733 259.315 58.46L258.295 57.94C258.295 57.18 258.455 56.52 258.775 55.96C259.095 55.3867 259.535 54.94 260.095 54.62C260.668 54.3 261.322 54.14 262.055 54.14C262.788 54.14 263.435 54.3 263.995 54.62C264.568 54.94 265.015 55.38 265.335 55.94C265.655 56.5 265.815 57.1467 265.815 57.88V64H263.195ZM256.695 64V49.54H259.315V64H256.695ZM270.966 64.08L266.926 54.34H269.766L272.446 61.78H271.486L274.266 54.34H277.126L272.826 64.08H270.966ZM268.286 68.04L271.226 61.82L272.826 64.08L271.066 68.04H268.286Z" fill="#4C554E"/>
<path d="M71.94 472.56H56.22L53.7 480H42.96L58.2 437.88H70.08L85.32 480H74.46L71.94 472.56ZM69.3 464.64L64.08 449.22L58.92 464.64H69.3ZM87.9183 463.2C87.9183 459.76 88.5583 456.74 89.8383 454.14C91.1583 451.54 92.9383 449.54 95.1783 448.14C97.4183 446.74 99.9183 446.04 102.678 446.04C105.038 446.04 107.098 446.52 108.858 447.48C110.658 448.44 112.038 449.7 112.998 451.26V446.52H123.258V480H112.998V475.26C111.998 476.82 110.598 478.08 108.798 479.04C107.038 480 104.978 480.48 102.618 480.48C99.8983 480.48 97.4183 479.78 95.1783 478.38C92.9383 476.94 91.1583 474.92 89.8383 472.32C88.5583 469.68 87.9183 466.64 87.9183 463.2ZM112.998 463.26C112.998 460.7 112.278 458.68 110.838 457.2C109.438 455.72 107.718 454.98 105.678 454.98C103.638 454.98 101.898 455.72 100.458 457.2C99.0583 458.64 98.3583 460.64 98.3583 463.2C98.3583 465.76 99.0583 467.8 100.458 469.32C101.898 470.8 103.638 471.54 105.678 471.54C107.718 471.54 109.438 470.8 110.838 469.32C112.278 467.84 112.998 465.82 112.998 463.26Z" fill="#1F2226"/>
<path d="M53.976 533.024H47.688L46.68 536H42.384L48.48 519.152H53.232L59.328 536H54.984L53.976 533.024ZM52.92 529.856L50.832 523.688L48.768 529.856H52.92ZM71.3833 527.36C72.3593 527.568 73.1433 528.056 73.7353 528.824C74.3273 529.576 74.6233 530.44 74.6233 531.416C74.6233 532.824 74.1273 533.944 73.1353 534.776C72.1593 535.592 70.7913 536 69.0313 536H61.1833V519.152H68.7673C70.4793 519.152 71.8153 519.544 72.7753 520.328C73.7513 521.112 74.2393 522.176 74.2393 523.52C74.2393 524.512 73.9753 525.336 73.4473 525.992C72.9353 526.648 72.2473 527.104 71.3833 527.36ZM65.2873 525.968H67.9753C68.6473 525.968 69.1593 525.824 69.5113 525.536C69.8793 525.232 70.0633 524.792 70.0633 524.216C70.0633 523.64 69.8793 523.2 69.5113 522.896C69.1593 522.592 68.6473 522.44 67.9753 522.44H65.2873V525.968ZM68.3113 532.688C68.9993 532.688 69.5273 532.536 69.8953 532.232C70.2793 531.912 70.4713 531.456 70.4713 530.864C70.4713 530.272 70.2713 529.808 69.8713 529.472C69.4873 529.136 68.9513 528.968 68.2633 528.968H65.2873V532.688H68.3113ZM76.3076 527.552C76.3076 525.888 76.6676 524.408 77.3876 523.112C78.1076 521.8 79.1076 520.784 80.3876 520.064C81.6836 519.328 83.1476 518.96 84.7796 518.96C86.7796 518.96 88.4916 519.488 89.9156 520.544C91.3396 521.6 92.2916 523.04 92.7716 524.864H88.2596C87.9236 524.16 87.4436 523.624 86.8196 523.256C86.2116 522.888 85.5156 522.704 84.7316 522.704C83.4676 522.704 82.4436 523.144 81.6596 524.024C80.8756 524.904 80.4836 526.08 80.4836 527.552C80.4836 529.024 80.8756 530.2 81.6596 531.08C82.4436 531.96 83.4676 532.4 84.7316 532.4C85.5156 532.4 86.2116 532.216 86.8196 531.848C87.4436 531.48 87.9236 530.944 88.2596 530.24H92.7716C92.2916 532.064 91.3396 533.504 89.9156 534.56C88.4916 535.6 86.7796 536.12 84.7796 536.12C83.1476 536.12 81.6836 535.76 80.3876 535.04C79.1076 534.304 78.1076 533.288 77.3876 531.992C76.6676 530.696 76.3076 529.216 76.3076 527.552ZM101.597 519.152C103.373 519.152 104.925 519.504 106.253 520.208C107.581 520.912 108.605 521.904 109.325 523.184C110.061 524.448 110.429 525.912 110.429 527.576C110.429 529.224 110.061 530.688 109.325 531.968C108.605 533.248 107.573 534.24 106.229 534.944C104.901 535.648 103.357 536 101.597 536H95.2849V519.152H101.597ZM101.333 532.448C102.885 532.448 104.093 532.024 104.957 531.176C105.821 530.328 106.253 529.128 106.253 527.576C106.253 526.024 105.821 524.816 104.957 523.952C104.093 523.088 102.885 522.656 101.333 522.656H99.3889V532.448H101.333ZM116.826 522.44V525.848H122.322V529.016H116.826V532.712H123.042V536H112.722V519.152H123.042V522.44H116.826ZM136.675 519.152V522.44H129.811V525.992H134.947V529.184H129.811V536H125.707V519.152H136.675ZM150.016 524.48C149.712 523.92 149.272 523.496 148.696 523.208C148.136 522.904 147.472 522.752 146.704 522.752C145.376 522.752 144.312 523.192 143.512 524.072C142.712 524.936 142.312 526.096 142.312 527.552C142.312 529.104 142.728 530.32 143.56 531.2C144.408 532.064 145.568 532.496 147.04 532.496C148.048 532.496 148.896 532.24 149.584 531.728C150.288 531.216 150.8 530.48 151.12 529.52H145.912V526.496H154.84V530.312C154.536 531.336 154.016 532.288 153.28 533.168C152.56 534.048 151.64 534.76 150.52 535.304C149.4 535.848 148.136 536.12 146.728 536.12C145.064 536.12 143.576 535.76 142.264 535.04C140.968 534.304 139.952 533.288 139.216 531.992C138.496 530.696 138.136 529.216 138.136 527.552C138.136 525.888 138.496 524.408 139.216 523.112C139.952 521.8 140.968 520.784 142.264 520.064C143.56 519.328 145.04 518.96 146.704 518.96C148.72 518.96 150.416 519.448 151.792 520.424C153.184 521.4 154.104 522.752 154.552 524.48H150.016ZM171.705 519.152V536H167.601V529.064H161.217V536H157.113V519.152H161.217V525.752H167.601V519.152H171.705ZM178.772 519.152V536H174.668V519.152H178.772ZM192.306 519.152V530.624C192.306 532.4 191.802 533.768 190.794 534.728C189.802 535.688 188.458 536.168 186.762 536.168C184.986 536.168 183.562 535.664 182.49 534.656C181.418 533.648 180.882 532.216 180.882 530.36H184.962C184.962 531.064 185.106 531.6 185.394 531.968C185.682 532.32 186.098 532.496 186.642 532.496C187.138 532.496 187.522 532.336 187.794 532.016C188.066 531.696 188.202 531.232 188.202 530.624V519.152H192.306ZM199.725 532.832H205.101V536H195.621V519.152H199.725V532.832ZM226.138 519.152V536H222.034V525.896L218.266 536H214.954L211.162 525.872V536H207.058V519.152H211.906L216.634 530.816L221.314 519.152H226.138ZM244.162 536H240.058L233.194 525.608V536H229.09V519.152H233.194L240.058 529.592V519.152H244.162V536ZM51.456 565.168C49.872 565.168 48.416 564.8 47.088 564.064C45.776 563.328 44.728 562.304 43.944 560.992C43.176 559.664 42.792 558.176 42.792 556.528C42.792 554.88 43.176 553.4 43.944 552.088C44.728 550.776 45.776 549.752 47.088 549.016C48.416 548.28 49.872 547.912 51.456 547.912C53.04 547.912 54.488 548.28 55.8 549.016C57.128 549.752 58.168 550.776 58.92 552.088C59.688 553.4 60.072 554.88 60.072 556.528C60.072 558.176 59.688 559.664 58.92 560.992C58.152 562.304 57.112 563.328 55.8 564.064C54.488 564.8 53.04 565.168 51.456 565.168ZM51.456 561.424C52.8 561.424 53.872 560.976 54.672 560.08C55.488 559.184 55.896 558 55.896 556.528C55.896 555.04 55.488 553.856 54.672 552.976C53.872 552.08 52.8 551.632 51.456 551.632C50.096 551.632 49.008 552.072 48.192 552.952C47.392 553.832 46.992 555.024 46.992 556.528C46.992 558.016 47.392 559.208 48.192 560.104C49.008 560.984 50.096 561.424 51.456 561.424ZM75.1952 553.576C75.1952 554.552 74.9712 555.448 74.5232 556.264C74.0752 557.064 73.3872 557.712 72.4592 558.208C71.5312 558.704 70.3792 558.952 69.0032 558.952H66.4592V565H62.3552V548.152H69.0032C70.3472 548.152 71.4832 548.384 72.4112 548.848C73.3392 549.312 74.0352 549.952 74.4992 550.768C74.9632 551.584 75.1952 552.52 75.1952 553.576ZM68.6912 555.688C69.4752 555.688 70.0592 555.504 70.4432 555.136C70.8272 554.768 71.0192 554.248 71.0192 553.576C71.0192 552.904 70.8272 552.384 70.4432 552.016C70.0592 551.648 69.4752 551.464 68.6912 551.464H66.4592V555.688H68.6912ZM89.3318 567.88L87.1718 564.976C86.5318 565.104 85.9078 565.168 85.2998 565.168C83.7158 565.168 82.2598 564.8 80.9318 564.064C79.6198 563.328 78.5718 562.304 77.7878 560.992C77.0197 559.664 76.6357 558.176 76.6357 556.528C76.6357 554.88 77.0197 553.4 77.7878 552.088C78.5718 550.776 79.6198 549.752 80.9318 549.016C82.2598 548.28 83.7158 547.912 85.2998 547.912C86.8838 547.912 88.3318 548.28 89.6438 549.016C90.9718 549.752 92.0118 550.776 92.7638 552.088C93.5318 553.4 93.9158 554.88 93.9158 556.528C93.9158 557.968 93.6198 559.288 93.0278 560.488C92.4518 561.672 91.6438 562.656 90.6038 563.44L94.2998 567.88H89.3318ZM80.8358 556.528C80.8358 558.016 81.2358 559.208 82.0358 560.104C82.8518 560.984 83.9398 561.424 85.2998 561.424C86.6438 561.424 87.7158 560.976 88.5157 560.08C89.3318 559.184 89.7398 558 89.7398 556.528C89.7398 555.04 89.3318 553.856 88.5157 552.976C87.7158 552.08 86.6438 551.632 85.2998 551.632C83.9398 551.632 82.8518 552.072 82.0358 552.952C81.2358 553.832 80.8358 555.024 80.8358 556.528ZM104.838 565L101.334 558.64H100.35V565H96.2458V548.152H103.134C104.462 548.152 105.59 548.384 106.518 548.848C107.462 549.312 108.166 549.952 108.63 550.768C109.094 551.568 109.326 552.464 109.326 553.456C109.326 554.576 109.006 555.576 108.366 556.456C107.742 557.336 106.814 557.96 105.582 558.328L109.47 565H104.838ZM100.35 555.736H102.894C103.646 555.736 104.206 555.552 104.574 555.184C104.958 554.816 105.15 554.296 105.15 553.624C105.15 552.984 104.958 552.48 104.574 552.112C104.206 551.744 103.646 551.56 102.894 551.56H100.35V555.736ZM117.998 565.168C116.766 565.168 115.662 564.968 114.686 564.568C113.71 564.168 112.926 563.576 112.334 562.792C111.758 562.008 111.454 561.064 111.422 559.96H115.79C115.854 560.584 116.07 561.064 116.438 561.4C116.806 561.72 117.286 561.88 117.878 561.88C118.486 561.88 118.966 561.744 119.318 561.472C119.67 561.184 119.846 560.792 119.846 560.296C119.846 559.88 119.702 559.536 119.414 559.264C119.142 558.992 118.798 558.768 118.382 558.592C117.982 558.416 117.406 558.216 116.654 557.992C115.566 557.656 114.678 557.32 113.99 556.984C113.302 556.648 112.71 556.152 112.214 555.496C111.718 554.84 111.47 553.984 111.47 552.928C111.47 551.36 112.038 550.136 113.174 549.256C114.31 548.36 115.79 547.912 117.614 547.912C119.47 547.912 120.966 548.36 122.102 549.256C123.238 550.136 123.846 551.368 123.926 552.952H119.486C119.454 552.408 119.254 551.984 118.886 551.68C118.518 551.36 118.046 551.2 117.47 551.2C116.974 551.2 116.574 551.336 116.27 551.608C115.966 551.864 115.814 552.24 115.814 552.736C115.814 553.28 116.07 553.704 116.582 554.008C117.094 554.312 117.894 554.64 118.982 554.992C120.07 555.36 120.95 555.712 121.622 556.048C122.31 556.384 122.902 556.872 123.398 557.512C123.894 558.152 124.142 558.976 124.142 559.984C124.142 560.944 123.894 561.816 123.398 562.6C122.918 563.384 122.214 564.008 121.286 564.472C120.358 564.936 119.262 565.168 117.998 565.168ZM138.788 548.152V551.44H134.324V565H130.22V551.44H125.756V548.152H138.788ZM144.879 548.152V558.232C144.879 559.24 145.127 560.016 145.623 560.56C146.119 561.104 146.847 561.376 147.807 561.376C148.767 561.376 149.503 561.104 150.015 560.56C150.527 560.016 150.783 559.24 150.783 558.232V548.152H154.887V558.208C154.887 559.712 154.567 560.984 153.927 562.024C153.287 563.064 152.423 563.848 151.335 564.376C150.263 564.904 149.063 565.168 147.735 565.168C146.407 565.168 145.215 564.912 144.159 564.4C143.119 563.872 142.295 563.088 141.687 562.048C141.079 560.992 140.775 559.712 140.775 558.208V548.152H144.879ZM173.585 548.152L167.609 565H162.473L156.497 548.152H160.865L165.041 560.872L169.241 548.152H173.585ZM185.621 565L182.189 559.84L179.165 565H174.509L179.909 556.432L174.389 548.152H179.165L182.549 553.24L185.525 548.152H190.181L184.829 556.648L190.397 565H185.621ZM206.905 548.152L201.073 559.432V565H196.969V559.432L191.137 548.152H195.793L199.057 555.208L202.297 548.152H206.905ZM231.742 548.152L227.35 565H222.382L219.694 553.912L216.91 565H211.942L207.67 548.152H212.062L214.486 560.416L217.486 548.152H221.998L224.878 560.416L227.326 548.152H231.742ZM238.169 561.64H245.417V565H233.513V561.88L240.713 551.512H233.513V548.152H245.417V551.272L238.169 561.64Z" fill="#1F2226"/>
<path d="M43.032 611.376C43.032 610.032 43.304 608.856 43.848 607.848C44.392 606.824 45.136 606.032 46.08 605.472C47.04 604.912 48.104 604.632 49.272 604.632C50.424 604.632 51.424 604.88 52.272 605.376C53.12 605.872 53.752 606.496 54.168 607.248V604.848H56.376V618H54.168V615.552C53.736 616.32 53.088 616.96 52.224 617.472C51.376 617.968 50.384 618.216 49.248 618.216C48.08 618.216 47.024 617.928 46.08 617.352C45.136 616.776 44.392 615.968 43.848 614.928C43.304 613.888 43.032 612.704 43.032 611.376ZM54.168 611.4C54.168 610.408 53.968 609.544 53.568 608.808C53.168 608.072 52.624 607.512 51.936 607.128C51.264 606.728 50.52 606.528 49.704 606.528C48.888 606.528 48.144 606.72 47.472 607.104C46.8 607.488 46.264 608.048 45.864 608.784C45.464 609.52 45.264 610.384 45.264 611.376C45.264 612.384 45.464 613.264 45.864 614.016C46.264 614.752 46.8 615.32 47.472 615.72C48.144 616.104 48.888 616.296 49.704 616.296C50.52 616.296 51.264 616.104 51.936 615.72C52.624 615.32 53.168 614.752 53.568 614.016C53.968 613.264 54.168 612.392 54.168 611.4ZM62.2508 607.296C62.6988 606.512 63.3548 605.872 64.2188 605.376C65.0828 604.88 66.0668 604.632 67.1708 604.632C68.3548 604.632 69.4188 604.912 70.3628 605.472C71.3068 606.032 72.0508 606.824 72.5948 607.848C73.1388 608.856 73.4108 610.032 73.4108 611.376C73.4108 612.704 73.1388 613.888 72.5948 614.928C72.0508 615.968 71.2987 616.776 70.3387 617.352C69.3948 617.928 68.3388 618.216 67.1708 618.216C66.0348 618.216 65.0348 617.968 64.1708 617.472C63.3228 616.976 62.6828 616.344 62.2508 615.576V618H60.0668V600.24H62.2508V607.296ZM71.1788 611.376C71.1788 610.384 70.9788 609.52 70.5788 608.784C70.1788 608.048 69.6348 607.488 68.9468 607.104C68.2748 606.72 67.5308 606.528 66.7148 606.528C65.9148 606.528 65.1708 606.728 64.4828 607.128C63.8108 607.512 63.2668 608.08 62.8508 608.832C62.4508 609.568 62.2508 610.424 62.2508 611.4C62.2508 612.392 62.4508 613.264 62.8508 614.016C63.2668 614.752 63.8108 615.32 64.4828 615.72C65.1708 616.104 65.9148 616.296 66.7148 616.296C67.5308 616.296 68.2748 616.104 68.9468 615.72C69.6348 615.32 70.1788 614.752 70.5788 614.016C70.9788 613.264 71.1788 612.384 71.1788 611.376ZM75.4695 611.4C75.4695 610.04 75.7415 608.856 76.2855 607.848C76.8295 606.824 77.5815 606.032 78.5415 605.472C79.5175 604.912 80.6295 604.632 81.8775 604.632C83.4935 604.632 84.8215 605.024 85.8615 605.808C86.9175 606.592 87.6135 607.68 87.9495 609.072H85.5975C85.3735 608.272 84.9335 607.64 84.2775 607.176C83.6375 606.712 82.8375 606.48 81.8775 606.48C80.6295 606.48 79.6215 606.912 78.8535 607.776C78.0855 608.624 77.7015 609.832 77.7015 611.4C77.7015 612.984 78.0855 614.208 78.8535 615.072C79.6215 615.936 80.6295 616.368 81.8775 616.368C82.8375 616.368 83.6375 616.144 84.2775 615.696C84.9175 615.248 85.3575 614.608 85.5975 613.776H87.9495C87.5975 615.12 86.8935 616.2 85.8375 617.016C84.7815 617.816 83.4615 618.216 81.8775 618.216C80.6295 618.216 79.5175 617.936 78.5415 617.376C77.5815 616.816 76.8295 616.024 76.2855 615C75.7415 613.976 75.4695 612.776 75.4695 611.4ZM90.0476 611.376C90.0476 610.032 90.3196 608.856 90.8636 607.848C91.4076 606.824 92.1516 606.032 93.0956 605.472C94.0556 604.912 95.1276 604.632 96.3116 604.632C97.3356 604.632 98.2876 604.872 99.1676 605.352C100.048 605.816 100.72 606.432 101.184 607.2V600.24H103.392V618H101.184V615.528C100.752 616.312 100.112 616.96 99.2636 617.472C98.4156 617.968 97.4236 618.216 96.2876 618.216C95.1196 618.216 94.0556 617.928 93.0956 617.352C92.1516 616.776 91.4076 615.968 90.8636 614.928C90.3196 613.888 90.0476 612.704 90.0476 611.376ZM101.184 611.4C101.184 610.408 100.984 609.544 100.584 608.808C100.184 608.072 99.6396 607.512 98.9516 607.128C98.2796 606.728 97.5356 606.528 96.7196 606.528C95.9036 606.528 95.1596 606.72 94.4876 607.104C93.8156 607.488 93.2796 608.048 92.8796 608.784C92.4796 609.52 92.2796 610.384 92.2796 611.376C92.2796 612.384 92.4796 613.264 92.8796 614.016C93.2796 614.752 93.8156 615.32 94.4876 615.72C95.1596 616.104 95.9036 616.296 96.7196 616.296C97.5356 616.296 98.2796 616.104 98.9516 615.72C99.6396 615.32 100.184 614.752 100.584 614.016C100.984 613.264 101.184 612.392 101.184 611.4ZM119.082 610.92C119.082 611.336 119.058 611.776 119.01 612.24H108.498C108.578 613.536 109.018 614.552 109.818 615.288C110.634 616.008 111.618 616.368 112.77 616.368C113.714 616.368 114.498 616.152 115.122 615.72C115.762 615.272 116.21 614.68 116.466 613.944H118.818C118.466 615.208 117.762 616.24 116.706 617.04C115.65 617.824 114.338 618.216 112.77 618.216C111.522 618.216 110.402 617.936 109.41 617.376C108.434 616.816 107.666 616.024 107.106 615C106.546 613.96 106.266 612.76 106.266 611.4C106.266 610.04 106.538 608.848 107.082 607.824C107.626 606.8 108.386 606.016 109.362 605.472C110.354 604.912 111.49 604.632 112.77 604.632C114.018 604.632 115.122 604.904 116.082 605.448C117.042 605.992 117.778 606.744 118.29 607.704C118.818 608.648 119.082 609.72 119.082 610.92ZM116.826 610.464C116.826 609.632 116.642 608.92 116.274 608.328C115.906 607.72 115.402 607.264 114.762 606.96C114.138 606.64 113.442 606.48 112.674 606.48C111.57 606.48 110.626 606.832 109.842 607.536C109.074 608.24 108.634 609.216 108.522 610.464H116.826ZM127.317 606.648H124.557V618H122.373V606.648H120.669V604.848H122.373V603.912C122.373 602.44 122.749 601.368 123.501 600.696C124.269 600.008 125.493 599.664 127.173 599.664V601.488C126.213 601.488 125.533 601.68 125.133 602.064C124.749 602.432 124.557 603.048 124.557 603.912V604.848H127.317V606.648ZM135.288 604.632C136.424 604.632 137.416 604.88 138.264 605.376C139.128 605.872 139.768 606.496 140.184 607.248V604.848H142.392V618.288C142.392 619.488 142.136 620.552 141.624 621.48C141.112 622.424 140.376 623.16 139.416 623.688C138.472 624.216 137.368 624.48 136.104 624.48C134.376 624.48 132.936 624.072 131.784 623.256C130.632 622.44 129.952 621.328 129.744 619.92H131.904C132.144 620.72 132.64 621.36 133.392 621.84C134.144 622.336 135.048 622.584 136.104 622.584C137.304 622.584 138.28 622.208 139.032 621.456C139.8 620.704 140.184 619.648 140.184 618.288V615.528C139.752 616.296 139.112 616.936 138.264 617.448C137.416 617.96 136.424 618.216 135.288 618.216C134.12 618.216 133.056 617.928 132.096 617.352C131.152 616.776 130.408 615.968 129.864 614.928C129.32 613.888 129.048 612.704 129.048 611.376C129.048 610.032 129.32 608.856 129.864 607.848C130.408 606.824 131.152 606.032 132.096 605.472C133.056 604.912 134.12 604.632 135.288 604.632ZM140.184 611.4C140.184 610.408 139.984 609.544 139.584 608.808C139.184 608.072 138.64 607.512 137.952 607.128C137.28 606.728 136.536 606.528 135.72 606.528C134.904 606.528 134.16 606.72 133.488 607.104C132.816 607.488 132.28 608.048 131.88 608.784C131.48 609.52 131.28 610.384 131.28 611.376C131.28 612.384 131.48 613.264 131.88 614.016C132.28 614.752 132.816 615.32 133.488 615.72C134.16 616.104 134.904 616.296 135.72 616.296C136.536 616.296 137.28 616.104 137.952 615.72C138.64 615.32 139.184 614.752 139.584 614.016C139.984 613.264 140.184 612.392 140.184 611.4ZM152.61 604.608C153.602 604.608 154.498 604.824 155.298 605.256C156.098 605.672 156.722 606.304 157.17 607.152C157.634 608 157.866 609.032 157.866 610.248V618H155.706V610.56C155.706 609.248 155.378 608.248 154.722 607.56C154.066 606.856 153.17 606.504 152.034 606.504C150.882 606.504 149.962 606.864 149.274 607.584C148.602 608.304 148.266 609.352 148.266 610.728V618H146.082V600.24H148.266V606.72C148.698 606.048 149.29 605.528 150.042 605.16C150.81 604.792 151.666 604.608 152.61 604.608ZM162.562 602.712C162.146 602.712 161.794 602.568 161.506 602.28C161.218 601.992 161.074 601.64 161.074 601.224C161.074 600.808 161.218 600.456 161.506 600.168C161.794 599.88 162.146 599.736 162.562 599.736C162.962 599.736 163.298 599.88 163.57 600.168C163.858 600.456 164.002 600.808 164.002 601.224C164.002 601.64 163.858 601.992 163.57 602.28C163.298 602.568 162.962 602.712 162.562 602.712ZM163.618 604.848V618H161.434V604.848H163.618ZM168.516 602.712C168.1 602.712 167.748 602.568 167.46 602.28C167.188 601.992 167.052 601.64 167.052 601.224C167.052 600.808 167.188 600.456 167.46 600.168C167.748 599.88 168.1 599.736 168.516 599.736C168.932 599.736 169.276 599.88 169.548 600.168C169.836 600.456 169.98 600.808 169.98 601.224C169.98 601.64 169.836 601.992 169.548 602.28C169.276 602.568 168.932 602.712 168.516 602.712ZM169.596 620.856C169.596 622.024 169.3 622.88 168.708 623.424C168.116 623.968 167.252 624.24 166.116 624.24H164.844V622.392H165.756C166.364 622.392 166.788 622.272 167.028 622.032C167.284 621.792 167.412 621.384 167.412 620.808V604.848H169.596V620.856ZM175.477 600.24V618H173.293V600.24H175.477ZM195.016 604.608C196.04 604.608 196.952 604.824 197.752 605.256C198.552 605.672 199.184 606.304 199.648 607.152C200.112 608 200.344 609.032 200.344 610.248V618H198.184V610.56C198.184 609.248 197.856 608.248 197.2 607.56C196.56 606.856 195.688 606.504 194.584 606.504C193.448 606.504 192.544 606.872 191.872 607.608C191.2 608.328 190.864 609.376 190.864 610.752V618H188.704V610.56C188.704 609.248 188.376 608.248 187.72 607.56C187.08 606.856 186.208 606.504 185.104 606.504C183.968 606.504 183.064 606.872 182.392 607.608C181.72 608.328 181.384 609.376 181.384 610.752V618H179.2V604.848H181.384V606.744C181.816 606.056 182.392 605.528 183.112 605.16C183.848 604.792 184.656 604.608 185.536 604.608C186.64 604.608 187.616 604.856 188.464 605.352C189.312 605.848 189.944 606.576 190.36 607.536C190.728 606.608 191.336 605.888 192.184 605.376C193.032 604.864 193.976 604.608 195.016 604.608ZM210.334 604.608C211.934 604.608 213.23 605.096 214.222 606.072C215.214 607.032 215.71 608.424 215.71 610.248V618H213.55V610.56C213.55 609.248 213.222 608.248 212.566 607.56C211.91 606.856 211.014 606.504 209.878 606.504C208.726 606.504 207.806 606.864 207.118 607.584C206.446 608.304 206.11 609.352 206.11 610.728V618H203.926V604.848H206.11V606.72C206.542 606.048 207.126 605.528 207.862 605.16C208.614 604.792 209.438 604.608 210.334 604.608ZM225.014 618.216C223.782 618.216 222.662 617.936 221.654 617.376C220.662 616.816 219.878 616.024 219.302 615C218.742 613.96 218.462 612.76 218.462 611.4C218.462 610.056 218.75 608.872 219.326 607.848C219.918 606.808 220.718 606.016 221.726 605.472C222.734 604.912 223.862 604.632 225.11 604.632C226.358 604.632 227.486 604.912 228.494 605.472C229.502 606.016 230.294 606.8 230.87 607.824C231.462 608.848 231.758 610.04 231.758 611.4C231.758 612.76 231.454 613.96 230.846 615C230.254 616.024 229.446 616.816 228.422 617.376C227.398 617.936 226.262 618.216 225.014 618.216ZM225.014 616.296C225.798 616.296 226.534 616.112 227.222 615.744C227.91 615.376 228.462 614.824 228.878 614.088C229.31 613.352 229.526 612.456 229.526 611.4C229.526 610.344 229.318 609.448 228.902 608.712C228.486 607.976 227.942 607.432 227.27 607.08C226.598 606.712 225.87 606.528 225.086 606.528C224.286 606.528 223.55 606.712 222.878 607.08C222.222 607.432 221.694 607.976 221.294 608.712C220.894 609.448 220.694 610.344 220.694 611.4C220.694 612.472 220.886 613.376 221.27 614.112C221.67 614.848 222.198 615.4 222.854 615.768C223.51 616.12 224.23 616.296 225.014 616.296ZM236.813 607.272C237.245 606.52 237.885 605.896 238.733 605.4C239.597 604.888 240.597 604.632 241.733 604.632C242.901 604.632 243.957 604.912 244.901 605.472C245.861 606.032 246.613 606.824 247.157 607.848C247.701 608.856 247.973 610.032 247.973 611.376C247.973 612.704 247.701 613.888 247.157 614.928C246.613 615.968 245.861 616.776 244.901 617.352C243.957 617.928 242.901 618.216 241.733 618.216C240.613 618.216 239.621 617.968 238.757 617.472C237.909 616.96 237.261 616.328 236.813 615.576V624.24H234.629V604.848H236.813V607.272ZM245.741 611.376C245.741 610.384 245.541 609.52 245.141 608.784C244.741 608.048 244.197 607.488 243.509 607.104C242.837 606.72 242.093 606.528 241.277 606.528C240.477 606.528 239.733 606.728 239.045 607.128C238.373 607.512 237.829 608.08 237.413 608.832C237.013 609.568 236.813 610.424 236.813 611.4C236.813 612.392 237.013 613.264 237.413 614.016C237.829 614.752 238.373 615.32 239.045 615.72C239.733 616.104 240.477 616.296 241.277 616.296C242.093 616.296 242.837 616.104 243.509 615.72C244.197 615.32 244.741 614.752 245.141 614.016C245.541 613.264 245.741 612.384 245.741 611.376ZM43.032 640.376C43.032 639.032 43.304 637.856 43.848 636.848C44.392 635.824 45.136 635.032 46.08 634.472C47.04 633.912 48.112 633.632 49.296 633.632C50.432 633.632 51.424 633.888 52.272 634.4C53.136 634.896 53.768 635.512 54.168 636.248V633.848H56.376V653.24H54.168V644.576C53.752 645.312 53.112 645.936 52.248 646.448C51.384 646.96 50.376 647.216 49.224 647.216C48.072 647.216 47.024 646.928 46.08 646.352C45.136 645.776 44.392 644.968 43.848 643.928C43.304 642.888 43.032 641.704 43.032 640.376ZM54.168 640.4C54.168 639.408 53.968 638.544 53.568 637.808C53.168 637.072 52.624 636.512 51.936 636.128C51.264 635.728 50.52 635.528 49.704 635.528C48.888 635.528 48.144 635.72 47.472 636.104C46.8 636.488 46.264 637.048 45.864 637.784C45.464 638.52 45.264 639.384 45.264 640.376C45.264 641.384 45.464 642.264 45.864 643.016C46.264 643.752 46.8 644.32 47.472 644.72C48.144 645.104 48.888 645.296 49.704 645.296C50.52 645.296 51.264 645.104 51.936 644.72C52.624 644.32 53.168 643.752 53.568 643.016C53.968 642.264 54.168 641.392 54.168 640.4ZM62.2508 635.984C62.6348 635.232 63.1788 634.648 63.8828 634.232C64.6028 633.816 65.4748 633.608 66.4988 633.608V635.864H65.9228C63.4748 635.864 62.2508 637.192 62.2508 639.848V647H60.0668V633.848H62.2508V635.984ZM73.6759 647.216C72.6679 647.216 71.7639 647.048 70.9639 646.712C70.1639 646.36 69.5319 645.88 69.0679 645.272C68.6039 644.648 68.3479 643.936 68.2999 643.136H70.5559C70.6199 643.792 70.9239 644.328 71.4679 644.744C72.0279 645.16 72.7559 645.368 73.6519 645.368C74.4839 645.368 75.1399 645.184 75.6199 644.816C76.0999 644.448 76.3399 643.984 76.3399 643.424C76.3399 642.848 76.0839 642.424 75.5719 642.152C75.0599 641.864 74.2679 641.584 73.1959 641.312C72.2199 641.056 71.4199 640.8 70.7959 640.544C70.1879 640.272 69.6599 639.88 69.2119 639.368C68.7799 638.84 68.5639 638.152 68.5639 637.304C68.5639 636.632 68.7639 636.016 69.1639 635.456C69.5639 634.896 70.1319 634.456 70.8679 634.136C71.6039 633.8 72.4439 633.632 73.3879 633.632C74.8439 633.632 76.0199 634 76.9159 634.736C77.8119 635.472 78.2919 636.48 78.3559 637.76H76.1719C76.1239 637.072 75.8439 636.52 75.3319 636.104C74.8359 635.688 74.1639 635.48 73.3159 635.48C72.5319 635.48 71.9079 635.648 71.4439 635.984C70.9799 636.32 70.7479 636.76 70.7479 637.304C70.7479 637.736 70.8839 638.096 71.1559 638.384C71.4439 638.656 71.7959 638.88 72.2119 639.056C72.6439 639.216 73.2359 639.4 73.9879 639.608C74.9319 639.864 75.6999 640.12 76.2919 640.376C76.8839 640.616 77.3879 640.984 77.8039 641.48C78.2359 641.976 78.4599 642.624 78.4759 643.424C78.4759 644.144 78.2759 644.792 77.8759 645.368C77.4759 645.944 76.9079 646.4 76.1719 646.736C75.4519 647.056 74.6199 647.216 73.6759 647.216ZM84.2229 635.648V643.4C84.2229 644.04 84.3589 644.496 84.6309 644.768C84.9029 645.024 85.3749 645.152 86.0469 645.152H87.6549V647H85.6869C84.4709 647 83.5589 646.72 82.9509 646.16C82.3429 645.6 82.0389 644.68 82.0389 643.4V635.648H80.3349V633.848H82.0389V630.536H84.2229V633.848H87.6549V635.648H84.2229ZM101.965 633.848V647H99.7811V645.056C99.3651 645.728 98.7811 646.256 98.0291 646.64C97.2931 647.008 96.4771 647.192 95.5811 647.192C94.5571 647.192 93.6371 646.984 92.8211 646.568C92.0051 646.136 91.3571 645.496 90.8771 644.648C90.4131 643.8 90.1811 642.768 90.1811 641.552V633.848H92.3411V641.264C92.3411 642.56 92.6691 643.56 93.3251 644.264C93.9811 644.952 94.8771 645.296 96.0131 645.296C97.1811 645.296 98.1011 644.936 98.7731 644.216C99.4451 643.496 99.7811 642.448 99.7811 641.072V633.848H101.965ZM110.549 644.984L114.629 633.848H116.957L111.797 647H109.253L104.093 633.848H106.445L110.549 644.984ZM125.97 647L122.85 642.104L119.85 647H117.57L121.818 640.472L117.57 633.848H120.042L123.162 638.72L126.138 633.848H128.418L124.194 640.352L128.442 647H125.97ZM141.918 633.848L133.998 653.192H131.742L134.334 646.856L129.03 633.848H131.454L135.582 644.504L139.662 633.848H141.918ZM161.634 633.848L157.53 647H155.274L152.106 636.56L148.938 647H146.682L142.554 633.848H144.786L147.81 644.888L151.074 633.848H153.306L156.498 644.912L159.474 633.848H161.634ZM165.433 645.2H171.889V647H162.937V645.2L169.321 635.624H162.985V633.848H171.841V635.624L165.433 645.2Z" fill="#1F2226"/>
<path d="M394.074 58.008C394.074 59.716 393.682 61.284 392.898 62.712C392.114 64.112 390.91 65.246 389.286 66.114C387.662 66.982 385.646 67.416 383.238 67.416H378.786V78H371.604V48.516H383.238C385.59 48.516 387.578 48.922 389.202 49.734C390.826 50.546 392.044 51.666 392.856 53.094C393.668 54.522 394.074 56.16 394.074 58.008ZM382.692 61.704C384.064 61.704 385.086 61.382 385.758 60.738C386.43 60.094 386.766 59.184 386.766 58.008C386.766 56.832 386.43 55.922 385.758 55.278C385.086 54.634 384.064 54.312 382.692 54.312H378.786V61.704H382.692ZM408.481 78.336C406.185 78.336 404.113 77.846 402.265 76.866C400.445 75.886 399.003 74.486 397.939 72.666C396.903 70.846 396.385 68.718 396.385 66.282C396.385 63.874 396.917 61.76 397.981 59.94C399.045 58.092 400.501 56.678 402.349 55.698C404.197 54.718 406.269 54.228 408.565 54.228C410.861 54.228 412.933 54.718 414.781 55.698C416.629 56.678 418.085 58.092 419.149 59.94C420.213 61.76 420.745 63.874 420.745 66.282C420.745 68.69 420.199 70.818 419.107 72.666C418.043 74.486 416.573 75.886 414.697 76.866C412.849 77.846 410.777 78.336 408.481 78.336ZM408.481 72.12C409.853 72.12 411.015 71.616 411.967 70.608C412.947 69.6 413.437 68.158 413.437 66.282C413.437 64.406 412.961 62.964 412.009 61.956C411.085 60.948 409.937 60.444 408.565 60.444C407.165 60.444 406.003 60.948 405.079 61.956C404.155 62.936 403.693 64.378 403.693 66.282C403.693 68.158 404.141 69.6 405.037 70.608C405.961 71.616 407.109 72.12 408.481 72.12ZM431.737 57.882C432.437 56.79 433.403 55.908 434.635 55.236C435.867 54.564 437.309 54.228 438.961 54.228C440.893 54.228 442.643 54.718 444.211 55.698C445.779 56.678 447.011 58.078 447.907 59.898C448.831 61.718 449.293 63.832 449.293 66.24C449.293 68.648 448.831 70.776 447.907 72.624C447.011 74.444 445.779 75.858 444.211 76.866C442.643 77.846 440.893 78.336 438.961 78.336C437.337 78.336 435.895 78 434.635 77.328C433.403 76.656 432.437 75.788 431.737 74.724V89.172H424.555V54.564H431.737V57.882ZM441.985 66.24C441.985 64.448 441.481 63.048 440.473 62.04C439.493 61.004 438.275 60.486 436.819 60.486C435.391 60.486 434.173 61.004 433.165 62.04C432.185 63.076 431.695 64.49 431.695 66.282C431.695 68.074 432.185 69.488 433.165 70.524C434.173 71.56 435.391 72.078 436.819 72.078C438.247 72.078 439.465 71.56 440.473 70.524C441.481 69.46 441.985 68.032 441.985 66.24ZM460.243 57.882C460.943 56.79 461.909 55.908 463.141 55.236C464.373 54.564 465.815 54.228 467.467 54.228C469.399 54.228 471.149 54.718 472.717 55.698C474.285 56.678 475.517 58.078 476.413 59.898C477.337 61.718 477.799 63.832 477.799 66.24C477.799 68.648 477.337 70.776 476.413 72.624C475.517 74.444 474.285 75.858 472.717 76.866C471.149 77.846 469.399 78.336 467.467 78.336C465.843 78.336 464.401 78 463.141 77.328C461.909 76.656 460.943 75.788 460.243 74.724V89.172H453.061V54.564H460.243V57.882ZM470.491 66.24C470.491 64.448 469.987 63.048 468.979 62.04C467.999 61.004 466.781 60.486 465.325 60.486C463.897 60.486 462.679 61.004 461.671 62.04C460.691 63.076 460.201 64.49 460.201 66.282C460.201 68.074 460.691 69.488 461.671 70.524C462.679 71.56 463.897 72.078 465.325 72.078C466.753 72.078 467.971 71.56 468.979 70.524C469.987 69.46 470.491 68.032 470.491 66.24ZM485.179 52.128C483.919 52.128 482.883 51.764 482.071 51.036C481.287 50.28 480.895 49.356 480.895 48.264C480.895 47.144 481.287 46.22 482.071 45.492C482.883 44.736 483.919 44.358 485.179 44.358C486.411 44.358 487.419 44.736 488.203 45.492C489.015 46.22 489.421 47.144 489.421 48.264C489.421 49.356 489.015 50.28 488.203 51.036C487.419 51.764 486.411 52.128 485.179 52.128ZM488.749 54.564V78H481.567V54.564H488.749ZM508.234 54.312C510.978 54.312 513.162 55.208 514.786 57C516.438 58.764 517.264 61.2 517.264 64.308V78H510.124V65.274C510.124 63.706 509.718 62.488 508.906 61.62C508.094 60.752 507.002 60.318 505.63 60.318C504.258 60.318 503.166 60.752 502.354 61.62C501.542 62.488 501.136 63.706 501.136 65.274V78H493.954V54.564H501.136V57.672C501.864 56.636 502.844 55.824 504.076 55.236C505.308 54.62 506.694 54.312 508.234 54.312ZM531.788 78.336C529.744 78.336 527.924 77.986 526.328 77.286C524.732 76.586 523.472 75.634 522.548 74.43C521.624 73.198 521.106 71.826 520.994 70.314H528.092C528.176 71.126 528.554 71.784 529.226 72.288C529.898 72.792 530.724 73.044 531.704 73.044C532.6 73.044 533.286 72.876 533.762 72.54C534.266 72.176 534.518 71.714 534.518 71.154C534.518 70.482 534.168 69.992 533.468 69.684C532.768 69.348 531.634 68.984 530.066 68.592C528.386 68.2 526.986 67.794 525.866 67.374C524.746 66.926 523.78 66.24 522.968 65.316C522.156 64.364 521.75 63.09 521.75 61.494C521.75 60.15 522.114 58.932 522.842 57.84C523.598 56.72 524.69 55.838 526.118 55.194C527.574 54.55 529.296 54.228 531.284 54.228C534.224 54.228 536.534 54.956 538.214 56.412C539.922 57.868 540.902 59.8 541.154 62.208H534.518C534.406 61.396 534.042 60.752 533.426 60.276C532.838 59.8 532.054 59.562 531.074 59.562C530.234 59.562 529.59 59.73 529.142 60.066C528.694 60.374 528.47 60.808 528.47 61.368C528.47 62.04 528.82 62.544 529.52 62.88C530.248 63.216 531.368 63.552 532.88 63.888C534.616 64.336 536.03 64.784 537.122 65.232C538.214 65.652 539.166 66.352 539.978 67.332C540.818 68.284 541.252 69.572 541.28 71.196C541.28 72.568 540.888 73.8 540.104 74.892C539.348 75.956 538.242 76.796 536.786 77.412C535.358 78.028 533.692 78.336 531.788 78.336Z" fill="#1F2226"/>
</svg>
